<svg xmlns="http://www.w3.org/2000/svg" width="464.8819" height="263.62201">
  <g fill="none" stroke="#1b1918" stroke-width=".21600001">
    <path d="M122.0273 181.9611h22.2711l.464-88.1566h-22.2712v8.3517c-9.898-8.1969-11.0475-12.4503-29.2308-12.5275-18.1834-.0773-41.2965 14.619-41.7584 46.3982-.4619 31.7791 26.0476 47.4037 41.7584 47.3261 15.7108-.0775 19.178-3.5571 28.7669-11.5995z"/>
    <path d="M97.6707 162.9379a25.0561 25.7725-.2037 0 1-25.2895-25.5353 25.0561 25.7725-.2037 1 1 25.2895 25.5353zm66.5789-104.86h21.8072v123.4192h-21.8072zm112.2837 95.5803l15.3114 11.1355c-7.2693 11.2901-17.918 19.8653-38.5105 19.9513-20.5925.0859-51.038-12.7589-51.038-46.8622 0-34.1033 28.9207-47.9449 51.038-47.7902 22.1173.1548 29.8493 6.4958 39.9024 19.4873l-16.2393 10.2076c-7.8877-3.7119-6.671-10.32-23.6631-11.1356-16.9922-.8156-26.9882 17.3993-26.911 28.7669.0772 11.3676 11.2678 25.1587 25.983 25.519 14.7152.3603 16.0849-6.1865 24.1271-9.2796zm105.3239 27.3749h22.2711l.464-88.1566h-22.2711v8.3517c-9.8981-8.1969-11.0475-12.4503-29.2309-12.5275-18.1833-.0772-41.2965 14.619-41.7584 46.3982-.4619 31.7792 26.0476 47.4037 41.7584 47.3262 15.7108-.0776 19.178-3.5571 28.7669-11.5996z"/>
    <path d="M357.9646 162.01a25.0561 25.7725-.2037 0 1-25.2895-25.5354 25.0561 25.7725-.2037 1 1 25.2895 25.5354z"/>
    <path d="M231.527 263.6219A231.527 130.8429 0 0 1 0 132.779a231.527 130.8429 0 1 1 231.527 130.8429z"/>
    <path d="M231.0635 247.5448A214.3601 114.7658 0 0 1 16.7034 132.779a214.3601 114.7658 0 1 1 214.3601 114.7658z"/>
  </g>
  <path fill="#00529e" fill-rule="evenodd" stroke="#1b1918" stroke-width=".21600001" d="M16.7034 132.7791c0-63.3728 95.9922-114.7661 214.3599-114.7661 118.368 0 214.3604 51.3933 214.3604 114.7661 0 63.3724-95.9924 114.7657-214.3604 114.7657-118.3677 0-214.3599-51.3933-214.3599-114.7657zM231.5271 1.9361C103.6797 1.9361 0 60.5285 0 132.7791 0 205.0294 103.6797 263.622 231.5271 263.622c127.847 0 231.527-58.5926 231.527-130.8429 0-72.2506-103.68-130.843-231.527-130.843z"/>
  <path fill="#00529e" fill-rule="evenodd" stroke="#1b1918" stroke-width=".21600001" d="M93.2604 89.6287c-18.1834-.0771-41.2965 14.6191-41.7583 46.3983-.462 31.7789 26.0476 47.4035 41.7583 47.3261 15.7107-.0777 19.1781-3.5572 28.7668-11.5997v10.2076h22.2713l.464-88.1566h-22.2712v8.3517c-9.898-8.197-11.0475-12.4503-29.2309-12.5274zm-20.8791 47.7739c-.1296-14.231 10.9853-25.8772 24.8201-26.0075 13.8354-.1304 25.1603 11.3045 25.2899 25.5353.1295 14.231-10.9854 25.8772-24.8207 26.0076-13.8351.1304-25.1598-11.3046-25.2893-25.5354zm91.8683-79.3247V181.497h21.8072V58.0779zm38.0466 79.8049c0 34.1034 30.4455 46.948 51.0381 46.8621 20.5923-.0859 31.2412-8.6612 38.5103-19.9511l-15.3113-11.1356c-8.0422 3.0932-9.4119 9.6398-24.1271 9.2795-14.7152-.3603-25.9058-14.1514-25.9829-25.5189-.0774-11.3675 9.9187-29.5824 26.911-28.7668 16.992.8155 15.7753 7.4236 23.663 11.1356l16.2394-10.2079c-10.0533-12.9914-17.7851-19.3322-39.9024-19.487-22.1174-.1548-51.0381 13.6868-51.0381 47.7901zm109.0358-2.7839c-.4621 31.7792 26.0475 47.4038 41.7583 47.3261 15.7107-.0773 19.178-3.5572 28.7668-11.5996v10.2078h22.2712l.4641-88.1566h-22.2713v8.3517c-9.898-8.1969-11.0474-12.4503-29.2308-12.5277-18.1834-.0771-41.2966 14.6191-41.7583 46.3983zm71.4532.9037c.1295 14.2308-10.9854 25.8769-24.8208 26.0073-13.835.1304-25.1597-11.3043-25.2893-25.5353-.1295-14.2308 10.9854-25.8772 24.8202-26.0073 13.8353-.1304 25.1603 11.3043 25.2899 25.5353z"/>
</svg>
