<?xml version="1.0" encoding="utf-8"?>
<!DOCTYPE svg PUBLIC "-//W3C//DTD SVG 1.1//EN" "http://www.w3.org/Graphics/SVG/1.1/DTD/svg11.dtd">
<svg xmlns="http://www.w3.org/2000/svg" width="1558.1167" height="240.77029">
  <path fill="#ec610c" fill-rule="evenodd" d="M432.43678 46.272l5.3487 113.8983h-41.82l1.2239-20.4848h-14.6671l-5.6607 20.4848h-42.2829l38.788-113.8983zm-33.2128 73.2426c-.0477-12.8969.4252-28.8416 1.3392-47.7886-7.5879 21.7803-12.6903 37.7032-15.3149 47.7886zm145.2751 40.6557h-40.9576l14.4307-91.1822h-11.9193l-10.2126 64.5261c-1.3412 8.478-3.795 14.5778-7.3932 18.2754-3.6022 3.7214-8.5377 6.0282-14.844 6.964-6.2726.9358-16.1514 1.4167-29.5947 1.4167h-6.4216l3.1055-19.6205c5.001 0 8.48-.455 10.5086-1.3432 1.9949-.8901 3.4393-3.94 4.2639-9.1496l13.2724-83.8585h93.8008zm115.6705-26.6561c-1.3411 8.478-3.8307 14.5778-7.4627 18.2754-3.5983 3.7214-8.5993 6.0282-14.9076 6.964-6.3402.9358-16.2488 1.4167-29.7596 1.4167h-47.2481l18.0389-113.9718h40.9259l-6.1812 39.0483h6.3222c12.6168 0 22.0684.5285 28.3549 1.6074 6.2865 1.0809 10.7411 3.4592 13.3697 7.1567 2.6307 3.6738 3.3022 9.4616 2.0565 17.3376zm-40.3755-3.4572l2.6028-16.4494c.761-4.8043.5584-7.7091-.604-8.7423-1.1603-1.0332-4.844-1.6094-11.0451-1.7524l-5.9249 37.4369c5.1997 0 8.7841-.4789 10.7551-1.4405 2.0067-.9597 3.4134-3.9857 4.2161-9.0523zm150.902-83.785l-3.6062 22.7876h-24.24l-14.4208 91.1107h-40.8226l14.4189-91.1107h-24.1705l3.6082-22.7876zm9.3364 0h68.1104l-3.6082 22.7876h-27.2501l-3.4155 21.5895h25.4937l-3.4333 21.6849h-25.4937l-3.9639 25.0467h29.9643l-3.6062 22.7896h-70.8245zm82.5431 0h41.1246c11.1246 0 19.6026.6239 25.3606 1.8955 5.7918 1.2736 10.0059 3.0976 12.6108 5.4759 2.6306 2.4021 4.2261 5.307 4.7466 8.6926.5206 3.4115.2206 8.6688-.908 15.8017l-1.5716 9.9186c-1.1504 7.2759-3.0181 12.5829-5.5951 15.897-2.6147 3.338-6.8249 5.8832-12.6386 7.6853-5.8136 1.7763-13.169 2.6644-22.0782 2.6644h-10.9577l-7.2601 45.8673h-40.8603zm37.7787 19.4755l-4.5877 28.9847c1.1504.0477 2.1378.0715 2.9684.0715 3.7731 0 6.4633-.6716 8.1283-1.9928 1.671-1.3452 2.8413-4.1308 3.5049-8.333l1.4842-9.3662c.6139-3.8903.1867-6.4355-1.3173-7.5879-1.5021-1.1763-4.8838-1.7763-10.1808-1.7763zm155.8533-19.4755l-18.0271 113.8983h-40.8245l7.572-47.8363h-12.2193l-7.5701 47.8363h-40.8603l18.0271-113.8983h40.8603l-6.4475 40.7272h12.2194l6.4454-40.7272zm86.9163 0l5.3487 113.8983h-41.818l1.2219-20.4848h-14.6672l-5.6606 20.4848h-42.2809l38.786-113.8983zm-33.2128 73.2426c-.0457-12.8969.4252-28.8416 1.3391-47.7886-7.5859 21.7803-12.6902 37.7032-15.3129 47.7886zm145.8235-73.2426l-3.6082 22.7876h-24.238l-14.4209 91.1107h-40.8245l14.4208-91.1107h-24.1704l3.6062-22.7876zm82.4954 113.8983h-34.1366l8.2058-51.8458-29.4615 51.8458h-35.7958l18.039-113.9718h34.1386l-8.1382 51.4147 31.051-51.4147h34.1367zm34.3155-113.8983h40.761c12.8472 0 22.4995.7193 28.8913 2.1836 6.3938 1.4425 11.2895 4.395 14.6632 8.8139 3.3678 4.4426 4.2619 11.5756 2.7022 21.4206-1.0551 6.6759-3.2148 11.3113-6.511 13.928-3.2963 2.6426-9.2788 4.6593-17.9754 6.0521 9.1913 1.5617 15.1719 4.1307 17.9833 7.7091 2.7757 3.6022 3.5923 9.0999 2.422 16.4971l-1.6729 10.5663c-1.216 7.6852-3.3082 13.3757-6.3462 17.0971-3.0041 3.6996-7.2779 6.221-12.7915 7.5899-5.5116 1.369-16.4812 2.0406-32.9048 2.0406h-47.2482zm37.7787 19.4755l-4.0115 25.3348c1.7286-.0497 3.0916-.0735 4.083-.0735 4.0076 0 6.67-.7193 7.9873-2.1359 1.3213-1.4425 2.5313-5.5236 3.6002-12.271.5663-3.5784.4948-6.0759-.1728-7.4926-.6994-1.4425-1.7127-2.3544-3.1135-2.7141-1.3968-.3854-4.2082-.6-8.3727-.6477zm-6.815 43.0558l-5.0447 31.8677c5.748-.1212 9.5271-.7928 11.3034-1.969 1.7742-1.1524 3.028-4.0592 3.7532-8.645l1.6809-10.6139c.7709-4.8758.5106-7.8303-.7511-8.8615-1.2616-1.0332-4.9056-1.6332-10.9417-1.7783zm149.2588-62.5313l5.3487 113.8983h-41.82l1.2239-20.4848h-14.6672l-5.6606 20.4848h-42.2829l38.788-113.8983zm-33.2128 73.2426c-.048-12.8969.4252-28.8416 1.3392-47.7886-7.586 21.7803-12.6903 37.7032-15.315 47.7886zm-1175.4792 75.9626h4.8202l-6.1653 29.0125 25.901-29.0125h4.7388l-8.0906 37.7727h-4.7924l6.1812-28.8019-25.8116 28.8019h-4.8977zm70.3159 20.3775l1.3094-4.5301c.898.0358 1.5577.0537 1.9868.0537 3.6937 0 6.3601-.6418 8.0032-1.9273 1.6372-1.2736 2.4538-2.8572 2.4538-4.7487 0-1.5835-.5802-2.9286-1.7504-4.0453-1.1683-1.1166-2.6108-1.6709-4.3255-1.6709-1.9789 0-3.8446.5901-5.5931 1.7862-1.7504 1.1961-3.0876 3.2525-4.0194 6.1732l-4.8719-1.055c1.1167-3.5804 2.9545-6.3143 5.5037-8.2059 2.5512-1.8994 5.5335-2.8492 8.9529-2.8492 3.1929 0 5.8573.9061 7.9773 2.7181 2.1201 1.8101 3.183 4.1764 3.183 7.0972 0 2.3922-.755 4.3791-2.269 5.9785-1.512 1.5935-3.3936 2.6128-5.6447 3.036 1.8557.7729 3.2446 1.8637 4.1764 3.2704.9239 1.4166 1.3908 3.1393 1.3908 5.1798 0 3.4035-1.3193 6.2189-3.9678 8.4442-2.6465 2.2234-6.0421 3.3321-10.1748 3.3321-7.4568 0-11.9174-3.7731-13.3757-11.3352l4.3532-1.3114c.6319 5.5931 3.6221 8.3986 8.9708 8.3986 2.9982 0 5.2931-.7908 6.8587-2.3743 1.5737-1.5736 2.3664-3.3499 2.3664-5.303 0-1.4604-.3874-2.6903-1.1623-3.6857-.7729-.9934-1.7584-1.661-2.9366-1.9869-1.1862-.3258-2.8413-.4828-4.9513-.4828-.9061 0-1.7247.0159-2.4439.0437zm61.9133-20.3775h24.8897l-7.1845 33.4989h3.4552l-2.6029 11.7942h-4.4327l1.6968-7.5204h-26.8766l-1.6968 7.5204h-4.3791l2.6028-11.7942h3.0956c4.4248-4.8102 8.2416-15.9805 11.4325-33.4989zm4.2043 4.2996c-.5007 2.9208-1.7505 7.7231-3.7453 14.4069-2.0068 6.6839-4.1605 11.6074-6.4554 14.7924h18.7046l6.209-29.1993zm50.8424 33.4731l7.9058-37.7727h27.2641l-.9061 4.2996h-22.2054l-2.4816 11.7505h21.6451l-.8981 4.3095h-21.6431l-2.7359 13.1393h23.781l-.8961 4.2738zm75.4937-37.7727h24.7844l-8.1184 37.7727h-5.0745l7.2382-33.4731h-14.7665l-4.4765 20.7213c-1.1703 5.4261-2.418 8.9787-3.7552 10.6497-1.3272 1.6809-3.4651 2.5154-6.4017 2.5154-.7392 0-1.8478-.1411-3.3241-.4133l.904-4.2996c1.4425.2722 2.3148.4132 2.6048.4132 1.0292 0 1.9253-.5463 2.6903-1.6371.7649-1.0909 1.5219-3.3857 2.2789-6.8687zm62.5054 0h4.8202l-6.1653 29.0125 25.901-29.0125h4.7388l-8.0906 37.7727h-4.7924l6.1812-28.8019-25.8116 28.8019h-4.8977zm85.2314 20.9219h-2.9902c-2.1637 0-3.6161.0974-4.3632.3-.7471.1928-1.5379.6319-2.3743 1.3273-.8345.6855-2.1101 2.0147-3.8248 3.9936l-9.6841 11.2299h-6.6739l9.533-11.2299c2.7261-3.2028 5.0825-5.1361 7.0614-5.8235-2.9723-.4829-5.2056-1.4862-6.6918-3.0062-1.4862-1.522-2.2253-3.5625-2.2253-6.1216 0-2.4359.6159-4.5818 1.8557-6.4296 1.2299-1.8378 2.8751-3.1651 4.9156-3.9658 2.0485-.8007 5.3825-1.1961 10-1.1961h14.9414l-8.188 37.7727h-4.9235zm3.5784-16.6223h-6.9302c-4.1506 0-7.0257.1947-8.6191.5723-1.5816.3775-2.8671 1.1523-3.8506 2.3127-.9776 1.1703-1.4703 2.577-1.4703 4.2301 0 1.1881.3517 2.2432 1.0471 3.1671.6954.9318 1.6093 1.5378 2.7439 1.8279 1.1345.2921 3.324.4411 6.5706.4411h7.8084zm72.875-4.2996h4.8202l-6.1653 29.0125 25.901-29.0125h4.7388l-8.0906 37.7727h-4.7924l6.1812-28.8019-25.8116 28.8019h-4.8977zm70.3159 20.3775l1.3093-4.5301c.8981.0358 1.5578.0537 1.9869.0537 3.6937 0 6.3601-.6418 8.0032-1.9273 1.6372-1.2736 2.4538-2.8572 2.4538-4.7487 0-1.5835-.5802-2.9286-1.7504-4.0453-1.1683-1.1166-2.6108-1.6709-4.3255-1.6709-1.9789 0-3.8446.5901-5.5931 1.7862-1.7504 1.1961-3.0876 3.2525-4.0194 6.1732l-4.8719-1.055c1.1166-3.5804 2.9545-6.3143 5.5037-8.2059 2.5512-1.8994 5.5335-2.8492 8.9529-2.8492 3.1929 0 5.8573.9061 7.9773 2.7181 2.12 1.8101 3.183 4.1764 3.183 7.0972 0 2.3922-.755 4.3791-2.269 5.9785-1.512 1.5935-3.3936 2.6128-5.6447 3.036 1.8557.7729 3.2446 1.8637 4.1764 3.2704.9239 1.4166 1.3908 3.1393 1.3908 5.1798 0 3.4035-1.3193 6.2189-3.9678 8.4442-2.6465 2.2234-6.0421 3.3321-10.1748 3.3321-7.4568 0-11.9174-3.7731-13.3757-11.3352l4.3532-1.3114c.6319 5.5931 3.6221 8.3986 8.9708 8.3986 2.9982 0 5.2931-.7908 6.8587-2.3743 1.5737-1.5736 2.3664-3.3499 2.3664-5.303 0-1.4604-.3874-2.6903-1.1623-3.6857-.7729-.9934-1.7584-1.661-2.9366-1.9869-1.1862-.3258-2.8413-.4828-4.9513-.4828-.9061 0-1.7247.0159-2.4439.0437zm79.6721 17.3952l7.9058-37.7727h29.6563l-7.88 37.7727h-5.0487l7.1329-33.4731h-19.5768l-7.1428 33.4731zm78.6687-37.7727h24.7845l-8.1185 37.7727h-5.0745l7.2383-33.4731h-14.7666l-4.4764 20.7213c-1.1703 5.4261-2.4181 8.9787-3.7552 10.6497-1.3273 1.6809-3.4652 2.5154-6.4018 2.5154-.7391 0-1.8478-.1411-3.324-.4133l.904-4.2996c1.4425.2722 2.3147.4132 2.6048.4132 1.0292 0 1.9253-.5463 2.6902-1.6371.765-1.0909 1.522-3.3857 2.279-6.8687zm51.0908 37.7727l21.4067-37.7727h5.9527l6.2349 37.7727h-4.8897l-1.828-10.8703h-15.2851l-6.052 10.8703zm13.7552-14.7665h12.4956l-1.4684-9.4795c-.5622-3.7651-.9139-6.8965-1.055-9.4019-.8623 2.1637-2.1101 4.7308-3.7632 7.7031zm83.636 1.4683l5.0049.6954c-1.5835 4.3632-3.8863 7.6594-6.9123 9.8947-3.0161 2.2332-6.4117 3.3499-10.1749 3.3499-4.5817 0-8.2237-1.3988-10.9139-4.1944-2.6823-2.8054-4.0294-6.817-4.0294-12.0306 0-6.807 2.0405-12.4359 6.1315-16.8785 3.64-3.9738 8.1701-5.9528 13.5784-5.9528 4.0016 0 7.2461 1.073 9.7258 3.2188 2.4816 2.1458 3.9221 5.0308 4.3195 8.6529l-4.7149.4411c-.5007-2.728-1.5299-4.7666-3.0777-6.1216-1.5577-1.3451-3.5625-2.0227-6.0163-2.0227-4.6255 0-8.3628 2.0584-11.212 6.1653-2.4717 3.5347-3.7115 7.739-3.7115 12.5929 0 3.8884.9577 6.8508 2.8572 8.8913 1.9094 2.0406 4.389 3.0698 7.4488 3.0698 2.6127 0 4.9791-.8524 7.0892-2.5512 2.1101-1.7047 3.6499-4.1069 4.6076-7.2203zm47.5899 13.2982l6.9819-33.4731h-12.3922l.906-4.2996h29.7258l-.8961 4.2996h-12.2948l-6.974 33.4731zm51.8994 0l7.88-37.7727h6.209l3.8168 24.4745c.4908 3.2187.8266 6.2984.9756 9.2529 1.0471-2.5412 2.7955-5.9885 5.2593-10.3338l13.2445-23.3936h6.3064l-7.88 37.7727h-4.9692l3.94-18.3727c.906-4.2381 2.2154-8.9967 3.9122-14.2738-1.0809 2.4538-2.418 5.1023-4.0175 7.9336l-14.0731 24.7129h-4.8619l-3.791-24.2201c-.3437-2.2174-.5901-4.8023-.7471-7.7568-.4311 3.3161-.8543 5.9447-1.2577 7.8879l-5.0307 24.089zm69.9006 0l21.4067-37.7727h5.9527l6.2349 37.7727h-4.8897l-1.828-10.8703h-15.2851l-6.052 10.8703zm13.7552-14.7665h12.4955l-1.4683-9.4795c-.5622-3.7651-.9139-6.8965-1.055-9.4019-.8623 2.1637-2.1101 4.7308-3.7632 7.7031zm83.636 1.4683l5.0049.6954c-1.5835 4.3632-3.8863 7.6594-6.9123 9.8947-3.0161 2.2332-6.4117 3.3499-10.1749 3.3499-4.5817 0-8.2237-1.3988-10.9139-4.1944-2.6823-2.8054-4.0294-6.817-4.0294-12.0306 0-6.807 2.0405-12.4359 6.1315-16.8785 3.64-3.9738 8.1701-5.9528 13.5784-5.9528 4.0016 0 7.2461 1.073 9.7258 3.2188 2.4816 2.1458 3.9221 5.0308 4.3195 8.6529l-4.7149.4411c-.5007-2.728-1.5299-4.7666-3.0777-6.1216-1.5577-1.3451-3.5625-2.0227-6.0163-2.0227-4.6255 0-8.3628 2.0584-11.212 6.1653-2.4717 3.5347-3.7115 7.739-3.7115 12.5929 0 3.8884.9577 6.8508 2.8572 8.8913 1.9093 2.0406 4.389 3.0698 7.4488 3.0698 2.6127 0 4.9791-.8524 7.0892-2.5512 2.1101-1.7047 3.6499-4.1069 4.6076-7.2203zm67.4289 0l5.005.6954c-1.5836 4.3632-3.8864 7.6594-6.9124 9.8947-3.0161 2.2332-6.4117 3.3499-10.1748 3.3499-4.5818 0-8.2238-1.3988-10.914-4.1944-2.6823-2.8054-4.0294-6.817-4.0294-12.0306 0-6.807 2.0405-12.4359 6.1315-16.8785 3.64-3.9738 8.1701-5.9528 13.5784-5.9528 4.0016 0 7.2462 1.073 9.7258 3.2188 2.4816 2.1458 3.9221 5.0308 4.3195 8.6529l-4.7149.4411c-.5007-2.728-1.5299-4.7666-3.0777-6.1216-1.5577-1.3451-3.5625-2.0227-6.0163-2.0227-4.6254 0-8.3628 2.0584-11.212 6.1653-2.4716 3.5347-3.7115 7.739-3.7115 12.5929 0 3.8884.9577 6.8508 2.8572 8.8913 1.9094 2.0406 4.389 3.0698 7.4488 3.0698 2.6128 0 4.9792-.8524 7.0892-2.5512 2.1101-1.7047 3.6499-4.1069 4.6076-7.2203zM54.46938 198.3172c-10.5991-.0843-17.3433-11.8253-17.417-18.0341.0228-14.4303 21.5633-31.7464 32.3441-47.6205l80.586 96.267c6.6407 6.2677 17.7129 5.3224 24.7871-2.1249 7.0743-7.4473 7.7097-18.5721 1.1998-24.8389L68.43358 73.5065C42.32998 110.4568-.33502 153.1911.00198 180.2831c-.129 38.3449 32.3204 50.6424 54.8843 50.6424 14.77 0 21.5783-.036 42.7072-26.1625l-23.4294-27.9881c-8.6953 14.253-9.0964 21.5414-19.6947 21.5423zm21.2325-133.7975l134.3732 160.5191.136.1632c6.2045 7.3472 17.2934 8.4575 24.7494 2.3119 7.5105-6.1913 8.5892-17.2916 2.4119-24.7854l-.0114-.0132L98.29208 36.5869zm27.6414-35.0167l164.1263 194.4615.1361.1632c6.2045 7.3472 17.2933 8.4575 24.7494 2.3119 7.5105-6.1913 8.5891-17.2916 2.4119-24.7854l-.0114-.0132L127.20268 0z"/>
</svg>
