<?xml version="1.0" encoding="utf-8"?>
<!DOCTYPE svg PUBLIC "-//W3C//DTD SVG 1.1//EN" "http://www.w3.org/Graphics/SVG/1.1/DTD/svg11.dtd">

<svg xmlns="http://www.w3.org/2000/svg" viewBox="0 0 916.80523 184.31599">
  <g fill-rule="evenodd">
    <g fill="#004494">
      <path d="M725.92614 49.1962l1.0895-17.5554-57.6231.4836-8.7172 145.1846 59.1943.2536c-.1222-35.2107-2.6698-97.5463 29.812-103.0428 38.8957-6.5808 25.3094 59.622 22.7027 102.8106l58.0294.167c-.7789-81.5182 29.9648-151.7308-54.3271-149.3492-28.5239.8054-35.1608 9.9818-50.1605 21.048z"/>
      <path d="M554.08814 70.3715c44.4797-17.083 50.8356 53.0269 19.765 65.6092-42.5797 17.2429-52.1959-53.153-19.765-65.6092zm-4.4731-43.1478c-43.1235 7.5217-79.551 36.402-71.4814 89.4095 6.8527 45.0123 46.7667 69.0244 100.2426 61.7684 111.0023-15.0608 89.6926-171.8401-28.7612-151.1779zM355.84514 86.028c2.8093-17.582 9.3902-25.9 24.9917-25.9896 15.3815-.0885 20.7344 9.2131 21.9064 26.1505zm80.8126 87.9575l6.3242-40.8528c-56.6314 15.687-87.9697 8.9341-88.9228-24.7707l99.9707-.6394C479.43294 14.1943 339.29674.6232 308.04694 64.033c-15.9975 32.4615-14.4814 77.7487 12.7881 99.0064 30.8445 24.0447 75.4668 15.2512 115.8227 10.9461zm-366.6435 10.1559l13.5131-31.5583c-12.7637.6425-21.5276.95-25.5466-3.461-4.6829-5.138-2.8083-15.4813 8.5359-20.5674 10.2709-4.6044 25.9121-5.8151 33.9674-11.8248l-4.2817 64.0737 56.6172-1.786c.7219-23.619 1.5854-46.4113 3.0384-69.8114 3.3479-53.8883 9.8168-90.6396-98.8792-74.973l-30.9575 7.6297-3.6402 33.7678c8.1296-3.0394 38.7623-13.6159 58.9235-13.3694 9.3963.115 16.5199 2.5832 18.0269 9.2629-2.4723 19.5726-37.7319 19.2009-53.8791 23.6883-29.698 8.2549-45.4084 29.0198-45.4522 47.0762-.0479 19.6836 11.8879 44.3433 70.0141 41.8527zm165.8304-137.0977l-.0122-14.7798-54.1449-.1934c-1.8888 22.8228-.4256 50.7317-1.3664 74.5951l-4.9375 71.399 57.7932.0468c-.7423-20.0736-1.3919-54.2355 2.8379-73.0637 4.467-21.5185 23.0957-28.8793 50.0179-27.9456l-1.9672-46.8746c-20.1622-5.5281-40.9251 6.364-48.2208 16.8162zM887.16944 0c16.3671 0 29.6358 13.2687 29.6358 29.6359 0 16.3671-13.2687 29.6358-29.6358 29.6358-16.3672 0-29.6359-13.2687-29.6359-29.6358 0-16.3672 13.2687-29.6359 29.6359-29.6359zm0 5.7256c13.2055 0 23.9102 10.7047 23.9102 23.9103 0 13.2055-10.7047 23.9103-23.9102 23.9103-13.2056 0-23.9103-10.7048-23.9103-23.9103 0-13.2056 10.7047-23.9103 23.9103-23.9103z"/>
      <path d="M877.75884 41.5981V17.6746h10.1712c2.5568 0 4.412.2169 5.5708.6456 1.1577.4297 2.0884 1.1923 2.7848 2.29.6965 1.1027 1.0417 2.3562 1.0417 3.7705 0 1.7942-.5295 3.2808-1.5823 4.4508-1.0529 1.1638-2.6342 1.9051-4.7348 2.2055 1.0477.6129 1.9112 1.2809 2.5904 2.011.6791.7301 1.5935 2.0222 2.7461 3.8825l2.9244 4.6676h-5.7764l-3.4926-5.2083c-1.2423-1.8603-2.0884-3.0302-2.5456-3.5149-.4562-.4837-.9409-.8126-1.453-.9969-.5132-.1782-1.3207-.2668-2.4346-.2668h-.9745v9.9869zm4.8356-13.8083h3.57c2.3175 0 3.7654-.0947 4.3448-.2892.5743-.1955 1.0253-.5356 1.3532-1.0142.3238-.4785.4908-1.0752.4908-1.7931 0-.8085-.2179-1.454-.6466-1.9499-.4286-.4959-1.0355-.8075-1.8216-.9419-.39-.0499-1.565-.0774-3.5251-.0774h-3.7655z"/>
    </g>
    <path fill="#1962a9" d="M665.99364 88.7294l-5.3183 88.5796 59.1943.2536c-.0855-24.5569-1.3461-62.302 8.9147-84.7633-20.2141-1.507-41.1766-2.8664-62.7907-4.0699zm109.4536 7.9249c3.8102 21.8311-1.5274 55.2425-3.0629 80.6761l58.0294.167c-.2566-26.8489 2.9051-52.4699 4.2512-74.6756-18.6959-2.2096-38.4579-4.2725-59.2177-6.1675zm-185.0528-11.3859c6.698 17.7509 1.1456 43.5501-16.5413 50.7123-34.0173 13.7758-46.9927-28.3834-34.2993-52.2478-19.7019-.4817-39.747-.838-60.0751-1.0682-2.6525 9.9655-3.2777 21.2731-1.3451 33.9685 6.8527 45.0123 46.7667 69.0244 100.2426 61.7684 56.2526-7.6327 78.5052-51.6563 71.3744-90.5428-19.316-.9898-39.1166-1.8573-59.3562-2.5904zm-234.5493.7596c.1731-1.0865.3615-2.1373.5651-3.1525-18.815.278-37.3673.6639-55.6152 1.1588-7.1938 29.0748-1.957 61.857 20.04 79.0051 30.8445 24.0447 75.4668 15.2512 115.8227 10.9461l6.3242-40.8528c-56.6314 15.687-87.9697 8.9341-88.9228-24.7707l99.9707-.6394c2.4978-9.1968 3.3735-17.6105 2.9315-25.2636-10.2384-.0661-20.545-.0997-30.9127-.0997-7.9249 0-15.8041.0254-23.6527.0651.1416 1.2097.2577 2.4642.3473 3.7645zm-285.8309 98.1134l13.5131-31.5583c-12.7637.6425-21.5276.95-25.5466-3.461-4.6829-5.138-2.8083-15.4813 8.5359-20.5674 10.2709-4.6044 25.9121-5.8151 33.9674-11.8248l-4.2817 64.0737 56.6172-1.786c.7219-23.619 1.5854-46.4113 3.0384-69.8114.4052-6.5178.8543-12.782 1.1414-18.7356-46.1537 2.9559-88.9493 6.646-127.4397 10.9542C10.17944 111.5359.03574 127.786.00014 142.2887c-.0479 19.6836 11.8879 44.3433 70.0141 41.8527zm110.648-95.1066c-.0295 6.0239-.1171 11.943-.3411 17.6308l-4.9375 71.399 57.7932.0468c-.7423-20.0736-1.3919-54.2355 2.8379-73.0637 1.7656-8.5074 5.7469-14.8001 11.5773-19.2437-22.9266.9093-45.2607 1.9916-66.9298 3.2308z"/>
  </g>
</svg>
