<svg xmlns="http://www.w3.org/2000/svg" width="125.25" height="41.249802">
  <path fill="#0a120a" fill-rule="evenodd" d="M20.9262 14.1491C32.3751 5.0587 73.6656 3.9226 90.8218 3.9129c10.279-.0056 16.9761 2.5824 17.0991 5.7439.0519 1.3348-1.9599 2.9392-5.5562 4.0776 5.4142-.6743 9.4198-3.8194 9.9953-5.1789 5.1871-12.2513-86.5664-6.0318-91.4338 5.5936z"/>
  <path fill="#d40000" d="M97.4608 8.9427c.1281 3.7452.4943 4.373 3.6425 4.8748-2.4783.4564-4.858 1.1259-5.6506 4.1139-.4751-3.2315-3.0702-3.621-6.226-4.0802 2.4681-.3447 6.7178.2234 8.2341-4.9085z"/>
  <path fill="#0a120a" fill-rule="evenodd" d="M116.5478 20.1778v-3.7831h1.3083c.3285 0 .5671.0344.7163.1022.1489.0679.2687.1885.3582.3621.0896.1742.1339.3724.1339.5961 0 .2838-.068.5194-.2035.7039-.1348.184-.2221.2765-.4922.3239.063.1033.1251.2091.2164.3427.0816.1193.2051.32.3532.6141l.3762.7381h-.7429l-.4492-.8236c-.1598-.2942-.2687-.4791-.3274-.5558-.0588-.0765-.1211-.1286-.1871-.1577-.0659-.0281-.1696-.0423-.3131-.0423h-.1252v1.5794zm.6219-2.1835h.4591c.298 0 .4842-.0151.5587-.0459.074-.0308.1319-.0845.1743-.1603.0414-.0756.0629-.17.0629-.2835 0-.1277-.0279-.2299-.0829-.3084-.0552-.0783-.1332-.1277-.2346-.1488-.0501-.008-.201-.0124-.4533-.0124h-.4842z"/>
  <path fill="#0a120a" fill-rule="evenodd" d="M117.862 14.832c1.9687 0 3.5651 1.5964 3.5651 3.5649 0 1.9686-1.5964 3.5651-3.5651 3.5651-1.9684 0-3.5648-1.5965-3.5648-3.5651 0-1.9685 1.5964-3.5649 3.5648-3.5649zm0 .8298c1.5105 0 2.7353 1.2249 2.7353 2.7351 0 1.5104-1.2248 2.7353-2.7353 2.7353-1.5102 0-2.735-1.2249-2.735-2.7353 0-1.5102 1.2248-2.7351 2.735-2.7351z"/>
  <g fill-rule="evenodd">
    <path fill="#0a120a" d="M72.3648 16.5682c2.1223 0 3.6831.4938 4.6795 1.4845.9929.9879 1.4893 2.2042 1.4893 3.6491 0 .5558-.0907 1.1939-.2724 1.9048-.1851.7141-.5389 1.4537-1.0678 2.2184-.5259.762-1.207 1.4111-2.0475 1.9418-.8408.5332-1.6455.8889-2.4211 1.0666-.7724.1806-1.5933.2682-2.4599.2682-1.9925 0-3.5436-.4374-4.6601-1.3153-1.116-.8747-1.6745-2.1053-1.6745-3.6856 0-.8268.1398-1.6341.4153-2.4188.2761-.7843.6883-1.5267 1.2368-2.2238.5482-.697 1.2234-1.2812 2.0247-1.7526.8017-.4711 1.5903-.7787 2.3658-.9227.779-.144 1.5741-.2146 2.3919-.2146zm-1.8334 9.7733c.8305 0 1.5349-.2738 2.1157-.8184.5775-.5476 1.0027-1.2333 1.2688-2.063.2659-.8297.3992-1.4224.3992-1.7753 0-.7759-.2274-1.3629-.6815-1.7609-.451-.3952-1.0318-.5956-1.7331-.5956-.7883 0-1.4635.2512-2.0313.7481-.5681.4994-.993 1.1653-1.2787 1.995-.2855.8272-.4283 1.5352-.4283 2.1195 0 .6182.2109 1.129.6295 1.538.4156.4065.9964.6126 1.7397.6126zm-19.6317-9.5672h7.9314c1.366 0 2.3686.3104 3.0016.934.6361.6239.9507 1.3717.9507 2.2493 0 .9485-.3342 1.7753-1.0057 2.4837-.6718.7084-1.7461 1.1628-3.2227 1.3601.8728.6182 1.9179 2.317 3.1351 5.0941h-4.553c-.3798-.8776-.8274-1.8343-1.3436-2.8729-.5193-1.0386-.9054-1.6427-1.1648-1.8062-.2599-.1664-.5748-.2483-.9414-.2483h-.2304l-1.1875 4.9274h-4.3259zm3.1187 4.9275h.8178c1.3694 0 2.2553-.0536 2.6578-.1636.4022-.1103.7007-.2965.8986-.559.195-.2622.2953-.5136.2953-.7563 0-.3104-.1165-.553-.3534-.7279-.2339-.178-.7433-.2653-1.5285-.2653h-2.1872zm-5.8107-4.9275l-.7138 2.9775h-3.382l-2.2748 9.1437h-4.3257l2.2652-9.1437h-3.246l.7203-2.9775zM33.929 20.1385l-4.0499.0286c-.0907-1.0528-.9751-1.4173-2.0057-1.4173-.516 0-.9085.0961-1.1844.2851-.2758.1919-.4152.4176-.4152.6829 0 .1919.1133.3753.3339.5505.2208.172.7483.3906 1.5775.6658 1.9805.6577 5.3523 1.5279 5.3523 4.1006 0 3.2307-4.3259 4.0669-6.8161 4.0669-2.2102 0-3.7806-.3696-4.7056-1.1064-.9246-.7392-1.3889-1.6877-1.3889-2.8448v-.2821l4.0563-.011c0 .7563.1868 1.0593.5712 1.3714.3841.3115.9122.4683 1.5903.4683.6848 0 1.207-.1299 1.5644-.3895.36-.2597.5383-.553.5383-.8833 0-.2483-.1134-.4768-.3438-.6885-.2271-.2089-.7884-.4547-1.681-.7339-1.8405-.5757-5.1976-1.3014-5.1976-3.7225 0-2.9066 3.9079-3.7111 6.1841-3.7111 3.7709 0 5.7798 1.1911 6.0199 3.5703zm-15.4018 8.757l-4.6785.002-.1914-1.984-4.4603.019-1.084 1.963H3.846l7.873-12.1212h4.5918zm-5.1454-4.553l-.3685-3.8732-2.3454 3.7882z"/>
    <path fill="#1b1918" d="M108.0071 21.7587c.6673-.566 1.2756-.9487 1.8269-1.1542.5488-.2081 1.133-.3107 1.753-.3107.8365 0 1.4624.2081 1.8773.6213.4182.4162.3555.9185.3555 1.5095 0 .3523-.0315.6962-.1128 1.0239l-1.4102 5.6653h-2.8959l.8543-3.6816c.2175-.9369.332-1.4959.3558-1.6759.0232-.1774.0326-.3024.0326-.3719 0-.4521-.5159-.6769-.9669-.6769-.5278 0-1.2132.2086-1.5568.6188-.3436.4105-.6236 1.0678-.8422 1.9505l-.9507 3.837h-2.8939l.8073-3.6179c.2163-.9688.3441-1.5431.3708-1.7229.0261-.1777.0385-.3135.0385-.405 0-.4386-.5278-.6605-1.0023-.6605-.3589 0-.7393.1715-1.1361.5162-.3946.343-.671.9346-.8807 1.7535l-1.0602 4.1366h-2.9166l1.9812-8.623h2.7518l-.2874 1.2345.0354.0334c1.0146-.9765 2.1532-1.4649 3.4138-1.4649.5811 0 1.0913.1276 1.5392.383.4448.2551.7535.6159.9193 1.0819zM96.654 20.4908l-2.1679 8.623h-2.8165l1.9724-8.623zm-12.0265 1.0488c.8569-.8297 1.9485-1.2458 3.2743-1.2458.8274 0 1.1098.1979 1.5233.5984.4133.4005.6197.8878.6197 1.4621 0 .3467-.1026 1.0361-.347 2.0503l-1.1352 4.7058-2.8727.0034.9133-4.0062c.2237-.9814.3294-1.5426.3294-1.6844 0-.477-.496-.7157-.9586-.7157-.5219 0-.976.2305-1.3644.6882-.3883.4576-.6684 1.1217-.8779 1.9781l-.9155 3.74h-3.017l2.7462-11.9163h3.0371l-.9907 4.3087z"/>
  </g>
  <path fill="none" d="M72.373 41.2498c2.1223 0 3.6831-.4938 4.6795-1.4845.9929-.9879 1.4893-2.2043 1.4893-3.6491 0-.5559-.0907-1.1939-.2724-1.9049-.1851-.714-.5389-1.4536-1.0678-2.2184-.5259-.7619-1.207-1.411-2.0475-1.9417-.8407-.5332-1.6455-.8889-2.4211-1.0667-.7724-.1805-1.5933-.2681-2.4599-.2681-1.9924 0-3.5436.4374-4.6601 1.3153-1.116.8747-1.6744 2.1052-1.6744 3.6856 0 .8268.1397 1.6341.4152 2.4188.2761.7843.6883 1.5267 1.2368 2.2237.5482.6971 1.2234 1.2813 2.0248 1.7527.8016.4711 1.5902.7787 2.3658.9227.7789.144 1.574.2146 2.3918.2146zm-1.8334-9.7733c.8305 0 1.535.2738 2.1158.8183.5774.5477 1.0026 1.2334 1.2688 2.0631.2658.8297.3991 1.4224.3991 1.7753 0 .7759-.2274 1.3629-.6815 1.7609-.451.3952-1.0318.5956-1.7331.5956-.7883 0-1.4635-.2512-2.0313-.7481-.568-.4995-.993-1.1653-1.2787-1.995-.2854-.8272-.4283-1.5353-.4283-2.1195 0-.6182.2109-1.129.6296-1.5381.4155-.4064.9963-.6125 1.7396-.6125zM50.908 41.0437h7.9313c1.366 0 2.3686-.3104 3.0016-.934.6361-.6239.9508-1.3717.9508-2.2493 0-.9485-.3343-1.7754-1.0058-2.4837-.6718-.7084-1.7461-1.1628-3.2227-1.3601.8728-.6182 1.9179-2.317 3.1351-5.0941h-4.553c-.3798.8776-.8274 1.8343-1.3436 2.8729-.5193 1.0386-.9054 1.6426-1.1648 1.8062-.2599.1664-.5748.2483-.9413.2483h-.2305l-1.1874-4.9274h-4.326zm3.1186-4.9275h.8178c1.3695 0 2.2553.0536 2.6578.1636.4022.1102.7007.2965.8986.559.195.2622.2954.5136.2954.7563 0 .3103-.1165.553-.3535.7279-.2339.178-.7433.2653-1.5285.2653H54.627zm-5.8107 4.9275l-.7138-2.9775h-3.382l-2.2748-9.1437h-4.3256l2.2651 9.1437h-3.2459l.7202 2.9775zm-14.2787-3.3642l-4.0498-.0286c-.0907 1.0528-.9751 1.4173-2.0058 1.4173-.5159 0-.9085-.0961-1.1843-.2851-.2759-.192-.4153-.4176-.4153-.6829 0-.1919.1134-.3753.3339-.5505.2208-.1721.7484-.3906 1.5775-.6659 1.9806-.6576 5.3524-1.5278 5.3524-4.1006 0-3.2306-4.326-4.0668-6.8162-4.0668-2.2102 0-3.7806.3696-4.7055 1.1063-.9247.7393-1.389 1.6878-1.389 2.8449v.282l4.0564.0111c0-.7563.1868-1.0593.5711-1.3714.3841-.3115.9122-.4683 1.5903-.4683.6848 0 1.207.1298 1.5644.3895.36.2596.5383.553.5383.8833 0 .2483-.1134.4768-.3438.6885-.2271.2089-.7883.4547-1.681.7339-1.8405.5757-5.1976 1.3014-5.1976 3.7224 0 2.9067 3.9079 3.7112 6.1841 3.7112 3.7709 0 5.7798-1.1912 6.0199-3.5703zm-15.4017-8.757l-4.6786-.002-.1914 1.9839-4.4603-.019-1.0839-1.9629h-4.267l7.8729 12.1212h4.5919zm-5.1455 4.553l-.3685 3.8732-2.3454-3.7882zm94.6253 2.5837c.6673.5661 1.2756.9488 1.8269 1.1543.5488.2081 1.133.3107 1.753.3107.8365 0 1.4624-.2081 1.8774-.6214.4181-.4161.3554-.9184.3554-1.5094 0-.3524-.0314-.6962-.1128-1.0239l-1.4102-5.6653h-2.8959l.8544 3.6816c.2174.9369.3319 1.4959.3557 1.6759.0233.1774.0326.3024.0326.3719 0 .4521-.5159.6769-.9669.6769-.5278 0-1.2132-.2086-1.5568-.6188-.3435-.4105-.6236-1.0678-.8421-1.9505l-.9508-3.837h-2.8939l.8073 3.6178c.2163.9689.3442 1.5432.3708 1.7229.0261.1778.0386.3136.0386.4051 0 .4385-.5279.6605-1.0024.6605-.3588 0-.7393-.1715-1.1361-.5162-.3946-.343-.671-.9346-.8807-1.7535l-1.0602-4.1366H97.662l1.9812 8.623h2.7519l-.2875-1.2345.0355-.0335c1.0145.9766 2.1532 1.465 3.4137 1.465.5811 0 1.0914-.1276 1.5392-.383.4448-.2551.7535-.6159.9193-1.082zm-11.353 1.268l-2.168-8.623h-2.8165l1.9724 8.623zm-12.0266-1.0488c.8569.8297 1.9486 1.2458 3.2743 1.2458.8274 0 1.1098-.1979 1.5234-.5984.4132-.4005.6196-.8878.6196-1.4621 0-.3467-.1026-1.0361-.347-2.0503l-1.1352-4.7058-2.8727-.0034.9134 4.0062c.2236.9813.3294 1.5426.3294 1.6843 0 .4771-.4961.7158-.9587.7158-.5219 0-.976-.2305-1.3643-.6883-.3884-.4575-.6685-1.1216-.8779-1.978l-.9156-3.74h-3.0169l2.7462 11.9163h3.037L84.6 36.3118z"/>
  <path fill="#1b1918" fill-rule="evenodd" d="M6.1659 36.8921H4.8677l-.3929.6256h-.692l1.8511-2.831h.7483l.5315 2.831h-.6389zm-.0833-.4712l-.1899-1.1395-.7903 1.1395zm2.5078 1.0968l.6863-2.831h1.1182c.243 0 .4125.0068.5091.0193.161.0198.2974.0578.4094.1159.1111.0581.1958.1352.2545.2322.0578.0961.0867.2029.0867.3203 0 .1567-.051.2931-.1513.4085-.1018.1148-.2577.2024-.4697.2616.1684.0397.2996.1108.394.2129.0947.1029.1417.2183.1417.3467 0 .17-.0555.3316-.1667.4838-.1122.1528-.2661.2622-.4629.3297-.1967.0663-.4648.1001-.8056.1001zm1.0808-1.6881h.5137c.2313 0 .3974-.0139.498-.0422.1015-.0283.1775-.0743.2279-.1389.0511-.0646.076-.1332.076-.2064 0-.0725-.0235-.1318-.0714-.178-.0471-.0462-.1151-.0771-.2036-.093-.0487-.007-.1669-.011-.3543-.011h-.523zm-.2962 1.2325h.6494c.2727 0 .455-.015.5477-.0453.0933-.0303.1678-.0805.2236-.1497.0565-.0697.084-.1431.084-.2202 0-.0941-.0406-.1718-.1205-.2325-.0802-.0615-.2143-.0918-.4017-.0918h-.8042zm4.9303.4556h-.6749l.5717-2.3576h-.9598l.1137-.4734h2.5795l-.1134.4734h-.9476zm2.791-1.1106c0-.1667.0298-.3433.0879-.5287.0754-.2483.191-.464.3469-.6472.1554-.1825.3521-.3268.5885-.4331.237-.1066.506-.1593.8087-.1593.4046 0 .7317.1086.9808.3263.25.2174.3745.506.3745.8645 0 .2994-.0811.5879-.2432.8674-.1624.2795-.3827.4944-.6611.6446-.2789.1511-.5935.2262-.945.2262-.305 0-.561-.0601-.7685-.1794-.2067-.1199-.3526-.2681-.4397-.4456-.0861-.1766-.1298-.3552-.1298-.5357zm.6656-.0111c0 .1942.0689.3572.2058.4884.1375.131.3172.197.5406.197.1814 0 .3557-.0521.5235-.1556.1678-.1035.3056-.2602.4156-.4711.1091-.2104.1638-.4153.1638-.6151 0-.2228-.0692-.3975-.2072-.5239-.1389-.1273-.3152-.1905-.5298-.1905-.3285 0-.5964.1324-.8028.398-.206.2651-.3095.5556-.3095.8728zm4.3824 1.1217h-.8711l1.4451-1.4329-.8133-1.3981h.7039l.3191.5312c.0105.0193.0839.1497.2189.3918.009.013.019.0303.0289.0527.1822-.1919.3345-.3495.4581-.4714l.5161-.5043h.8462l-1.4987 1.491.8065 1.34h-.7591l-.2455-.4264c-.1284-.2256-.2135-.3869-.2546-.4853-.0589.076-.208.2333-.449.4714zm4.4866-2.831h.6254l-.4286 1.7552 1.773-1.7552h.6296l-.6942 2.831h-.6344l.4445-1.7742-1.787 1.7742h-.627zm5.7322 2.831h-.6386l-.1182-2.3655-.5207 2.3655h-.6075l.6837-2.831h.9598l.1007 1.9834 1.1165-1.9834h.972l-.6862 2.831h-.6143l.6457-2.3485zm3.9082-2.831h.625l-.4283 1.7552 1.7728-1.7552h.6298l-.6944 2.831h-.6344l.4447-1.7742-1.7869 1.7742h-.6273zm7.2034 0l-.703 2.831h-.6616l.2928-1.1798-.0757-.002c-.1967 0-.3492.0244-.4581.0726-.1091.0479-.2355.1448-.3795.2905l-.815.8187h-.8354l.9134-.9207c.1814-.1834.3401-.292.4731-.3271-.2245-.0329-.3906-.1146-.4998-.2438-.1088-.1293-.163-.2775-.163-.4436 0-.2404.1072-.4502.3229-.6282.2151-.1786.5298-.2676.9453-.2676zm-.7881.4734h-.5269c-.3682 0-.6137.0309-.7379.0935-.1244.0627-.1868.1608-.1868.2946 0 .0884.0372.1669.112.2347.074.0671.2392.1009.4958.1009h.6672zm6.5611-.4734h.6253l-.4286 1.7552 1.7731-1.7552h.6296l-.6942 2.831h-.6344l.4445-1.7742-1.787 1.7742h-.6273zm9.8059 2.2054h-1.2983l-.3928.6256h-.692l1.851-2.831h.7484l.5315 2.831h-.6389zm-.0833-.4712l-.19-1.1395-.7903 1.1395zm2.5078 1.0968l.6862-2.831h1.1183c.2429 0 .4125.0068.5091.0193.161.0198.2974.0578.4093.1159.1112.0581.1959.1352.2546.2322.0581.0961.0867.2029.0867.3203 0 .1567-.051.2931-.1513.4085-.1018.1148-.2577.2024-.4697.2616.1683.0397.2996.1108.394.2129.0947.1029.142.2183.142.3467 0 .17-.0559.3316-.167.4838-.1122.1528-.2661.2622-.4629.3297-.1967.0663-.4648.1001-.8056.1001zm1.0808-1.6881h.514c.231 0 .3971-.0139.4977-.0422.1015-.0283.1775-.0743.2279-.1389.0513-.0646.076-.1332.076-.2064 0-.0725-.0235-.1318-.0714-.178-.0471-.0462-.1151-.0771-.2036-.093-.0487-.007-.1669-.011-.3543-.011h-.523zm-.2962 1.2325h.6494c.2727 0 .455-.015.5477-.0453.0932-.0303.1681-.0805.2236-.1497.0564-.0697.0839-.1431.0839-.2202 0-.0941-.0405-.1718-.1204-.2325-.0803-.0615-.2143-.0918-.4017-.0918h-.8042zm4.9303.4556h-.6746l.5717-2.3576H66.13l.114-.4734h2.5792l-.1134.4734h-.9473zm2.791-1.1106c0-.1667.03-.3433.0879-.5287.0754-.2483.191-.464.3469-.6472.1554-.1825.3521-.3268.5885-.4331.237-.1066.506-.1593.8087-.1593.4045 0 .7317.1086.9808.3263.2503.2174.3745.506.3745.8645 0 .2994-.0811.5879-.2432.8674-.1625.2795-.3827.4944-.6611.6446-.2789.1511-.5936.2262-.945.2262-.3051 0-.561-.0601-.7685-.1794-.2064-.1199-.3526-.2681-.4397-.4456-.0861-.1766-.1298-.3552-.1298-.5357zm.6656-.0111c0 .1942.0689.3572.2058.4884.1375.131.3172.197.5405.197.1815 0 .3558-.0521.5236-.1556.1681-.1035.3056-.2602.4156-.4711.1091-.2104.1638-.4153.1638-.6151 0-.2228-.0692-.3975-.2072-.5239-.1389-.1273-.3149-.1905-.5298-.1905-.3285 0-.5964.1324-.8028.398-.2061.2651-.3095.5556-.3095.8728zm4.6615-1.7093h.6676l-.2951 1.201c.1267 0 .2251-.0223.2951-.0686.0703-.0453.1783-.1785.3257-.3988.157-.2324.2772-.3934.362-.4816.0845-.0879.1806-.1522.288-.1919.1074-.0402.2699-.0601.4873-.0601h.1783l-.1471.4252h-.11c-.0814 0-.1446.0113-.1883.0343-.0442.023-.0943.0797-.1508.1701-.1777.282-.3186.472-.4243.5695-.1063.098-.2214.1607-.3464.1879.2234.0612.3713.2313.4448.5094.0042.015.0087.0303.0133.0442l.2945.8904h-.6922l-.2744-.8765c-.0031-.0108-.0292-.072-.0785-.1854-.0596-.1094-.1854-.1652-.3776-.1681l-.3053 1.23h-.6656zm3.5227 1.7204c0-.1667.03-.3433.0878-.5287.0754-.2483.1914-.464.347-.6472.1553-.1825.3521-.3268.5885-.4331.2369-.1066.5062-.1593.8087-.1593.4045 0 .7316.1086.9808.3263.2503.2174.3744.506.3744.8645 0 .2994-.081.5879-.2432.8674-.1624.2795-.3827.4944-.661.6446-.2789.1511-.5936.2262-.9451.2262-.3047 0-.561-.0601-.7685-.1794-.2063-.1199-.3526-.2681-.4396-.4456-.0862-.1766-.1298-.3552-.1298-.5357zm.6655-.0111c0 .1942.0689.3572.2058.4884.1375.131.3172.197.5409.197.1811 0 .3554-.0521.5235-.1556.1679-.1035.3053-.2602.4153-.4711.1092-.2104.1639-.4153.1639-.6151 0-.2228-.0692-.3975-.2073-.5239-.1388-.1273-.3149-.1905-.5297-.1905-.3286 0-.5962.1324-.8028.398-.2058.2651-.3096.5556-.3096.8728zm6.3227.102l.6789.0891c-.1324.3177-.3314.5609-.5961.7287-.2651.1681-.5752.252-.9312.252-.4002 0-.7138-.1043-.9394-.3123-.2253-.2089-.3382-.5117-.3382-.9077 0-.3223.0754-.6162.2271-.8838.1508-.2671.3603-.4714.6281-.6132.2682-.1417.5605-.212.8757-.212.3543 0 .6412.0816.86.2458.2185.1641.3475.388.3864.6709l-.6458.0542c-.0357-.165-.1043-.2843-.2066-.358-.1018-.0737-.2376-.1109-.4076-.1109-.186 0-.3598.0491-.5213.1466-.1616.098-.2906.2511-.3872.4586-.097.2075-.1457.4153-.1457.6228 0 .2268.0635.4014.189.5252.1259.1234.2829.1854.4703.1854.1738 0 .3336-.0487.4788-.1471.1454-.0975.2537-.2423.3248-.4343zm4.0847 1.0197h-.6386l-.1182-2.3655-.5207 2.3655h-.6075l.6837-2.831h.9598l.1007 1.9834 1.1165-1.9834h.972l-.6862 2.831h-.6143l.6457-2.3485zm3.1978 0l.6837-2.831h2.427l-.1133.4734h-1.7533l-.1564.6426h1.6945l-.1137.4731h-1.6954l-.2049.7688h1.9049l-.1157.4731zm5.7458 0h-.6746l.5717-2.3576h-.9601l.114-.4734h2.5792l-.1134.4734h-.9473zm3.35-2.831h.6253l-.4286 1.7552 1.7731-1.7552h.6296l-.6942 2.831h-.6344l.4445-1.7742-1.787 1.7742h-.627zm4.5598 0h.6679l-.2951 1.201c.1267 0 .2251-.0223.2951-.0686.0703-.0453.1783-.1785.3257-.3988.157-.2324.2772-.3934.3617-.4816.0847-.0879.1808-.1522.2883-.1919.1074-.0402.2698-.0601.4869-.0601h.1786l-.1474.4252h-.1097c-.0813 0-.1445.0113-.1882.0343-.0442.023-.0944.0797-.1508.1701-.1777.282-.3186.472-.4246.5695-.106.098-.2211.1607-.3461.1879.2233.0612.371.2313.4444.5094.004.015.009.0303.0136.0442l.2943.8904h-.692l-.2744-.8765c-.003-.0108-.0292-.072-.0788-.1854-.0592-.1094-.1851-.1652-.3772-.1681l-.3056 1.23h-.6653zm5.516 2.2054h-1.2983l-.3929.6256h-.6919l1.851-2.831h.7483l.5315 2.831h-.6389zm-.0834-.4712l-.1899-1.1395-.7903 1.1395z"/>
</svg>
