<?xml version="1.0" encoding="utf-8"?>
<!DOCTYPE svg PUBLIC "-//W3C//DTD SVG 1.1//EN" "http://www.w3.org/Graphics/SVG/1.1/DTD/svg11.dtd">
<?xml version="1.0" encoding="UTF-8" standalone="no"?>
<svg
   xmlns:dc="http://purl.org/dc/elements/1.1/"
   xmlns:cc="http://creativecommons.org/ns#"
   xmlns:rdf="http://www.w3.org/1999/02/22-rdf-syntax-ns#"
   xmlns:svg="http://www.w3.org/2000/svg"
   xmlns="http://www.w3.org/2000/svg"
   xmlns:sodipodi="http://sodipodi.sourceforge.net/DTD/sodipodi-0.dtd"
   xmlns:inkscape="http://www.inkscape.org/namespaces/inkscape"
   version="1.1"
   width="1125.6013"
   height="205.88519"
   id="svg3781"
   viewBox="0 0 1125.6013 205.88519"
   sodipodi:docname="autoprofi.svg"
   inkscape:version="0.92.1 r15371">
  <metadata
     id="metadata3787">
    <rdf:RDF>
      <cc:Work
         rdf:about="">
        <dc:format>image/svg+xml</dc:format>
        <dc:type
           rdf:resource="http://purl.org/dc/dcmitype/StillImage" />
        <dc:title></dc:title>
      </cc:Work>
    </rdf:RDF>
  </metadata>
  <defs
     id="defs3785" />
  <sodipodi:namedview
     pagecolor="#ffffff"
     bordercolor="#666666"
     borderopacity="1"
     objecttolerance="10"
     gridtolerance="10"
     guidetolerance="10"
     inkscape:pageopacity="0"
     inkscape:pageshadow="2"
     inkscape:window-width="640"
     inkscape:window-height="480"
     id="namedview3783"
     showgrid="false"
     inkscape:zoom="0.28032173"
     inkscape:cx="546.46869"
     inkscape:cy="-33.226285"
     inkscape:window-x="0"
     inkscape:window-y="0"
     inkscape:window-maximized="0"
     inkscape:current-layer="svg3781" />
  <g
     id="Layer1000"
     transform="translate(248.8309,-181.8334)">
    <path
       d="m 820.9097,194.279 c 18.2497,0 33.0437,14.794 33.0437,33.0434 0,18.2498 -14.794,33.0438 -33.0437,33.0438 -18.2494,0 -33.0435,-14.794 -33.0435,-33.0438 0,-18.2494 14.7941,-33.0434 33.0435,-33.0434 z"
       style="fill:#e82128;fill-rule:evenodd"
       id="path3737"
       inkscape:connector-curvature="0" />
    <g
       id="Layer1001" />
    <path
       d="m 793.4074,213.6696 c 2.8723,-5.1426 6.6832,-8.4835 8.5116,-7.4622 1.8283,1.0214 0.9816,6.018 -1.8907,11.1606 -2.8726,5.1426 -6.6833,8.4835 -8.5116,7.4622 -1.8284,-1.021 -0.9819,-6.0179 1.8907,-11.1606 z"
       style="fill:#ff9387;fill-rule:evenodd"
       id="path3740"
       inkscape:connector-curvature="0" />
    <path
       d="m 820.9098,199.5235 c 15.353,0 27.7991,12.4461 27.7991,27.7991 0,15.3529 -12.4461,27.799 -27.7991,27.799 -15.353,0 -27.799,-12.4461 -27.799,-27.799 0,-15.353 12.446,-27.7991 27.799,-27.7991 z m 0,2.6223 c 13.9051,0 25.1768,11.2717 25.1768,25.1768 0,13.905 -11.2717,25.1767 -25.1768,25.1767 -13.9051,0 -25.1768,-11.2717 -25.1768,-25.1767 0,-13.9051 11.2717,-25.1768 25.1768,-25.1768 z"
       style="fill:#ffffff;fill-rule:evenodd"
       id="path3742"
       inkscape:connector-curvature="0" />
    <path
       d="m 865.7561,197.951 c 6.0831,0 11.0143,4.9314 11.0143,11.0145 0,6.0832 -4.9312,11.0143 -11.0143,11.0143 -6.0832,0 -11.0146,-4.9311 -11.0146,-11.0143 0,-6.0831 4.9314,-11.0145 11.0146,-11.0145 z"
       style="fill:#e82128;fill-rule:evenodd"
       id="path3744"
       inkscape:connector-curvature="0" />
    <path
       d="m 807.8699,238.3112 v -19.382 h -7.2404 v -2.5945 h 17.417 v 2.5945 h -7.2705 v 19.382 z m 13.0685,0 v -21.9765 h 4.3794 l 5.1985,15.56 c 0.4814,1.4479 0.8342,2.5326 1.0491,3.2542 0.2506,-0.7977 0.6399,-1.9752 1.172,-3.5254 l 5.2596,-15.2888 h 3.9147 v 21.9765 h -2.8038 v -18.3947 l -6.3864,18.3947 h -2.6246 l -6.3547,-18.7072 v 18.7072 z"
       style="fill:#ffffff;fill-rule:evenodd"
       id="path3746"
       inkscape:connector-curvature="0" />
    <g
       id="Layer1002" />
    <path
       d="m 856.6214,204.3584 c 1.0409,-1.8638 2.4219,-3.0745 3.0847,-2.7043 0.6624,0.37 0.3557,2.1807 -0.6854,4.0445 -1.0409,1.8635 -2.422,3.0742 -3.0844,2.7043 -0.6625,-0.3702 -0.3558,-2.181 0.6851,-4.0445 z"
       style="fill:#ff9387;fill-rule:evenodd"
       id="path3749"
       inkscape:connector-curvature="0" />
    <path
       d="m 849.4965,181.8334 c 3.9773,0 7.2012,3.2242 7.2012,7.2012 0,3.9773 -3.2239,7.2014 -7.2012,7.2014 -3.9773,0 -7.2014,-3.2241 -7.2014,-7.2014 0,-3.977 3.2241,-7.2012 7.2014,-7.2012 z"
       style="fill:#e82128;fill-rule:evenodd"
       id="path3751"
       inkscape:connector-curvature="0" />
    <g
       id="Layer1003" />
    <path
       d="m 843.5242,186.0225 c 0.6806,-1.2183 1.5835,-2.0101 2.0169,-1.768 0.4331,0.2418 0.2324,1.4258 -0.4482,2.6442 -0.6806,1.2186 -1.5834,2.01 -2.0166,1.7682 -0.4331,-0.242 -0.2327,-1.4258 0.4479,-2.6444 z"
       style="fill:#ff9387;fill-rule:evenodd"
       id="path3754"
       inkscape:connector-curvature="0" />
    <g
       id="Layer1004">
      <path
         d="m 190.4873,302.3042 c 39.7328,-23.4728 53.5023,43.7983 27.7982,54.0177 -40.6011,16.1428 -50.1061,-40.839 -27.7982,-54.0177 z m -32.7114,-24.506 c -18.2163,14.932 -20.8869,38.013 -16.9468,68.8696 3.5826,28.0496 17.7374,37.7696 46.1399,39.7099 71.9097,4.9131 94.584,-13.668 80.4093,-86.6363 -13.2398,-37.3089 -75.4962,-36.0282 -109.6024,-21.9432 z"
         style="fill:#1b1918;fill-rule:evenodd"
         id="path3756"
         inkscape:connector-curvature="0" />
      <path
         d="m 607.2842,299.218 c 16.2784,0.1198 24.3752,3.19 24.682,30.4055 0.2355,20.8703 -5.3484,29.109 -23.8755,29.3405 -16.6225,0.2078 -26.6779,-6.0208 -26.8253,-30.4197 -0.1293,-21.3849 7.4798,-29.4627 26.0188,-29.3263 z m -61.2985,-3.4287 c -2.7325,16.1539 -4.5729,30.7306 -4.159,43.2409 0.961,29.0233 14.0613,46.9296 56.3363,47.6242 58.2442,0.9555 75.5732,-3.0029 73.3656,-75.5739 -5.3151,-33.8032 -21.7782,-40.1777 -56.5869,-41.1562 -15.7122,-0.4417 -30.5165,-0.6534 -42.9752,3.2883 -8.4885,2.6849 -15.8898,7.2983 -21.7489,15.0802 z"
         style="fill:#1b1918;fill-rule:evenodd"
         id="path3758"
         inkscape:connector-curvature="0" />
      <path
         d="m 505.762,273.3403 c -9.7072,-1.4035 -21.5951,-1.6041 -34.0728,-1.1395 -18.4289,0.6867 -37.3049,-1.4748 -49.2712,0.5384 -13.6633,10.5081 -9.5288,29.7688 -9.5058,52.3415 0.019,19.2313 -1.0737,41.9198 0.758,60.7324 l 37.9987,-0.0658 c 0.1419,-13.2604 -2.0395,-75.796 3.5912,-85.8545 22.8543,-0.2545 37.3168,-0.9023 38.2731,11.4319 2.003,28.4532 -35.1322,0.6415 -35.5271,25.9911 -0.0888,5.7124 2.9212,12.3113 11.7126,24.0017 5.1755,6.5386 14.6346,20.2787 19.1639,24.3997 l 44.8267,0.2735 -33.5709,-35.2963 c 21.2462,-0.3362 26.8896,-8.8025 31.0898,-25.7913 1.7175,-10.6326 1.9142,-21.3048 -0.0991,-30.2826 -3.5683,-15.9056 -10.0332,-19.0647 -25.3671,-21.2802 z"
         style="fill:#1b1918;fill-rule:evenodd"
         id="path3760"
         inkscape:connector-curvature="0" />
      <path
         d="m 318.6247,324.9348 0.2316,-24.4623 c 6.9525,-0.0912 13.0146,-0.1745 18.6889,-0.188 15.4814,-0.038 24.8215,3.3494 25.0134,9.8984 0.3124,10.6849 -4.9797,15.3339 -18.3234,15.322 -6.0945,-0.005 -16.1713,0.1547 -25.6105,-0.5701 z m -36.6063,62.7838 36.8862,-1.6509 0.1499,-32.4925 c 24.8009,-2.0094 63.8368,7.3799 75.8388,-13.7489 5.6037,-9.8658 11.7633,-38.794 -1.2759,-56.8438 -10.3566,-14.3364 -34.2456,-10.7666 -53.1835,-10.9974 -22.7092,-0.2767 -46.2446,-0.513 -56.426,4.7482 -5.193,16.5725 -4.5959,89.6709 -1.9895,110.9853 z"
         style="fill:#1b1918;fill-rule:evenodd"
         id="path3762"
         inkscape:connector-curvature="0" />
      <path
         d="m -104.741,353.0399 c 10.5176,29.0472 25.3425,34.1743 62.5173,33.6336 31.1437,-0.4536 49.1626,-9.6668 53.8069,-39.2278 l 0.6359,-75.8879 -39.0145,-0.115 c 0.0183,47.1033 8.2966,86.354 -21.0772,85.3795 -21.6189,-0.7176 -19.2702,-16.1935 -19.1274,-34.4392 0.1316,-16.9119 -0.2189,-33.9404 0.3695,-50.8253 l -38.4753,-0.1245 z"
         style="fill:#1b1918;fill-rule:evenodd"
         id="path3764"
         inkscape:connector-curvature="0" />
      <path
         d="m -180.1143,308.2235 c 6.1144,5.434 10.4605,20.3485 11.6658,27.4295 l -21.588,-0.4012 z m -23.4934,-30.4197 c -8.8612,24.6756 -41.49,90.3917 -45.2232,107.9816 l 39.1897,0.0896 10.4795,-23.7709 39.3523,0.1245 11.91,23.3411 38.5514,0.3291 -34.8983,-85.4343 c -6.832,-13.212 -6.6457,-24.2197 -20.9099,-28.8132 -13.7544,-4.4302 -29.5325,-0.0761 -38.4515,6.1525 z"
         style="fill:#1b1918;fill-rule:evenodd"
         id="path3766"
         inkscape:connector-curvature="0" />
      <path
         d="m 685.0428,321.3007 0.777,64.6044 37.9163,0.1094 0.4765,-45.3485 50.3488,-0.0523 -0.1451,-26.1989 -50.0514,-0.1903 -0.2324,-11.1551 c -0.6819,-5.7798 53.3263,-2.1711 70.2422,-2.547 l -0.6438,-28.9599 c -25.5725,-0.8421 -52.3994,-0.3758 -78.0979,-0.3299 -38.3389,0.0682 -30.0677,15.8018 -30.5902,50.0681 z"
         style="fill:#1b1918;fill-rule:evenodd"
         id="path3768"
         inkscape:connector-curvature="0" />
      <path
         d="m 60.0891,300.1434 -0.1118,85.9338 37.9377,-0.1142 1.141,-85.6325 35.7119,-0.4258 6.8455,-17.0784 3.7149,-11.0854 -127.3366,-0.3608 -0.0563,28.6896 z"
         style="fill:#1b1918;fill-rule:evenodd"
         id="path3770"
         inkscape:connector-curvature="0" />
      <path
         d="m 802.4461,311.7489 0.1308,74.0246 38.0725,-0.05 0.1498,-37.4317 0.0952,-75.8824 c -20.232,2.7428 -17.3631,5.0764 -38.6917,-0.8318 z"
         style="fill:#1b1918;fill-rule:evenodd"
         id="path3772"
         inkscape:connector-curvature="0" />
      <g
         id="Layer1005">
        <path
           d="m -190.4488,217.2125 h 19.0473 v 24.1277 h -4.0947 v -20.7466 h -10.8578 v 20.7466 h -4.0948 z m 25.1823,33.3727 v -33.3727 h 3.7229 v 3.1329 c 0.8762,-1.2251 1.869,-2.1481 2.9783,-2.761 1.1014,-0.6122 2.4431,-0.923 4.0171,-0.923 2.0632,0 3.8783,0.5353 5.4523,1.5899 1.5827,1.0625 2.7689,2.5596 3.5674,4.4912 0.8072,1.9308 1.2101,4.048 1.2101,6.3515 0,2.466 -0.4417,4.6918 -1.3338,6.6702 -0.8841,1.9776 -2.1719,3.4898 -3.8624,4.5444 -1.6906,1.0475 -3.4668,1.5748 -5.3278,1.5748 -1.3655,0 -2.5826,-0.2871 -3.669,-0.8611 -1.0855,-0.5741 -1.9696,-1.3029 -2.6674,-2.1791 v 11.742 z m 3.6999,-21.1732 c 0,3.102 0.628,5.3983 1.8841,6.8867 1.2568,1.482 2.7848,2.2266 4.5681,2.2266 1.8151,0 3.374,-0.7684 4.6689,-2.3115 1.2956,-1.5359 1.9466,-3.9163 1.9466,-7.1428 0,-3.079 -0.6359,-5.3746 -1.8998,-6.9105 -1.264,-1.528 -2.7761,-2.2956 -4.5293,-2.2956 -1.7453,0 -3.2884,0.8144 -4.63,2.4431 -1.3417,1.6287 -2.0086,4.002 -2.0086,7.104 z m 20.6531,-0.1396 c 0,-4.4674 1.2409,-7.7788 3.7308,-9.9269 2.0703,-1.7841 4.599,-2.6841 7.5853,-2.6841 3.3192,0 6.0335,1.0863 8.1356,3.2654 2.1092,2.1718 3.1567,5.1731 3.1567,9.0046 0,3.11 -0.4655,5.553 -1.3964,7.3292 -0.9309,1.7834 -2.2876,3.1639 -4.0638,4.1487 -1.7842,0.9848 -3.7229,1.4741 -5.8321,1.4741 -3.374,0 -6.1041,-1.0784 -8.1904,-3.2503 -2.0862,-2.1631 -3.1257,-5.281 -3.1257,-9.3607 z m 4.2041,0 c 0,3.0949 0.6748,5.4055 2.0236,6.9414 1.3496,1.5431 3.0481,2.3115 5.0884,2.3115 2.0315,0 3.722,-0.7763 5.0716,-2.3194 1.3417,-1.5431 2.0165,-3.9013 2.0165,-7.0651 0,-2.9863 -0.6748,-5.2509 -2.0315,-6.786 -1.3575,-1.536 -3.0402,-2.3035 -5.0566,-2.3035 -2.0403,0 -3.7388,0.7675 -5.0884,2.2955 -1.3488,1.528 -2.0236,3.8387 -2.0236,6.9256 z m 37.2431,-21.243 h 4.0868 v 11.5175 c 0.8532,-0.9697 1.7841,-1.6905 2.7999,-2.1639 1.0157,-0.4805 2.1021,-0.7216 3.2725,-0.7216 2.8625,0 5.1271,1.195 6.8018,3.5833 1.6755,2.3812 2.5129,5.3905 2.5129,9.0047 0,3.7768 -0.8992,6.8249 -2.7063,9.1514 -1.7992,2.3193 -4.0409,3.4826 -6.7242,3.4826 -0.877,0 -1.7762,-0.1324 -2.6833,-0.4036 -0.908,-0.2791 -2.0014,-1.0158 -3.2733,-2.2337 v 11.3391 h -4.0868 v -11.3391 c -0.8144,0.8841 -1.7223,1.5438 -2.7151,1.9776 -0.9927,0.4424 -2.0624,0.6597 -3.2185,0.6597 -2.5279,0 -4.7387,-1.1093 -6.6306,-3.3272 -1.8928,-2.2187 -2.8388,-5.3984 -2.8388,-9.532 0,-3.4977 0.8532,-6.4292 2.5668,-8.8025 1.7064,-2.3732 4.0099,-3.5603 6.9026,-3.5603 1.2179,0 2.3114,0.2411 3.2962,0.7216 0.9849,0.4734 1.8611,1.1942 2.6374,2.1639 z m 4.0638,21.3358 c 0,3.638 0.5035,6.0811 1.5042,7.3292 1.0007,1.2489 2.2496,1.8769 3.7459,1.8769 1.6675,0 3.0869,-0.7755 4.266,-2.3107 1.1712,-1.5359 1.7604,-3.9251 1.7604,-7.1666 0,-3.0632 -0.5432,-5.3437 -1.6287,-6.8407 -1.0856,-1.4963 -2.474,-2.2488 -4.1646,-2.2488 -1.823,0 -3.1876,0.7834 -4.1027,2.3423 -0.915,1.559 -1.3805,3.9005 -1.3805,7.0184 z m -15.3102,-0.4576 c 0,3.4129 0.5741,5.8639 1.7144,7.3681 1.1474,1.4971 2.5667,2.2496 4.2581,2.2496 1.7754,0 3.102,-0.7446 3.9782,-2.2417 0.8762,-1.4891 1.3187,-3.7308 1.3187,-6.7162 0,-3.1797 -0.4655,-5.5609 -1.3885,-7.1508 -0.923,-1.5978 -2.3186,-2.3891 -4.1804,-2.3891 -1.6826,0 -3.0481,0.7755 -4.1106,2.3273 -1.0626,1.551 -1.5899,3.7379 -1.5899,6.5528 z m 52.01,4.6618 4.2264,0.5193 c -0.6668,2.474 -1.8999,4.3898 -3.699,5.7544 -1.8072,1.3576 -4.1107,2.0403 -6.9106,2.0403 -3.5286,0 -6.3284,-1.0863 -8.3917,-3.2574 -2.0704,-2.1719 -3.102,-5.22 -3.102,-9.1443 0,-4.0638 1.0467,-7.2126 3.1329,-9.4542 2.0942,-2.2409 4.8013,-3.3661 8.1356,-3.3661 3.2265,0 5.8639,1.1014 7.9033,3.2963 2.0474,2.1949 3.0711,5.2897 3.0711,9.2679 0,0.2482 -0.0079,0.613 -0.023,1.0935 h -17.9935 c 0.1475,2.6524 0.9,4.6847 2.2496,6.0882 1.3496,1.4123 3.0243,2.118 5.0407,2.118 1.4971,0 2.7769,-0.3957 3.8395,-1.1871 1.0625,-0.7834 1.8999,-2.0394 2.5207,-3.7688 z m -13.4253,-6.6156 h 13.4713 c -0.1784,-2.0244 -0.6978,-3.5524 -1.543,-4.561 -1.3028,-1.574 -2.9934,-2.3653 -5.0646,-2.3653 -1.8769,0 -3.4588,0.6288 -4.7386,1.8848 -1.2798,1.2568 -1.9855,2.9394 -2.1251,5.0415 z m 38.5379,5.5451 4.0178,0.5273 c -0.4345,2.769 -1.5589,4.94 -3.3739,6.5069 -1.8072,1.5669 -4.0329,2.3503 -6.6695,2.3503 -3.2963,0 -5.9566,-1.0784 -7.958,-3.2344 -2.0085,-2.156 -3.0163,-5.2509 -3.0163,-9.2838 0,-2.6056 0.4337,-4.8861 1.2948,-6.84 0.8691,-1.9546 2.1798,-3.4207 3.9481,-4.3976 1.7603,-0.9769 3.6832,-1.4662 5.7544,-1.4662 2.6215,0 4.7696,0.6677 6.4292,1.9935 1.6676,1.3266 2.738,3.2035 3.2114,5.6465 l -3.979,0.6122 c -0.3798,-1.6208 -1.0467,-2.8388 -2.0085,-3.6602 -0.9618,-0.8144 -2.1251,-1.2259 -3.4905,-1.2259 -2.0625,0 -3.738,0.7366 -5.0257,2.2186 -1.287,1.4733 -1.9308,3.8077 -1.9308,7.0033 0,3.2416 0.62,5.599 1.8689,7.0731 1.241,1.4653 2.8618,2.2028 4.8632,2.2028 1.6049,0 2.9394,-0.4964 4.017,-1.482 1.0784,-0.9849 1.7604,-2.497 2.0474,-4.5444 z m 23.2666,0 4.0178,0.5273 c -0.4345,2.769 -1.5589,4.94 -3.374,6.5069 -1.8071,1.5669 -4.0329,2.3503 -6.6694,2.3503 -3.2963,0 -5.9566,-1.0784 -7.958,-3.2344 -2.0085,-2.156 -3.0164,-5.2509 -3.0164,-9.2838 0,-2.6056 0.4338,-4.8861 1.2949,-6.84 0.8691,-1.9546 2.1798,-3.4207 3.9481,-4.3976 1.7603,-0.9769 3.6832,-1.4662 5.7544,-1.4662 2.6215,0 4.7695,0.6677 6.4292,1.9935 1.6675,1.3266 2.738,3.2035 3.2114,5.6465 l -3.979,0.6122 c -0.3798,-1.6208 -1.0467,-2.8388 -2.0085,-3.6602 -0.9619,-0.8144 -2.1251,-1.2259 -3.4906,-1.2259 -2.0624,0 -3.7379,0.7366 -5.0256,2.2186 -1.287,1.4733 -1.9309,3.8077 -1.9309,7.0033 0,3.2416 0.6201,5.599 1.869,7.0731 1.241,1.4653 2.8617,2.2028 4.8631,2.2028 1.605,0 2.9395,-0.4964 4.0171,-1.482 1.0784,-0.9849 1.7603,-2.497 2.0474,-4.5444 z m 7.5226,-15.2864 h 4.0877 v 18.4043 l 11.3383,-18.4043 h 4.4056 v 24.1277 H 12.9431 V 223.0525 L 1.6047,241.3402 h -4.4056 z m 24.4687,12.0599 c 0,-4.4674 1.241,-7.7788 3.7308,-9.9269 2.0704,-1.7841 4.5991,-2.6841 7.5853,-2.6841 3.3193,0 6.0335,1.0863 8.1356,3.2654 2.1093,2.1718 3.1567,5.1731 3.1567,9.0046 0,3.11 -0.4654,5.553 -1.3963,7.3292 -0.9309,1.7834 -2.2877,3.1639 -4.0639,4.1487 -1.7841,0.9848 -3.7228,1.4741 -5.8321,1.4741 -3.374,0 -6.1041,-1.0784 -8.1903,-3.2503 -2.0862,-2.1631 -3.1258,-5.281 -3.1258,-9.3607 z m 4.2042,0 c 0,3.0949 0.6748,5.4055 2.0236,6.9414 1.3496,1.5431 3.0481,2.3115 5.0883,2.3115 2.0316,0 3.7221,-0.7763 5.0717,-2.3194 1.3417,-1.5431 2.0165,-3.9013 2.0165,-7.0651 0,-2.9863 -0.6748,-5.2509 -2.0316,-6.786 -1.3575,-1.536 -3.0401,-2.3035 -5.0566,-2.3035 -2.0402,0 -3.7387,0.7675 -5.0883,2.2955 -1.3488,1.528 -2.0236,3.8387 -2.0236,6.9256 z m 23.2206,-12.0599 h 4.0948 v 10.0434 h 11.3391 v -10.0434 h 4.0868 v 24.1277 H 64.5265 V 230.6371 H 53.1874 v 10.7031 h -4.0948 z m 41.4226,21.1494 c -1.5201,1.2878 -2.9783,2.1949 -4.3739,2.7301 -1.4035,0.5273 -2.9085,0.7914 -4.5142,0.7914 -2.6524,0 -4.6839,-0.6439 -6.1112,-1.9396 -1.4194,-1.2948 -2.133,-2.9545 -2.133,-4.963 0,-1.187 0.264,-2.2646 0.8072,-3.2423 0.5352,-0.9769 1.2409,-1.7604 2.1092,-2.3495 0.8762,-0.59 1.8539,-1.0396 2.9474,-1.3417 0.7985,-0.2093 2.0085,-0.4195 3.6293,-0.6129 3.3042,-0.3957 5.7393,-0.8612 7.2983,-1.4115 0.0158,-0.5582 0.0229,-0.915 0.0229,-1.0625 0,-1.6676 -0.3877,-2.8467 -1.1632,-3.5215 -1.0388,-0.9301 -2.5977,-1.3876 -4.653,-1.3876 -1.9237,0 -3.3431,0.333 -4.266,1.0078 -0.9151,0.6748 -1.5899,1.869 -2.0316,3.5833 l -3.9948,-0.5511 c 0.3647,-1.7056 0.9618,-3.0941 1.792,-4.1415 0.8295,-1.0547 2.0395,-1.869 3.6143,-2.4352 1.574,-0.5661 3.397,-0.8532 5.4753,-0.8532 2.0632,0 3.7308,0.2482 5.0177,0.7295 1.2878,0.4885 2.2337,1.0935 2.8467,1.8301 0.605,0.7367 1.0237,1.6597 1.2719,2.7841 0.1316,0.6986 0.2014,1.9546 0.2014,3.7696 v 5.4523 c 0,3.8077 0.0856,6.2119 0.264,7.2126 0.1705,1.0079 0.5194,1.9776 1.0316,2.9006 h -4.2739 c -0.4187,-0.8453 -0.6978,-1.838 -0.8144,-2.9783 z m -0.3409,-9.1363 c -1.4892,0.613 -3.715,1.1252 -6.6774,1.5518 -1.6835,0.2403 -2.8776,0.5115 -3.5683,0.8136 -0.6978,0.3029 -1.2401,0.7445 -1.6128,1.3345 -0.3799,0.5812 -0.5741,1.2251 -0.5741,1.9387 0,1.0935 0.4187,2.0006 1.2409,2.7302 0.8223,0.7207 2.0324,1.0855 3.6222,1.0855 1.574,0 2.9783,-0.341 4.2034,-1.0316 1.2251,-0.6899 2.133,-1.6359 2.7071,-2.8308 0.4417,-0.923 0.659,-2.2877 0.659,-4.0869 z m 12.4714,-12.0131 h 19.0013 v 24.1277 h -4.0718 v -20.7466 h -10.8348 v 12.0219 c 0,2.7991 -0.0927,4.653 -0.2711,5.545 -0.1864,0.8921 -0.6828,1.6755 -1.505,2.3424 -0.8144,0.6668 -2.0006,0.9999 -3.5437,0.9999 -0.9547,0 -2.0553,-0.0619 -3.2963,-0.1856 v -3.4049 h 1.7992 c 0.8453,0 1.4503,-0.0927 1.8151,-0.264 0.3639,-0.1784 0.6042,-0.4496 0.7287,-0.8294 0.1237,-0.3799 0.1784,-1.6137 0.1784,-3.7071 z m 25.0895,0 h 4.0877 v 9.4234 h 5.1803 c 3.3819,0 5.9796,0.6589 7.8025,1.9696 1.8302,1.3108 2.7373,3.1179 2.7373,5.4214 0,2.0085 -0.7597,3.7379 -2.2797,5.1652 -1.5201,1.4345 -3.9552,2.1481 -7.3062,2.1481 h -10.2219 z m 4.0877,20.7617 h 4.2961 c 2.5906,0 4.4366,-0.318 5.5459,-0.9539 1.1006,-0.636 1.6517,-1.6287 1.6517,-2.9704 0,-1.0467 -0.4036,-1.9776 -1.2251,-2.7999 -0.8144,-0.8143 -2.6294,-1.2251 -5.4293,-1.2251 h -4.8393 z m 20.2423,-20.7617 h 4.0947 v 10.0434 h 11.3391 v -10.0434 h 4.0869 v 24.1277 h -4.0869 v -10.7031 h -11.3391 v 10.7031 h -4.0947 z m 41.4226,21.1494 c -1.5201,1.2878 -2.9783,2.1949 -4.3739,2.7301 -1.4035,0.5273 -2.9085,0.7914 -4.5142,0.7914 -2.6524,0 -4.684,-0.6439 -6.1113,-1.9396 -1.4193,-1.2948 -2.133,-2.9545 -2.133,-4.963 0,-1.187 0.2641,-2.2646 0.8072,-3.2423 0.5353,-0.9769 1.241,-1.7604 2.1093,-2.3495 0.8762,-0.59 1.8539,-1.0396 2.9473,-1.3417 0.7985,-0.2093 2.0086,-0.4195 3.6293,-0.6129 3.3042,-0.3957 5.7394,-0.8612 7.2983,-1.4115 0.0159,-0.5582 0.023,-0.915 0.023,-1.0625 0,-1.6676 -0.3877,-2.8467 -1.1632,-3.5215 -1.0388,-0.9301 -2.5977,-1.3876 -4.653,-1.3876 -1.9237,0 -3.3431,0.333 -4.2661,1.0078 -0.915,0.6748 -1.5898,1.869 -2.0315,3.5833 l -3.9949,-0.5511 c 0.3648,-1.7056 0.9619,-3.0941 1.7921,-4.1415 0.8294,-1.0547 2.0394,-1.869 3.6142,-2.4352 1.574,-0.5661 3.397,-0.8532 5.4753,-0.8532 2.0633,0 3.7308,0.2482 5.0178,0.7295 1.2877,0.4885 2.2337,1.0935 2.8466,1.8301 0.6051,0.7367 1.0237,1.6597 1.2719,2.7841 0.1317,0.6986 0.2014,1.9546 0.2014,3.7696 v 5.4523 c 0,3.8077 0.0857,6.2119 0.2641,7.2126 0.1705,1.0079 0.5194,1.9776 1.0316,2.9006 h -4.274 c -0.4186,-0.8453 -0.6978,-1.838 -0.8143,-2.9783 z m -0.341,-9.1363 c -1.4891,0.613 -3.7149,1.1252 -6.6774,1.5518 -1.6834,0.2403 -2.8776,0.5115 -3.5682,0.8136 -0.6978,0.3029 -1.2402,0.7445 -1.6129,1.3345 -0.3798,0.5812 -0.5741,1.2251 -0.5741,1.9387 0,1.0935 0.4187,2.0006 1.241,2.7302 0.8223,0.7207 2.0323,1.0855 3.6222,1.0855 1.574,0 2.9783,-0.341 4.2034,-1.0316 1.2251,-0.6899 2.133,-1.6359 2.7071,-2.8308 0.4416,-0.923 0.6589,-2.2877 0.6589,-4.0869 z m 29.4714,-12.0131 v 24.1277 h -4.071 v -9.4075 h -2.3582 c -1.4424,0 -2.5129,0.1864 -3.2186,0.5583 -0.7057,0.3726 -1.7294,1.5668 -3.079,3.5754 l -3.5674,5.2738 h -5.0646 l 4.4056,-6.4989 c 1.3488,-1.9856 2.6913,-3.1028 4.025,-3.3582 -2.3344,-0.3259 -4.0638,-1.164 -5.1962,-2.5287 -1.1251,-1.3575 -1.6913,-2.9315 -1.6913,-4.6997 0,-2.0942 0.7374,-3.7848 2.2187,-5.0876 1.4732,-1.3036 3.6142,-1.9546 6.4141,-1.9546 z m -4.071,3.3811 h -5.817 c -2.4352,0 -4.01,0.3806 -4.7157,1.1403 -0.6978,0.7525 -1.0546,1.6445 -1.0546,2.6524 0,1.4423 0.5194,2.4978 1.5589,3.1718 1.0396,0.6748 2.8697,1.0165 5.5062,1.0165 h 4.5222 z m 25.1982,-3.3811 h 19.0013 v 24.1277 h -4.0718 v -20.7466 h -10.8347 v 12.0219 c 0,2.7991 -0.0928,4.653 -0.2712,5.545 -0.1864,0.8921 -0.6828,1.6755 -1.505,2.3424 -0.8144,0.6668 -2.0006,0.9999 -3.5437,0.9999 -0.9547,0 -2.0553,-0.0619 -3.2963,-0.1856 v -3.4049 h 1.7992 c 0.8453,0 1.4503,-0.0927 1.8151,-0.264 0.3639,-0.1784 0.6042,-0.4496 0.7287,-0.8294 0.1237,-0.3799 0.1784,-1.6137 0.1784,-3.7071 z m 25.1593,0 h 4.0877 v 18.4043 l 11.3383,-18.4043 h 4.4056 v 24.1277 h -4.0877 v -18.2877 l -11.3383,18.2877 h -4.4056 z m 26.0126,0 h 4.0947 v 10.0434 h 11.3391 v -10.0434 h 4.0869 v 24.1277 h -4.0869 V 230.6371 H 299.012 v 10.7031 h -4.0947 z m 25.6787,0 h 4.0876 v 18.4043 l 11.3383,-18.4043 h 4.4056 v 24.1277 h -4.0876 v -18.2877 l -11.3383,18.2877 h -4.4056 z m 44.9901,0 v 24.1277 h -4.071 v -9.4075 h -2.3582 c -1.4424,0 -2.5129,0.1864 -3.2186,0.5583 -0.7057,0.3726 -1.7294,1.5668 -3.079,3.5754 l -3.5675,5.2738 h -5.0645 l 4.4056,-6.4989 c 1.3488,-1.9856 2.6913,-3.1028 4.025,-3.3582 -2.3344,-0.3259 -4.0638,-1.164 -5.1962,-2.5287 -1.1252,-1.3575 -1.6913,-2.9315 -1.6913,-4.6997 0,-2.0942 0.7374,-3.7848 2.2186,-5.0876 1.4733,-1.3036 3.6143,-1.9546 6.4142,-1.9546 z m -4.071,3.3811 h -5.8171 c -2.4351,0 -4.0099,0.3806 -4.7156,1.1403 -0.6978,0.7525 -1.0546,1.6445 -1.0546,2.6524 0,1.4423 0.5194,2.4978 1.5589,3.1718 1.0396,0.6748 2.8697,1.0165 5.5062,1.0165 h 4.5222 z m 38.9486,17.7683 c -1.5201,1.2878 -2.9783,2.1949 -4.3739,2.7301 -1.4035,0.5273 -2.9085,0.7914 -4.5142,0.7914 -2.6524,0 -4.6839,-0.6439 -6.1112,-1.9396 -1.4194,-1.2948 -2.133,-2.9545 -2.133,-4.963 0,-1.187 0.264,-2.2646 0.8072,-3.2423 0.5352,-0.9769 1.2409,-1.7604 2.1092,-2.3495 0.8762,-0.59 1.8539,-1.0396 2.9474,-1.3417 0.7985,-0.2093 2.0085,-0.4195 3.6293,-0.6129 3.3042,-0.3957 5.7393,-0.8612 7.2983,-1.4115 0.0158,-0.5582 0.0229,-0.915 0.0229,-1.0625 0,-1.6676 -0.3877,-2.8467 -1.1632,-3.5215 -1.0388,-0.9301 -2.5977,-1.3876 -4.653,-1.3876 -1.9237,0 -3.3431,0.333 -4.266,1.0078 -0.9151,0.6748 -1.5899,1.869 -2.0316,3.5833 l -3.9948,-0.5511 c 0.3647,-1.7056 0.9618,-3.0941 1.792,-4.1415 0.8295,-1.0547 2.0395,-1.869 3.6143,-2.4352 1.574,-0.5661 3.397,-0.8532 5.4753,-0.8532 2.0632,0 3.7308,0.2482 5.0177,0.7295 1.2878,0.4885 2.2337,1.0935 2.8467,1.8301 0.605,0.7367 1.0237,1.6597 1.2719,2.7841 0.1316,0.6986 0.2014,1.9546 0.2014,3.7696 v 5.4523 c 0,3.8077 0.0856,6.2119 0.264,7.2126 0.1705,1.0079 0.5194,1.9776 1.0316,2.9006 h -4.2739 c -0.4187,-0.8453 -0.6978,-1.838 -0.8144,-2.9783 z m -0.3409,-9.1363 c -1.4892,0.613 -3.715,1.1252 -6.6774,1.5518 -1.6835,0.2403 -2.8776,0.5115 -3.5683,0.8136 -0.6978,0.3029 -1.2401,0.7445 -1.6128,1.3345 -0.3799,0.5812 -0.5741,1.2251 -0.5741,1.9387 0,1.0935 0.4187,2.0006 1.2409,2.7302 0.8223,0.7207 2.0324,1.0855 3.6222,1.0855 1.574,0 2.9783,-0.341 4.2034,-1.0316 1.2251,-0.6899 2.133,-1.6359 2.7071,-2.8308 0.4417,-0.923 0.659,-2.2877 0.659,-4.0869 z m 10.4938,-12.0131 h 9.4305 c 2.3193,0 4.0408,0.1935 5.1731,0.5741 1.1244,0.3878 2.0942,1.0935 2.9086,2.1251 0.8064,1.0308 1.2171,2.2646 1.2171,3.707 0,1.1474 -0.2402,2.156 -0.7208,3.0092 -0.4733,0.8532 -1.1941,1.574 -2.148,2.1481 1.1394,0.3798 2.0783,1.0856 2.8308,2.1251 0.7517,1.0396 1.1244,2.2647 1.1244,3.692 -0.1475,2.2876 -0.9698,3.9861 -2.451,5.0875 -1.4892,1.1093 -3.6452,1.6596 -6.476,1.6596 h -10.8887 z m 4.0947,10.1521 h 4.3589 c 1.7452,0 2.9394,-0.0857 3.5904,-0.2712 0.6518,-0.1784 1.2338,-0.5511 1.7532,-1.1014 0.5115,-0.5511 0.7676,-1.218 0.7676,-1.9855 0,-1.2719 -0.4496,-2.164 -1.3496,-2.6604 -0.8992,-0.5043 -2.4431,-0.7525 -4.6221,-0.7525 h -4.4984 z m 0,10.6096 h 5.3826 c 2.3185,0 3.9084,-0.2633 4.7695,-0.8064 0.8691,-0.5353 1.3187,-1.4662 1.3655,-2.7769 0,-0.7755 -0.2482,-1.4892 -0.7525,-2.1481 -0.4964,-0.659 -1.1482,-1.0776 -1.9467,-1.2489 -0.8064,-0.1784 -2.0942,-0.2633 -3.8704,-0.2633 h -4.948 z m 17.3806,-20.7617 h 19.6135 v 3.3811 h -7.7709 v 20.7466 h -4.0717 v -20.7466 h -7.7709 z m 21.4753,12.0599 c 0,-4.4674 1.241,-7.7788 3.7308,-9.9269 2.0704,-1.7841 4.5991,-2.6841 7.5853,-2.6841 3.3193,0 6.0335,1.0863 8.1356,3.2654 2.1093,2.1718 3.1567,5.1731 3.1567,9.0046 0,3.11 -0.4654,5.553 -1.3963,7.3292 -0.931,1.7834 -2.2877,3.1639 -4.0639,4.1487 -1.7841,0.9848 -3.7228,1.4741 -5.8321,1.4741 -3.374,0 -6.1041,-1.0784 -8.1903,-3.2503 -2.0862,-2.1631 -3.1258,-5.281 -3.1258,-9.3607 z m 4.2042,0 c 0,3.0949 0.6748,5.4055 2.0236,6.9414 1.3496,1.5431 3.0481,2.3115 5.0883,2.3115 2.0315,0 3.7221,-0.7763 5.0717,-2.3194 1.3417,-1.5431 2.0164,-3.9013 2.0164,-7.0651 0,-2.9863 -0.6747,-5.2509 -2.0315,-6.786 -1.3575,-1.536 -3.0401,-2.3035 -5.0566,-2.3035 -2.0402,0 -3.7387,0.7675 -5.0883,2.2955 -1.3488,1.528 -2.0236,3.8387 -2.0236,6.9256 z m 38.9486,9.0895 c -1.52,1.2878 -2.9783,2.1949 -4.3738,2.7301 -1.4036,0.5273 -2.9086,0.7914 -4.5143,0.7914 -2.6524,0 -4.6839,-0.6439 -6.1112,-1.9396 -1.4194,-1.2948 -2.133,-2.9545 -2.133,-4.963 0,-1.187 0.264,-2.2646 0.8072,-3.2423 0.5352,-0.9769 1.241,-1.7604 2.1092,-2.3495 0.8762,-0.59 1.8539,-1.0396 2.9474,-1.3417 0.7985,-0.2093 2.0085,-0.4195 3.6293,-0.6129 3.3042,-0.3957 5.7393,-0.8612 7.2983,-1.4115 0.0158,-0.5582 0.023,-0.915 0.023,-1.0625 0,-1.6676 -0.3878,-2.8467 -1.1633,-3.5215 -1.0387,-0.9301 -2.5977,-1.3876 -4.653,-1.3876 -1.9237,0 -3.343,0.333 -4.266,1.0078 -0.9151,0.6748 -1.5899,1.869 -2.0315,3.5833 l -3.9949,-0.5511 c 0.3648,-1.7056 0.9618,-3.0941 1.7921,-4.1415 0.8294,-1.0547 2.0394,-1.869 3.6142,-2.4352 1.574,-0.5661 3.397,-0.8532 5.4753,-0.8532 2.0632,0 3.7308,0.2482 5.0177,0.7295 1.2878,0.4885 2.2338,1.0935 2.8467,1.8301 0.605,0.7367 1.0237,1.6597 1.2719,2.7841 0.1316,0.6986 0.2014,1.9546 0.2014,3.7696 v 5.4523 c 0,3.8077 0.0856,6.2119 0.264,7.2126 0.1705,1.0079 0.5194,1.9776 1.0317,2.9006 h -4.274 c -0.4187,-0.8453 -0.6978,-1.838 -0.8144,-2.9783 z m -0.3409,-9.1363 c -1.4892,0.613 -3.715,1.1252 -6.6774,1.5518 -1.6834,0.2403 -2.8776,0.5115 -3.5683,0.8136 -0.6978,0.3029 -1.2401,0.7445 -1.6128,1.3345 -0.3798,0.5812 -0.5741,1.2251 -0.5741,1.9387 0,1.0935 0.4187,2.0006 1.241,2.7302 0.8222,0.7207 2.0323,1.0855 3.6221,1.0855 1.574,0 2.9783,-0.341 4.2034,-1.0316 1.2251,-0.6899 2.133,-1.6359 2.7071,-2.8308 0.4417,-0.923 0.659,-2.2877 0.659,-4.0869 z m 10.4549,-12.0131 h 4.0869 v 10.4233 c 1.3036,0 2.2186,-0.2482 2.738,-0.7446 0.5194,-0.5035 1.2878,-1.9538 2.3035,-4.366 0.8064,-1.9078 1.4582,-3.1646 1.9546,-3.7696 0.5035,-0.605 1.0776,-1.0158 1.7294,-1.2251 0.651,-0.2173 1.6985,-0.318 3.133,-0.318 h 0.8222 v 3.3811 l -1.1402,-0.023 c -1.0705,0 -1.7603,0.1626 -2.0625,0.4806 -0.3179,0.3338 -0.8072,1.3266 -1.4582,2.9783 -0.6209,1.5747 -1.187,2.6603 -1.7064,3.2653 -0.5122,0.6129 -1.3107,1.1632 -2.3812,1.6596 1.7532,0.4734 3.4826,2.1093 5.1811,4.9092 l 4.4746,7.4766 h -4.4976 l -4.3667,-7.4766 c -0.8921,-1.4963 -1.6755,-2.4891 -2.3345,-2.9625 -0.6668,-0.4805 -1.4661,-0.7136 -2.3891,-0.7136 v 11.1527 h -4.0869 z m 36.6452,15.2864 4.0178,0.5273 c -0.4345,2.769 -1.5589,4.94 -3.3739,6.5069 -1.8072,1.5669 -4.033,2.3503 -6.6695,2.3503 -3.2963,0 -5.9566,-1.0784 -7.958,-3.2344 -2.0085,-2.156 -3.0164,-5.2509 -3.0164,-9.2838 0,-2.6056 0.4338,-4.8861 1.2949,-6.84 0.8691,-1.9546 2.1798,-3.4207 3.9481,-4.3976 1.7603,-0.9769 3.6832,-1.4662 5.7544,-1.4662 2.6215,0 4.7696,0.6677 6.4292,1.9935 1.6675,1.3266 2.738,3.2035 3.2114,5.6465 l -3.979,0.6122 c -0.3798,-1.6208 -1.0467,-2.8388 -2.0085,-3.6602 -0.9619,-0.8144 -2.1251,-1.2259 -3.4906,-1.2259 -2.0624,0 -3.7379,0.7366 -5.0256,2.2186 -1.287,1.4733 -1.9309,3.8077 -1.9309,7.0033 0,3.2416 0.6201,5.599 1.869,7.0731 1.241,1.4653 2.8617,2.2028 4.8631,2.2028 1.605,0 2.9395,-0.4964 4.0171,-1.482 1.0784,-0.9849 1.7603,-2.497 2.0474,-4.5444 z m 24.0349,1.0705 4.2264,0.5193 c -0.6669,2.474 -1.8999,4.3898 -3.6991,5.7544 -1.8071,1.3576 -4.1106,2.0403 -6.9105,2.0403 -3.5286,0 -6.3285,-1.0863 -8.3917,-3.2574 -2.0704,-2.1719 -3.102,-5.22 -3.102,-9.1443 0,-4.0638 1.0467,-7.2126 3.1329,-9.4542 2.0942,-2.2409 4.8013,-3.3661 8.1356,-3.3661 3.2265,0 5.8638,1.1014 7.9033,3.2963 2.0474,2.1949 3.0711,5.2897 3.0711,9.2679 0,0.2482 -0.008,0.613 -0.023,1.0935 h -17.9935 c 0.1475,2.6524 0.9,4.6847 2.2496,6.0882 1.3496,1.4123 3.0243,2.118 5.0407,2.118 1.4971,0 2.7769,-0.3957 3.8394,-1.1871 1.0626,-0.7834 1.8999,-2.0394 2.5208,-3.7688 z m -13.4253,-6.6156 h 13.4713 c -0.1784,-2.0244 -0.6978,-3.5524 -1.5431,-4.561 -1.3028,-1.574 -2.9933,-2.3653 -5.0645,-2.3653 -1.8769,0 -3.4588,0.6288 -4.7386,1.8848 -1.2798,1.2568 -1.9856,2.9394 -2.1251,5.0415 z m 38.5379,5.5451 4.0178,0.5273 c -0.4345,2.769 -1.5589,4.94 -3.374,6.5069 -1.8071,1.5669 -4.0329,2.3503 -6.6694,2.3503 -3.2963,0 -5.9566,-1.0784 -7.958,-3.2344 -2.0085,-2.156 -3.0164,-5.2509 -3.0164,-9.2838 0,-2.6056 0.4338,-4.8861 1.2949,-6.84 0.8691,-1.9546 2.1798,-3.4207 3.9481,-4.3976 1.7603,-0.9769 3.6832,-1.4662 5.7544,-1.4662 2.6215,0 4.7695,0.6677 6.4292,1.9935 1.6675,1.3266 2.738,3.2035 3.2114,5.6465 l -3.979,0.6122 c -0.3798,-1.6208 -1.0467,-2.8388 -2.0085,-3.6602 -0.9619,-0.8144 -2.1251,-1.2259 -3.4906,-1.2259 -2.0624,0 -3.7379,0.7366 -5.0256,2.2186 -1.287,1.4733 -1.9309,3.8077 -1.9309,7.0033 0,3.2416 0.6201,5.599 1.869,7.0731 1.241,1.4653 2.8617,2.2028 4.8631,2.2028 1.6049,0 2.9395,-0.4964 4.0171,-1.482 1.0784,-0.9849 1.7603,-2.497 2.0474,-4.5444 z m 23.2665,0 4.0179,0.5273 c -0.4345,2.769 -1.5589,4.94 -3.374,6.5069 -1.8071,1.5669 -4.0329,2.3503 -6.6694,2.3503 -3.2963,0 -5.9566,-1.0784 -7.958,-3.2344 -2.0086,-2.156 -3.0164,-5.2509 -3.0164,-9.2838 0,-2.6056 0.4337,-4.8861 1.2949,-6.84 0.8691,-1.9546 2.1798,-3.4207 3.9481,-4.3976 1.7603,-0.9769 3.6832,-1.4662 5.7544,-1.4662 2.6214,0 4.7695,0.6677 6.4291,1.9935 1.6676,1.3266 2.7381,3.2035 3.2115,5.6465 l -3.979,0.6122 c -0.3798,-1.6208 -1.0467,-2.8388 -2.0086,-3.6602 -0.9618,-0.8144 -2.125,-1.2259 -3.4905,-1.2259 -2.0624,0 -3.7379,0.7366 -5.0257,2.2186 -1.2869,1.4733 -1.9308,3.8077 -1.9308,7.0033 0,3.2416 0.6201,5.599 1.869,7.0731 1.2409,1.4653 2.8617,2.2028 4.8631,2.2028 1.6049,0 2.9395,-0.4964 4.0171,-1.482 1.0784,-0.9849 1.7603,-2.497 2.0473,-4.5444 z m 7.3364,18.1323 -0.4576,-3.8387 c 0.9,0.2403 1.6755,0.3648 2.3424,0.3648 0.9079,0 1.6366,-0.1555 2.1798,-0.4576 0.5503,-0.3029 0.9928,-0.7215 1.3417,-1.2726 0.2632,-0.4029 0.6748,-1.4186 1.2481,-3.0402 0.0777,-0.2323 0.2022,-0.5582 0.3647,-0.9999 l -9.1514,-24.1745 h 4.4048 l 5.0257,13.9677 c 0.6439,1.7762 1.2331,3.6373 1.7453,5.5919 0.4734,-1.8769 1.0316,-3.707 1.6826,-5.4991 l 5.1581,-14.0605 h 4.0869 l -9.1752,24.5385 c -0.9848,2.6524 -1.7524,4.4753 -2.2956,5.476 -0.7287,1.3496 -1.5589,2.3345 -2.497,2.9625 -0.9459,0.628 -2.0632,0.946 -3.366,0.946 -0.7914,0 -1.6676,-0.1705 -2.6373,-0.5043 z m 38.6774,-12.2693 c -1.5201,1.2878 -2.9783,2.1949 -4.3739,2.7301 -1.4035,0.5273 -2.9085,0.7914 -4.5142,0.7914 -2.6524,0 -4.6839,-0.6439 -6.1112,-1.9396 -1.4194,-1.2948 -2.133,-2.9545 -2.133,-4.963 0,-1.187 0.264,-2.2646 0.8072,-3.2423 0.5352,-0.9769 1.2409,-1.7604 2.1092,-2.3495 0.8762,-0.59 1.8539,-1.0396 2.9474,-1.3417 0.7985,-0.2093 2.0085,-0.4195 3.6293,-0.6129 3.3042,-0.3957 5.7393,-0.8612 7.2983,-1.4115 0.0158,-0.5582 0.0229,-0.915 0.0229,-1.0625 0,-1.6676 -0.3877,-2.8467 -1.1632,-3.5215 -1.0388,-0.9301 -2.5977,-1.3876 -4.653,-1.3876 -1.9237,0 -3.3431,0.333 -4.266,1.0078 -0.9151,0.6748 -1.5899,1.869 -2.0316,3.5833 l -3.9948,-0.5511 c 0.3647,-1.7056 0.9618,-3.0941 1.792,-4.1415 0.8295,-1.0547 2.0395,-1.869 3.6143,-2.4352 1.574,-0.5661 3.3969,-0.8532 5.4753,-0.8532 2.0632,0 3.7308,0.2482 5.0177,0.7295 1.2878,0.4885 2.2337,1.0935 2.8467,1.8301 0.605,0.7367 1.0237,1.6597 1.2719,2.7841 0.1316,0.6986 0.2014,1.9546 0.2014,3.7696 v 5.4523 c 0,3.8077 0.0856,6.2119 0.264,7.2126 0.1705,1.0079 0.5194,1.9776 1.0316,2.9006 h -4.2739 c -0.4187,-0.8453 -0.6978,-1.838 -0.8144,-2.9783 z m -0.3409,-9.1363 c -1.4892,0.613 -3.715,1.1252 -6.6774,1.5518 -1.6835,0.2403 -2.8776,0.5115 -3.5683,0.8136 -0.6978,0.3029 -1.2401,0.7445 -1.6128,1.3345 -0.3799,0.5812 -0.5741,1.2251 -0.5741,1.9387 0,1.0935 0.4186,2.0006 1.2409,2.7302 0.8223,0.7207 2.0323,1.0855 3.6222,1.0855 1.574,0 2.9783,-0.341 4.2034,-1.0316 1.2251,-0.6899 2.133,-1.6359 2.7071,-2.8308 0.4417,-0.923 0.659,-2.2877 0.659,-4.0869 z m 10.4779,21.3596 v -33.3727 h 3.7229 v 3.1329 c 0.8762,-1.2251 1.869,-2.1481 2.9783,-2.761 1.1014,-0.6122 2.4431,-0.923 4.017,-0.923 2.0633,0 3.8783,0.5353 5.4523,1.5899 1.5828,1.0625 2.769,2.5596 3.5675,4.4912 0.8072,1.9308 1.21,4.048 1.21,6.3515 0,2.466 -0.4416,4.6918 -1.3337,6.6702 -0.8841,1.9776 -2.1719,3.4898 -3.8624,4.5444 -1.6906,1.0475 -3.4668,1.5748 -5.3278,1.5748 -1.3655,0 -2.5827,-0.2871 -3.669,-0.8611 -1.0855,-0.5741 -1.9697,-1.3029 -2.6675,-2.1791 v 11.742 z m 3.6999,-21.1732 c 0,3.102 0.628,5.3983 1.884,6.8867 1.2569,1.482 2.7849,2.2266 4.5682,2.2266 1.815,0 3.374,-0.7684 4.6688,-2.3115 1.2957,-1.5359 1.9467,-3.9163 1.9467,-7.1428 0,-3.079 -0.6359,-5.3746 -1.8999,-6.9105 -1.2639,-1.528 -2.7761,-2.2956 -4.5293,-2.2956 -1.7452,0 -3.2883,0.8144 -4.63,2.4431 -1.3416,1.6287 -2.0085,4.002 -2.0085,7.104 z"
           style="fill:#1b1918;fill-rule:evenodd"
           id="path3774"
           inkscape:connector-curvature="0" />
        <path
           d="m 696.3969,229.2724 c 0,-4.4674 1.241,-7.7788 3.7308,-9.9269 2.0704,-1.7841 4.5991,-2.6841 7.5853,-2.6841 3.3193,0 6.0336,1.0863 8.1356,3.2654 2.1093,2.1718 3.1568,5.1731 3.1568,9.0046 0,3.11 -0.4655,5.553 -1.3964,7.3292 -0.9309,1.7834 -2.2877,3.1639 -4.0639,4.1487 -1.7841,0.9848 -3.7228,1.4741 -5.8321,1.4741 -3.3739,0 -6.104,-1.0784 -8.1903,-3.2503 -2.0862,-2.1631 -3.1258,-5.281 -3.1258,-9.3607 z m 4.2042,0 c 0,3.0949 0.6748,5.4055 2.0236,6.9414 1.3496,1.5431 3.0481,2.3115 5.0883,2.3115 2.0316,0 3.7221,-0.7763 5.0717,-2.3194 1.3417,-1.5431 2.0165,-3.9013 2.0165,-7.0651 0,-2.9863 -0.6748,-5.2509 -2.0316,-6.786 -1.3575,-1.536 -3.0401,-2.3035 -5.0566,-2.3035 -2.0402,0 -3.7387,0.7675 -5.0883,2.2955 -1.3488,1.528 -2.0236,3.8387 -2.0236,6.9256 z m 23.2206,-12.0599 h 9.4305 c 2.3194,0 4.0408,0.1935 5.1732,0.5741 1.1244,0.3878 2.0941,1.0935 2.9085,2.1251 0.8064,1.0308 1.2172,2.2646 1.2172,3.707 0,1.1474 -0.2403,2.156 -0.7208,3.0092 -0.4734,0.8532 -1.1942,1.574 -2.1481,2.1481 1.1394,0.3798 2.0783,1.0856 2.8308,2.1251 0.7517,1.0396 1.1244,2.2647 1.1244,3.692 -0.1475,2.2876 -0.9698,3.9861 -2.451,5.0875 -1.4892,1.1093 -3.6452,1.6596 -6.476,1.6596 h -10.8887 z m 4.0948,10.1521 h 4.3588 c 1.7453,0 2.9394,-0.0857 3.5904,-0.2712 0.6518,-0.1784 1.2339,-0.5511 1.7532,-1.1014 0.5115,-0.5511 0.7676,-1.218 0.7676,-1.9855 0,-1.2719 -0.4496,-2.164 -1.3496,-2.6604 -0.8992,-0.5043 -2.443,-0.7525 -4.6221,-0.7525 h -4.4983 z m 0,10.6096 h 5.3825 c 2.3185,0 3.9084,-0.2633 4.7695,-0.8064 0.8691,-0.5353 1.3187,-1.4662 1.3655,-2.7769 0,-0.7755 -0.2482,-1.4892 -0.7525,-2.1481 -0.4964,-0.659 -1.1482,-1.0776 -1.9467,-1.2489 -0.8064,-0.1784 -2.0942,-0.2633 -3.8704,-0.2633 h -4.9479 z"
           style="fill:#1b1918;fill-rule:evenodd"
           id="path3776"
           inkscape:connector-curvature="0" />
      </g>
    </g>
  </g>
</svg>
