<svg xmlns="http://www.w3.org/2000/svg" width="138.8976" height="76.5354">
  <g fill-rule="evenodd">
    <path fill="#009ee0" d="M68.6357 1.5582c9.3697 0 18.3105.9322 26.4879 2.6228.4318.0893.8619.1806 1.2893.274-21.221-2.8152-64.9978 1.6038-79.9969 20.6365-11.6653 14.8028 6.9737 28.6881 25.703 27.7448-.7809 1.7669-1.1813 3.6297-1.1813 5.5715 0 2.169.5078 4.2176 1.5441 6.1232.995 1.8568 2.3933 3.3423 4.1921 4.4409.1117.0689.7691.4186 1.2496.6465.2386.1132.4404.1699.497.2004C16.9351 77.4614-24.169 36.0305 17.9134 12.89 30.6993 5.8583 48.8915 1.5582 68.6357 1.5582zM43.8388 52.6106c.5747-.0522 1.1472-.0755 1.7155-.0668 1.8272.0292 3.6435.3883 5.3031.9986l.3721.6204.2764-.238.1016-.0864c5.6289 2.3962 9.0352 7.7165 4.0086 12.6308-.7518.7344-2.0993 1.5428-3.4077 2.1203-.6842.3032-1.3714.6066-1.9317.664-.0667-.0246-.166-.0306-.2337-.0559-.7146-.2793-1.4179-.5704-2.0985-.9201-.2067-.1067-.3984-.2133-.5572-.312-1.516-.9999-2.6626-2.3446-3.4882-3.965-.9129-1.7271-1.3266-3.595-1.3266-5.5462 0-1.8933.3629-3.7211 1.0929-5.4679.0557-.1261.1146-.2532.1734-.3758zM96.489 4.4717zm16.0925 5.0235c18.0704 7.6904 35.9236 25.3077 20.402 44.0754-3.5606 4.3061-8.5286 8.3865-15.6087 11.5161.0457-.0413-1.1901.3497-1.1196.3178 35.185-32.1948-12.3533-52.3466-40.9848-43.6101-21.7217 6.6267-30.8968-9.3522-.4116-15.5891 12.2001-2.5083 26.2352-1.5987 37.7227 3.2899z"/>
    <path fill="#d40019" d="M39.4342 26.36l3.0151-.0086 4.7421 19.0337-3.4694.0109-1.0123-4.0497-7.5227.0232-2.188 4.0584-3.8451.0132zm2.4091 11.6207l-1.5289-6.2501-3.3555 6.2645zm10.6033-11.6606l3.5585-.0109-1.5783 11.7651c-.1364 1.0268-.2075 1.7523-.2075 2.1762 0 .7169.2207 1.2727.6677 1.6734.4455.4005 1.0906.5971 1.9351.5951.6807-.0038 1.278-.1547 1.7859-.4565.3795-.2273.685-.5988.9151-1.1264.23-.521.4513-1.5608.6675-3.113l1.5907-11.532 3.5978-.0102-1.5507 11.3768c-.3187 2.3388-.7387 4.0208-1.2554 5.0381-.5173 1.0217-1.2685 1.7976-2.2503 2.3316-.9767.5326-2.1703.8018-3.5795.807-1.8962.0057-3.3765-.4941-4.4425-1.4977-1.0601-1.0087-1.5906-2.3875-1.5906-4.1421 0-.7599.1051-1.8838.3091-3.3691zm14.6297-.045l11.6287-.0342-.4108 3.3947-4.0535.0123-2.0594 15.6611-3.5491.0109 2.0601-15.6611-4.0535.0132zm22.3559-.5449c2.6124-.0072 4.7734.8251 6.4706 2.505 1.7017 1.6783 2.5544 3.8146 2.5544 6.4045 0 1.9854-.5036 3.8546-1.5115 5.618-1.003 1.7583-2.3425 3.1093-4.0136 4.0572-1.6704.9454-3.5883 1.4201-5.7545 1.4273-2.7094.0072-4.8748-.7866-6.493-2.3889-1.6211-1.6014-2.4309-3.711-2.4309-6.3363 0-2.9795.9686-5.5405 2.9003-7.6861 2.161-2.3881 4.9184-3.5898 8.2782-3.6007zm-.1327 3.3823c-1.3606.0035-2.608.3338-3.735 1.0013-1.127.6626-2.0333 1.6153-2.7269 2.8532-.6895 1.2453-1.034 2.5231-1.034 3.8461 0 1.5586.4774 2.8837 1.4368 3.9685.9577 1.0843 2.3336 1.6277 4.1318 1.622 2.0781-.0052 3.8459-.7453 5.3002-2.2214 1.4583-1.4709 2.1826-3.2559 2.1826-5.351 0-1.7364-.5122-3.1274-1.5341-4.1674-1.0246-1.0391-2.3641-1.5571-4.0214-1.5513zm26.0145 37.1183l.534.1952-.2424.5828c-.6479 1.6204-1.1835 2.8838-1.6036 3.7916-.3577.7452-.7627 1.2959-1.2154 1.6515-.389.3244-.8744.4869-1.4586.4869-.5828 0-1.0857-.2271-1.5057-.6798-.4223-.455-.6327-1.0059-.6327-1.6538 0-.8753.3887-2.317 1.1667-4.3256.7452-2.0732 1.1183-3.4179 1.1183-4.0333 0-.2277-.0487-.4063-.1466-.534-.0973-.13-.2265-.1952-.389-.1952-.3235 0-.664.2271-1.0202.6806-.389.4855-.7613 1.1168-1.1182 1.8947-.3884.778-.6967 1.6044-.9232 2.4795l-1.7009 6.1231h-.486c-.1613-.0318-.389-.0487-.6801-.0487.0973 0-.2104.0169-.9237.0487l-.3397.0486.7235-2.6253c-.3141.6422-.6044 1.1443-.8699 1.5086-.6155.8736-1.2794 1.3119-1.992 1.3119-.5514 0-1.135-.2925-1.7502-.875-.4863-.4855-.8911-.7294-1.2155-.7294-.2911 0-.5015.0979-.6313.2925-.1627.1604-.3731.6321-.6321 1.4098l-.5833-.0494c.3568-1.0375.7125-1.9452 1.0688-2.7211.3243-.6821.7619-1.3628 1.3133-2.0426.4855-.5835 1.1822-1.2961 2.0899-2.1386 1.4899-1.4245 2.4941-2.5107 3.013-3.256-.7452.5828-1.3773.8753-1.8961.8753-.2264 0-.4856-.0488-.7765-.1459l-1.021-.3396c-.5834-.1946-1.0051-.3244-1.2641-.3898-.3889 1.2634-.7939 2.4636-1.2148 3.597l-.0522-.0181-.2387.6494c-.595 1.6082-1.1922 2.8061-1.6531 3.6458-.447.8135-.8911 1.3932-1.3126 1.7488-.3883.3244-.8259.4869-1.3113.4869-1.1994 0-1.9128-.8425-2.1392-2.5282-.4536.9079-.8751 1.5392-1.264 1.8969-.389.3557-.8259.534-1.312.534-.7127 0-1.2955-.341-1.7496-1.0217-.4217-.6798-.6313-1.6022-.6313-2.7697 0-.1481.0037-.2983.0095-.4464-.4943 1.1357-.871 1.9478-1.1277 2.4384-.3564.6175-.7452 1.0863-1.1669 1.4098-.4527.3244-.923.4869-1.4092.4869-.5509 0-1.0369-.2438-1.4572-.7292-.4214-.5175-.6327-1.1023-.6327-1.7503 0-.5827.1298-1.2634.389-2.0413.0646-.1944.1863-.55.3643-1.0682.1785-.5196.3482-1.0217.5107-1.5071.6155-1.7176.9232-2.8997.9232-3.5477 0-.3898-.1619-.7619-.4855-1.119l-.2925.6336-.68 1.9917-.8271 1.9441-.2425.6806-.5826-.1952.5349.1952-.4863 1.2141c-.7134 1.8808-1.3932 3.2415-2.0413 4.0826-.6161.8105-1.2801 1.2161-1.9932 1.2161-.5828 0-1.0857-.2598-1.5059-.7779-.4542-.4855-.6807-1.1188-.6807-1.8947 0-.455.1946-1.3461.5836-2.6747l1.7982-6.8524c.3562.0655.7452.0973 1.1652.0973.3252 0 .7461-.0487 1.2642-.1458l-2.4294 8.7005-.2432 1.0195c-.13.55-.1946.9404-.1946 1.1677 0 .1603.0646.3069.1946.4367.1292.1625.259.244.3882.244.5842 0 1.264-.7621 2.0413-2.2851.389-.7453.9238-1.9928 1.6044-3.7431l.2909-.6806c.1625-.4201.3404-.8424.5342-1.2626.0652-.1952.114-.3419.1465-.4369.0327-.0979.0812-.2277.1458-.3904l.7779-2.0405.1946-.7292c-.5508-.4854-.8258-1.0196-.8258-1.6044 0-.4528.1452-.8738.4368-1.2634.259-.3882.5667-.5828.9238-.5828.5507 0 .8257.3084.8257.9238 0 .4528-.1938 1.2307-.5827 2.3316.8744.5848 1.4579 1.0702 1.7496 1.4586.2265.3569.3402.8423.3402 1.4578 0 .7133-.2429 1.8154-.7292 3.3059-.0979.3884-.2279.8578-.3889 1.4101-.1619.55-.2917.9708-.389 1.2633l-.4375 1.4093c-.0965.3881-.1452.6965-.1452.9223 0 .1625.0487.2923.1452.3896.0973.1298.2112.1952.341.1952.4528 0 .9557-.3904 1.5057-1.1675.5842-.9063 1.2482-2.3483 1.9926-4.3264l.244-.5828h.0006c.1067-.3881.2365-.7777.3883-1.1661.5174-1.3604 1.198-2.4628 2.0405-3.3039.8432-.8431 1.6524-1.2654 2.4301-1.2654.7128 0 1.2476.5848 1.6039 1.7509l.4375-1.5072c.4535.0655.891.0973 1.3127.0973.3555 0 .7117-.0318 1.0682-.0973l-.2425.9246c-.3563 1.3924-.5827 2.2662-.6807 2.6239-.097.2917-.1777.5828-.2423.875-.0327.0646-.0812.2018-.1466.4131-.0646.2096-.0971.3649-.0971.4599-.3565 1.233-.6482 2.2851-.8744 3.1603-.2265.8751-.3723 1.3774-.4378 1.5072-.097.3229-.1458.5986-.1458.8265 0 .4202.2113.6313.6321.6313.4855 0 1.0087-.4347 1.5551-1.312.5233-.8411 1.2525-2.5084 2.1275-4.7442l.008.0015c.6292-1.7069 1.164-3.4158 1.6073-5.1233l.1938-.8265h.5836l-.3884 1.6044c.4202-.325.728-.5521.9232-.6806.2262-.1298.4694-.1944.7292-.1944.4854 0 1.0529.1785 1.7002.534.4869.2925.8745.4361 1.1668.4361.357 0 .6154-.0632.7779-.1922.1944-.1306.4209-.4718.68-1.0219l.4861.244c-.5827 1.198-1.1182 2.1384-1.6044 2.8185-.5182.6479-1.3439 1.4904-2.4781 2.5265-.9398.8753-1.6363 1.5886-2.0898 2.1387-.4209.4875-.9078 1.2002-1.4578 2.1384.6152-.4528 1.1667-.6799 1.6521-.6799.4209 0 .8905.1459 1.4093.4382.5827.2902.9717.4369 1.1669.4369.5181 0 .9556-.3092 1.3119-.9244.389-.6155.9078-1.7976 1.5559-3.5479l.0413.0161 4.3322-15.7134c.5515.0632.9557.0959 1.2155.0959.2917 0 .6798-.0471 1.1661-.1444l-3.256 11.9559c.5507-.6801 1.0203-1.1509 1.4092-1.4093.4209-.2598.8424-.3898 1.2632-.3898.5517 0 .9884.1786 1.3121.5342.3244.3571.4861.8426.4861 1.4578 0 .585-.0646 1.1842-.1944 1.7997-.1937.6479-.5342 1.6834-1.0202 3.1095l-.8259 2.4794c-.1952.648-.2917 1.1495-.2917 1.5072 0 .5173.1938.7779.5828.7779.4868 0 .9883-.4223 1.5071-1.2654.4527-.7759 1.1494-2.3804 2.0899-4.8113zm-35.4306-9.4277c0 .453-.1627.8426-.4863 1.1663-.3562.3244-.7619.4855-1.2154.4855-.3882 0-.6967-.13-.923-.3884-.2592-.2271-.389-.5181-.389-.875 0-.4536.1619-.8592.4861-1.2149.3244-.325.7133-.4854 1.1663-.4854.4208 0 .7452.1119.9723.3396.259.2598.389.5827.389.9723zm12.9282 6.2211c0-.5181-.0981-.9731-.2919-1.3605-.2271-.3579-.4702-.5348-.73-.5348-.2256 0-.4367.1611-.6313.4855-.1944.2908-.4208.7946-.6798 1.5071-.519 1.2959-1.005 2.7539-1.458 4.3727-.4214 1.4259-.6327 2.5768-.6327 3.4526 0 .7759.2598 1.1655.7779 1.1655.778-.0327 1.5878-1.198 2.4303-3.4991.259-.9404.4534-1.6371.5834-2.0899.1619-.5827.3244-1.2146.4854-1.8955.098-.5839.1467-1.1181.1467-1.6036z"/>
    <path fill="#d40019" d="M66.2743 76.4381l-.389.0973c-1.7488-2.5607-2.6238-5.2175-2.6238-7.9712 0-.8752.0812-1.7829.2423-2.7213.1306-.973.4056-2.4468.8273-4.4235.6152-2.8512 1.0042-4.795 1.1661-5.8328.1292-1.1327.1944-2.1386.1944-3.0114 0-1.7838-.3563-3.3069-1.0697-4.5695-.7452-1.2634-1.7982-2.2524-3.1586-2.9657-1.3607-.6799-2.9651-1.0195-4.8125-1.0195-1.8788 0-3.7095.3721-5.4919 1.1174-1.7167.7127-3.2551 1.7503-4.6173 3.1109-1.3604 1.3932-2.4134 2.9331-3.1586 4.6167-.7447 1.7828-1.1176 3.6455-1.1176 5.589 0 2.0738.4536 3.9707 1.3613 5.6869.8744 1.7175 2.0732 3.0788 3.5964 4.0818 1.5551.9729 3.272 1.4584 5.1513 1.4584 1.3934 0 2.738-.2909 4.0339-.8736 1.2969-.5196 2.4463-1.2815 3.4514-2.2845.9396-.9729 1.7009-2.0898 2.2834-3.353.5517-1.2976.8267-2.6262.8267-3.9868 0-1.0036-.1786-1.976-.5348-2.9164-.3565-.9063-.8419-1.7003-1.4586-2.3801-.68-.7453-1.4092-1.2961-2.1857-1.6532-.8105-.4209-1.6697-.6319-2.5768-.6319-1.653 0-3.2879.6965-4.9083 2.0899l-.2917-.4855c.8417-.7452 1.6524-1.2961 2.4301-1.6532.8092-.3227 1.7169-.4854 2.7214-.4854 1.0042 0 1.9598.209 2.8676.6321.8419.3875 1.6196.9565 2.3324 1.7017.6493.7111 1.1833 1.5862 1.6044 2.6239.3888 1.0028.5833 2.0899.5833 3.2554 0 2.2684-.7294 4.3908-2.1877 6.3667-1.0363 1.4586-2.3164 2.5922-3.8396 3.402-1.5542.8104-3.2399 1.2169-5.0548 1.2169-2.0732 0-3.952-.5204-5.6369-1.5559-1.7496-1.0702-3.1109-2.5122-4.0832-4.3262-1.0042-1.8461-1.5057-3.8402-1.5057-5.9788 0-1.9759.4208-3.8712 1.2634-5.6861.8104-1.8142 1.9432-3.4186 3.4018-4.8118 1.4258-1.3932 3.094-2.4941 5.0062-3.3039 1.8467-.778 3.8068-1.1661 5.8807-1.1661 1.6842 0 3.2401.2902 4.666.875 1.425.5509 2.6405 1.3288 3.6449 2.3316 1.0042 1.0057 1.7974 2.2038 2.3816 3.597.5508 1.3934.8265 2.9164.8265 4.5696 0 1.3909-.114 2.6892-.3411 3.8872l-.9717 4.4235-.923 4.47c-.4541 2.0732-.6806 3.8729-.6806 5.3961 0 .55.0327.9381.0973 1.1654.0327.2923.1777.6646.4369 1.1174.4215-2.0412.9404-4.0171 1.5557-5.9286.6154-1.8482 1.4419-3.8568 2.4788-6.0271.9717-2.1068 1.9759-4.0014 3.0128-5.6849 1.0691-1.7836 2.106-3.3228 3.1102-4.6187 1.0044-1.2952 2.1067-2.4934 3.3053-3.5964 1.3288-1.2307 2.6726-2.2038 4.0339-2.9163 1.2961-.6807 2.4622-1.0197 3.4991-1.0197.5836 0 1.053.13 1.4101.3884.3244.2598.4854.5986.4854 1.0209 0 .4529-.161.8433-.4854 1.166-.3571.3244-.7613.4857-1.2155.4857-.2592 0-.519-.0632-.7773-.1932-.259-.0979-.4702-.2604-.6319-.4877l-.389-.5339c-.2265-.2903-.4862-.4369-.7779-.4369-.2265 0-.5828.13-1.0688.3883-.4855.1944-1.0371.5182-1.6524.9723-.5181.3557-1.1342.8265-1.8475 1.4099-1.8468 1.6182-3.6769 3.822-5.4909 6.6086-1.135 1.783-2.0899 3.436-2.8678 4.9577-.8434 1.6203-1.669 3.4199-2.4789 5.3958-.4217 1.0036-.7619 1.9434-1.0211 2.8185-.3881 1.1334-.6958 2.1392-.9229 3.0122-.1946.6479-.4375 1.653-.7286 3.0143z"/>
  </g>
</svg>
