<svg xmlns="http://www.w3.org/2000/svg" viewBox="0 0 206.43905 42.1297">
  <path fill="#fff" fill-rule="evenodd" stroke="#000" stroke-width="1.00010002" d="M200.9621.9629c2.7412 0 4.9769 2.2357 4.9769 4.9769 0 2.7413-2.2357 4.977-4.9769 4.977-2.7413 0-4.9769-2.2357-4.9769-4.977 0-2.7412 2.2356-4.9769 4.9769-4.9769z"/>
  <path fill="#1b1918" fill-rule="evenodd" d="M200.9621.6986h.002c1.443.0006 2.7535.5895 3.7026 1.5392.9473.9476 1.5353 2.2563 1.5365 3.6975v.0066c-.0006 1.443-.5895 2.7536-1.5392 3.7027-.9476.9473-2.2563 1.5353-3.6975 1.5365h-.006c-1.4427-.0006-2.7532-.5895-3.7027-1.5392-.9473-.9476-1.5353-2.2564-1.5365-3.6976v-.0066c.0006-1.4427.5895-2.7532 1.5392-3.7026.9477-.9473 2.2564-1.5353 3.6976-1.5365zm.002.5286h-.007c-1.2965.0009-2.4736.5299-3.3259 1.3819-.8527.8523-1.3819 2.0307-1.3822 3.3286v.0066c.0009 1.2965.5298 2.4736 1.3819 3.326.8523.8526 2.0306 1.3818 3.3286 1.3821h.006c1.2964-.0009 2.4736-.5298 3.3259-1.3818.8529-.8524 1.3819-2.0304 1.3822-3.3287v-.0066c-.0009-1.2964-.5299-2.4736-1.3819-3.3259-.8523-.8529-2.0304-1.3819-3.3286-1.3822z"/>
  <path fill="#1b1918" fill-rule="evenodd" stroke="#1b1918" stroke-width=".5" d="M202.9166 9.5169l-1.9926-3.2076c-.228 0-.5883-.0173-1.081-.0506v3.2582h-1.0198V2.0472c.0366 0 .3012-.0123.7921-.0384.4924-.0264.8493-.0383 1.0738-.0383 1.7942 0 2.6924.7135 2.6924 2.1424 0 .4681-.1445.891-.4334 1.2671-.2889.374-.6317.609-1.0303.6995l2.1667 3.4374zm-3.0736-6.5527V5.392c.244.0333.4822.0506.7139.0506.6108 0 1.0564-.0977 1.3348-.296.2802-.1966.4196-.5482.4196-1.0547 0-.4177-.1499-.7186-.4493-.9032-.2994-.1828-.7726-.2748-1.4184-.2748-.101 0-.3012.0174-.6006.0503z"/>
  <path fill="#1b1918" fill-rule="evenodd" d="M20.6558 42.0761l-.6435.0405-.6287.0125-.3039-.0008-.2902-.0032-.2909-.0048-.2914-.0073-.2925-.0088-.2948-.0114-.2945-.0133-.2937-.0153-.2951-.017-.2979-.0193-.2985-.0212-.2979-.0239-.2979-.0249-.2996-.0275-.3014-.0295-.3013-.0317-.3002-.0335-.2988-.036-.295-.038-.2909-.0408-.2846-.0422-.2837-.0448-.2792-.0476-.273-.0491-.2693-.0513-.2667-.0541-.2622-.0564-.2577-.059-.254-.0609-.2509-.0641-.2463-.0666-1.6214-.4629V37.899l-.0029-.1973-.0082-.1809-.0139-.1805-.0195-.1815-.025-.1802-.0303-.1798-.0357-.1768-.0422-.1795-.0477-.1794-.0533-.178-.0592-.1789-.0658-.1808-.0711-.1798-.078-.1805-.0839-.1812-.0898-.1797-.0647-.121-.0757-.1349-.0836-.1429-.0932-.1531-.1004-.1596-.1091-.1678-.1177-.176-.1258-.1831-.1327-.1891-.1411-.1962-.1491-.2029-.1576-.2106-.165-.2166-.1727-.2222-.1805-.2294-.1863-.2327-.443-.5411-.4351-.5394-.415-.523-.3955-.5077-.3753-.4913-.356-.4756-.3367-.4609-.3178-.4468-.2974-.4306-.2789-.4172-.2588-.4028-.2407-.3892-.2228-.3782-.2043-.3679-.1851-.3569-.1664-.3475-.1497-.3427-.1389-.3484-.1281-.3543-.1182-.3609-.108-.3662-.0981-.3728-.0882-.379-.0791-.386-.0683-.3904-.0592-.3954-.0499-.4025-.0405-.4082-.0309-.4119-.0227-.4189-.0133-.425L0 18.7963l.0063-.5973.0192-.5899.0324-.5816.045-.5749.0584-.5664.0717-.5592.0848-.5511.0981-.5442.1119-.5361.1256-.5283.1386-.5185.1525-.5125.167-.5037.1803-.4955.1941-.4853.2075-.4788.2234-.47.2361-.4603.2501-.4493.2633-.4411.2784-.4317.2911-.4221.3055-.4113.3184-.4022.3328-.3909.3444-.3807.3586-.3699.3713-.3603.3847-.3484.3948-.337.4085-.3269.4204-.3163.3441-.2429.3419-.2305.3469-.2234.3518-.2157.3574-.2083.3615-.2004.3648-.1919.3713-.1863.3779-.1786.3804-.1698.3844-.1615.3894-.1548.3946-.1468.3977-.1389.4003-.1304.4065-.1245.4135-.1165.4148-.1083.4189-.1003.4229-.093.4278-.0853.4311-.078.4346-.07.4388-.0629.4442-.0553.4467-.0479.451-.0402.4547-.0329.4586-.0258.4624-.0182.4651-.0107.4734-.0043.5834.0063.5783.019.5723.0317.5669.0442.561.0573.5544.0703.5483.083.5422.0958.5369.1095.529.1219.5229.1352.5168.1485.5102.1619.5029.1749.4964.1882.498.2049.6681.3059.6489.3311.6261.3566.6021.3807.5783.4062.5536.4311.5281.4558.502.4802.4757.5054.4481.5287.4195.5516.3907.5726.3631.5956.3336.6168.0352.0734h3.1668v6.0531H25.6947l.0062.0028.4017.1971.3971.2117.394.2268.3904.2438.3778.2568.3657.2704.352.2829.3396.2971.3246.3095.3101.322.2954.3348.2809.3484.2636.3586.2483.3699.2325.3812.2083.3779h2.8358v6.1087H16.8205v-4.2843l.112-1.1225-.0371.0022-.1574.0133-.1553.0171-.1582.0212-.1587.0252-.159.029-.161.0337-.1628.0371-.1638.042-.1664.0462-.1652.0499-.167.0541-.1712.0598-.1562.0576-.322.1338-.2883.138-.2645.1457-.2423.1531-.182.1321.0638.3892.0493.2973.0462.2772.0439.2586.04.2364.0726.4153.032.178.0275.153.0252.1324.0213.1092.0181.0878.0116.0547.0301.1233.0451.1701.0606.2163.0746.2554.0884.2928.1023.3305.1165.3685.1347.4216.1017.335.0944.3181.0919.3132.0876.3061.085.3011.0817.2968.0785.2905.0748.2835.0726.2803.0689.2753.066.2695.0621.2628.0601.2597.0558.2537.0539.25.0499.2469.0484.2506.046.2616.0425.2653.0385.2651.0366.2718.032.2761.0298.2786.0255.2815.0232.2858.0199.2914.0167.295.0133.298.0105.301.0074.3056.0045.3095.0012.3135-.0012.2614-.0045.2477-.0071.2364-.011.2226-.0142.2134-.004.0434.0547-.0009.4734-.0275.4547-.045.4365-.0624.4167-.0785.398-.095.3801-.1105.3637-.1267.3478-.1415.3308-.1562.3164-.1712.3027-.1868.2906-.2027.2778-.2182.2667-.2353.2667-.2633.1775-.1902.1712-.1988.165-.208.1593-.218.1531-.2273.1471-.2379.1414-.2483.1355-.2602.0737-.1536h-1.9227v-5.9982h17.617v5.8885l-2.7215.0782-.1131.1876-.3597.5602-.3751.5459-.3889.5341-.4056.5215-.4198.508-.4343.4932-.4482.4814-.4643.468-.4785.4544-.4923.4396-.506.4272-.5222.413-.5346.3991-.5448.3818-.5882.3932-.5987.3728-.6023.3489-.6064.3234-.6094.3002-.6151.275-.6191.2503-.6222.2239-.6253.1996-.6302.1729-.6335.1474-.6373.1202-.6383.0941zm1.3657-28.8782V8.2446h.8218l-.0635-.1009-.1032-.1528-.1085-.1474-.1117-.1414-.1083-.1262-.1792-.1896-.1822-.1732-.1865-.159-.192-.1463-.1967-.133-.2029-.121-.2109-.11-.2194-.0995-.2274-.0879-.2387-.0776-.2486-.0666-.2605-.0556-.2738-.0436-.2877-.0326-.2988-.0199-.303-.0065-.3642.0116-.3362.032-.3172.0525-.2985.0706-.2821.0895-.2701.1083-.2585.127-.2481.1463-.2418.1684-.2375.1924-.2324.2175-.2274.2437-.2236.2739-.2197.305-.2135.3356-.2117.3756-.1664.3265-.1579.3402-.148.3529-.138.3651-.1273.3787-.1182.3926-.1071.4062-.097.4187-.0856.4337-.0751.4473-.0641.4615-.0527.4748-.0411.4892-.0298.504-.0022.0644.2307-.1193.3132-.1525.3167-.1426.3174-.1324.3198-.1228.3203-.1125.3149-.1009.311-.093.3132-.0861.3175-.0808.3192-.0729.3183-.0672.322-.0603.3257-.055.3283-.0474.3265-.0411.3286-.0348.333-.0292.3354-.0219.3339-.0156.3365-.0096.3458-.0037.4487.0077.451.0215.4482.0366.4456.051z"/>
  <path fill="#ffec00" fill-rule="evenodd" d="M18.7404 21.0092h1.9369c-.2951-.9958-.7747-1.7705-1.4385-2.3236-.6644-.5535-1.2915-.8299-1.8813-.8299-1.0699 0-2.1581.2118-3.2647.6361-1.1066.4244-1.9921 1.0237-2.656 1.7983.3319 2.0657.5441 3.3015.6365 3.707.092.406.3225 1.1806.6917 2.324.5163 1.697.8945 3.1445 1.134 4.3435.24 1.1991.3598 2.5914.3598 4.1776 0 .6638-.0279 1.1434-.083 1.4385-.0552.2952-.1938.7379-.415 1.3278.4796.2584 1.125.3875 1.9365.3875 3.0619 0 5.4595-.9038 7.1933-2.7111 1.2542-1.291 2.1208-3.0247 2.6003-5.2012h-2.656v-2.158h13.7774v2.1029l-1.9271.0551c-1.5771 2.8956-3.7258 5.2658-6.4463 7.1193-2.9045 2.001-5.8557 3.0063-8.8714 3.0063-1.4659 0-2.9785-.083-4.5184-.249-1.54-.1659-2.8866-.4149-4.021-.7468v-1.3282c0-1.291-.3135-2.5452-.9406-3.7626-.4424-.8483-1.1986-1.9365-2.2685-3.2643-2.4344-2.9511-3.9931-5.1733-4.6754-6.6675C2.2613 22.6971 1.92 20.8988 1.92 18.796c0-5.9754 2.0288-10.4391 6.0862-13.3898 3.2095-2.3241 7.1748-3.4859 11.8964-3.4859 2.914 0 5.5331.4979 7.8567 1.4938 3.2463 1.4018 5.478 3.6518 6.6954 6.7505h2.49v2.2132H23.9416v-2.2132h1.6601c-.3319-1.5862-.9406-2.8771-1.8261-3.8734-1.291-1.4386-3.0063-2.1576-5.1456-2.1576-2.5823 0-4.5372 1.2542-5.865 3.7626-1.1066 2.0656-1.6601 4.6476-1.6601 7.7463 0 .885.0551 1.7521.1659 2.6004 1.365-1.2174 2.7668-2.0657 4.2054-2.5452 1.4385-.4795 2.9695-.7195 4.5924-.7195 2.1025 0 4.0483.5351 5.8372 1.6045 1.7894 1.0699 3.0342 2.5456 3.7348 4.4265h2.1581v2.2688H18.7404z"/>
  <path fill="#1b1918" fill-rule="evenodd" d="M40.0096 35.3016l.0499-17.3384V6.1234l.0275-.4597.0936-.51.1564-.4935.2155-.4703.2684-.4371.3115-.4005.3481-.3628.3802-.3308.409-.2983.4314-.2695.4561-.2455.4811-.2251.5065-.2061.5304-.189.557-.1741.5868-.161.4748-.1128.4756-.1023.487-.0947.5006-.0876.5139-.0797.5241-.0722.5381-.0655.551-.0584.565-.051.5762-.044.5891-.0371.6029-.0306.6168-.0235.6285-.0168.6423-.0102.6585-.0034.4127.0034.4105.0094.4065.0164.4019.0224.3986.0295.3934.0354.3898.0428.3846.0488.3813.0561.3767.0627.3722.0694.368.0757.3653.0836.3586.0902.3541.0966.3506.1038.3478.1119.3419.1182.3362.1256.3319.1321.3291.1406.3223.1471.3172.1539.3121.1611.3095.1697.3019.1761.2971.1825.2923.1908.2865.1979.2807.2043.2749.2118.2801.2268.4825.4254.46.4496.4326.4697.4022.4887.3728.5071.3415.5261.3104.5443.277.5604.2449.5763.2106.591.1786.6041.1443.6168.1122.6287.0788.6392.0474.6494.015.6543-.0108.6171-.0337.6026-.0561.5944-.08.584-.1023.5749-.127.566-.1502.5553-.1746.5434-.1979.5335-.2228.5213-.2466.5097-.2707.4952-.2937.4827-.3183.4686-.3399.4533-.3623.4371-.3801.4195-.3988.3977-.4142.373-.4289.347-.4444.3231-.4626.2971-.4757.2687-.4878.2407-.5006.2129-.514.1845-.5252.1559-.5349.1262-.542.0978-.5522.0691-.559.0411-.5646.0133-.4712-.0104-.4663-.0321-.4606-.0547-.453-.0771-.4464-.0995-.4397-.123-.4308-.1463-.4828-.1944-.3441-.1911-.2265-.1256-.2115-.1176-.1938-.108-.1772-.0981-.1185-.0657-2.2887 2.9474v9.2631h4.3713v6.0528H35.6329v-6.0528zm11.9679-18.5905l1.175-1.4831 1.7118 1.4327.1383.1006.1165.0726.0927.0476.0698.0278.0467.0136.0275.0048.0046.0003.1559-.0105.1043-.0227.0765-.0298.072-.0422.0837-.0686.1031-.1134.1214-.174.1451-.269.0615-.1347.0689-.1695.0669-.1825.0635-.1948.0604-.2063.0555-.2152.0508-.2256.0464-.2401.0426-.2512.0365-.2591.0312-.2712.0261-.2843.021-.2949.0147-.3041.0091-.3144.0025-.3291-.0028-.4493-.0085-.4342-.0136-.4156-.0199-.3974-.0246-.3787-.0306-.36-.0352-.3416-.0405-.3234-.0448-.3033-.0493-.2841-.0525-.2619-.0564-.2423-.0587-.2217-.0609-.199-.0618-.1777-.0615-.1548-.0936-.2055-.0932-.1761-.0953-.1544-.0946-.133-.0936-.1122-.0941-.0973-.0938-.0825-.0958-.0711-.0984-.0615-.1054-.0542-.1168-.0481-.1276-.0414-.1423-.0341-.1621-.0269-.18-.017-.1902-.0059-.2172.0087-.1848.0227-.161.0346-.1383.0437-.1216.0521-.114.0632-.1094.0763-.1066.0907-.1074.1117-.1117.1389-.1137.1695-.1139.2027-.112.2372-.108.2744-.1018.3115-.0941.3479-.0362.1669-.0397.2149-.0392.252-.0377.286-.0354.3234-.0337.3592-.0309.3906-.0281.4207-.0244.4535-.0218.4856-.0181.5167-.0159.5468-.0116.5763-.0085.6075-.0051.6375-.0023.6693z"/>
  <path fill="#ffec00" fill-rule="evenodd" d="M50.0577 25.3805v11.8409h4.3713v2.2132H37.5529v-2.2132h4.3713l.0552-19.2553V6.1808c0-1.5493 1.4386-2.6927 4.3157-3.4306 2.2133-.5535 5.0352-.8299 8.4658-.8299 4.1314 0 7.4144 1.0143 9.8488 3.0431 2.2873 1.9181 3.4307 4.4081 3.4307 7.4696 0 2.9143-.8393 5.3393-2.5178 7.2762-1.6781 1.9365-3.79 2.905-6.3352 2.905-1.033 0-1.9737-.1848-2.8219-.5536-.6639-.3687-1.1618-.6455-1.4942-.8298l-1.1618-.5535zm0-3.1539l3.375-4.2605c.6644.5903 1.3099.8855 1.937.8855 1.1434 0 2.001-.5993 2.5725-1.7983.5719-1.1991.8577-2.7758.8577-4.7307 0-2.5824-.258-4.482-.7747-5.6995-.7007-1.6597-1.9181-2.4895-3.6518-2.4895-1.9917 0-3.2826 1.217-3.873 3.6518-.2951 1.2174-.4427 3.6702-.4427 7.3588z"/>
  <path fill="#1b1918" fill-rule="evenodd" d="M77.9063 29.0362l.0278.3223.0323.3438.036.3651.0397.3847.0436.4028.0482.4243.0513.4439.0559.4632.0592.4836.0343.2752.0323.2705.0301.2593.0278.2495.0257.2409.0236.2311.0218.2239.0193.2129.0176.2041.015.1961.0136.1916.0105.1815.0088.1737.0059.1656.004.1604.0011.1466v2.0069l-.0011.1222-.0034.1304-.0057.1306-.0079.1304-.0105.1304-.0125.1301-.0159.1395-.0187.1329-.021.1361-.0274.1466-.0341.1564-.0408.1508-.0482.1579-.062.1647-.0746.1718-.1134.2132-.1774.2588-.2223.2364-.21.1777-.1976.1372-.1842.1106-.1815.0949-.1785.0834-.1962.0819-.2231.0802-.2304.0686-.2333.057-.2339.0439-.2336.0337-.2347.0224-.2336.0136-.2284.004-.1616-.0017-.1562-.0054-.1567-.0082-.1591-.0116-.1638-.0145-.1644-.0181-.1639-.0199-.1596-.0221-.1363-.019-.1239-.0167-.1216-.0156-.1063-.0136-.0896-.0105-.0864-.0093-.0816-.008-.0729-.0068-.066-.0056-.0783-.006-.1593-.0119-.2055-.0139-.1196-.0074-.1111-.007-.1917-.0108-.0924-.0045-.0751-.0035-.0626-.0022-.0471-.0017-.047-.0009-.2073.002-.1944.0054-.1806.0088-.1641.0116-.1525.015-.1403.0173-.1222.0187-.121.0227-.1571.0326-.1794.0337-.1729.0301-.1701.0255-.1684.0218-.1686.0162-.169.0113-.2024.0046-.4119-.0216-.4473-.0771-.4464-.1395-.4306-.2052-.398-.2676-.3504-.3192-.2942-.3531-.2472-.3861-.2015-.4215-.1539-.4465-.1117-.4516-.0831-.4668-.0595-.4896-.0408-.5181-.0233-.5502-.0079-.5843.0051-.5204.0136-.5134.0238-.5088.0321-.5057.0422-.5031.0516-.4984.0606-.4938.0701-.4923.0805-.487.089-.4828.0986-.4782.108-.4762.1188-.4717.127-.4657.1366-.4621.1463-.4597.1355-.3926.1426-.3918.1519-.3926.1607-.396.1709-.3971.1775-.3963.1868-.398.1959-.4019.2052-.4028.2126-.4034.2217-.4048.2307-.4085.2392-.4084.2467-.4108.2559-.4119.2625-.413.1313-.2009.1488-.2237.1652-.2429.1826-.2662.201-.2871.2163-.3079.2361-.3322.2542-.3558.2725-.3772.2905-.4003.3084-.4224.326-.4458.3455-.4695.3632-.4923.3815-.5151.4003-.5394.3447-.4624.3265-.4436.3129-.4291.2994-.4162.286-.4014.2713-.3869.2579-.3725.2435-.3585.2305-.3442.2151-.3285.201-.3124.1865-.299.1732-.2835.1573-.2667.1426-.2498.1355-.2477.1826-.3351.1604-.3129.1486-.307.136-.3013.1242-.2951.1119-.2886.0998-.2809.0885-.2764.0773-.2681.0655-.2614.055-.254.044-.248.0337-.2412.004-.038h-3.9453V.7195h18.8898v6.0531h-2.5271l4.1814 19.281 3.6278-19.281h-1.8734V.7195h17.9489v6.0531h-2.9134l6.1931 28.529h3.9688v6.0528h-17.894v-6.0528h1.8649l-3.4562-15.9959-2.9764 15.9959h2.3765v6.0528H82.9409v-6.0528h2.3635l-4.2199-19.5571-.1125.2103-.2654.5137-.2539.5074-.2413.5-.2296.4921-.2165.4859-.2056.4782-.193.4714-.1803.4603-.1661.4533-.1553.4541-.1443.4567-.1341.4577-.1224.4595-.112.4629-.1018.4658-.091.466-.0796.4691-.0695.4728-.0589.4757-.0485.4771-.0374.4802-.0267.4833-.0161.4864-.0057.4881.002.167.0051.1933.0091.2183.0121.2381.0168.2605.0201.2832z"/>
  <path fill="#ffec00" fill-rule="evenodd" d="M87.6828 37.2214l-5.7547-26.6697c-2.0289 3.1355-3.541 6.0126-4.5373 8.6318-.9958 2.6188-1.4937 5.3487-1.4937 8.1891 0 1.0326.166 2.8771.4979 5.5331.1844 1.4753.2768 2.5268.2768 3.1539v1.9916c0 .2584-.0184.5168-.0552.7747-.0372.2584-.0924.4522-.1664.5809-.0736.1292-.2764.2584-.5993.3876-.332.1291-.7191.1933-1.1618.1933-.2952 0-.6271-.0274-1.0147-.083-.3871-.0552-.6912-.0919-.9128-.1103-.2122-.0184-.4795-.0368-.7931-.0556-.3135-.0184-.5257-.0274-.6361-.0274-.6549 0-1.2084.0462-1.6507.1381-.4337.0924-.7657.1382-.9868.1382-.6271 0-1.0789-.2579-1.374-.7837-.2952-.5163-.4427-1.5125-.4427-2.9969 0-2.5823.3687-4.9889 1.1066-7.2116.6271-1.8903 1.6229-3.8824 2.9879-5.9942.5903-.9223 1.9733-2.8493 4.1497-5.7727 1.8813-2.5178 3.1907-4.4542 3.9286-5.8282 1.0698-1.9181 1.6045-3.6796 1.6045-5.2752v-.6087c-.0736-.2947-.1108-.5163-.1108-.6639h-3.8729V2.6394h15.0499v2.2132h-2.9879l6.6953 30.875 5.8094-30.875h-2.2684V2.6394h14.1093v2.2132h-3.375l7.0268 32.3688h3.5966v2.2132h-14.0541v-2.2132h2.3241l-5.9759-27.6561-5.1459 27.6561h2.7667v2.2132H84.8608v-2.2132z"/>
  <path fill="#1b1918" fill-rule="evenodd" d="M124.795 40.8532l-.2948-.2106-.2843-.2253-.2772-.2452-.3019-.2997-.2835-.318-.2636-.3331-.2421-.3472-.2228-.3614-.2024-.377-.1808-.3873-.1591-.3977-.1397-.4067-.1193-.419-.0995-.4272-.0794-.4345-.0618-.4417-.0428-.4512-.0258-.4581-.008-.4567.002-.3047.008-.299.0127-.3025.0187-.3019.0227-.3013.0284-.3062.0334-.3087.0391-.3075.0431-.307.0488-.3115.0535-.3124.0587-.3132.0629-.3153.0689-.3174.0734-.3186.0783-.3175.0819-.3198.0882-.324.0927-.3243.0972-.3242.1015-.326.1074-.33.112-.3308.1165-.3305.1204-.3328.1265-.335.1301-.3357.1355-.3376.1394-.3393.1452-.3413.1491-.3427.1556-.3469.1236-.2679.1261-.267.1299-.271.1337-.2739.1372-.2763.1418-.2807.1451-.2837.1494-.2874.1528-.2903.1573-.2945.161-.2974.1647-.301.1687-.3045.1726-.3078.1763-.3118.1806-.3149.1837-.3187.1882-.3223.1922-.3257.1964-.3299.1996-.3325.2041-.3365.2077-.3402.2115-.3438.2157-.3475.22-.3512.2228-.3541.2276-.3586.2316-.3622.2356-.3654.2389-.3688.2498-.383.208-.3089.2013-.2982.4017-.5956.2004-.2965.6012-.8921.1998-.2968.6033-.8943.2006-.2968.5633-.8353.1284-.2231.1409-.2591.1295-.252.1182-.2464.1072-.2392.0969-.2344.0862-.2265.0751-.2186.0649-.2126.0556-.2066.0459-.1984.0258-.1347h-4.0759V.0003h20.1625v6.0531h-3.4563l8.5102 29.2482h4.1309v6.0528h-19.6089v-6.0528h3.3514l-1.4525-5.0324-.0839.2002-.1539.3571-.1582.3549-.1618.3524-.1661.3503-.1696.347-.1732.3441-.1771.3422-.1814.3401-.1846.3371-.189.3344-.192.3311-.197.3303-.2001.3265-.2038.324-.2149.3325-.5059.739-.5165.7019-.5267.6607-.5366.6194-.5485.5777-.5601.5352-.574.4924-.5874.4481-.6035.4034-.6188.3557-.6347.3067-.6485.2549-.663.2012-.6741.1449-.682.0873-.6622.0278-.4076-.0068-.3787-.0207-.3765-.0352-.3699-.0504-.364-.0647-.3591-.0807-.3555-.0967-.3464-.1131-.3393-.1281-.3325-.1454-.3263-.1622-.3152-.1789zm7.0447-9.3231l.1057-.0958.1296-.1443.172-.2234.2115-.2803.2129-.288.2145-.2965.216-.3056.2194-.3158.2203-.3228.2225-.3323.2234-.3398.2256-.3493.2271-.3571.2287-.366.2302-.3747.2322-.3836.2335-.392.2356-.4.3124-.5414.292-.5215.2732-.5043.2546-.4873.2355-.4697.2172-.4527.1978-.4337.1794-.4156.1605-.3965.142-.3768.1236-.3574.1057-.3365.0873-.3141.0698-.2916.0371-.1885-1.2909-5.1651-.0204.0275-.222.3005-.2225.3002-.2217.2991-.2219.299-.2081.2798-.1675.237-.1726.248-.1681.2438-.1627.2404-.1588.2369-.1525.2319-.1485.2285-.1426.2245-.1389.2211-.1324.2151-.1284.2129-.1236.2087-.1185.2043-.1131.1996-.1077.1939-.1094.2038-.1349.2466-.1262.2398-.1284.2531-.1301.2662-.1329.279-.1338.2905-.1349.3019-.1367.3155-.1392.3288-.1397.339-.1412.3518-.1428.364-.144.3759-.1449.3872-.146.3982-.1454.4074-.1616.4657-.1499.4479-.1389.4314-.1276.4144-.117.398-.1058.3804-.0949.362-.0834.3439-.0734.3271-.0621.3061-.051.2866-.0408.267-.0312.2475-.021.2239-.0119.2013-.003.1695.009.301.0252.2515.0371.2094.0457.1696.0496.1326.0496.0995.047.0729.0573.0686.0743.0725.0728.0581.0655.0417.0658.0329.0686.0252.0773.0196.0959.0139.1125.0051.1709-.0082.1398-.0222.1168-.032.1023-.0417.0969-.0532z"/>
  <path fill="#ffec00" fill-rule="evenodd" d="M136.0421 4.1336h-4.0394V1.9203h16.3226v2.2133h-4.0946l9.6277 33.0878h3.6518v2.2132h-15.769v-2.2132h3.9837L141.7964 23.61c-.8855 4.0577-2.3793 7.6911-4.4817 10.9002-2.5084 3.7994-5.1644 5.6991-7.9679 5.6991-1.6965 0-3.0615-.4795-4.0946-1.4386-1.2169-1.1434-1.8256-2.7851-1.8256-4.9244 0-2.8035.793-5.9574 2.3792-9.4616 1.2174-2.656 3.1171-5.9575 5.699-9.9044 1.0699-1.5862 2.1397-3.1723 3.2091-4.7584.959-1.623 1.4386-3.0988 1.4386-4.4265 0-.2584-.0368-.6455-.1104-1.1618zm-7.8019 26.0609c0 1.1434.2767 2.0101.8302 2.6004.5531.5903 1.2354.8855 2.0473.8855.9958 0 1.8073-.3876 2.4344-1.1623 1.1802-1.5121 2.416-3.375 3.707-5.5882 1.7709-3.0248 2.7667-5.404 2.9879-7.1377l-2.3792-9.5168c-1.1802 1.6229-2.3608 3.2274-3.541 4.8136-.9959 1.4018-1.7889 2.656-2.3792 3.7626-.7379 1.3277-1.5126 3.1355-2.3241 5.4223-.9222 2.6192-1.3833 4.5924-1.3833 5.9206z"/>
  <path fill="#1b1918" fill-rule="evenodd" d="M187.8676.0046l.3637.0127.3586.0216.3566.0295.3523.0388.347.0468.3444.0555.3438.0649.3382.0749.3322.0827.3283.0924.3257.1012.3203.1114.3158.1197.3103.1292 1.9109.8609-.7617 2.056-.2767.7455-.1377.373-.1389.3745-.1381.3733-.1383.3728-.1057.2868-.003.0088-.0141.0686-.0154.0972-.015.1276-.013.1587-.0102.182-.006.2078-.003.3515-.0496.4201-.0309.2993-.0263.2934-.0207.2892-.0165.2868-.0113.2818-.007.2784-.0181 2.1937h-3.314l-2.1541-.8337-.1995-.1052-.0783-.0382-.0881-.0394-.091-.038-.0992-.0374-.1117-.0389-.1202-.0385-.1122-.0332-.1049-.0263-.1126-.0241-.123-.0213-.1332-.0181-.1437-.0148-.1585-.011-.1706-.0068-.1395-.002-.0332.0017-.0141.0023-.0377.0096-.061.0213-.0845.0374-.1074.0564-.1273.0774-.1442.0989-.1602.1224-.176.1477-.1888.1715-.1999.1948-.2111.2202-.2206.243-.2293.2673-.2373.2899-.2452.3141-.2522.3368-.2603.3608-.2661.383-.2727.4056-.279.4286-.2851.4505-.29.4719-.2968.4961-.3019.5165-.3073.5394-.3123.5604-.1863.3407.3048.0916.5136.1627.5034.1704.4947.1763.4844.1839.4751.1902.4649.1979.4564.2047.4458.2123.4352.2182.4254.2257.4184.2341.4068.2418.3963.2483.3858.256.3773.2636.3662.2721.3555.2787.3452.2869.3359.2953.324.3031.3136.3106.3007.3175.292.326.2795.3348.2676.3401.2554.3478.2418.351.1958.3024.1883.3045.1811.3101.1755.3152.1681.3203.1621.3249.1553.3299.1497.3356.1429.3413.1363.345.129.3484.1241.3543.1166.3592.1111.3622.1043.3685.0989.3728.0919.3784.0858.3813.0794.3858.074.3903.0675.3963.0618.3991.055.4036.0501.4091.0431.4141.038.4156.0317.4218.0159.2571h3.2108v6.0528h-18.1156v-6.0528h2.0188l-.0102-.3076-.0164-.4189-.0196-.4094-.0224-.3994-.0255-.3897-.0286-.3819-.0315-.3733-.034-.3631-.0372-.3526-.0399-.3456-.0425-.3359-.0451-.3245-.0479-.3136-.0508-.3064-.0535-.2968-.0553-.2863-.0587-.2761-.0604-.2678-.0629-.2568-.0643-.2467-.0669-.2347-.0692-.2273-.0712-.2177-.072-.2067-.0725-.1933-.0749-.1851-.0765-.1763-.0672-.1451-.2259-.4278-.2432-.396-.265-.3742-.2878-.354-.3121-.3348-.3376-.318-.3645-.3005-.3923-.2846-.4227-.2679-.4538-.252-.4861-.2347-.5185-.218-.1278-.0459v12.047h3.2646v6.0528h-19.6092v-6.0528h4.3713V6.7726h-4.3713V.7195h19.9962v6.0531h-3.6516v7.7031l1.008-2.067.3991-.7894.3762-.739.358-.6993.3407-.66.322-.6202.305-.5814.2874-.5419.2702-.5035.2526-.464.2361-.4266.2191-.3884.2032-.352.1883-.3167.1757-.2848.1667-.2571.1584-.2274.3881-.5159.4037-.4918.4172-.4632.4326-.4362.4476-.4068.4629-.3764.4779-.3453.4944-.3135.5093-.2798.5233-.2446.5355-.2081.5491-.1718.5584-.1329.5661-.0953.5728-.0569.5599-.0185z"/>
  <path fill="#ffec00" fill-rule="evenodd" d="M172.3946 18.8516h1.9365l.7746-1.4386.8299-1.8813 1.1066-2.2688c2.1397-4.2417 3.5047-6.7685 4.0945-7.58 1.8078-2.5084 3.9286-3.7626 6.3634-3.7626 1.7337 0 3.2643.3136 4.5925.9407-.3692.9958-.7379 1.9916-1.1066 2.9879-.1108.3687-.166.9218-.166 1.6597-.1108.8855-.166 1.7337-.166 2.5452h-1.0514l-1.7153-.6639c-.332-.1844-.7285-.3413-1.1897-.4705-.4611-.1288-1.0052-.1934-1.6323-.1934-2.0657 0-4.9244 3.5778-8.5762 10.7343 5.7543 1.291 9.7196 3.5778 11.8961 6.8608 1.8445 2.7668 2.7667 6.4002 2.7667 10.9003h3.1539v2.2132h-14.2757v-2.2132h2.0473c0-5.1272-.5347-8.7978-1.6045-11.011-1.4018-2.8772-4.0946-4.7029-8.0783-5.4775v16.4885h3.2647v2.2132h-15.7695v-2.2132h4.3713V4.8526h-4.3713V2.6394h16.1566v2.2132h-3.6518z"/>
</svg>
