<?xml version="1.0" encoding="UTF-8"?>
<!DOCTYPE svg PUBLIC "-//W3C//DTD SVG 1.1//EN" "http://www.w3.org/Graphics/SVG/1.1/DTD/svg11.dtd">
<!-- Creator: CorelDRAW 2017 -->
<svg xmlns="http://www.w3.org/2000/svg" xml:space="preserve" width="800px" height="254px" version="1.1" shape-rendering="geometricPrecision" text-rendering="geometricPrecision" image-rendering="optimizeQuality" fill-rule="evenodd" clip-rule="evenodd"
viewBox="0 0 800 254.17"
 xmlns:xlink="http://www.w3.org/1999/xlink">
 <g id="Слой_x0020_1">
  <metadata id="CorelCorpID_0Corel-Layer"/>
  <path fill="#2B2A29" fill-rule="nonzero" d="M765.16 152.03c-16.88,12.34 -39.38,6.25 -47.66,2.52 -4.21,-1.9 -8.18,-5.58 -11.23,-10.2 4.04,-8.48 6.54,-14.84 7.79,-18.1 3.3,-8.6 8.71,-19.33 14.93,-29.82 6.33,-1.37 12.24,-1.13 16.79,-0.81 10.94,0.78 10.78,-1.72 8.13,-3.12 -2.21,-1.17 -8.95,-2.97 -21.45,-1.77 7.99,-12.74 16.84,-24.43 24.1,-30.58 2.16,-1.82 4.22,-3.53 6.22,-5.15 15.54,9.06 28.47,23.13 31.13,41.4 3.59,24.69 -11.88,43.28 -28.75,55.63zm-51.05 -49.03c-4.73,7.42 -9.28,14.98 -13.59,22.25 0.41,-10.74 7.49,-17.99 13.59,-22.25zm-294.74 138.03c-10.52,-7.46 -3.54,-32.97 13.01,-58.7 17.88,-27.78 37.05,-42.12 51.09,-31.69 10.35,7.69 4.69,33.74 -13.01,58.7 -17.7,24.96 -40.58,39.15 -51.09,31.69zm-137.3 -0.32c-9.51,-6.74 -1.84,-31.75 14.83,-57.4 17.99,-27.7 40.86,-43.2 53.54,-33.73 9.34,6.98 3.45,29.38 -19.09,58.16 -18.87,24.09 -39.77,39.72 -49.28,32.97zm-75.11 -31.18c-10.93,-2.09 -22.66,-6.36 -34.64,-13.81 14.45,-17.04 22.82,-32.53 33.43,-50.22 6.38,-0.6 19.3,-4.08 25.78,-6.98 4.02,0.1 9.39,1.21 14.88,5.23 11.09,8.12 21.56,29.53 11.09,46.56 -10.47,17.03 -30.47,23.07 -50.54,19.22zm-68.52 -44.06c-10,-12.03 -25.78,-34.91 -29.22,-60.63 -2.69,-20.14 2.81,-47.7 32.03,-48.28 23.44,-0.47 36.87,3.59 59.69,7.97 20.41,3.92 47.03,4.29 57.66,3.91 -9.94,5.43 -21.96,13.72 -30.84,25.72 -7.56,10.22 -12.74,20.25 -18.22,31.2 -18.09,-2.07 -34.8,0.36 -35.64,10.42 -0.75,9.08 12.34,11.28 24.88,10.48 -3.57,6.51 -7.67,13.47 -12.69,21.03 -4.89,7.37 -10.55,16.54 -17.67,25.9 -9.98,-6.77 -20.08,-15.81 -29.98,-27.72zm631.72 -116.16c7.98,-5.81 14.97,-9.6 22.03,-11.03 7.95,-1.61 10.47,-5.47 0.31,-3.91 -6.04,0.93 -16.25,5.53 -27.19,12.73 -13.42,-5.44 -35.66,-8.93 -60.36,-8.14 -15.16,0.48 -49.48,5.62 -82.4,32.52 -10.34,8.45 -28.11,23.91 -39.8,51.9 -8.32,19.95 -6.34,38.18 0.85,47.55 7.18,9.38 26.14,17.3 50.1,2.92 23.95,-14.37 33.54,-30.21 38.44,-37.19 16.66,-23.75 25.37,-50.16 21.66,-53.23 -6.56,-5.41 -7.2,17.55 -15.41,32.92 -5.99,11.2 -20.73,40.21 -49.33,51.93 -28.59,11.72 -36.56,-12.34 -35.78,-26.86 0.78,-14.51 6.72,-34.23 28.13,-57.52 25.2,-27.4 51.72,-35.62 64.99,-38.12 13.29,-2.5 37.19,-5.78 59.38,1.56 4.07,1.35 8.13,3.02 12.09,5 -6.34,4.76 -12.67,10.29 -18.34,16.41 -6.36,6.86 -12.59,15.1 -18.58,23.88 -15.17,4.63 -32.82,23.77 -28.36,46.07 -0.14,0.22 -0.27,0.45 -0.4,0.67 -7.5,12.66 -26.88,48.28 -52.5,68.6 -25.63,20.31 -52.03,34.22 -78.75,32.18 -26.72,-2.03 -39.38,-11.72 -45.31,-24.22 -5.94,-12.5 -7.39,-37.65 10,-35.82 1.04,0.11 1.95,0.09 2.76,-0.03 7.02,-0.31 12.62,-6.08 12.62,-13.17 0,-7.3 -5.91,-13.21 -13.21,-13.21 -5.13,0 -9.56,2.93 -11.75,7.2 0,0.01 0,0.01 0,0.01 -2.23,3.18 -5.26,8.47 -7.58,15.12 -0.29,0.66 -0.55,1.43 -0.76,2.33 -0.01,0.02 -0.01,0.04 -0.02,0.06 -0.53,1.74 -1,3.56 -1.39,5.44 -3.11,11.29 -5.71,14.89 -10.2,20.2 -6.5,7.68 -12.93,9.76 -17.3,9.44 20.3,-25.89 25.38,-55.63 10.96,-68.13 -14.37,-12.46 -42.34,-3.4 -68.03,20.22 -0.01,0.02 -0.03,0.03 -0.04,0.04 -10.39,8.33 -39.5,45.04 -57.05,67.49 -9.94,12.71 -32.29,13.13 -13.69,-14.34 19.57,-28.89 48.06,-75.03 48.06,-75.03l-24.58 0 -16.01 23.61 -0.01 0c2.36,-8.24 1.94,-15.74 -4.12,-21 -11.95,-10.36 -33.31,-5.85 -54.93,9.56 -0.01,0 -0.02,0.01 -0.03,0.02 -10.35,6.69 -23.79,17.57 -33.66,29.29 4.02,-15.27 -0.97,-30.27 -5.51,-36.01 -3.66,-4.63 -7.55,-9.93 -17.11,-14.72 1.73,-0.68 3.42,-1.4 5.07,-2.16 9.85,-4.53 21.41,-12.5 27.04,-15.94 5.62,-3.43 3.28,-8.59 -5.79,-2.81 -8.36,5.34 -20.58,13.85 -34.57,17.47 -2.6,-0.91 -5.48,-1.79 -8.7,-2.62 -2.95,-0.76 -5.97,-1.42 -9.01,-1.97 11.76,-19.49 26.2,-41.58 40.88,-51.26 5.61,-3.7 9.94,-6.7 13.15,-9.03 11.41,0.06 26.56,-1.54 31,-3.34 4.39,-1.79 8.59,-3.85 8.59,-8.6 0,-4.74 -3.85,-8.59 -8.59,-8.59 -6.88,0 -20.79,7.68 -28.74,15.07 -0.46,0.43 -26.04,-1.82 -41.51,-5.88 -21.17,-5.56 -44.59,-16.88 -69.06,-17.97 -24.53,-1.09 -46.72,8.75 -56.72,37.32 -8.13,23.23 2.22,64.23 15.32,84.24 8.7,13.3 20.73,31.3 38.21,45.39 -7.27,8.08 -15.84,15.84 -26.23,22.22 -29.17,17.92 -59.36,18.91 -85.01,7.92 -35,-15 -39.58,-40.84 -41.66,-52.3 -2.09,-11.45 0.11,-22.19 12.23,-19.74 0.02,0.01 0.03,0.01 0.05,0.01 0.97,0.26 1.99,0.41 3.04,0.41 6.77,0 12.27,-5.7 12.27,-12.73 0,-7.04 -5.5,-12.74 -12.27,-12.74 -3.77,0 -7.14,1.77 -9.39,4.55l0 0c-0.01,0.01 -0.02,0.02 -0.03,0.03 -1.05,1.3 -3.32,4.92 -4.65,7.43 -5.93,11.23 -11.62,30.11 -5,54.4 8.43,30.94 34.58,50.89 72.91,50.89 37.96,0 66.31,-26.55 86.89,-47.9 8.47,6.35 18.15,11.74 29.26,15.29 26.23,8.37 50.24,-3.63 63.22,-17.8 0.04,-0.03 0.07,-0.06 0.11,-0.1 4.89,-4.86 8.46,-9.12 11.84,-11.93 -9.4,20.79 -6.22,42.46 5.09,52.27 13.97,12.12 39.37,0.55 59.86,-29.29 0,0.01 0,0.02 0,0.02 -2.52,11.31 -3.97,29.44 7.69,34.02 11.67,4.58 23.96,-4.58 45.21,-32.29 7.41,-9.67 12.23,-15.96 15.38,-20.05 -6.51,18.95 -2.96,37.68 7.33,46.6 15.1,13.1 43.71,1.84 66.87,-24.5 2.37,0.88 6.15,1.2 12.09,-0.54 8.32,-2.45 14.27,-10.23 18.54,-18.31 0.6,7.33 2.82,15.11 7.58,22.92 15.2,24.89 66.62,29.9 92,22.11 23.91,-7.35 47.94,-19.03 70.16,-48.76 11.07,-14.81 19.45,-28.73 25.61,-40.34 14.44,17.08 43.34,16.72 62.83,6.91 21.72,-10.94 40.15,-34.85 40,-64.53 -0.15,-27.66 -19.96,-42.02 -33.28,-48.66z"/>
  <path fill="#2B2A29" fill-rule="nonzero" d="M542.54 140.31c-1.85,0 -1.67,0.1 -1.67,-1.66 0,-1.76 0.32,-2.49 1.67,-2.57 1.34,-0.07 1.68,0.08 1.68,1.61 0,1.53 -0.34,2.62 -1.68,2.62zm-6.78 0.46c-1.85,0 -2.55,-0.38 -2.36,-2.13 0.3,-2.57 1.05,-2.15 2.72,-2.13 1.35,0.02 1.32,1.02 1.32,2.55 0,1.53 -0.34,1.71 -1.68,1.71zm-4.93 -2.63c0,1.54 -0.33,2.63 -1.68,2.63 -1.85,0 -1.67,0.09 -1.67,-1.66 0,-0.91 0.56,-1.08 0.94,-1.49 0.36,-0.4 0.53,-1.06 1.19,-1.09 1.34,-0.08 1.22,0.08 1.22,1.61zm-22.58 -8.6c0,1.25 -0.3,2.15 -1.51,2.15 -1.66,0 -1.5,-0.81 -1.49,-1.36 0.01,-1.44 0.28,-2.04 1.49,-2.1 1.21,-0.06 1.51,0.06 1.51,1.31zm-7.64 2.6c-1.52,0 -1.96,0 -1.93,-1.79 0.02,-2.18 0.85,-1.81 2.22,-1.79 1.11,0.01 1.09,0.86 1.09,2.14 0,1.29 -0.28,1.44 -1.38,1.44zm-4.26 -2.67c0,1.39 -0.25,2.38 -1.26,2.38 -1.39,0 -1.25,0.08 -1.25,-1.51 0,-0.82 0.41,-0.97 0.7,-1.35 0.28,-0.35 0.4,-0.95 0.89,-0.98 1.01,-0.07 0.92,0.08 0.92,1.46zm73.93 -47.39c0.2,-8.96 2.51,-11.46 4.69,-16.77 2.19,-5.31 2.97,-7.3 3.86,-15.1 1.55,-13.72 -5.83,-18.13 -7.92,-19.9 -2.08,-1.77 -1.88,-2.71 -3.12,-1.46 -1.25,1.25 -12.3,10.94 -15.21,14.79 -2.92,3.86 -4.27,3.86 -8.03,4.17 -3.75,0.31 -5,4.06 -8.74,6.46 -3.76,2.39 -6.46,-2.61 -7.81,-4.69 -1.36,-2.08 -0.52,0.11 -1.15,7.61 -0.62,7.49 -4.17,14.16 -7.57,17.6 -3.41,3.44 -4.83,2.6 -2.95,-0.73 1.87,-3.33 2.29,-10.31 2.95,-15.21 0.65,-4.89 -0.66,-2.6 -6.29,2.4 -5.62,5 -17.29,8.85 -19,8.85 -1.71,0 -1.72,2.61 -0.89,5.73 0.83,3.13 -0.94,10.42 -1.25,15.73 -0.32,5.31 1.46,11.88 2.14,15.94 0.69,4.06 -0.89,14.48 -1.87,19.37 -0.97,4.9 0.77,6.88 2.54,6.88 1.77,0 8.64,0.31 11.67,0.31 3.02,0 4.48,-3.75 3.12,-8.96 -1.35,-5.2 -0.72,-17.81 -1.46,-26.66 -0.73,-8.86 0.31,-7.3 0.84,-9.59 0.52,-2.29 1.25,-5.52 1.46,-7.81 0.21,-2.29 0.52,-1.15 1.45,2.6 0.94,3.75 2.19,5.94 3.02,10.63 0.84,4.69 -0.21,15.21 -1.03,19.69 -0.84,4.48 -1.78,9.48 0,11.77 1.77,2.29 8.95,1.45 10.31,1.25 1.35,-0.21 3.54,-2.4 3.01,-5.73 -0.52,-3.34 0.11,-14.48 0.32,-18.96 0.21,-4.48 1.36,-6.25 1.98,-8.23 0.62,-1.98 1.14,-8.75 1.35,-12.29 0.21,-3.54 1.04,-2.29 1.56,2.29 0.52,4.58 0.84,12.61 0.11,16.36 -0.73,3.75 -0.42,17.49 -0.52,20.93 -0.11,3.44 -4.59,10.52 -6.15,14.48 -1.56,3.96 -0.42,6.67 3.55,6.67 3.95,0 7.91,0 11.62,0 3.53,0 4.34,-1.42 5.67,-3.71 0.07,-0.12 0.14,-0.23 0.21,-0.35 0,0 1.56,-3.03 1.97,-5.73 0.42,-2.71 0.52,-7.82 -0.52,-14.69 -1.04,-6.88 0.11,-10.94 0.63,-13.75 0.52,-2.81 2.5,-4.48 3.02,-10 0.52,-5.52 1.88,-8.75 1.98,-10.94 0.1,-2.19 1.04,0.31 1.46,3.86 0.41,3.54 0.52,10 0.31,18.02 -0.21,8.02 -1.04,10.93 -1.87,16.14 -0.84,5.21 -1.57,8.75 0.72,9.9 2.29,1.14 10.21,1.15 12.71,0.21 2.5,-0.94 2.81,-1.98 2.71,-5.84 -0.11,-3.85 -1.04,-9.16 -1.56,-14.27 -0.52,-5.1 0.83,-8.12 1.04,-11.25 0.2,-3.12 0.83,-13.33 0.93,-18.02z"/>
  <path fill="#2B2A29" fill-rule="nonzero" d="M424.31 130.34c0,1.59 0.14,1.51 -1.25,1.51 -1.01,0 -1.26,-0.99 -1.26,-2.38 0,-1.38 -0.1,-1.53 0.92,-1.46 0.48,0.03 0.61,0.63 0.88,0.98 0.29,0.38 0.71,0.53 0.71,1.35zm-6.77 1.8c-1.1,0 -1.38,-0.15 -1.38,-1.44 0,-1.28 -0.02,-2.13 1.09,-2.14 1.37,-0.02 2.2,-0.39 2.23,1.79 0.02,1.79 -0.42,1.79 -1.94,1.79zm-6.13 -0.45c-1.21,0 -1.51,-0.9 -1.51,-2.15 0,-1.25 0.3,-1.37 1.51,-1.31 1.21,0.06 1.48,0.66 1.5,2.1 0,0.55 0.16,1.36 -1.5,1.36zm-29.02 9.08c-1.34,0 -1.68,-0.18 -1.68,-1.71 0,-1.53 -0.03,-2.53 1.32,-2.55 1.67,-0.02 2.42,-0.44 2.72,2.13 0.19,1.75 -0.51,2.13 -2.36,2.13zm6.15 -4.24c0.65,0.03 0.82,0.69 1.19,1.09 0.38,0.41 0.94,0.58 0.94,1.49 0,1.75 0.18,1.66 -1.67,1.66 -1.34,0 -1.68,-1.09 -1.68,-2.63 0,-1.53 -0.12,-1.69 1.22,-1.61zm-12.93 3.78c-1.34,0 -1.68,-1.09 -1.68,-2.62 0,-1.53 0.34,-1.68 1.68,-1.61 1.35,0.08 1.67,0.81 1.67,2.57 0,1.76 0.18,1.66 -1.67,1.66zm50.69 -48.75c-0.31,-5.31 -2.08,-12.6 -1.25,-15.73 0.83,-3.12 0.82,-5.73 -0.89,-5.73 -1.71,0 -13.38,-3.85 -19.01,-8.85 -5.62,-5 -6.93,-7.29 -6.27,-2.4 0.65,4.9 1.07,11.88 2.94,15.21 1.88,3.33 0.46,4.17 -2.94,0.73 -3.41,-3.44 -6.95,-10.11 -7.58,-17.6 -0.62,-7.5 0.21,-9.69 -1.14,-7.61 -1.36,2.08 -4.07,7.08 -7.81,4.69 -3.76,-2.4 -5.01,-6.15 -8.76,-6.46 -3.74,-0.31 -5.1,-0.31 -8.02,-4.17 -2.91,-3.85 -13.96,-13.54 -15.2,-14.79 -1.26,-1.25 -1.05,-0.31 -3.13,1.46 -2.08,1.77 -9.47,6.18 -7.92,19.9 0.89,7.8 1.67,9.79 3.86,15.1 2.18,5.31 4.49,7.81 4.68,16.77 0.11,4.69 0.73,14.9 0.94,18.02 0.21,3.13 1.57,6.15 1.04,11.25 -0.52,5.11 -1.46,10.42 -1.56,14.27 -0.1,3.86 0.21,4.9 2.71,5.84 2.5,0.94 10.42,0.93 12.71,-0.21 2.29,-1.15 1.56,-4.69 0.73,-9.9 -0.83,-5.21 -1.67,-8.12 -1.88,-16.14 -0.21,-8.02 -0.1,-14.48 0.31,-18.02 0.42,-3.55 1.36,-6.05 1.46,-3.86 0.11,2.19 1.46,5.42 1.98,10.94 0.52,5.52 2.5,7.19 3.02,10 0.53,2.81 1.67,6.87 0.63,13.75 -1.04,6.87 -0.94,11.98 -0.52,14.69 0.42,2.7 1.98,5.73 1.98,5.73 0.07,0.12 0.13,0.23 0.2,0.35 1.33,2.29 2.14,3.71 5.67,3.71 3.71,0 7.67,0 11.63,0 3.95,0 5.1,-2.71 3.54,-6.67 -1.56,-3.96 -6.05,-11.04 -6.15,-14.48 -0.1,-3.44 0.21,-17.18 -0.52,-20.93 -0.73,-3.75 -0.41,-11.78 0.1,-16.36 0.52,-4.58 1.36,-5.83 1.57,-2.29 0.21,3.54 0.73,10.31 1.35,12.29 0.63,1.98 1.77,3.75 1.98,8.23 0.21,4.48 0.83,15.62 0.31,18.96 -0.52,3.33 1.67,5.52 3.02,5.73 1.36,0.2 8.55,1.04 10.32,-1.25 1.77,-2.29 0.83,-7.29 0,-11.77 -0.84,-4.48 -1.88,-15 -1.04,-19.69 0.83,-4.69 2.08,-6.88 3.02,-10.63 0.94,-3.75 1.25,-4.89 1.45,-2.6 0.21,2.29 0.94,5.52 1.46,7.81 0.52,2.29 1.56,0.73 0.84,9.59 -0.73,8.85 -0.11,21.46 -1.46,26.66 -1.35,5.21 0.1,8.96 3.12,8.96 3.02,0 9.9,-0.31 11.67,-0.31 1.77,0 3.51,-1.98 2.54,-6.88 -0.98,-4.89 -2.56,-15.31 -1.87,-19.37 0.68,-4.06 2.46,-10.63 2.14,-15.94z"/>
  <path fill="#2B2A29" fill-rule="nonzero" d="M457.21 10.94c0.32,-2.63 1.22,-5.2 1.87,-7.14 0.64,1.94 1.54,4.51 1.86,7.14 0.61,5.1 -0.41,15.09 -1.86,23.07 -2.05,-8.7 -2.48,-17.97 -1.87,-23.07zm-118.1 8.59c4.5,2.42 9.17,4.53 15.81,8.75 6.64,4.22 12.5,11.64 14.69,14.22 2.19,2.58 4.92,1.64 6.02,-0.39 1.09,-2.03 2.26,-1.17 2.34,0.54 0.08,1.72 0,2.04 2.81,4.77 2.81,2.73 4.84,3.83 5.78,2.34 0.94,-1.48 0.24,-5 0.63,-10.62 0.39,-5.63 3.28,-4.3 3.59,-7.27 0.31,-2.97 -2.18,-3.75 -4.61,-5.7 -2.42,-1.95 3.91,-1.02 7.35,1.8 3.43,2.81 -0.08,6.48 -1.49,8.36 -1.4,1.87 -2.34,4.06 4.46,11.71 6.79,7.66 15.23,13.13 20.7,15.55 5.47,2.42 23.12,5 33.44,-3.12 3.69,-2.91 6.4,-6.11 8.45,-9.4 2.04,3.29 4.75,6.49 8.44,9.4 10.32,8.12 27.97,5.54 33.44,3.12 5.47,-2.42 13.91,-7.89 20.7,-15.55 6.8,-7.65 5.86,-9.84 4.46,-11.71 -1.41,-1.88 -4.92,-5.55 -1.49,-8.36 3.44,-2.82 9.77,-3.75 7.35,-1.8 -2.42,1.95 -4.93,2.73 -4.61,5.7 0.31,2.97 3.2,1.64 3.59,7.27 0.39,5.62 -0.31,9.14 0.63,10.62 0.94,1.49 2.96,0.39 5.78,-2.34 2.81,-2.73 2.74,-3.05 2.81,-4.77 0.08,-1.71 1.25,-2.57 2.35,-0.54 1.09,2.03 3.82,2.97 6.01,0.39 2.19,-2.58 8.05,-10 14.69,-14.22 6.64,-4.22 11.31,-6.33 15.81,-8.75 4.5,-2.42 6.77,-4.84 3.64,-5.55 -2.84,-0.64 -6.64,-4.22 -11.8,-7.03 -5.15,-2.81 -10.46,-8.2 -17.49,-8.28 -7.04,-0.08 -12.1,0.94 -17.97,2.42 -5.86,1.49 -6.34,1.56 -4.3,2.89 2.03,1.33 3.59,4.69 2.42,5.63 -1.17,0.93 -3.2,-0.55 -4.69,-2.74 -1.48,-2.18 -2.73,-2.18 -6.64,-2.11 -3.9,0.08 -15.93,0.32 -18.59,0.24 -2.66,-0.08 -4.22,-1.25 -5.39,1.72 -1.18,2.97 -4.14,3.9 -4.3,4.84 -0.16,0.94 -2.89,1.02 -0.78,-1.56 2.11,-2.58 2.19,-3.83 3.67,-4.84 1.49,-1.02 0.55,-2.58 -1.72,-2.58 -2.26,0 -3.98,-0.86 -6.56,-1.8 -2.58,-0.94 -7.58,-3.05 -9.45,0.31 -1.88,3.36 -7.42,15.39 -8.83,18.75 -1.41,3.36 -2.66,3.67 1.09,5.78 3.75,2.11 13.2,10.16 15.39,15.55 2.19,5.39 3.13,4.22 3.83,1.8 0.71,-2.43 3.2,-9.61 4.38,-10.86 1.17,-1.25 0.23,-3.59 -1.33,-3.83 -1.56,-0.23 -2.82,-2.97 -0.47,-4.06 2.34,-1.1 4.92,1.32 5.39,3.28 0.47,1.95 -1.33,3.2 -2.19,6.87 -0.86,3.67 -1.8,7.97 -2.18,11.41 -0.4,3.44 -4.09,9.84 -13.3,10.23 -7.09,0.31 -14.63,-4.13 -18.84,-10.78 1.65,-4.07 2.57,-8.16 3.28,-11.95 1.64,-8.75 0.37,-27.86 1.25,-32.89 0.47,-2.62 -2.96,-0.24 -4.29,0.31 -1.22,0.5 -1.99,-0.3 -3.19,-0.26 -1.21,-0.04 -1.98,0.76 -3.2,0.26 -1.33,-0.55 -4.79,-2.92 -4.29,-0.31 0.86,4.5 -0.39,24.14 1.25,32.89 0.71,3.79 1.63,7.88 3.28,11.95 -4.21,6.65 -11.76,11.09 -18.84,10.78 -9.22,-0.39 -12.9,-6.79 -13.3,-10.23 -0.38,-3.44 -1.32,-7.74 -2.18,-11.41 -0.86,-3.67 -2.66,-4.92 -2.19,-6.87 0.47,-1.96 3.05,-4.38 5.39,-3.28 2.35,1.09 1.1,3.83 -0.47,4.06 -1.56,0.24 -2.5,2.58 -1.33,3.83 1.18,1.25 3.67,8.43 4.38,10.86 0.7,2.42 1.64,3.59 3.83,-1.8 2.19,-5.39 11.64,-13.44 15.39,-15.55 3.75,-2.11 2.5,-2.42 1.09,-5.78 -1.41,-3.36 -6.95,-15.39 -8.83,-18.75 -1.87,-3.36 -6.87,-1.25 -9.45,-0.31 -2.58,0.94 -4.3,1.8 -6.56,1.8 -2.27,0 -3.2,1.56 -1.72,2.58 1.48,1.01 1.56,2.26 3.67,4.84 2.11,2.58 -0.62,2.5 -0.78,1.56 -0.16,-0.94 -3.12,-1.87 -4.3,-4.84 -1.17,-2.97 -2.73,-1.8 -5.39,-1.72 -2.66,0.08 -14.69,-0.16 -18.59,-0.24 -3.91,-0.07 -5.16,-0.07 -6.64,2.11 -1.49,2.19 -3.52,3.67 -4.69,2.74 -1.17,-0.94 0.39,-4.3 2.42,-5.63 2.03,-1.33 1.57,-1.4 -4.3,-2.89 -5.87,-1.48 -10.93,-2.5 -17.96,-2.42 -7.04,0.08 -12.35,5.47 -17.5,8.28 -5.16,2.81 -8.96,6.39 -11.8,7.03 -3.12,0.71 -0.86,3.13 3.64,5.55z"/>
 </g>
</svg>
