<svg xmlns="http://www.w3.org/2000/svg" width="104.0134" height="44.568298">
  <g fill="#2e5193" fill-rule="evenodd">
    <path d="M22.2837 34.5265V12.4103l6.4982.0417v2.6807c2.0412-2.7204 5.5984-2.8667 9.5332-2.7635l.1099 6.9151c-1.5409-.9138-2.1648-1.1865-4.1893-1.1865-1.6968 0-2.7952.9544-3.8313 2.1058-.7325.8136-1.2231 2.5637-1.2231 4.8504v9.5142zM0 34.5265L.0414.4512 20.0616.4096l-.0413 6.0196-13.555.0417.0416 7.0197h10.7887l-.0312 5.9885H6.4757l-.0104 15.0474zm70.2808 10.0418l.0207-32.1259h6.6305v3.0044c2.4506-1.8632 5.1199-3.0424 8.1346-3.0484 5.4207-.011 10.9499 4.3625 10.9499 10.6912 0 6.5358-4.3891 11.2924-10.8289 11.2878-3.0254-.0022-6.4017-.3872-8.6125-3.5935.0519 1.1209.1415 12.3968.129 13.7844zm12.3984-26.7821c-3.1994 0-5.794 2.5946-5.794 5.7941 0 3.1994 2.5946 5.794 5.794 5.794 3.1995 0 5.7941-2.5946 5.7941-5.794 0-3.1995-2.5946-5.7941-5.7941-5.7941zM66.4098 34.5123l-.1389-22.0104h-6.6305v3.0044c-2.4506-1.8632-5.12-3.0424-8.1346-3.0483-5.4207-.0111-10.95 4.3625-10.95 10.6911 0 6.5358 4.3892 11.2924 10.829 11.2878 3.0254-.0022 6.4017-.3872 8.6125-3.5934-.0519 1.1208-.0233 2.2813-.0108 3.6688zM53.8931 17.8458c3.1995 0 5.794 2.5945 5.794 5.794 0 3.1994-2.5945 5.794-5.794 5.794-3.1994 0-5.794-2.5946-5.794-5.794 0-3.1995 2.5946-5.794 5.794-5.794zM97.7746 6.8352V1.9981h1.6727c.4201 0 .7251.0439.9159.1307.1905.0867.3435.2409.4581.4629.1145.2228.1712.4762.1712.7622 0 .3629-.0871.6642-.2602.9-.1724.2353-.2841.3535-.6293.4142.0805.1321.1598.2673.2766.4382.1043.1525.2622.409.4516.7852l.481.9437h-.9499l-.5743-1.0531c-.2043-.3762-.3435-.6126-.4186-.7107-.0752-.0978-.1548-.1644-.2393-.2015-.0842-.036-.2168-.0542-.4002-.0542h-.1602v2.0195zm.7951-2.7919h.5871c.3809 0 .619-.0193.7143-.0587.0947-.0394.1686-.108.2228-.2049.053-.0967.0805-.2174.0805-.3626 0-.1632-.0357-.2939-.106-.3943-.0706-.1-.1704-.1632-.2999-.1902-.0641-.0102-.2571-.0158-.5797-.0158h-.6191z"/>
    <path d="M99.455 0c2.5171 0 4.5584 2.0412 4.5584 4.5581 0 2.5171-2.0413 4.5584-4.5584 4.5584-2.5169 0-4.5581-2.0413-4.5581-4.5584C94.8969 2.0412 96.9381 0 99.455 0zm0 1.061c1.9312 0 3.4973 1.5661 3.4973 3.4971 0 1.9312-1.5661 3.4974-3.4973 3.4974-1.931 0-3.4971-1.5662-3.4971-3.4974 0-1.931 1.5661-3.4971 3.4971-3.4971z"/>
  </g>
</svg>
