<?xml version="1.0" encoding="UTF-8"?>
<!DOCTYPE svg PUBLIC "-//W3C//DTD SVG 1.1//EN" "http://www.w3.org/Graphics/SVG/1.1/DTD/svg11.dtd">
<!-- Creator: CorelDRAW 2017 -->
<svg xmlns="http://www.w3.org/2000/svg" xml:space="preserve" width="900px" height="250px" version="1.1" shape-rendering="geometricPrecision" text-rendering="geometricPrecision" image-rendering="optimizeQuality" fill-rule="evenodd" clip-rule="evenodd"
viewBox="0 0 900 250"
 xmlns:xlink="http://www.w3.org/1999/xlink">
 <defs>
   <radialGradient id="id0" gradientUnits="userSpaceOnUse" gradientTransform="matrix(2.05244 -0 -0 -2.06399 -785 499)" cx="746.16" cy="162.88" r="52.06" fx="746.16" fy="162.88">
    <stop offset="0" stop-opacity="1" stop-color="#FEFEFE"/>
    <stop offset="0.411765" stop-opacity="1" stop-color="#0092D4"/>
    <stop offset="1" stop-opacity="1" stop-color="#0092D4"/>
   </radialGradient>
 </defs>
 <g id="Слой_x0020_1">
  <metadata id="CorelCorpID_0Corel-Layer"/>
  <path fill="#274789" fill-rule="nonzero" d="M864.12 65.7c-18.02,0 -32.68,-14.73 -32.68,-32.83 0,-18.11 14.66,-32.84 32.68,-32.84 18.02,0 32.68,14.73 32.68,32.84 0,18.1 -14.66,32.83 -32.68,32.83zm3.11 -69.03l-6.22 0c-18.48,1.59 -33.05,17.21 -33.05,36.2 0,20.03 16.22,36.33 36.16,36.33 19.94,0 36.16,-16.3 36.16,-36.33 0,-18.99 -14.56,-34.61 -33.05,-36.2z"/>
  <path fill="#274789" fill-rule="nonzero" d="M865.36 31.44l-12.57 0 0 -14.69 13.99 0c3.27,0 5.66,0.68 7.18,2.03 1.52,1.35 2.27,3.08 2.27,5.18 0,1.43 -0.39,2.76 -1.17,3.98 -0.78,1.22 -1.93,2.11 -3.43,2.66 -1.51,0.56 -3.6,0.84 -6.27,0.84zm7.98 6.81c-0.8,-0.73 -1.98,-1.47 -3.52,-2.21 4.23,-0.59 7.37,-1.96 9.4,-4.12 2.03,-2.16 3.04,-4.81 3.04,-7.96 0,-2.45 -0.61,-4.67 -1.84,-6.69 -1.22,-2.02 -2.86,-3.43 -4.91,-4.23 -2.05,-0.79 -5.04,-1.19 -8.98,-1.19l-19.58 0 0 44.38 5.84 0 0 -19.71 6.78 0c1.51,0 2.59,0.07 3.26,0.21 0.9,0.22 1.79,0.62 2.66,1.18 0.88,0.57 1.87,1.56 2.97,2.97 1.11,1.41 2.51,3.45 4.22,6.12l5.85 9.23 7.35 0 -7.68 -12.08c-1.53,-2.36 -3.15,-4.33 -4.86,-5.9z"/>
  <path fill="#274789" fill-rule="nonzero" d="M735.47 61.69c5.42,30.79 53.91,62.61 53.91,103.69 0,32.45 -26.31,58.75 -58.75,58.75 -32.45,0 -58.75,-26.3 -58.75,-58.75 0,-41.08 48.49,-72.9 53.9,-103.69 -49.78,2.52 -89.37,43.68 -89.37,94.09 0,52.04 42.19,94.22 94.22,94.22 52.04,0 94.22,-42.18 94.22,-94.22 0,-50.41 -39.59,-91.57 -89.38,-94.09z"/>
  <path fill="#274789" fill-rule="nonzero" d="M188.44 155.72c0,-4.35 -0.32,-8.62 -0.89,-12.8l-92.83 0 -11.25 26.77 75.99 0c-6.42,30.14 -33.19,52.75 -65.24,52.75 -36.85,0 -66.72,-29.88 -66.72,-66.72 0,-36.85 29.87,-66.72 66.72,-66.72 22.9,0 43.1,11.54 55.12,29.12l31.28 0c-14.52,-33.32 -47.73,-56.62 -86.4,-56.62 -52.04,0 -94.22,42.18 -94.22,94.22 0,52.03 42.18,94.22 94.22,94.22 47.29,0 86.43,-34.84 93.18,-80.25 0.68,-4.56 1.04,-9.22 1.04,-13.97z"/>
  <path fill="#274789" fill-rule="nonzero" d="M441.07 67.19l-74.68 0 0 0 -7.61 0 0 172.49 -27.93 -70.58 -10.59 -26.77 -19.15 -48.37 -10.59 -26.77 -51.47 0 -10.49 26.77 -59.06 150.63 28.76 0 59.05 -150.63 15.01 0 19.15 48.37 -38.16 0 -11.25 26.77 60 0 29.87 75.49 53.62 0 0 -150.63 55.67 0c13.36,0 24.19,10.83 24.19,24.19 0,13.35 -10.83,24.18 -24.19,24.18l-42.33 0 0 27.36 42.18 0c28.3,0 51.25,-22.95 51.25,-51.25 0,-28.31 -22.95,-51.25 -51.25,-51.25z"/>
  <path fill="#274789" fill-rule="nonzero" d="M582.71 67.19l-74.68 0 0 0 -7.61 0 0 177.4 26.77 0 0 -150.63 55.67 0c13.35,0 24.19,10.83 24.19,24.19 0,13.35 -10.84,24.18 -24.19,24.18l-42.33 0 0 27.36 42.18 0c28.31,0 51.25,-22.95 51.25,-51.25 0,-28.31 -22.94,-51.25 -51.25,-51.25z"/>
  <path fill="url(#id0)" d="M727.08 198.09l0 -0.17 -1.35 0c-1.24,-0.19 -2.45,-0.44 -3.65,-0.77l0 -0.07 -0.25 0c-0.33,-0.09 -0.67,-0.19 -1,-0.29l0 -0.12 -0.39 0c-0.29,-0.1 -0.57,-0.2 -0.86,-0.3l0 -0.12 -0.33 0c-0.31,-0.11 -0.61,-0.23 -0.92,-0.35l0 -0.07 -0.15 0c-1.09,-0.44 -2.15,-0.95 -3.18,-1.5l0 -0.16 -0.29 0 -0.54 -0.31 0 -0.11 -0.2 0 -0.64 -0.39 0 -0.03 -0.05 0c-0.99,-0.61 -1.94,-1.27 -2.86,-1.98l0 -0.1 -0.12 0 -0.3 -0.24 0 -0.18 -0.23 0c-0.49,-0.39 -0.97,-0.81 -1.44,-1.23l0 -0.02 -0.01 0 -0.4 -0.37 0 -0.04 -0.05 0 -0.37 -0.36 0 -0.06 -0.07 0c-0.4,-0.4 -0.8,-0.8 -1.18,-1.22l0 -0.03 -0.03 0c-0.57,-0.61 -1.11,-1.25 -1.64,-1.9l0 -0.18 -0.14 0 -0.27 -0.36 0 -0.06 -0.05 0c-0.89,-1.16 -1.71,-2.39 -2.45,-3.67l0 -0.08 -0.05 0 -0.37 -0.65 0 -0.18 -0.1 0 -0.32 -0.61 0 -0.23 -0.12 0 -0.29 -0.6 0 -0.23 -0.11 0 -0.31 -0.66 0 -0.17 -0.08 0c-0.27,-0.61 -0.52,-1.22 -0.75,-1.85l0 -0.24 -0.09 0c-0.11,-0.31 -0.22,-0.62 -0.33,-0.93l0 -0.32 -0.11 0c-0.11,-0.33 -0.21,-0.66 -0.31,-1l0 -0.25 -0.07 0c-0.12,-0.42 -0.24,-0.85 -0.34,-1.29l0 -0.37 -0.09 0c-0.12,-0.52 -0.23,-1.03 -0.33,-1.55l0 -0.12 -0.02 0c-0.17,-0.9 -0.3,-1.81 -0.4,-2.73l0 -1.44 -0.12 0c-0.05,-0.79 -0.08,-1.59 -0.08,-2.39 0,-0.74 0.03,-1.48 0.07,-2.21 0.02,-0.2 0.03,-0.39 0.05,-0.59 0.05,-0.61 0.1,-1.22 0.18,-1.82 0.02,-0.12 0.03,-0.25 0.04,-0.38 0.11,-0.71 0.23,-1.42 0.37,-2.11 0.03,-0.16 0.07,-0.31 0.1,-0.47 0.13,-0.58 0.26,-1.15 0.41,-1.72 0.05,-0.15 0.08,-0.3 0.13,-0.45l0.1 -0.36 0 0 0 -0.01c0.17,-0.56 0.34,-1.12 0.54,-1.67 0.02,-0.07 0.05,-0.14 0.07,-0.2l0.23 -0.62 0 0 0 0c0.15,-0.4 0.3,-0.79 0.47,-1.18 0.06,-0.14 0.12,-0.29 0.18,-0.44 0.19,-0.43 0.39,-0.87 0.59,-1.29l0.01 0 0 0c0.13,-0.28 0.27,-0.56 0.41,-0.84l0 0c0.29,-0.55 0.59,-1.09 0.9,-1.63 0.03,-0.05 0.06,-0.11 0.09,-0.16l0 0c0,0 0.02,-0.03 0.05,-0.08 0.03,-0.06 0.07,-0.12 0.11,-0.18 0.32,-0.53 0.65,-1.05 1,-1.56 3.12,-4.91 11.8,-18.69 16.53,-27.64 4.52,-8.55 7.39,-14.94 8.61,-18.17 0.36,-0.93 1.02,-3.49 2.51,-3.49 1.11,0 1.87,1.8 2.29,2.91l0 0 0 0 0.2 0.53c1.22,3.22 4.09,9.63 8.63,18.22 4.73,8.95 13.41,22.73 16.53,27.64 0.35,0.51 0.68,1.03 1,1.56 0.04,0.06 0.08,0.12 0.12,0.18 0.03,0.05 0.05,0.08 0.05,0.08l-0.01 0c0.03,0.05 0.06,0.11 0.09,0.16 0.31,0.53 0.61,1.06 0.89,1.6l0 0.03 0.01 0c0.14,0.27 0.27,0.54 0.4,0.81l0 0.03 0.02 0c0.2,0.43 0.4,0.86 0.59,1.3 0.06,0.14 0.13,0.29 0.19,0.43 0.24,0.59 0.48,1.19 0.69,1.8 0.02,0.06 0.05,0.13 0.08,0.2 0.23,0.67 0.44,1.35 0.63,2.04 0.04,0.15 0.09,0.3 0.13,0.45 0.15,0.57 0.29,1.14 0.41,1.72 0.03,0.16 0.07,0.31 0.1,0.47 0.14,0.69 0.26,1.4 0.36,2.11 0.02,0.13 0.03,0.26 0.05,0.38l0.09 0.74 0 0.02 0 0c0.04,0.35 0.07,0.71 0.09,1.06 0.02,0.2 0.03,0.39 0.04,0.59 0.05,0.73 0.08,1.47 0.08,2.21 0,0.8 -0.02,1.6 -0.08,2.39l-0.13 0 0 1.55c-0.1,0.89 -0.23,1.76 -0.39,2.62l-0.03 0 0 0.18c-0.09,0.5 -0.2,0.99 -0.32,1.49l-0.1 0 0 0.42c-0.1,0.42 -0.21,0.83 -0.33,1.24l-0.08 0 0 0.29c-0.1,0.33 -0.2,0.65 -0.3,0.96l-0.12 0 0 0.36c-0.1,0.3 -0.21,0.6 -0.32,0.89l-0.1 0 0 0.27c-0.23,0.62 -0.48,1.22 -0.74,1.82l-0.09 0 0 0.19 -0.29 0.64 -0.13 0 0 0.26 -0.28 0.57 -0.13 0 0 0.26 -0.31 0.58 -0.11 0 0 0.2 -0.36 0.63 -0.06 0 0 0.11c-0.39,0.67 -0.8,1.33 -1.24,1.97l-0.01 0 0 0.01c-0.38,0.57 -0.77,1.12 -1.18,1.66l-0.07 0 0 0.08 -0.26 0.34 -0.15 0 0 0.19c-0.41,0.51 -0.82,0.99 -1.25,1.47l0 0 0 0.01 -0.38 0.41 -0.04 0 0 0.05c-0.38,0.41 -0.77,0.81 -1.17,1.2l-0.08 0 0 0.07 -0.36 0.35 -0.06 0 0 0.05 -0.39 0.36 -0.02 0 0 0.02c-0.63,0.58 -1.29,1.13 -1.96,1.65l-0.13 0 0 0.1c-0.91,0.71 -1.87,1.37 -2.86,1.98l-0.05 0 0 0.04c-0.21,0.13 -0.42,0.26 -0.63,0.38l-0.21 0 0 0.12 -0.53 0.3 -0.3 0 0 0.16c-1.03,0.56 -2.08,1.06 -3.17,1.5l-0.16 0 0 0.07c-0.3,0.12 -0.61,0.24 -0.91,0.35l-0.34 0 0 0.12c-0.29,0.11 -0.57,0.2 -0.86,0.3l-0.39 0 0 0.12c-0.33,0.1 -0.66,0.2 -0.99,0.29l-0.26 0 0 0.08c-1.19,0.32 -2.41,0.57 -3.65,0.76l-1.35 0 0 0.17c-1.17,0.13 -2.35,0.19 -3.54,0.19 -1.2,0 -2.38,-0.06 -3.55,-0.19z"/>
 </g>
</svg>
