<?xml version="1.0" encoding="UTF-8" standalone="no"?>
<!-- Created with Inkscape (http://www.inkscape.org/) by Marsupilami -->
<svg
   xmlns:svg="http://www.w3.org/2000/svg"
   xmlns="http://www.w3.org/2000/svg"
   version="1.0"
   width="1024"
   height="188"
   viewBox="0 0 419.65018 77.128754"
   id="svg2566">
  <defs
     id="defs2568" />
  <g
     transform="translate(-165.17492,-493.79781)"
     id="layer1">
    <path
       d="M 281.34375,0 C 273.23125,1.75625 264.35124,2.3575 256.15625,1.6875 C 247.62,1.1025 238.51125,-0.0087499619 230.3125,2.25 C 226.80125,4.00625 223.79376,7.1937497 223.125,11.125 C 222.37125,14.47125 223.52375,17.635001 225.28125,20.0625 C 224.44375,23.99375 224.13625,29.1225 226.5625,32.46875 C 227.14875,33.2225 227.64126,34.144998 228.5625,34.3125 C 230.8225,32.1375 231.55876,29.281251 232.5625,26.4375 L 232.8125,26.4375 C 233.48125,27.19 234.17375,28.373749 235.34375,28.625 C 235.93125,27.78875 236.155,26.765001 236.40625,25.84375 C 236.6575,24.84125 236.60125,23.742501 236.9375,22.90625 C 237.8575,23.49125 238.50249,24.6675 239.59375,24.5 C 240.92875,22.325 241.28375,19.394999 241.03125,16.71875 C 241.1175,15.96625 241.77,16.74125 242.1875,16.65625 C 245.1175,17.745 248.79374,17.395 250.96875,14.96875 C 250.46875,14.4675 249.31375,14.81625 249.0625,14.0625 C 251.655,13.895 254.06625,13.45375 255.90625,11.53125 C 255.99,11.28 256.07375,10.875 255.65625,10.875 C 254.15,11.20875 252.82875,10.21 251.65625,9.375 L 251.71875,9.28125 C 259.41375,9.78375 267.97126,11.21875 275,8.125 C 278.345,6.95375 281.26375,3.43 281.34375,0 z M 221.625,8.28125 C 221.625,8.28125 209.97875,14.810001 204.375,18.15625 C 205.54625,20.49875 206.98625,22.668749 208.40625,24.84375 L 208.71875,25.09375 C 212.81875,22.9175 216.92124,20.48875 220.9375,18.0625 L 221.125,17.65625 C 220.12125,14.645 220.95625,11.12625 221.625,8.28125 z M 76.5,17.03125 C 73.166496,17.091475 69.845,17.714375 66.84375,18.8125 C 58.646252,22.2425 52.8825,30.20625 51.125,38.90625 C 49.953751,45.43125 51.5325,51.86125 56.71875,55.875 C 64.081249,61.314999 75.8875,60.4125 83.5,56.0625 C 89.188752,52.464998 93.2,47.0025 95.125,40.8125 C 97.299999,34.20375 96.06125,26.27875 91.125,21.59375 L 88.78125,19.75 C 85.11164,17.820625 80.785934,16.953818 76.5,17.03125 z M 127.90625,17.21875 C 124.05841,17.252962 120.20492,18.052187 116.875,19.40625 C 109.345,22.417501 103.16125,29.87625 101.90625,37.90625 C 100.65125,44.9325 102.49875,52.21375 108.1875,56.3125 C 113.5425,59.741251 120.72625,60.47375 127.25,59.21875 C 135.44875,57.294999 142.90625,50.615 145.5,42.5 C 147.34,37.31375 147.155,30.9675 144.8125,26.03125 C 143.97625,24.357499 143.06875,22.5775 141.5625,21.40625 C 137.79796,18.394765 132.85347,17.174763 127.90625,17.21875 z M 26.15625,17.28125 C 18.203906,17.575273 10.613437,20.6925 5.53125,27.28125 C -0.07375,34.05625 -2.0687499,44.427502 2.03125,52.625 C 3.4525,55.72125 6.6974999,57.464998 9.875,57.96875 L 39.90625,58.0625 C 41.91375,51.20375 43.607498,44.4225 45.53125,37.5625 L 45.4375,37.3125 L 27.53125,37.3125 C 26.27625,42.5 24.756251,47.585 23.25,52.6875 L 18.34375,52.6875 L 17.5,52.28125 C 16.83,51.7775 16.750001,50.846249 16.75,50.09375 C 18.75625,42.31375 21.25375,34.707501 23.09375,26.84375 C 23.43,25.84 24.268751,24.939999 25.1875,24.4375 C 29.12,22.51375 33.800002,24.333751 37.0625,26.84375 C 38.23375,24.83625 39.340001,22.7475 40.34375,20.65625 C 38.41875,19.40125 36.300001,18.491249 34.125,17.90625 C 31.469062,17.404375 28.807031,17.183242 26.15625,17.28125 z M 157.875,18.3125 L 147.65625,58.8125 L 147.84375,58.96875 L 175.9375,58.96875 C 182.71375,58.46625 188.4025,53.865 192,48.34375 C 195.34625,43.24 197.44125,36.79625 196.4375,30.1875 C 195.43375,25.1675 191.67625,19.65125 186.40625,18.3125 L 157.875,18.3125 z M 244.125,18.65625 L 244.4375,19.65625 L 250.96875,41.40625 L 246.78125,57.21875 C 246.69875,57.9725 246.11376,58.726249 246.53125,59.3125 L 265.9375,59.3125 L 266.125,59.15625 L 270.96875,41.5625 C 276.90875,34.53625 283.28126,26.933749 289.21875,19.65625 L 289.625,18.90625 L 279.84375,18.90625 C 276.08125,23.4225 272.56751,28.03625 268.46875,32.21875 C 268.38375,32.38625 268.11624,32.30125 268.03125,32.21875 C 266.525,27.785 265.37001,23.089999 263.78125,18.65625 L 244.125,18.65625 z M 292.96875,18.90625 C 289.53875,32.2075 285.92999,45.749999 282.5,59.21875 L 282.59375,59.46875 L 314.71875,59.46875 L 315.96875,59.3125 L 317.71875,52.375 L 317.65625,51.78125 L 303.1875,51.78125 C 303.94,48.6875 304.67249,45.606248 305.59375,42.59375 L 315.21875,42.5 L 315.625,42.15625 L 317.3125,35.5625 L 317.21875,35.0625 L 307.6875,34.96875 C 308.35625,32.04 309.10249,29.019999 309.9375,26.34375 L 324.4375,26.34375 L 324.75,26.03125 C 325.33625,23.69 326.11126,21.3325 326.53125,18.90625 L 292.96875,18.90625 z M 343.5,18.90625 L 318.5625,59.40625 L 318.75,59.5625 C 321.42751,59.5625 326.78125,59.5625 326.78125,59.5625 C 326.78126,59.5625 329.34875,55.1225 330.9375,53.03125 L 344.59375,53.03125 L 345,53.28125 L 345.5,59.0625 L 345.75,59.65625 L 363.65625,59.71875 C 363.98875,58.96625 363.56125,57.8975 363.8125,57.3125 L 363.75,57.3125 C 363.24626,54.300001 361.15875,28.27625 360.15625,18.90625 L 343.5,18.90625 z M 378.46875,18.90625 L 378.21875,19.15625 C 374.95625,32.37375 371.35625,45.26375 367.84375,58.3125 L 367.6875,59.71875 L 385.90625,59.71875 L 386.25,59.46875 L 389.59375,48.03125 L 389.9375,47.59375 C 390.43751,47.593751 390.915,47.3525 391.25,47.6875 L 394.03125,58.65625 L 394.4375,59.71875 L 411.5,59.71875 C 412.08624,59.55125 413.02125,59.88875 413.1875,59.21875 C 412.43626,54.368748 411.07625,50.04 410.15625,45.1875 L 410.25,44.84375 C 414.26625,42.249999 418.2775,38.3825 419.28125,33.53125 C 420.28374,29.68375 419.1225,25.58375 416.78125,22.65625 C 414.94,20.14625 412.26,18.90625 409.25,18.90625 L 378.46875,18.90625 z M 222.78125,19.65625 C 222.19375,19.8225 215.6775,23.6825 213,25.1875 C 212.9175,25.355 212.73874,25.519999 212.90625,25.6875 C 216,25.93875 219.09376,26.1875 222.1875,26.1875 C 222.355,24.26375 222.18375,21.818751 222.9375,20.0625 L 222.78125,19.65625 z M 127.5,23 C 128.50375,23.000001 129.415,23.1025 130,23.9375 C 130.75251,24.9425 130.415,26.25625 130.25,27.34375 C 128.24125,35.29125 126.425,43.325 124.25,51.1875 C 123.33,52.358749 121.97625,53.55125 120.21875,53.46875 C 119.3825,53.300001 118.21,53.1075 117.875,52.1875 L 117.71875,51.125 C 119.89375,42.508751 121.98,33.72 124.40625,25.1875 C 124.82375,23.84875 126.24375,23.1675 127.5,23 z M 77.78125,23.4375 C 78.576094,23.458281 79.300625,23.7575 79.71875,24.59375 C 80.303751,26.2675 79.46875,28.015 79.21875,29.6875 L 74.03125,50.375 C 73.863752,51.714999 72.775,52.79875 71.6875,53.46875 C 70.516251,53.970001 68.785,54.045 67.78125,53.125 C 66.943752,52.455 66.9475,51.3575 67.03125,50.4375 C 68.871248,42.658752 71.19125,34.9775 73.03125,27.28125 C 73.449999,25.9425 74.04625,24.52375 75.46875,23.9375 C 76.137501,23.686875 76.986406,23.416719 77.78125,23.4375 z M 176.9375,24.5625 C 178.27245,24.52522 179.55,24.723437 180.125,26.03125 L 179.9375,27.59375 L 174.1875,50.375 C 173.60251,51.713749 172.41125,52.95625 170.90625,53.125 L 167.3125,53.03125 L 174.59375,24.6875 C 175.31515,24.6875 176.13653,24.584868 176.9375,24.5625 z M 397.75,25.0625 C 398.37719,25.0625 398.98687,25.104375 399.53125,25.1875 C 400.03374,25.438751 400.39625,25.93625 400.5625,26.4375 L 400.46875,28.4375 L 397.78125,38.15625 C 397.36374,39.3275 396.275,39.99875 395.1875,40.5 C 394.18249,40.667499 392.93,40.6675 391.84375,40.5 C 393.09874,35.313749 394.6,30.29125 395.9375,25.1875 C 396.48062,25.104375 397.12281,25.0625 397.75,25.0625 z M 210.0625,27.34375 L 209.90625,27.53125 C 210.575,29.70625 209.96875,32.033752 209.71875,34.125 L 209.90625,34.21875 C 213.50375,32.7125 216.76749,30.54875 220.28125,28.875 L 220.28125,28.34375 C 217.0225,28.1775 213.49375,27.593749 210.0625,27.34375 z M 222.6875,30.1875 C 219.3425,32.02875 216.0975,33.535 212.75,35.375 C 212.08125,36.04375 210.97999,36.069999 210.5625,36.90625 L 218.59375,52.1875 L 219.03125,52.28125 C 224.13375,47.4275 230.06,43.24125 236,39.8125 L 236.34375,39.40625 C 234.92,37.39875 233.995,35.05875 232.40625,33.21875 C 231.32,34.13875 230.7425,35.630002 229.65625,36.71875 C 228.81875,37.0525 228.46376,38.38625 227.375,38.21875 C 226.875,37.46625 225.79125,36.878749 225.625,35.875 C 224.4525,34.62 223.79376,32.9625 223.125,31.625 L 222.6875,30.1875 z M 343.09375,33.21875 L 343.34375,33.71875 C 343.59501,37.733751 344.26125,41.8175 344.34375,46 L 335.375,46 C 335.12374,45.498752 335.98,45.08625 336.0625,44.5 C 338.40626,40.6525 340.585,36.9 343.09375,33.21875 z M 208.5625,37.90625 C 207.9775,38.57625 207.73126,39.402501 207.3125,40.15625 C 206.97875,41.075 206.22874,41.757498 206.0625,42.59375 L 201.78125,53.46875 C 200.7775,57.39875 199.09625,61.322502 196,64.25 C 194.24375,66.5075 190.99625,68.591252 191.75,71.9375 C 191.91625,72.355 192.2375,73.043747 192.90625,72.875 C 202.69375,70.115 209.80375,61.1625 217,53.96875 C 214.82125,48.69875 211.8125,43.665001 209.21875,38.5625 L 208.5625,37.90625 z M 237.09375,41.0625 C 236.76,41.56375 236.09625,41.32125 235.84375,41.90625 C 235.26125,42.07375 234.90624,42.581249 234.40625,42.75 C 227.7975,47.015 221.36626,52.114999 215.84375,57.71875 C 212.165,61.735 208.40126,65.737501 203.96875,69 C 200.79,71.67625 197.0025,72.951248 193.40625,74.625 C 193.65625,75.545 194.0075,76.371246 194.59375,77.125 C 200.45,74.69875 206.04499,71.362497 210.8125,66.84375 C 219.42875,58.145 227.97999,49.261252 238.6875,43.40625 C 238.51875,42.56875 237.8575,41.908749 237.4375,41.15625 L 237.09375,41.0625 z"
       transform="translate(165.17492,493.79781)"
       id="path2416"
       style="fill:#114681;fill-opacity:1;fill-rule:nonzero;stroke:none" />
  </g>
</svg>
