<svg xmlns="http://www.w3.org/2000/svg" width="341.8642" height="186.94031">
  <path fill="none" stroke="#e30016" stroke-width="9.93270016" d="M170.93215 4.9663501c91.4109 0 165.9657 39.7573 165.9657 88.5038s-74.5548 88.5038-165.9657 88.5038-165.9658-39.7573-165.9658-88.5038 74.5549-88.5038 165.9658-88.5038z"/>
  <path fill="#fff" fill-rule="evenodd" stroke="#1b1918" stroke-width="11.05410004" d="M170.87805 13.6027501c86.5541 0 157.1482 35.6347 157.1482 79.3261 0 43.6915-70.5941 79.3261-157.1482 79.3261s-157.1474-35.6346-157.1474-79.3261c0-43.6914 70.5933-79.3261 157.1474-79.3261z"/>
  <path fill="#1b1918" fill-rule="evenodd" stroke="#1b1918" stroke-width="2.32710004" d="M322.92865 3.7532501c2.5916 0 5.1204.677 7.5932 2.031 2.4658 1.3612 4.3938 3.2995 5.77 5.8294 1.3761 2.5227 2.0677 5.1594 2.0677 7.9031 0 2.7151-.6776 5.3233-2.0398 7.8247-1.3551 2.5085-3.2622 4.454-5.7071 5.8365-2.4519 1.3896-5.0086 2.0809-7.684 2.0809s-5.2391-.6913-7.684-2.0809c-2.4519-1.3825-4.3589-3.328-5.721-5.8365-1.3692-2.5014-2.0468-5.1096-2.0468-7.8247 0-2.7437.6915-5.3804 2.0747-7.9031 1.3831-2.5299 3.3111-4.4682 5.7839-5.8294 2.4659-1.354 5.0016-2.031 7.5932-2.031zm0 2.6082c-2.1724 0-4.2821.5702-6.3358 1.7033-2.0537 1.133-3.6604 2.7579-4.82 4.8601-1.1595 2.1094-1.7393 4.3043-1.7393 6.5919 0 2.2661.5727 4.4397 1.7114 6.5206 1.1386 2.0809 2.7313 3.7057 4.7781 4.8673 2.0467 1.1616 4.1773 1.746 6.4056 1.746 2.2214 0 4.3589-.5844 6.4057-1.746 2.0467-1.1616 3.6324-2.7864 4.764-4.8673 1.1317-2.0809 1.6975-4.2545 1.6975-6.5206 0-2.2876-.5728-4.4825-1.7254-6.5919-1.1526-2.1022-2.7593-3.7271-4.82-4.8601-2.0606-1.1331-4.1703-1.7033-6.3218-1.7033zm-6.7759 21.8565v-16.9464h5.7071c1.956 0 3.367.1497 4.2402.4632.8732.3136 1.5647.8623 2.0886 1.6391.517.7839.7754 1.6105.7754 2.487 0 1.24-.433 2.3162-1.2993 3.2355-.8661.9193-2.0187 1.4323-3.4507 1.5463.5867.2495 1.0617.5488 1.411.898.6706.6698 1.4879 1.7887 2.4589 3.3636l2.0258 3.3137h-3.2762l-1.474-2.6724c-1.1595-2.0951-2.0886-3.4134-2.8011-3.9408-.489-.3919-1.2085-.5843-2.1515-.5843h-1.5718v7.1975zm2.6824-9.535h3.2552c1.5508 0 2.6126-.2423 3.1784-.7126.5659-.4704.8523-1.0975.8523-1.8814 0-.4988-.1397-.9478-.4122-1.3469-.2724-.3919-.6496-.6912-1.1316-.8836-.489-.1996-1.3831-.2922-2.6964-.2922h-3.0457z"/>
  <path fill="#1b1918" fill-rule="evenodd" stroke="#000" stroke-width="1.30260003" d="M37.82815 123.3916501l-.2426-61.9984h8.2388l.1022 26.1377h27.6366l-.1021-26.1377h8.2385l.2426 61.9984h-8.2388l-.1146-29.2833h-27.6366l.1145 29.2833zm52.7077 0l-.2423-61.9984h32.4592l.0259 6.5774h-24.2207l.0778 19.9032h20.2956l.0253 6.4918h-20.2955l.0877 22.4486h25.9085l.0258 6.5774zm49.7607 0l-.1011-25.8945-19.5256-36.1039h9.4179l15.1936 28.0251 16.1267-28.0251h7.6491l-20.6234 35.9466.1019 26.0518zm31.1666 0l-.2423-61.9984h8.078l29.4315 47.9001-.1875-47.9001h7.06l.2426 61.9984h-8.0381l-29.4714-47.8859.1873 47.8859zm53.0295 0l-.2423-61.9984h32.4593l.0258 6.5774h-24.2207l.0776 19.9032h20.2958l.0253 6.4918h-20.2955l.0877 22.4486h25.9085l.0256 6.5774zm37.2085 0l-.2424-61.9984h17.5893c5.5731 0 9.8514 1.3154 12.8222 3.9319 2.9846 2.631 4.4862 6.4486 4.5056 11.4391.0155 3.9464-1.0022 7.4493-3.0399 10.5236-2.0512 3.0598-4.9354 5.4192-8.6398 7.0778l19.5114 29.026h-10.1141l-16.674-26.2235h-7.6626l.1024 26.2235zm8.0301-32.8009h2.6659c5.0769 0 8.9444-1.101 11.5749-3.3029 2.6302-2.2162 3.9441-5.4335 3.9272-9.6802-.025-6.4199-4.378-9.637-13.072-9.637h-5.1845z"/>
</svg>
