<svg xmlns="http://www.w3.org/2000/svg" viewBox="0 0 571.58978 243.63859">
  <path fill="#ebb62c" fill-rule="evenodd" d="M14.8368 221.6347l37.2219.0193-.0569-58.5007c3.5059 9.4665 7.3626 19.4167 10.9417 29.0362l11.1213 29.4762 30.2334.1191c.929-1.4709 17.7509-52.112 20.0515-58.732.3897 11.7142.0524 27.1938.0513 39.2469l-.003 19.3242c11.3884.2384 27.229.1494 38.7921.016l-.01-104.3073c-16.0981-.0607-35.0497-.2614-50.8854-.019l-2.0799.0905c-1.2158 4.6538-19.4292 52.9985-22.5382 61.2092-6.2627-19.5226-13.9696-41.2676-20.7101-61.0616l-52.129-.2099zm309.5482-41.2769c-.6109 1.592-24.9331 35.2762-28.9984 41.3026l48.7375-.0233 20.242-35.1595 15.065.003.0817 35.1807 42.6623-.006-.0138-104.3129c-17.5808-.2418-35.3282-.0148-52.927-.0148-17.7314 0-32.0264-.6703-47.6738 5.2925-7.0753 2.696-12.195 5.7846-16.3303 10.097-5.7242 5.9692-6.2492 9.8426-6.263 20.1974-.0137 9.2242 3.7875 13.8443 8.6929 17.7717 4.2923 3.4375 11.005 7.3586 16.7249 9.6718zm56.2881-19.1017l.008-17.4387c-6.5971-.6025-15.6993-.0774-22.5732-.087-5.9479-.008-13.0923 1.1253-13.8167 8.9177-.3447 3.7122 1.8784 5.6531 4.0367 6.9205 3.3346 1.9579 5.6277 1.7543 9.78 1.7522 7.1284-.004 15.6028.4179 22.5647-.0647zm93.062-14.0692l-.0355-29.8552c-13.3858-.0506-30.9895-.3438-43.9791.0375l.1237 104.2972 43.818-.1143c.6039-6.8088.065-16.3217.065-23.4258 0-11.7274-1.119-8.9231 7.4613-16.5514 2.9399 1.4982 22.2015 29.1773 26.6488 34.761 4.5686 5.736 5.3623 5.3464 9.8577 5.2888l45.7648-.6292c-2.1843-3.2103-22.6091-28.3667-25.3834-31.7774-8.3913-10.3163-17.0133-21.499-25.6031-31.7001.663-1.5646 14.8838-13.2941 16.8793-15.2049 4.1689-3.9924 12.2121-10.6059 17.0461-14.937 4.0514-3.63 7.1516-6.0453 11.1124-10.0547l-42.5973-.2888c-6.2303-.0433-5.3655-1.323-10.6112 3.7072l-15.1915 13.3183c-2.4597 1.9198-13.8681 12.5904-15.376 13.1288zM163.3385 236.858l43.8651.0266 2.9188-12.4475c2.2018-.6013 35.0545-.3616 39.892-.2291l6.1569 12.6564 43.9053-.002c-.3913-2.2093-9.7195-23.5627-11.4313-27.6832-3.8066-9.1617-7.5251-18.0963-11.4101-27.1911-3.9105-9.1521-7.5007-18.0433-11.4081-27.189-3.0004-7.0234-8.5719-21.294-11.4483-27.1391l-45.4273-.2726c-1.5994 2.012-.9132.9366-1.8201 3.1861-.5091 1.2622-.9365 2.2326-1.4265 3.4439-5.2596 12.9978-41.6579 99.4584-42.3664 102.8407zm56.1343-36.7621l24.373.0541-12.318-33.3543c-.7212.8209-11.548 30.706-12.055 33.3002z"/>
  <path fill="#c80c2b" fill-rule="evenodd" d="M201.512 120.1453l62.0484-.3033c-.317-1.7237-5.9429-11.3959-7.151-13.7056-2.4455-4.6745-4.9745-9.2761-7.4392-13.7671l-10.9897-20.3089c-.6263-1.2091-1.195-2.1359-1.8557-3.3732-.4003-.7499-.5229-1.0676-.9281-1.8316-.5161-.9727-.5074-.8666-1.2458-1.6099z"/>
  <path fill="#002e77" fill-rule="evenodd" d="M0 243.6386l571.5898-.006L571.4731 0 .0011.0191zm163.3385-6.7806l136.7381.004 264.5926.0435-.1771-126.9572-297.1186-.1134-1.2844-2.5911L564.665 94.2045l.002-5.0093-302.288 12.0349-1.6376-2.9571 303.8927-24.4249.018-6.5589-307.4606 25.1929-1.7065-2.8658c.525-.3787 1.1921-.5059 1.9377-.6056 24.0485-3.2254 50.8906-6.0297 75.0897-8.9464l232.1238-27.7341.0308-4.6731-313.3959 34.8244-1.4573-2.6823c6.4104-.6714 13.2408-1.9759 19.7456-2.9761 95.0738-14.6185 190.4447-29.2964 285.526-43.6487 4.969-.7499 4.8035-.7329 9.6049-1.9866l-.1729-4.392-318.7626 46.4965-1.4573-2.8043c2.0184-1.0023 16.3262-3.237 19.8326-3.8946l290.6933-54.2856c4.9329-.9281 5.0305-.9461 9.8775-2.3366l-.1951-2.2845-557.51.0106c-.1199 4.7187-.6057 3.3335 6.0519 5.2108 2.363.6661 4.4906 1.2483 6.7815 1.9038l200.8452 56.8704-1.3852 2.7502L6.9215 26.8383l.0043 5.7909 208.5197 47.9771-1.6821 3.1013c-2.4384.14-10.0229-1.5284-12.8483-2.0343L162.125 74.88c-17.217-3.0026-34.4955-6.0614-51.7539-9.0513L6.9215 47.7897l.0043 5.0083 203.0247 36.8957-1.5475 3.2508L6.9279 68.5057l.1707 5.2904 197.8701 24.4398-1.5103 3.0408L6.983 88.9905l.1888 4.916 192.6805 12.8483-2.3747 3.4841-190.555-.1728v126.8404z"/>
</svg>
