<svg xmlns="http://www.w3.org/2000/svg" xml:space="preserve" width="202px" height="58px" fill-rule="evenodd" clip-rule="evenodd"
viewBox="0 0 202 58.06"
 xmlns:xlink="http://www.w3.org/1999/xlink">
 <g id="Layer_x0020_1">
  <g id="_833128072">
   <rect fill="#009846" y="0.59" width="201.83" height="49.64"/>
   <path fill="#FEFEFE" d="M53.71 29.23c0.15,0.15 0.51,0.14 0.51,0.14l12 0c0.94,0 1.56,-0.1 1.87,-0.3 0.32,-0.2 0.47,-0.37 0.48,-0.97 0,-0.65 -0.14,-1.1 -0.42,-1.36 -0.29,-0.26 -1.23,-0.39 -2.83,-0.39l-11.21 0c0,0 -0.26,0.05 -0.37,0.16 -0.13,0.13 -0.13,0.45 -0.13,0.45l-0.02 1.7c0,0 -0.04,0.41 0.12,0.57zm0.05 -6.99c0.14,0.14 0.51,0.13 0.51,0.13l12 0c0.93,0 1.55,-0.1 1.86,-0.29 0.32,-0.21 0.48,-0.38 0.48,-0.98 0.01,-0.65 -0.13,-1.1 -0.42,-1.36 -0.28,-0.26 -1.23,-0.39 -2.83,-0.38l-11.21 0c0,0 -0.26,0.04 -0.37,0.15 -0.12,0.13 -0.13,0.45 -0.13,0.45l-0.01 1.7c0,0 -0.05,0.41 0.12,0.58zm-4.79 10.72c-0.36,-0.37 -0.38,-1.26 -0.38,-1.26l0.1 -15.97 16.26 -0.01c3.38,0 5.57,0.32 6.57,0.95 0.99,0.64 1.48,1.89 1.47,3.78 0,1.28 -0.23,2.05 -0.68,2.7 -0.45,0.63 -1.18,1.04 -2.17,1.22 1.17,0.12 2.03,0.34 2.58,1.02 0.56,0.68 0.84,1.52 0.83,2.91 -0.01,1.73 -0.49,3.32 -1.43,4.02 -0.95,0.68 -2.28,1.02 -3.98,1.02l-17.93 0.01c0,0 -0.88,-0.03 -1.24,-0.39z"/>
   <path fill="#FEFEFE" d="M88.06 19.46l4.16 -3.52c0,0 3.61,-3.75 8.46,-4.39l101.15 0.03 -0.03 4.24 -100.33 -0.04c-3.06,0.45 -3.98,1.42 -5.12,2.24l-6.1 5.25c0,0 -0.96,0.9 -0.91,1.27 0.08,0.42 0.84,1 0.84,1l9.74 7.64 -7.6 0 -7.02 -5.79c0,0 -0.37,-0.24 -0.64,-0.35 -0.32,-0.12 -0.87,-0.18 -0.87,-0.18l-3.02 0c0,0 -0.45,0 -0.64,0.19 -0.2,0.19 -0.18,0.69 -0.18,0.69l-0.04 5.44 -5.29 0.01 0.11 -17.31 5.29 0 -0.03 5.85c0,0 0.03,0.34 0.17,0.48 0.14,0.14 0.45,0.19 0.45,0.19l3.33 0c0,0 0.5,-0.06 0.79,-0.19 0.26,-0.11 0.62,-0.38 0.62,-0.38l2.71 -2.37z"/>
   <path fill="#FEFEFE" d="M28.59 24.2l9.94 0c1.39,0 2.25,-0.15 2.58,-0.46 0.34,-0.3 0.5,-0.49 0.51,-1.37 0.01,-0.94 -0.16,-0.96 -0.49,-1.27 -0.33,-0.31 -1.25,-0.47 -2.75,-0.47l-9.77 0.01 -0.02 3.56zm-5.15 -8.24l5.2 0 10.34 -0.01c3.35,0 5.56,0.47 6.63,1.41 1.07,0.93 1.61,2.27 1.59,5.22 -0.02,3.09 -0.71,4.58 -2.06,5.27 -1.36,0.68 -3.7,1.03 -7.04,1.03l-8.28 0c0,0 -0.63,0.08 -0.91,0.33 -0.23,0.2 -0.35,0.82 -0.35,0.82l-0.02 3.1 -5.2 0 0.02 -3.1 0.03 -4.71 0.02 -4.68 0.03 -4.68z"/>
   <path fill="#008542" d="M176.72 11.81c0.31,0 0.61,0.08 0.91,0.24 0.29,0.16 0.52,0.39 0.69,0.68 0.16,0.3 0.24,0.61 0.24,0.93 0,0.32 -0.09,0.63 -0.25,0.93 -0.17,0.29 -0.4,0.52 -0.69,0.68 -0.3,0.17 -0.6,0.25 -0.93,0.25 -0.32,0 -0.62,-0.08 -0.92,-0.25 -0.29,-0.16 -0.52,-0.39 -0.68,-0.68 -0.16,-0.3 -0.24,-0.61 -0.24,-0.93 0,-0.32 0.09,-0.63 0.26,-0.93 0.16,-0.29 0.4,-0.52 0.69,-0.68 0.3,-0.16 0.61,-0.24 0.92,-0.24zm0 0.31c-0.26,0 -0.52,0.06 -0.77,0.2 -0.24,0.13 -0.44,0.32 -0.58,0.57 -0.14,0.25 -0.21,0.51 -0.21,0.77 0,0.27 0.06,0.53 0.2,0.77 0.13,0.25 0.32,0.44 0.57,0.57 0.24,0.14 0.5,0.21 0.77,0.21 0.26,0 0.52,-0.07 0.77,-0.21 0.24,-0.13 0.44,-0.32 0.57,-0.57 0.14,-0.24 0.21,-0.5 0.21,-0.77 0,-0.26 -0.06,-0.52 -0.2,-0.77 -0.14,-0.25 -0.33,-0.44 -0.58,-0.57 -0.24,-0.14 -0.5,-0.2 -0.75,-0.2zm-0.83 2.57l0.01 -2 0.68 0c0.24,0 0.41,0.02 0.51,0.06 0.11,0.04 0.19,0.1 0.25,0.19 0.06,0.09 0.1,0.19 0.09,0.29 0,0.15 -0.05,0.28 -0.15,0.38 -0.11,0.11 -0.25,0.17 -0.42,0.19 0.07,0.03 0.13,0.06 0.17,0.1 0.08,0.08 0.18,0.21 0.29,0.4l0.24 0.39 -0.39 0 -0.17 -0.32c-0.14,-0.24 -0.25,-0.4 -0.34,-0.46 -0.06,-0.05 -0.14,-0.07 -0.26,-0.07l-0.19 0 0 0.85 -0.32 0zm0.33 -1.13l0.39 0c0.18,0 0.31,-0.02 0.38,-0.08 0.07,-0.05 0.1,-0.13 0.1,-0.22 0,-0.06 -0.01,-0.11 -0.05,-0.16 -0.03,-0.04 -0.07,-0.08 -0.13,-0.1 -0.06,-0.02 -0.17,-0.03 -0.32,-0.03l-0.37 0 0 0.59z"/>
   <path fill="#FEFEFE" d="M104.86 24.78l0.12 0c0.29,0 0.5,-0.04 0.64,-0.11 0.14,-0.07 0.21,-0.18 0.21,-0.32 0,-0.14 -0.06,-0.25 -0.2,-0.31 -0.13,-0.07 -0.34,-0.1 -0.62,-0.1l-0.15 0 0 0.84zm0 1.57l0.32 0c0.31,0 0.54,-0.03 0.69,-0.11 0.15,-0.07 0.22,-0.19 0.22,-0.34 0,-0.17 -0.07,-0.3 -0.23,-0.39 -0.15,-0.08 -0.38,-0.13 -0.68,-0.13l-0.32 0 0 0.97zm-0.99 0.66l0 -3.73 1.14 0c0.23,0 0.41,0.01 0.55,0.02 0.13,0.01 0.25,0.03 0.36,0.06 0.29,0.09 0.51,0.21 0.66,0.37 0.16,0.15 0.24,0.34 0.24,0.55 0,0.17 -0.05,0.32 -0.14,0.44 -0.1,0.13 -0.23,0.22 -0.41,0.28 0.26,0.06 0.47,0.16 0.62,0.32 0.15,0.15 0.22,0.34 0.22,0.55 0,0.18 -0.04,0.34 -0.13,0.49 -0.1,0.16 -0.22,0.28 -0.39,0.38 -0.16,0.1 -0.34,0.17 -0.54,0.21 -0.2,0.04 -0.49,0.06 -0.85,0.06l-1.33 0zm4.84 -1.92l0.23 0c0.42,0 0.73,-0.05 0.95,-0.16 0.22,-0.1 0.33,-0.26 0.33,-0.46 0,-0.2 -0.09,-0.35 -0.28,-0.44 -0.18,-0.1 -0.46,-0.14 -0.85,-0.14l-0.38 0 0 1.2zm0 1.92l-1.04 0 0 -3.73 1.26 0c0.4,0 0.7,0.01 0.89,0.03 0.2,0.02 0.36,0.05 0.5,0.1 0.3,0.09 0.53,0.23 0.69,0.41 0.16,0.18 0.23,0.39 0.23,0.63 0,0.28 -0.11,0.53 -0.33,0.73 -0.23,0.2 -0.53,0.33 -0.92,0.38l1.32 1.45 -1.24 0 -1.36 -1.73 0 1.73zm5.58 -1.47l-0.62 -1.2 -0.64 1.2 1.26 0zm-1.62 0.69l-0.41 0.78 -1.07 0 2.05 -3.73 0.9 0 2.02 3.73 -1.11 0 -0.42 -0.78 -1.96 0zm4.73 0.78l-1.01 0 0 -3.73 0.98 0 2.18 2.38 0 -2.38 1.02 0 0 3.73 -0.96 0 -2.21 -2.45 0 2.45zm5.79 -0.64c0.57,0 0.99,-0.1 1.26,-0.3 0.28,-0.19 0.41,-0.51 0.41,-0.93 0,-0.38 -0.15,-0.69 -0.44,-0.9 -0.3,-0.22 -0.72,-0.32 -1.25,-0.32l-0.67 0 0 2.45 0.69 0zm0.06 0.64l-1.8 0 0 -3.73 1.77 0c0.48,0 0.87,0.03 1.16,0.1 0.28,0.07 0.54,0.19 0.78,0.35 0.25,0.17 0.44,0.37 0.57,0.62 0.12,0.24 0.19,0.51 0.19,0.81 0,0.34 -0.09,0.64 -0.27,0.91 -0.18,0.27 -0.44,0.49 -0.78,0.66 -0.19,0.1 -0.41,0.17 -0.65,0.22 -0.24,0.04 -0.56,0.06 -0.97,0.06zm6.5 -2.06l0.27 0c0.29,0 0.51,-0.05 0.67,-0.13 0.15,-0.09 0.23,-0.22 0.23,-0.38 0,-0.17 -0.08,-0.3 -0.23,-0.38 -0.14,-0.08 -0.37,-0.12 -0.67,-0.12l-0.27 0 0 1.01zm0 2.06l-1.03 0 0 -3.73 1.31 0c0.33,0 0.6,0.01 0.79,0.04 0.19,0.02 0.35,0.07 0.47,0.12 0.22,0.11 0.39,0.24 0.51,0.41 0.13,0.18 0.19,0.36 0.19,0.55 0,0.36 -0.17,0.64 -0.5,0.86 -0.34,0.21 -0.79,0.32 -1.35,0.32l-0.39 0 0 1.43zm3.64 -1.9c0,0.16 0.04,0.31 0.12,0.45 0.07,0.14 0.18,0.27 0.33,0.38 0.16,0.12 0.35,0.22 0.55,0.29 0.21,0.06 0.42,0.1 0.64,0.1 0.47,0 0.85,-0.12 1.17,-0.35 0.31,-0.23 0.47,-0.52 0.47,-0.87 0,-0.32 -0.16,-0.59 -0.48,-0.81 -0.31,-0.23 -0.69,-0.34 -1.14,-0.34 -0.46,0 -0.85,0.11 -1.17,0.34 -0.32,0.22 -0.49,0.49 -0.49,0.81zm-1.08 0.03c0,-0.21 0.04,-0.4 0.11,-0.58 0.08,-0.18 0.2,-0.35 0.35,-0.51 0.26,-0.27 0.59,-0.48 0.98,-0.62 0.4,-0.15 0.83,-0.22 1.3,-0.22 0.35,0 0.69,0.04 1.01,0.14 0.33,0.09 0.62,0.23 0.88,0.41 0.26,0.19 0.46,0.4 0.6,0.63 0.14,0.23 0.21,0.48 0.21,0.73 0,0.27 -0.07,0.52 -0.2,0.75 -0.13,0.24 -0.32,0.44 -0.57,0.63 -0.25,0.18 -0.55,0.33 -0.89,0.43 -0.34,0.1 -0.69,0.15 -1.06,0.15 -0.39,0 -0.76,-0.05 -1.09,-0.14 -0.33,-0.1 -0.62,-0.25 -0.88,-0.44 -0.25,-0.19 -0.43,-0.4 -0.56,-0.63 -0.13,-0.23 -0.19,-0.47 -0.19,-0.73zm8.77 1.87l-2.68 0 0 -3.73 1.02 0 0 3.07 1.66 0 0 0.66zm2.08 -1.34l0 1.34 -1.03 0 0 -1.34 -1.52 -2.39 1.14 0 0.91 1.61 0.91 -1.61 1.13 0 -1.54 2.39zm2.8 1.34l-1.03 0 0 -3.73 1.37 0 1.35 2.71 1.34 -2.71 1.37 0 0 3.73 -1.02 0 0.03 -2.71 -1.33 2.71 -0.78 0 -1.34 -2.71 0.04 2.71zm8.13 0l-2.85 0 0 -3.73 2.85 0 0 0.66 -1.83 0 0 0.85 1.83 0 0 0.64 -1.83 0 0 0.92 1.83 0 0 0.66zm1.9 -1.92l0.23 0c0.42,0 0.74,-0.05 0.96,-0.16 0.21,-0.1 0.32,-0.26 0.32,-0.46 0,-0.2 -0.09,-0.35 -0.27,-0.44 -0.18,-0.1 -0.47,-0.14 -0.85,-0.14l-0.39 0 0 1.2zm0 1.92l-1.03 0 0 -3.73 1.26 0c0.39,0 0.69,0.01 0.89,0.03 0.19,0.02 0.36,0.05 0.5,0.1 0.3,0.09 0.53,0.23 0.68,0.41 0.16,0.18 0.24,0.39 0.24,0.63 0,0.28 -0.11,0.53 -0.34,0.73 -0.22,0.2 -0.53,0.33 -0.92,0.38l1.33 1.45 -1.24 0 -1.37 -1.73 0 1.73zm5.05 -1.16l0.94 0 0 0.05c0,0.16 0.06,0.29 0.18,0.38 0.11,0.1 0.27,0.14 0.46,0.14 0.21,0 0.37,-0.04 0.49,-0.13 0.12,-0.09 0.19,-0.21 0.19,-0.36 0,-0.24 -0.25,-0.41 -0.74,-0.51 -0.06,-0.02 -0.11,-0.03 -0.15,-0.04 -0.41,-0.09 -0.71,-0.22 -0.91,-0.38 -0.2,-0.17 -0.3,-0.38 -0.3,-0.63 0,-0.35 0.14,-0.63 0.41,-0.85 0.28,-0.21 0.64,-0.31 1.1,-0.31 0.43,0 0.77,0.09 1.02,0.28 0.26,0.19 0.4,0.45 0.43,0.79l-0.94 0 0 -0.03c0,-0.12 -0.05,-0.22 -0.15,-0.29 -0.1,-0.07 -0.23,-0.11 -0.4,-0.11 -0.17,0 -0.3,0.04 -0.4,0.11 -0.1,0.08 -0.15,0.18 -0.15,0.31 0,0.06 0.01,0.1 0.03,0.15 0.02,0.04 0.06,0.08 0.1,0.11 0.1,0.08 0.31,0.15 0.64,0.21 0.14,0.03 0.26,0.05 0.33,0.07 0.37,0.09 0.63,0.21 0.81,0.38 0.17,0.16 0.26,0.37 0.26,0.62 0,0.38 -0.15,0.69 -0.46,0.92 -0.3,0.24 -0.7,0.35 -1.2,0.35 -0.48,0 -0.86,-0.11 -1.15,-0.33 -0.29,-0.23 -0.44,-0.53 -0.44,-0.9zm5.78 -0.18l0 1.34 -1.04 0 0 -1.34 -1.52 -2.39 1.14 0 0.92 1.61 0.91 -1.61 1.13 0 -1.54 2.39zm1.45 0.18l0.94 0 0 0.05c0,0.16 0.06,0.29 0.18,0.38 0.11,0.1 0.27,0.14 0.46,0.14 0.21,0 0.38,-0.04 0.5,-0.13 0.12,-0.09 0.18,-0.21 0.18,-0.36 0,-0.24 -0.25,-0.41 -0.74,-0.51 -0.06,-0.02 -0.11,-0.03 -0.14,-0.04 -0.42,-0.09 -0.72,-0.22 -0.92,-0.38 -0.2,-0.17 -0.3,-0.38 -0.3,-0.63 0,-0.35 0.14,-0.63 0.41,-0.85 0.28,-0.21 0.65,-0.31 1.1,-0.31 0.43,0 0.77,0.09 1.03,0.28 0.25,0.19 0.39,0.45 0.42,0.79l-0.93 0 0 -0.03c0,-0.12 -0.06,-0.22 -0.16,-0.29 -0.1,-0.07 -0.23,-0.11 -0.4,-0.11 -0.17,0 -0.3,0.04 -0.4,0.11 -0.09,0.08 -0.14,0.18 -0.14,0.31 0,0.06 0.01,0.1 0.03,0.15 0.02,0.04 0.05,0.08 0.09,0.11 0.1,0.08 0.31,0.15 0.64,0.21 0.15,0.03 0.26,0.05 0.34,0.07 0.36,0.09 0.63,0.21 0.8,0.38 0.17,0.16 0.26,0.37 0.26,0.62 0,0.38 -0.15,0.69 -0.45,0.92 -0.31,0.24 -0.71,0.35 -1.21,0.35 -0.47,0 -0.85,-0.11 -1.14,-0.33 -0.29,-0.23 -0.44,-0.53 -0.45,-0.9zm6.51 -2.57l0 0.66 -0.99 0 0 3.07 -1.03 0 0 -3.07 -1 0 0 -0.66 3.02 0zm3.35 3.73l-2.86 0 0 -3.73 2.86 0 0 0.66 -1.83 0 0 0.85 1.83 0 0 0.64 -1.83 0 0 0.92 1.83 0 0 0.66zm1.89 0l-1.03 0 0 -3.73 1.37 0 1.35 2.71 1.34 -2.71 1.37 0 0 3.73 -1.03 0 0.04 -2.71 -1.34 2.71 -0.78 0 -1.34 -2.71 0.05 2.71zm4.95 -1.16l0.95 0 0 0.05c0,0.16 0.06,0.29 0.17,0.38 0.12,0.1 0.27,0.14 0.47,0.14 0.21,0 0.37,-0.04 0.49,-0.13 0.12,-0.09 0.18,-0.21 0.18,-0.36 0,-0.24 -0.24,-0.41 -0.73,-0.51 -0.06,-0.02 -0.11,-0.03 -0.15,-0.04 -0.41,-0.09 -0.72,-0.22 -0.91,-0.38 -0.2,-0.17 -0.3,-0.38 -0.3,-0.63 0,-0.35 0.14,-0.63 0.41,-0.85 0.28,-0.21 0.64,-0.31 1.1,-0.31 0.43,0 0.77,0.09 1.02,0.28 0.26,0.19 0.4,0.45 0.43,0.79l-0.94 0 0 -0.03c0,-0.12 -0.05,-0.22 -0.15,-0.29 -0.1,-0.07 -0.24,-0.11 -0.4,-0.11 -0.17,0 -0.3,0.04 -0.4,0.11 -0.1,0.08 -0.15,0.18 -0.15,0.31 0,0.06 0.01,0.1 0.03,0.15 0.02,0.04 0.05,0.08 0.1,0.11 0.1,0.08 0.31,0.15 0.64,0.21 0.14,0.03 0.25,0.05 0.33,0.07 0.37,0.09 0.63,0.21 0.81,0.38 0.17,0.16 0.26,0.37 0.26,0.62 0,0.38 -0.16,0.69 -0.46,0.92 -0.3,0.24 -0.7,0.35 -1.2,0.35 -0.48,0 -0.86,-0.11 -1.15,-0.33 -0.29,-0.23 -0.44,-0.53 -0.45,-0.9z"/>
   <g>
    <rect fill="#FEFEFE" y="50.08" width="201.83" height="7.98"/>
    <path fill="#009846" d="M81 54.81l0.95 -0.01 0 0.06c0,0.17 0.06,0.31 0.18,0.42 0.11,0.1 0.27,0.15 0.46,0.15 0.21,0 0.38,-0.04 0.5,-0.14 0.12,-0.1 0.18,-0.23 0.18,-0.39 0,-0.27 -0.24,-0.46 -0.74,-0.57 -0.06,-0.02 -0.11,-0.03 -0.15,-0.04 -0.41,-0.1 -0.72,-0.24 -0.92,-0.42 -0.2,-0.19 -0.3,-0.42 -0.3,-0.7 0,-0.38 0.14,-0.69 0.42,-0.92 0.27,-0.24 0.64,-0.35 1.1,-0.35 0.44,0 0.78,0.1 1.04,0.31 0.25,0.21 0.4,0.5 0.43,0.87l-0.95 0 0 -0.03c0,-0.14 -0.05,-0.24 -0.15,-0.32 -0.11,-0.08 -0.24,-0.12 -0.41,-0.12 -0.17,0 -0.3,0.04 -0.4,0.12 -0.1,0.08 -0.15,0.2 -0.15,0.34 0,0.06 0.01,0.11 0.03,0.16 0.02,0.04 0.06,0.09 0.1,0.12 0.1,0.09 0.31,0.17 0.64,0.24 0.15,0.03 0.26,0.05 0.34,0.07 0.37,0.1 0.64,0.24 0.81,0.41 0.18,0.18 0.26,0.41 0.26,0.69 0,0.42 -0.15,0.76 -0.45,1.02 -0.31,0.25 -0.71,0.38 -1.22,0.38 -0.48,0 -0.86,-0.12 -1.15,-0.37 -0.3,-0.25 -0.45,-0.58 -0.45,-0.98zm3.92 1.27l0 -4.1 1.04 0 0 4.1 -1.04 0zm2.96 0l-1.03 0 0 -4.1 0.99 0 2.21 2.62 0 -2.62 1.02 0 0 4.1 -0.97 0 -2.22 -2.7 0 2.7zm9.09 -2.88l-1.28 0c-0.15,-0.16 -0.33,-0.28 -0.53,-0.36 -0.21,-0.08 -0.45,-0.12 -0.72,-0.12 -0.21,0 -0.42,0.03 -0.61,0.1 -0.19,0.06 -0.36,0.15 -0.51,0.27 -0.16,0.12 -0.28,0.26 -0.37,0.43 -0.09,0.16 -0.13,0.32 -0.13,0.49 0,0.38 0.16,0.69 0.47,0.95 0.32,0.25 0.7,0.38 1.15,0.38 0.27,0 0.5,-0.04 0.71,-0.11 0.21,-0.08 0.38,-0.19 0.51,-0.33l1.27 0c-0.25,0.42 -0.58,0.73 -0.99,0.94 -0.42,0.21 -0.91,0.32 -1.49,0.32 -0.4,0 -0.77,-0.06 -1.11,-0.18 -0.34,-0.12 -0.64,-0.29 -0.91,-0.52 -0.22,-0.2 -0.4,-0.42 -0.51,-0.66 -0.12,-0.25 -0.18,-0.51 -0.18,-0.8 0,-0.28 0.07,-0.55 0.21,-0.81 0.14,-0.25 0.35,-0.49 0.63,-0.7 0.25,-0.19 0.54,-0.34 0.86,-0.44 0.31,-0.1 0.65,-0.15 1.02,-0.15 0.58,0 1.08,0.11 1.49,0.32 0.42,0.21 0.76,0.54 1.02,0.98zm3.51 2.88l-2.88 0 0 -4.1 2.88 0 0 0.72 -1.85 0 0 0.94 1.85 0 0 0.7 -1.85 0 0 1.02 1.85 0 0 0.72zm5.46 0l-1.01 0 0 -3.49 -0.93 0 0 -0.61 1.94 0 0 4.1zm4.57 -2.71c0,-0.2 -0.09,-0.37 -0.26,-0.52 -0.17,-0.14 -0.38,-0.21 -0.62,-0.21 -0.25,0 -0.46,0.06 -0.62,0.2 -0.17,0.13 -0.25,0.3 -0.25,0.51 0,0.21 0.08,0.38 0.24,0.51 0.16,0.13 0.37,0.2 0.62,0.2 0.24,0 0.45,-0.07 0.63,-0.2 0.17,-0.14 0.26,-0.3 0.26,-0.49zm-0.91 2.71l-1.09 0 1.21 -1.4c-0.1,0.02 -0.18,0.03 -0.24,0.03 -0.06,0.01 -0.11,0.01 -0.17,0.01 -0.44,0 -0.81,-0.13 -1.11,-0.4 -0.3,-0.27 -0.46,-0.59 -0.46,-0.98 0,-0.16 0.05,-0.32 0.13,-0.48 0.08,-0.17 0.19,-0.32 0.33,-0.45 0.2,-0.17 0.41,-0.3 0.64,-0.38 0.23,-0.09 0.49,-0.13 0.79,-0.13 0.26,0 0.5,0.04 0.73,0.11 0.23,0.07 0.43,0.18 0.6,0.31 0.18,0.13 0.31,0.29 0.41,0.46 0.09,0.17 0.14,0.34 0.14,0.52 0,0.2 -0.05,0.41 -0.15,0.61 -0.11,0.21 -0.31,0.48 -0.6,0.82l-1.16 1.35zm3.88 -3.07c0,0.12 0.05,0.22 0.14,0.29 0.09,0.07 0.21,0.11 0.36,0.11 0.15,0 0.28,-0.04 0.36,-0.11 0.09,-0.07 0.14,-0.17 0.14,-0.3 0,-0.12 -0.05,-0.22 -0.14,-0.29 -0.09,-0.08 -0.21,-0.12 -0.36,-0.12 -0.14,0 -0.26,0.04 -0.36,0.12 -0.09,0.08 -0.14,0.18 -0.14,0.3zm-0.24 1.85c0,0.17 0.07,0.31 0.21,0.42 0.14,0.11 0.31,0.17 0.51,0.17 0.22,0 0.4,-0.06 0.54,-0.17 0.14,-0.11 0.21,-0.25 0.21,-0.42 0,-0.18 -0.07,-0.33 -0.2,-0.44 -0.14,-0.1 -0.32,-0.16 -0.56,-0.16 -0.21,0 -0.39,0.06 -0.52,0.17 -0.12,0.11 -0.19,0.25 -0.19,0.43zm-0.19 -1.07c-0.19,-0.09 -0.34,-0.2 -0.45,-0.35 -0.1,-0.14 -0.15,-0.29 -0.15,-0.46 0,-0.29 0.14,-0.55 0.44,-0.76 0.29,-0.21 0.65,-0.32 1.07,-0.32 0.44,0 0.81,0.1 1.11,0.31 0.3,0.21 0.44,0.47 0.44,0.78 0,0.17 -0.05,0.32 -0.15,0.46 -0.11,0.14 -0.26,0.25 -0.47,0.34 0.29,0.12 0.51,0.26 0.66,0.43 0.14,0.17 0.21,0.37 0.21,0.61 0,0.39 -0.17,0.71 -0.5,0.96 -0.34,0.25 -0.77,0.37 -1.31,0.37 -0.5,0 -0.91,-0.13 -1.25,-0.38 -0.33,-0.26 -0.5,-0.57 -0.5,-0.95 0,-0.22 0.07,-0.42 0.21,-0.59 0.14,-0.17 0.35,-0.32 0.64,-0.45zm6.17 -0.42c0,-0.2 -0.09,-0.37 -0.26,-0.52 -0.17,-0.14 -0.37,-0.21 -0.61,-0.21 -0.25,0 -0.46,0.06 -0.63,0.2 -0.16,0.13 -0.24,0.3 -0.24,0.51 0,0.21 0.08,0.38 0.24,0.51 0.16,0.13 0.36,0.2 0.61,0.2 0.25,0 0.46,-0.07 0.63,-0.2 0.17,-0.14 0.26,-0.3 0.26,-0.49zm-0.91 2.71l-1.09 0 1.21 -1.4c-0.09,0.02 -0.17,0.03 -0.23,0.03 -0.06,0.01 -0.12,0.01 -0.17,0.01 -0.44,0 -0.81,-0.13 -1.12,-0.4 -0.3,-0.27 -0.45,-0.59 -0.45,-0.98 0,-0.16 0.04,-0.32 0.12,-0.48 0.08,-0.17 0.19,-0.32 0.34,-0.45 0.19,-0.17 0.4,-0.3 0.63,-0.38 0.23,-0.09 0.5,-0.13 0.8,-0.13 0.25,0 0.5,0.04 0.72,0.11 0.23,0.07 0.43,0.18 0.61,0.31 0.17,0.13 0.31,0.29 0.4,0.46 0.1,0.17 0.14,0.34 0.14,0.52 0,0.2 -0.05,0.41 -0.15,0.61 -0.1,0.21 -0.3,0.48 -0.6,0.82l-1.16 1.35z"/>
   </g>
  </g>
 </g>
</svg>
