<svg xmlns="http://www.w3.org/2000/svg" width="378.11368" height="283.03851">
  <path fill="#102a83" fill-rule="evenodd" d="M30.588493 9.2758201c37.1985 50.0959999 52.7285 105.4826999 59.8025 163.6353999 3.6873 30.314 7.7611 72.1152 3.6761 102.6678-1.1139.1904-2.3053-41.9429-9.1173-84.0986-6.0101-37.1955-18.2956-75.4265-25.5016-93.791-15.3734-39.1789-53.0674998-82.5126-53.5194998-81.9944-4.2449-1.5478-1.1954-4.7487.6122-8.8292999 3.4513-7.79070003 13.8619998-11.3071 24.0475998 2.4101z"/>
  <path fill="#0028ff" fill-rule="evenodd" d="M24.419193 13.58512c37.8619 47.7865 56.4801 113.7036 63.6297 169.6627 3.9917 31.2413 8.4435 68.1924 5.3871 99.7879-.2639.3939-2.9544-40.8978-10.516-83.2326-5.7608-32.2537-14.7171-61.8212-26.9015-92.8731-15.3731-39.1783-53.0674998-82.5126-53.5194998-81.9944-4.1357-3.5075-2.292-7.4875-.4838-11.5687 3.4521-7.7907999 8.9301998-16.7868999 22.4039998.2182z"/>
  <path fill="#8c2423" fill-rule="evenodd" d="M127.30979 83.38752c-7.3128 25.4514-14.4879 42.6028-18.5215 68.6231-6.0903 39.2878-8.3758 83.2836-5.5571 101.1558-5.467297-18.9814-4.930297-44.723-4.159097-69.6489.924-29.8552 1.367597-70.9938 10.753097-100.0818 1.7413-5.397-1.5516-7.6118 5.7389-14.2364 9.2268-8.384 15.293 1.8427 11.7457 14.1882z"/>
  <path fill="#e30016" fill-rule="evenodd" d="M123.04469 80.72962c-5.9283 24.3474-12.9031 37.3476-19.2821 76.7441-6.378997 39.3965-3.825397 81.5255.2361 99.8276-9.134397-34.7599-10.203397-72.6159-10.155697-108.0345.0285-21 2.4948-43.2962 7.163897-60.739 1.4591-5.4508 4.5338-10.3613 11.2359-17.3112 9.2954-9.6394 14.8007-6.9097 10.8019 9.513z"/>
  <path fill="#0f259e" fill-rule="evenodd" d="M163.09309 203.27632l-17.7375.6698c-.2773-4.1805-.9471-7.3675-2.0325-9.4924-1.0856-2.1481-2.91-3.2335-5.4737-3.2335-6.3975 0-9.6077 6.721-9.6077 20.1626 0 7.8063.7852 13.28 2.3326 16.3749 1.5474 3.1178 3.8568 4.6882 6.9287 4.6882 4.7807 0 7.4138-4.2265 7.8526-12.6564l17.7375 1.1319c-1.5937 17.9682-10.5086 26.9526-26.7911 26.9526-8.7996 0-15.5435-2.9795-20.2088-8.9149-4.6652-5.9358-6.9979-14.7583-6.9979-26.4909 0-11.6402 2.448-20.4857 7.3443-26.5831 4.8963-6.0973 11.7559-9.1459 20.6014-9.1459 15.959 0 24.643 8.8458 26.0521 26.5371zm63.9289 8.9841c0 23.7424-9.2384 35.6136-27.7379 35.6136-18.5459 0-27.8073-11.8712-27.8073-35.6136 0-23.673 9.2614-35.5212 27.8073-35.5212 18.4995 0 27.7379 11.8482 27.7379 35.5212zm-19.7005 0c0-8.6839-.5774-14.5735-1.7785-17.6451-1.201-3.0716-3.2797-4.5961-6.2589-4.5961-2.8871 0-4.9657 1.455-6.2359 4.3651-1.2473 2.91-1.8938 8.8687-1.8938 17.8761 0 8.3605.5544 14.1576 1.6398 17.3911 1.0624 3.2564 3.2335 4.873 6.4899 4.873 3.1179 0 5.2195-1.5936 6.3513-4.8268 1.1316-3.2335 1.6861-9.0306 1.6861-17.4373zm56.2379 5.2889h-6.4207v28.8927h-19.0769v-67.6704h19.0769v24.366h6.7671c2.3097-17.5989 11.363-26.3984 27.2067-26.3984 18.5227 0 27.8073 11.8482 27.8073 35.5212 0 23.7424-9.2846 35.6136-27.8073 35.6136-16.8367 0-26.0056-10.116-27.5531-30.3247zm35.6596-5.2889c0-8.6839-.5774-14.5735-1.7552-17.6451s-3.3027-4.5961-6.3513-4.5961c-2.8409 0-4.9193 1.4321-6.1898 4.3189-1.2931 2.887-1.94 8.8687-1.94 17.9223 0 9.5848.6698 15.6818 2.0325 18.3149 1.3626 2.6328 3.395 3.9492 6.1664 3.9492 3.0949 0 5.2198-1.5936 6.3513-4.8268 1.1319-3.2335 1.6861-9.0306 1.6861-17.4373zm44.0436-7.0903c4.5728 0 7.4829-.1157 8.7993-.3464 1.3164-.231 2.425-.8776 3.3259-1.9862.9006-1.1087 1.3394-2.8409 1.3394-5.1736 0-5.5661-2.0787-8.3375-6.2127-8.3375-3.7877 0-6.2357 3.2102-7.3214 9.6078l-16.9752-3.2335c2.2634-12.6332 10.7625-18.9615 25.4976-18.9615 8.1298 0 14.273 1.8938 18.4073 5.6585 4.157 3.7647 6.2357 8.3375 6.2357 13.6959 0 6.328-3.0487 11.1781-9.1457 14.5502 7.2751 3.3488 10.9009 8.6145 10.9009 15.8434 0 5.728-2.0092 10.7396-6.0508 15.0585-4.042 4.2959-10.7397 6.4437-20.1396 6.4437-6.0741 0-11.3168-1.201-15.6818-3.649-4.3884-2.4251-8.199-8.0144-11.4557-16.6984l16.3287-2.91c1.9633 6.9749 5.2889 10.4856 9.9312 10.4856 2.0786 0 3.8338-.8084 5.2427-2.4483 1.432-1.6166 2.148-3.9724 2.148-7.0211 0-2.3556-.5544-4.134-1.6398-5.3118-1.0857-1.2011-2.4021-1.8939-3.9495-2.0787-1.5704-.1848-4.7577-.2772-9.5845-.2772z"/>
</svg>
