<svg xmlns="http://www.w3.org/2000/svg" width="122.76702" height="63.7999">
  <path fill="#c5c7c8" fill-rule="evenodd" d="M33.0446 3.9784l-7.4872.4759-1.548-3.6096-6.0721 2.0973.8776 3.9504c-.7928.6222-.6338.3665-1.4386.866l-4.4753 3.2802-3.2681-2.207-4.2066 4.8041 2.6581 2.8168-2.9999 6.6702-4.1573-.1465L0 29.1461l3.5362 1.5488.5853 6.9137L.61 39.0843l2.1217 6.4375 3.9504-.7925 4.2066 5.5604-2.3043 3.5359 4.902 4.3047 2.8043-2.658 6.6211 2.999-.3656 4.1216 6.438 1.207 1.1585-3.8285 7.1816-.6341 1.6954 3.5606 6.1946-2.268-.8297-4.0972 5.7926-3.6944-9.2552.0119c-4.1462 1.8899-8.9138 2.573-13.7423 1.6705-12.4861-2.3165-20.7289-14.3274-18.4003-26.826C11.1087 15.2084 23.1193 6.978 35.6051 9.3072c5.9264 1.0973 10.8771 4.3895 14.2302 8.8526l.5729.7804 5.9751-.0368-3.8897-5.7433 2.2315-3.4503-5.1945-4.1094-2.6093 2.7068-6.609-3.0116.2438-4.0852L34.2371 0h-.0485z"/>
  <path fill="#f07e00" fill-rule="evenodd" d="M31.545 10.3921c-11.804 0-21.3633 9.5969-21.3633 21.4367 0 11.8397 9.5593 21.4359 21.3633 21.4359 11.791 0 21.3503-9.5962 21.3503-21.4359 0-11.8398-9.5593-21.4367-21.3503-21.4367zM52.6889 30.268l-2.0854 2.1464-.8776-4.0609.7923-1.3533-.7198-1.5854.8051-1.5973zm-4.0118-10.7424l1.4507 2.0727-.4875 1.8289-1.8414-3.426zm.9632 5.4867v1.3536l-.6344-.9511zm-.9632 2.073l-.3172.4022-1.2802-1.3532 1.2802-.4023zm-1.0364-6.0483l.1582.8782-.8776.4022-.8051-.4878zm-2.0001 11.7794l.7194-.7932.8045.5494 1.2804-.7926-.1582-.9513-.9635.7926-.5609-.7194 1.0366-.7923-1.2801-1.0367.7191-1.6707 1.5242 1.5973.4759-.7191.6461 4.6091-4.402 1.6705zm-.0853 2.2311l1.4388-.085.7319.7197-.7319 1.1095-.7928-.4028-.7192.9638zm.9635 3.7435l.4753 1.2687-1.0366.5483-.8048-.6344zm-1.927-23.8751l.4025 1.2685-2.3165-1.6705-.72-.951zM18.0221 41.6812l.5125-.4754 1.6339-.6953.4753.4631-.354 1.4752.8663 1.3297.3044 2.5971-4.7307-1.8655-.2685-.8903 1.0491-.0726.9388-1.2078zm3.0849-10.3771l.7444 1.0001-1.5616-.1466-.0729-2.3414-.9022-1.4015.8538-.4269.7925 1.914zm-.5363-8.1941l.6463-.402 1.3535.8779.9633.8776-1.6824.305-.1587-.951zm-.6344 14.3277l1.2926-.3053-.2679 2.7198-.4753-.3906-.4269.5491-.781-1.3663zm1.4151 2.6824l.6947-.3413-.2684-.6219-.231-.159.3534-2.255 2.3772-2.2201.9391.0372-.6948-.5004-2.0001-.2315-.0734-.4635 7.158 1.5491-.9388 7.0722-5.4746-.8535-.5981-.8535-1.1341.1465zm4.1091-15.7416l1.1216-.7197.1585.5609-.4879.7198.4879 1.7435-.8051.4023-.7191-.5607.7191-.4759zm1.2801 6.7311l.3169-.5125 2.6583.6582.3535.781-.5488 2.1336-4.6941-.7685.1953-.585 1.8771-.0732.4393-1.1707zm7.8284 4.8895l.3535-.6222 2.8534.195-.9392 7.1578-7.6694-.7438.902-7.109 2.1217.4269.8904 1.7438 1.6461.7433.3903-.8898zm.4757-1.0854l2.3774-1.6341.5488.0362-.1582 1.7076zm-3.4512-2.1705l.4269 1.8658-1.9145-.2801.4025-1.9029zm-.8532-14.4859l1.6095-.3296-.2441.72zm1.8411-.8784l-2.4021.159-1.4389.4754.7192-1.5849 3.1218.4754zm-6.5849 12.8769l-.6582.3045-.9391-1.9386.549-.2316.1948 1.0485zm3.0974 12.5105l7.5113.4266-1.5605 5.5241-6.4627-.6222zm8.17.5856l6.6209-.5494-2.8168 5.5239-5.5233.3419zm.2801-.7804l.8169-6.9142.3904.8172.6706-.866 1.0973.0856.1466 1.5968.9023.4637-.6223.4632-.9019-.7801-.6585 1.2067 1.7923 1.1344 1.4871 1.5483 1.5247.0374-.2316.8893zm.7804-7.5727l.1221-2.0722 1.9877 2.0968zm4.6213 5.6214l-.2809-.8901.7081.2318-.5122-.7319.9754-.1218.5485.9391zm.7316-2.1345l-1.207.2321.1945-1.4269-1.5236-.7801.0365-.5485.7801-.0729.9879.8167 1.3294-.6217.3535-.9028.305-.1091-.2687 2.9137zm-.5975-4.9499l.7194-.8782.9638.8782.1582 1.1098h-.5607zM41.068 14.1967l2.488 1.6708-.5613.7922-2.6461-2.3048zm-1.8414.2316l3.4512 2.8658-1.5247.4754-2.6456-3.0118zm-1.6826.4876l2.0123 2.3051-2.4024-.5613-1.2069-2.463zm-3.9138.4759l.561-.9635 1.036-.39 1.0486 3.4996-.7311.0729-.72.8781-1.8405-.3903zm-2.0852-1.3535l1.1948.8776.1707.3903-.0851 1.1954-1.7563-.3172-.646-.6341zm-.8047.1584l-1.3536 1.3536-1.6095 2.2192-1.8417-1.2679.9633-.9513.8047.0734-.1582-.7929 1.5974-.7925zm-2.2442-.792l-1.5117.9502-1.207-.4022-.4023.1709-.5609.7923v.7925l-1.0367.2322-.7191-.8657 2.3167-.9513.1582-.2441.2441.0732 1.9261-.7926zm-4.7186-.5615l.9632.5615 1.512-.9638.963.4023-4.5598 1.5851-.3167-1.1826zm-1.207 2.6215l.561.8047-1.5123.4757-1.9264 1.1826-1.2807.4028 3.7681-3.0243zm-2.7192-.3898l.244.3898 1.7561-.8655.1701.3901-1.4508 1.1951-1.7558-.0732-.085-.805zm-1.3536.707v.4875l-2.3292 2.0611-.3169-.9516zm-2.1705 5.0969l.9635.8776.8779 1.2685.4023 2.2315 2.317.6338-.9516.8782-1.7677-1.6708-.9635.3172-1.9145-1.6707.9635-.8779.39-.6338-1.1091-.476zm-1.0366-2.4633l.0731.7929-1.7557 2.1461-.0851-.9516zm-4.3288 15.7544l-.7191-.8053.159-4.2066.8773 1.0247zm.8048-3.9631l.7441.6341.2684 3.2187-.2316 1.9395-1.0978-1.0003zm-.2801 5.7923l1.061.707.3901 2.683.7806.231 1.012 3.1096 1.061.6222.2679.8167-2.6581-1.6827zm5.5233 11.1935l-2.6209-3.4509 1.914 1.1222 1.2438 2.0968zm4.6094 2.914l-1.9995-.963-2.3049-3.6218 1.5733.7438 1.0851 1.5123.6338-.5-.5851-.671 1.5248.5488 1.646 3.3781zm3.9507.6707H23.851l-1.7564-3.5482 5.8657 1.4023.0363 3.1584zm-3.5603-4.1216l-.3904-2.6819.8657-.7809.5001-1.3536 5.487.8048-.4754 5.4873zm9.121 4.7798l-1.0247.7319-1.5239-.3408-.11-1.5981.8538-.1945-.4269-.7438-.3898.085.036-.7069 6.2187.6219-1.7555 2.6461zm5.1942.1102l-2.6946.4266 1.7555-2.7192 5.0848-.3895-3.085 2.6821zm6.5721-1.9389l-1.7557.2685-.5488.5485-1.1336 1.1219-.5122-.1465 2.548-2.8043 2.9271-.8536zm2.9756-2.6461l-3.951.8532 1.2558-1.9383-.0851 1.207h.8657l2.4265-1.3655zm-.5485-3.3775l-1.7193.7441 1.0239-1.6345 1.7926-.5119zm3.1209-2.5727l-3.7675.8776.2438-.561 2.4755-.7923 1.7679-.7194zm-.646-1.0369l.0856-.9508 1.4383-.7194.1587.7923zm2.1702-2.6209l-.8898-.1588-2.2436.9513-.3904-.6344 2.3168-1.0363.0856-2.3899 1.1214-.3906zm2.6342-2.9512l-.5607.8782-.4031 1.7555-1.1213-.3172.1709-3.1822 1.9998-2.0727z"/>
  <path fill="#fff" fill-rule="evenodd" d="M37.2149 53.899h16.3882v-3.4265H37.2149z"/>
  <path fill="none" stroke="#fff" stroke-width=".2438" d="M37.2149 53.899h16.3882v-3.4265H37.2149z"/>
  <path fill="#fff" fill-rule="evenodd" d="M64.358 23.7809l1.2436-3.8653h12.4251c-.4269 1.2926-.841 2.5852-1.2563 3.8653z"/>
  <path fill="none" stroke="#fff" stroke-width="1.21949995" d="M64.358 23.7809l1.2436-3.8653h12.4251c-.4269 1.2926-.841 2.5852-1.2563 3.8653z"/>
  <path fill="#fff" fill-rule="evenodd" d="M106.8531 47.2413l3.6819-14.4734c.2321-.9028-.061-1.6345-.9508-1.6345l-5.792.0122.9009-3.7675 17.3171-.0368c-.1352.6222-.4161 3.0852-3.4401 3.8409h-2.329c-.8889 0-1.3289.7197-1.5599 1.5979l-2.6711 10.5593c-.756 2.9387-2.196 3.6213-5.157 3.9019z"/>
  <path fill="none" stroke="#fff" stroke-width="1.21949995" d="M106.8531 47.2413l3.6819-14.4734c.2321-.9028-.061-1.6345-.9508-1.6345l-5.792.0122.9009-3.7675 17.3171-.0368c-.1352.6222-.4161 3.0852-3.4401 3.8409h-2.329c-.8889 0-1.3289.7197-1.5599 1.5979l-2.6711 10.5593c-.756 2.9387-2.196 3.6213-5.157 3.9019z"/>
  <path fill="#fff" fill-rule="evenodd" d="M90.123 27.3291l-5.1582 20.2048h-4.1335l4.0966-16.3395-4.1459.0241-4.0476 16.1325-4.121-.0365 5.0839-19.9611z"/>
  <path fill="none" stroke="#fff" stroke-width="1.21949995" d="M90.123 27.3291l-5.1582 20.2048h-4.1335l4.0966-16.3395-4.1459.0241-4.0476 16.1325-4.121-.0365 5.0839-19.9611z"/>
  <path fill="#fff" fill-rule="evenodd" d="M71.0881 47.3873h-6.2057c-.8297 0-1.5976-.1582-2.2685-.4873-.6826-.3291-1.2311-.7801-1.6336-1.3535-.415-.5732-.6344-.9145-.7807-1.6586-.1584-.7438-.1097-1.5361.0978-2.3774l3.4875-14.1571h4.1938l-3.5719 14.4859c-.1834.7438.2438 1.7201.9879 1.7201h2.7187l4.0116-16.206h4.0725z"/>
  <path fill="none" stroke="#fff" stroke-width="1.21949995" d="M71.0881 47.3873h-6.2057c-.8297 0-1.5976-.1582-2.2685-.4873-.6826-.3291-1.2311-.7801-1.6336-1.3535-.415-.5732-.6344-.9145-.7807-1.6586-.1584-.7438-.1097-1.5361.0978-2.3774l3.4875-14.1571h4.1938l-3.5719 14.4859c-.1834.7438.2438 1.7201.9879 1.7201h2.7187l4.0116-16.206h4.0725z"/>
  <path fill="#fff" fill-rule="evenodd" d="M55.188 37.6693c.1102-.4632-.341-1.0607-.9267-1.0851l-1.817-.0612c-.6216-.0244-1.4383.5122-1.5361 1l-1.0854 5.1948c-.1216.5726.2441 1.3773.9632 1.402l2.9875.1097zm-4.4507 9.5479c-.8898-.0246-1.6946-.1828-2.4018-.4759-.7078-.2925-1.2923-.6704-1.7558-1.1339-.4756-.4756-.7072-.7554-.8779-1.3779-.1709-.6222-.1465-1.2804 0-1.9871l.8413-4.2925c.1344-.7069.4879-1.3535.9511-1.9508.439-.5488 1.0485-1.2557 1.8773-1.7807.8904-.5848 2.0248-.9751 3.0246-.9388l2.5359.085c.3903.0122.976.11 1.2322.3784l.4876-2.0608c.1462-.646-.9029-1.4388-1.7317-1.4635l-6.5234-.2191.1826-.7438c.4147-1.622 2.7436-2.2921 4.6703-2.2193l2.3165.0737c.9023.0357 1.7195.1948 2.4392.4632.7311.2801 1.3289.646 1.7921 1.1214.4632.4632.7804.7804.9629 1.4023.1953.6222.22 1.5364.0366 2.2558l-3.6088 15.0834z"/>
  <path fill="none" stroke="#fff" stroke-width="1.21949995" d="M55.188 37.6693c.1102-.4632-.341-1.0607-.9267-1.0851l-1.817-.0612c-.6216-.0244-1.4383.5122-1.5361 1l-1.0854 5.1948c-.1216.5726.2441 1.3773.9632 1.402l2.9875.1097zm-4.4507 9.5479c-.8898-.0246-1.6946-.1828-2.4018-.4759-.7078-.2925-1.2923-.6704-1.7558-1.1339-.4756-.4756-.7072-.7554-.8779-1.3779-.1709-.6222-.1465-1.2804 0-1.9871l.8413-4.2925c.1344-.7069.4879-1.3535.9511-1.9508.439-.5488 1.0485-1.2557 1.8773-1.7807.8904-.5848 2.0248-.9751 3.0246-.9388l2.5359.085c.3903.0122.976.11 1.2322.3784l.4876-2.0608c.1462-.646-.9029-1.4388-1.7317-1.4635l-6.5234-.2191.1826-.7438c.4147-1.622 2.7436-2.2921 4.6703-2.2193l2.3165.0737c.9023.0357 1.7195.1948 2.4392.4632.7311.2801 1.3289.646 1.7921 1.1214.4632.4632.7804.7804.9629 1.4023.1953.6222.22 1.5364.0366 2.2558l-3.6088 15.0834z"/>
  <path fill="#fff" fill-rule="evenodd" d="M41.8481 47.3757c-1.146 0-1.9627-.415-2.5846-1.1832-.6103-.756-.5239-2.914-.2197-4.1216l4.4875-17.5586c.1094-.4635-.4274-.8292-.8665-.8292l-9.8881.0735c.6945-2.1708 1.0122-4.0119 4.2797-4.0119h22.2041l-1.6827 3.9384h-8.7426c-.4019 0-1.0485.3782-1.146.7929L42.885 43.3272l-.9513 3.731z"/>
  <path fill="none" stroke="#fff" stroke-width="1.21949995" d="M41.8481 47.3757c-1.146 0-1.9627-.415-2.5846-1.1832-.6103-.756-.5239-2.914-.2197-4.1216l4.4875-17.5586c.1094-.4635-.4274-.8292-.8665-.8292l-9.8881.0735c.6945-2.1708 1.0122-4.0119 4.2797-4.0119h22.2041l-1.6827 3.9384h-8.7426c-.4019 0-1.0485.3782-1.146.7929L42.885 43.3272l-.9513 3.731z"/>
  <path fill="#fff" fill-rule="evenodd" d="M98.7678 47.3873h-6.2065c-.8404 0-1.5964-.1582-2.2799-.4873-.6701-.3291-1.2189-.7801-1.6336-1.3535-.4036-.5732-.6222-.9145-.7806-1.6586-.1463-.7438-.1092-1.5361.0978-2.3774l3.4993-14.1571h4.1939L92.086 41.8393c-.1829.7438.2443 1.7201.9884 1.7201h2.7187l4.0116-16.206h4.0723z"/>
  <path fill="none" stroke="#fff" stroke-width="1.21949995" d="M98.7678 47.3873h-6.2065c-.8404 0-1.5964-.1582-2.2799-.4873-.6701-.3291-1.2189-.7801-1.6336-1.3535-.4036-.5732-.6222-.9145-.7806-1.6586-.1463-.7438-.1092-1.5361.0978-2.3774l3.4993-14.1571h4.1939L92.086 41.8393c-.1829.7438.2443 1.7201.9884 1.7201h2.7187l4.0116-16.206h4.0723z"/>
  <path fill="#811f39" fill-rule="evenodd" d="M64.4184 23.7197l1.2563-3.865h12.4132c-.4147 1.2926-.83 2.5724-1.2557 3.865zm42.5078 23.4607l3.6808-14.4859c.233-.9023-.0598-1.6217-.9508-1.6217l-5.7911.0122.9031-3.78 17.314-.0366c-.146.6338-.4141 3.0966-3.4381 3.8531h-2.3301c-.8898 0-1.3289.7073-1.5599 1.5971l-2.683 10.5477c-.743 2.9509-2.194 3.6215-5.1449 3.9141zm-16.7309-19.912l-5.1568 20.1923h-4.1341l4.0853-16.3392-4.1459.0363-4.0488 16.1201-4.121-.0366 5.084-19.9488zm-19.033 20.0585h-6.207c-.8416 0-1.5973-.1712-2.2805-.4878-.6704-.3297-1.2192-.7801-1.6336-1.3536-.4144-.5847-.6222-.9144-.7806-1.6582-.146-.7563-.1097-1.5367.098-2.3902l3.4872-14.1446h4.2069l-3.5728 14.4737c-.1828.7563.2435 1.7317.9871 1.7317h2.7195l4.0116-16.2054h4.0723zm-15.9009-9.7183c.0978-.4762-.3413-1.0735-.9389-1.0856l-1.8048-.0607c-.6216-.0244-1.4383.5119-1.5364.9998l-1.0851 5.1939c-.1224.5615.2316 1.3782.9633 1.4029l2.9874.0972zm-4.4507 9.5471c-.9023-.0368-1.6951-.195-2.4021-.4873-.7072-.2806-1.2929-.6582-1.7679-1.1341-.4632-.4632-.6954-.7441-.8655-1.3657-.1712-.6214-.1465-1.2804-.013-1.9877l.8419-4.3044c.146-.707.5-1.3414.9635-1.9511.4266-.5485 1.0482-1.2438 1.8649-1.7799.9028-.5728 2.0367-.9756 3.0243-.9391l2.5489.0856c.3776.0122.9632.1216 1.2189.3904l.4881-2.0611c.1582-.646-.8903-1.4386-1.7192-1.4633l-6.5361-.2315.195-.7439c.4144-1.6222 2.7439-2.2804 4.6704-2.2189l2.3164.085c.9032.0247 1.7071.1829 2.439.4629.7191.2687 1.3164.6466 1.7917 1.1101.4641.4756.7688.7928.9638 1.4145.1831.6216.2075 1.5241.0372 2.2555l-3.6102 15.084z"/>
  <path fill="#811f39" fill-rule="evenodd" d="M41.9215 47.3145c-1.146 0-1.9749-.4267-2.5852-1.1829-.6213-.7558-.5366-2.9263-.2191-4.1338l4.4748-17.5589c.1222-.4502-.4147-.8286-.8535-.8167l-9.8887.0731c.6948-2.1705.9998-4.024 4.2676-4.024h22.2168l-1.6824 3.9509h-8.7553c-.4026 0-1.0367.3784-1.1342.7807l-4.8044 18.8634-.9513 3.7312zm56.9203.0124h-6.207c-.8416 0-1.5976-.1712-2.2799-.4878-.6829-.3297-1.2201-.7801-1.6342-1.3536-.4139-.5847-.6347-.9144-.781-1.6582-.1457-.7563-.1094-1.5367.0975-2.3902l3.4884-14.1446h4.1941l-3.5731 14.4737c-.1825.7563.2441 1.7317 1.0001 1.7317h2.7193l4.011-16.2054h4.0612zm15.3144 5.9139c-.1462.0117-.3041.0239-.4631.036H30.9353l2.4633-4.4132h82.0624z"/>
  <path fill="#fff" fill-rule="evenodd" d="M66.1135 50.9723c0-.0729-.0119-.1216-.0235-.1704-.013-.049-.0371-.0856-.0618-.1216-.036-.0371-.0731-.0618-.1219-.0737-.0487-.0238-.1094-.0368-.1834-.0368-.085 0-.1584.0249-.2188.0487-.0607.0247-.1225.0737-.1712.1225-.061.0487-.097.0975-.1335.1706-.0369.0607-.074.1216-.0978.1953-.0244.0732-.0366.146-.0488.2197-.0122.0726-.0247.146-.0247.2064 0 .0734.0125.1224.0247.1712.0122.0487.0369.0978.0726.1224.0252.0358.074.0607.1227.0845.0488.0122.1094.0252.1829.0252.0731 0 .1462-.013.2196-.049.0604-.0249.1211-.0607.1698-.11.0488-.049.0978-.1097.1347-.1828.0371-.0615.0606-.1219.0859-.1953.0235-.0726.049-.1463.0606-.2191.0119-.0732.0119-.1469.0119-.2078zm.6347-.0491c0 .11-.0125.22-.0371.3419-.0247.1103-.0488.2197-.0978.3294-.0488.1097-.1094.2075-.1823.305-.0734.0856-.1593.1704-.2687.2438-.0978.0731-.2188.1335-.3535.1706-.1341.0488-.2806.0607-.4513.0607-.1581 0-.3047-.0119-.4266-.0488-.1222-.0363-.2194-.0856-.2925-.1584-.0856-.061-.1466-.1463-.1829-.2441-.0371-.0967-.0612-.2191-.0612-.3413 0-.1094.0125-.2191.0366-.3291.0246-.1097.0609-.2197.1097-.3297.0366-.1091.0978-.2069.1709-.3047.0851-.0975.1709-.1823.2682-.2557.11-.0731.2197-.1219.3532-.1706.1341-.0369.2934-.0615.4515-.0615.1707 0 .3056.0246.4266.0493.1219.0371.22.0856.3048.1587.0742.0729.1346.1463.1706.256.0363.0975.0618.2072.0618.3285zm-3.2681.0122c0-.0487 0-.0969-.0119-.1335-.013-.0368-.0252-.0734-.0368-.1097-.025-.0246-.0488-.049-.0856-.0606-.0241-.0131-.0729-.025-.1097-.025-.0734 0-.1466.025-.2191.061-.0735.0365-.1469.0975-.2078.159-.0729.0728-.1344.1457-.1828.2432-.0485.0856-.0854.1831-.0973.2806l-.0734.305c.0604.0856.1222.1466.1831.1831.0726.0488.1582.061.2438.061.0731 0 .1344-.0122.1828-.0371.061-.0358.1092-.0726.1582-.1214.0366-.049.0734-.1102.11-.1709.0363-.0734.0609-.1346.0853-.2072.0241-.0731.0363-.1466.0493-.2197.0119-.0734.0119-.1338.0119-.2078zm.6336-.0487c0 .0981-.0119.2078-.0238.3175-.025.1099-.0488.2196-.0975.3288-.0372.1102-.0856.2199-.1588.3177-.0615.1095-.1343.1948-.2199.2679-.0848.0856-.1948.1466-.3045.1953-.1219.0369-.2438.0607-.3903.0607-.061 0-.1219 0-.1826-.0119-.0615-.0119-.1099-.0369-.1584-.0488-.0488-.0244-.0856-.0487-.1222-.0856-.049-.0241-.0731-.0482-.11-.085l-.1953.9022c0 .0122-.0119.0238-.0119.0363-.0119.0125-.0368.0247-.0607.0247-.0249.0119-.0609.0244-.0975.0244-.0368 0-.0978.0124-.1587.0124-.0488 0-.1097-.0124-.1468-.0124-.036 0-.0601-.0125-.0848-.0244-.0247 0-.0368-.0122-.0368-.0247-.0122-.0125-.0122-.0241-.0122-.0363l.6094-2.7924c.0131-.0246.0369-.049.074-.0609.0488-.0122.1213-.0238.2191-.0238.0488 0 .0975 0 .1213.0116.0369 0 .0616 0 .074.0122.0238.0119.036.0119.0488.0249v.036l-.0737.3297c.0249-.049.0737-.0978.1224-.159.0491-.0485.1095-.0973.1826-.1466.0856-.0363.1582-.0731.2438-.0972.0975-.0366.1831-.0493.2803-.0493.1219 0 .2316.0246.3172.0615.0856.0363.1466.0975.2072.1584.0488.0732.0853.1466.1097.2441.0247.0975.0366.195.0366.292zm-3.0115 1.3663c0 .0122-.0122.0238-.0244.0365-.0125.0125-.0366.0244-.061.0244-.0246.0119-.0484.0119-.098.0244h-.292c-.0366-.0125-.0737-.0125-.0978-.0244-.0122 0-.0363-.0119-.0363-.0244-.0125-.0127-.0125-.0243 0-.0365l.341-1.6098h-.8164l-.354 1.6098c0 .0122-.0125.0238-.0244.0365-.0122.0125-.0244.0244-.0612.0244-.0244.0119-.0488.0119-.0972.0244h-.2926c-.0363-.0125-.0734-.0125-.0856-.0244-.0246 0-.0371-.0119-.0487-.0244v-.0365l.415-1.8902c.0119-.0609.0365-.0972.0603-.1343.0372-.0244.0856-.0485.1466-.0485h1.7073c.0607 0 .0975.0241.1216.0485.0125.0371.0247.0734 0 .1343zm-2.2561-1.1832v.0487c0 .0247-.0119.0491-.0119.0735-.0122.0365-.0244.0609-.0244.0853-.0125.0241-.0244.0493-.0363.0731-.013.025-.0249.0488-.0493.0612-.0116.0122-.0366.0239-.0607.0239h-1.0117c-.0246 0-.0493-.0117-.0615-.0239-.0125-.0124-.0241-.0362-.0241-.0731 0-.0119 0-.0371.0116-.0612 0-.0244 0-.0488.0125-.0731 0-.0241.0122-.0488.0122-.0735.0125-.0362.0247-.0609.0363-.0847.013-.0128.0366-.0366.0493-.0488.0125-.0124.0366-.0249.0607-.0249h1.0117c.0368 0 .0615.0125.0737.0249.0119.0238.0119.0488.0119.0726zm-2.1943-.0975c0-.0729 0-.1216-.0125-.1704-.0122-.049-.0369-.0856-.0731-.1216-.0238-.0371-.0735-.0618-.1219-.0737-.0488-.0238-.1103-.0368-.1829-.0368-.0734 0-.1465.0249-.2199.0487-.0604.0247-.1219.0737-.1704.1225-.0487.0487-.0975.0975-.1344.1706-.0362.0607-.0609.1216-.085.1953-.0247.0732-.0493.146-.0615.2197-.0119.0726-.0119.146-.0119.2064 0 .0734 0 .1224.0119.1712.0247.0487.0368.0978.0737.1224.0366.0358.0728.0607.1216.0845.049.0122.1094.0252.1834.0252.0848 0 .1582-.013.2191-.049.061-.0249.1222-.0607.1707-.11.0484-.049.0978-.1097.134-.1828.0366-.0615.0735-.1219.0976-.1953.0246-.0726.0368-.1463.049-.2191.0125-.0732.0125-.1469.0125-.2078zm.6338-.0491c0 .11 0 .22-.0249.3419-.0239.1103-.061.2197-.1089.3294-.0493.1097-.1103.2075-.1834.305-.0731.0856-.1582.1704-.2557.2438-.1103.0731-.2316.1335-.354.1706-.1341.0488-.2923.0607-.4507.0607-.1713 0-.3178-.0119-.4269-.0488-.1219-.0363-.2197-.0856-.3053-.1584-.0734-.061-.1335-.1463-.1701-.2441-.049-.0967-.0615-.2191-.0615-.3413 0-.1094.0125-.2191.0368-.3291.0125-.1097.0488-.2197.0973-.3297.0487-.1091.1097-.2069.1831-.3047.0731-.0975.1587-.1823.2681-.2557.0975-.0731.2194-.1219.3538-.1706.1341-.0369.2809-.0615.4507-.0615.1587 0 .3053.0246.4275.0493.1094.0371.2191.0856.2922.1587.0856.0729.1344.1463.1831.256.0366.0975.0488.2072.0488.3285zm-3.329.6832c0-.0244-.0125-.0607-.0244-.0845-.0122-.0371-.0368-.0493-.0609-.074-.0369-.0241-.0854-.0363-.1341-.0487-.061-.0119-.1341-.0238-.2316-.0238h-.4025c-.0125.0484-.0125.0847-.0244.1213v.1341c0 .1221.0244.2077.0856.2687.0607.0607.1585.0856.2798.0856.0856 0 .1712-.0128.2321-.0371.061-.0117.1097-.0485.1582-.0856.0369-.0239.0734-.0726.0856-.1214.0241-.0368.0366-.0856.0366-.1346zm.1219-.8901c0-.0241 0-.0487-.0119-.0731-.0122-.0247-.0369-.0366-.061-.0604-.0246-.0252-.049-.0369-.0856-.049-.0368 0-.0856-.0128-.1341-.0128-.0728 0-.1338.0128-.1953.0366-.0609.0252-.1216.049-.1706.0978-.0485.0368-.0972.0975-.1344.1587-.0484.0612-.0725.1341-.1094.2191h.4144c.0856 0 .1466 0 .2075-.0122.061-.0238.1219-.0362.1585-.0728.0368-.025.0731-.0615.0856-.0975.0244-.0366.0363-.0856.0363-.1344zm.4875.8657c0 .0734-.0116.1344-.0238.1953-.0246.0612-.0487.1222-.0856.1829-.0487.0609-.0975.1097-.1584.1706-.061.0493-.1341.0856-.2197.1222-.0851.0365-.1831.0728-.305.0978-.1092.0119-.2438.0238-.3901.0238-.1462 0-.2803-.0119-.4025-.0488-.1097-.0238-.2069-.0728-.2801-.1338-.0734-.0612-.1343-.1465-.1709-.2318-.0363-.0978-.0609-.1956-.0609-.317 0-.0731.0119-.1584.0246-.2678.0119-.0981.0363-.2078.0729-.3172.0368-.11.0856-.2197.1587-.3297.0607-.1219.146-.2197.2438-.3047.0975-.0851.2197-.1582.3654-.2067.1346-.0618.3053-.0864.5-.0864.1466 0 .2687.0127.3787.0493.0973.0241.1948.0609.2557.1097.0734.049.1216.0978.1585.1587.0249.0726.049.1344.049.207 0 .0609-.0125.1219-.049.1831-.0241.0609-.0613.1097-.1097.1587-.0366.036-.0975.0726-.1585.1097-.0609.0238-.1344.0485-.2069.0607.0725.0244.1335.0366.1947.0609.0485.0366.0972.0613.1219.0981.0369.0363.061.085.0734.1213.0122.0488.0238.0978.0238.1341zm-3.0112-.6097c0-.0729 0-.1216-.0125-.1704-.0116-.049-.0363-.0856-.0731-.1216-.0366-.0371-.0729-.0618-.1219-.0737-.0488-.0238-.11-.0368-.1831-.0368-.0726 0-.146.0249-.2191.0487-.061.0247-.1222.0737-.1713.1225-.0487.0487-.0975.0975-.1335.1706-.0368.0607-.0734.1216-.0975.1953-.0246.0732-.0368.146-.049.2197-.0125.0726-.0125.146-.0125.2064 0 .0734 0 .1224.0125.1712.0122.0487.0368.0978.0731.1224.0366.0358.0734.0607.1222.0845.0482.0122.1094.0252.1825.0252.0735 0 .1466-.013.22-.049.0604-.0249.1213-.0607.1701-.11.049-.049.0978-.1097.1346-.1828.0363-.0615.0729-.1219.0973-.1953.0241-.0726.0371-.1463.0487-.2191.0125-.0732.0125-.1469.0125-.2078zm.6341-.0491c0 .11-.0125.22-.0247.3419-.0246.1103-.0609.2197-.1097.3294-.049.1097-.1094.2075-.1828.305-.0731.0856-.1587.1704-.2682.2438-.0975.0731-.2194.1335-.3537.1706-.1344.0488-.2806.0607-.4513.0607-.1582 0-.3047-.0119-.4144-.0488-.1222-.0363-.22-.0856-.3047-.1584-.0735-.061-.1344-.1463-.1832-.2441-.0368-.0967-.0487-.2191-.0487-.3413 0-.1094.0119-.2191.0241-.3291.0246-.1097.0609-.2197.1097-.3297.0493-.1091.1102-.2069.1828-.3047.0731-.0975.1588-.1823.2685-.2557.098-.0731.2196-.1219.3534-.1706.1344-.0369.281-.0615.4513-.0615.159 0 .305.0246.4147.0493.1219.0371.2197.0856.3047.1587.0732.0729.1341.1463.1707.256.049.0975.0615.2072.0615.3285zm-2.5611-.231c0 .0851-.0241.1707-.0485.2432-.0365.074-.0853.1344-.159.1953-.0728.0613-.1582.1103-.2557.1591-.1097.0487-.2191.0856-.354.1218-.1092.0239-.207.0485-.2679.0732-.0734.0241-.1341.0609-.1704.0853-.0368.0244-.0734.0607-.0856.0853-.0124.0247-.0246.061-.0246.0975 0 .0607.0246.1095.0856.1466.049.0238.1343.0485.2316.0485.0978 0 .1828-.0117.2684-.0369.0734-.0116.1463-.0366.2072-.0604.0607-.0241.1097-.0371.1463-.0609.049-.0125.0731-.0252.1097-.0252.0119 0 .0366 0 .0366.0252.0124.0122.0124.0238.0124.0487v.0848c0 .0247-.0124.0618-.0244.0978-.0127.0366-.0246.0734-.0365.1097-.0122.0366-.0369.0612-.0488.0856-.0244.0119-.0609.0366-.11.0604-.0487.0127-.1097.0371-.1831.049-.0731.0125-.1465.025-.2313.0369-.0856.0119-.1709.0119-.2565.0119-.1463 0-.2679-.0119-.3779-.0363-.1094-.0244-.1947-.0615-.2557-.11-.0734-.0482-.1224-.1097-.1587-.1706-.0247-.0726-.0493-.1466-.0493-.2192 0-.1102.0246-.1953.0615-.2684.0241-.0853.085-.1585.1587-.2197.0732-.0606.1585-.1094.2679-.1584.11-.0613.2319-.0975.3781-.1338.0976-.025.1832-.0488.2441-.0734.0726-.0244.1216-.0494.1585-.0732.036-.0249.0731-.0487.085-.085.0125-.0247.0244-.0615.0244-.0856 0-.0607-.0244-.1094-.0734-.1463-.0485-.0371-.1219-.0488-.2192-.0488-.0975 0-.1828.0117-.2559.0239-.0607.0249-.1344.0368-.1831.0618-.061.0238-.0973.0487-.1341.0606-.0366.0241-.0607.0241-.0853.0241-.0122 0-.0244 0-.0369-.0122-.0116-.0119-.0116-.0365-.0116-.0725v-.0618c.0116-.036.0116-.0726.0241-.0973.0122-.0363.0244-.0731.0363-.0972.0246-.0366.0368-.0612.0609-.0856.0247-.0125.0615-.0366.0981-.0612.0485-.0114.0972-.0363.1587-.0485.0604-.0116.1335-.0247.207-.0366.0609-.0127.1343-.0127.2075-.0127.1335 0 .2437.0127.3534.0377.0978.0238.1831.0601.256.1088.0731.0493.1222.1103.1585.1829.0368.0609.0609.1465.0609.2321zm-2.8046.2432c0-.0487 0-.0969-.0122-.1335-.0122-.0368-.0241-.0734-.0487-.1097-.0122-.0246-.0363-.049-.0732-.0606-.0241-.0131-.0731-.025-.1094-.025-.0734 0-.1463.025-.2319.061-.0734.0365-.1335.0975-.2072.159-.0609.0728-.1216.1457-.1709.2432-.0485.0856-.0853.1831-.1097.2806l-.0607.305c.0607.0856.1219.1466.1829.1831.0731.0488.1584.061.2437.061.0729 0 .1219-.0122.1829-.0371.0609-.0358.11-.0726.1465-.1214.0488-.049.0854-.1102.1222-.1709.036-.0734.0604-.1346.0848-.2072.0246-.0731.0365-.1466.0487-.2197.0122-.0734.0122-.1338.0122-.2078zm.6344-.0487c0 .0981-.0122.2078-.0244.3175-.0244.1099-.0609.2196-.0975.3288-.0368.1102-.0856.2199-.1582.3177-.0618.1095-.1343.1948-.2199.2679-.0978.0856-.1953.1466-.3048.1953-.1218.0369-.244.0607-.3897.0607-.0618 0-.1225 0-.1834-.0119-.0607-.0119-.11-.0369-.1585-.0488-.0487-.0244-.0856-.0487-.1343-.0856-.0363-.0241-.0726-.0482-.0973-.085l-.1953.9022c0 .0122-.0122.0238-.0246.0363-.0122.0125-.0244.0247-.0485.0247-.0247.0119-.0607.0244-.0972.0244-.0488 0-.0978.0124-.1591.0124-.0609 0-.1097-.0124-.1459-.0124-.0369 0-.061-.0125-.0854-.0244-.0241 0-.0371-.0122-.0371-.0247-.0116-.0125-.0116-.0241-.0116-.0363l.6094-2.7924c.0122-.0246.0366-.049.0734-.0609.0485-.0122.1219-.0238.2192-.0238.0487 0 .0975 0 .1218.0116.0366 0 .061 0 .0735.0122.0243.0119.0368.0119.0368.0249.0119.0114.0119.0238.0119.036l-.0734.3297c.0247-.049.0615-.0978.1222-.159.049-.0485.11-.0973.1834-.1466.0725-.0363.1581-.0731.2432-.0972.0978-.0366.1828-.0493.2806-.0493.1219 0 .2319.0246.3172.0615.0851.0363.146.0975.2069.1584.0488.0732.0857.1466.1103.2441.0241.0975.0363.195.0363.292zm-3.2681.0856c0-.0729 0-.1216-.0246-.1704-.0122-.049-.0363-.0856-.061-.1216-.0363-.0371-.0725-.0618-.1213-.0737-.049-.0238-.1097-.0368-.1834-.0368-.085 0-.1585.0249-.2191.0487-.061.0247-.1222.0737-.1707.1225-.0487.0487-.098.0975-.1343.1706-.0366.0607-.0734.1216-.0978.1953-.0244.0732-.0363.146-.0488.2197-.0116.0726-.0116.146-.0116.2064 0 .0734 0 .1224.0116.1712.0125.0487.0372.0978.0732.1224.0246.0358.0734.0607.1221.0845.0491.0122.11.0252.1829.0252.0734 0 .1462-.013.2197-.049.0609-.0249.1218-.0607.1706-.11.0488-.049.0975-.1097.1344-.1828.0362-.0615.0606-.1219.0847-.1953.0247-.0726.0488-.1463.0612-.2191.0122-.0732.0122-.1469.0122-.2078zm.6344-.0491c0 .11-.0124.22-.0368.3419-.0119.1103-.0488.2197-.0975.3294-.0488.1097-.1097.2075-.1832.305-.0731.0856-.1584.1704-.2681.2438-.0975.0731-.2194.1335-.3535.1706-.1344.0488-.2801.0607-.451.0607-.1587 0-.3053-.0119-.4272-.0488-.1097-.0363-.2194-.0856-.2925-.1584-.085-.061-.1338-.1463-.1828-.2441-.0366-.0967-.0488-.2191-.0488-.3413 0-.1094 0-.2191.0241-.3291.0247-.1097.0615-.2197.1103-.3297.0479-.1091.1097-.2069.1825-.3047.0734-.0975.1585-.1823.2566-.2557.1097-.0731.2313-.1219.3534-.1706.1341-.0369.2923-.0615.4513-.0615.1707 0 .3042.0246.4266.0493.1214.0371.2191.0856.3045.1587.0731.0729.1346.1463.1712.256.0485.0975.0609.2072.0609.3285zM41.824 52.253c0 .0122-.0119.0238-.0246.0365-.0117.0125-.0244.0244-.0482.0244-.0244.0119-.0613.0119-.0981.0244h-.3047c-.0363-.0125-.0607-.0125-.0851-.0244-.0246 0-.0365-.0119-.0487-.0244v-.0365l.2559-1.1948c.0119-.0372.0119-.0734.0241-.0978v-.1097c0-.061-.0122-.1222-.0368-.1704-.0241-.0371-.0848-.0618-.1582-.0618-.0609 0-.1219.0247-.1947.0618-.0734.036-.1344.0848-.2072.1582-.0613.0609-.1222.1338-.171.2313-.049.0856-.0856.1831-.0978.2806l-.1947.9026c-.0122.0122-.0122.0238-.0244.0365-.0119.0125-.0368.0244-.0612.0244-.0244.0119-.061.0119-.0972.0244h-.2926c-.0368-.0125-.0734-.0125-.0978-.0244-.0124 0-.0246-.0119-.0368-.0244-.0119-.0127-.0119-.0243-.0119-.0365l.2678-1.1948c0-.0372.0131-.0734.0131-.11.0116-.0366.0116-.0729.0116-.0975 0-.0734-.0116-.1222-.0487-.1704-.0247-.0371-.0735-.0618-.1463-.0618-.0734 0-.1344.0247-.2078.0618-.0731.036-.1335.0848-.1945.1582-.0734.0609-.1221.1338-.1712.2313-.0487.0856-.085.1831-.1097.2806l-.195.9026c0 .0122-.0119.0238-.0241.0365-.0125.0125-.0368.0244-.0609.0244-.0247.0119-.0488.0119-.0981.0244h-.292c-.0368-.0125-.0737-.0125-.0856-.0244-.0244 0-.0368-.0119-.049-.0244 0-.0127-.0119-.0243 0-.0365l.4391-1.9999c0-.0122 0-.0246.0122-.036.0121-.013.0246-.013.0487-.0249.0247-.0122.0488-.0122.0856-.0122.0363-.0116.0732-.0116.1219-.0116.0604 0 .0972 0 .1341.0116.0241 0 .0487 0 .0728.0122.0122.0119.0247.0119.0369.0249v.036l-.0734.3297c.0365-.049.0856-.0978.1343-.159.061-.0485.1222-.0973.1948-.1466.0731-.0363.1465-.0731.2443-.1088.0734-.025.1707-.0377.2557-.0377.0978 0 .1834.0127.2441.0377.0728.0238.1346.0487.1706.0972.0488.0363.0853.085.1097.146.0244.0485.0366.1094.0366.1712.0368-.049.0856-.1103.1465-.159.0613-.0485.1216-.0973.1951-.1466.0734-.0363.1462-.0731.2318-.1088.0851-.025.1704-.0377.2682-.0377.1097 0 .2072.0127.2806.0493.0731.0241.1457.0609.1826.1219.0487.0487.0856.1097.1102.1706.0241.0734.0241.146.0241.2316v.1588c-.0122.0487-.0241.0975-.0368.1581zm54.883-1.5608c0 .0851-.0116.1707-.0487.2432-.0372.074-.0859.1344-.1582.1953-.0729.0613-.1582.1103-.256.1591-.1091.0487-.2197.0856-.3535.1218-.1099.0239-.2069.0485-.2681.0732-.0737.0241-.1341.0609-.1712.0853-.0372.0244-.0735.0607-.0859.0853-.0119.0247-.0236.061-.0236.0975 0 .0607.0236.1095.0854.1466.0487.0238.1335.0485.231.0485.0978 0 .1837-.0117.269-.0369.0729-.0116.146-.0366.2078-.0604.0604-.0241.1091-.0371.1465-.0609.0488-.0125.0839-.0252.1092-.0252.0116 0 .0365 0 .0365.0252.0125.0122.0125.0238.0125.0487v.0848c0 .0247-.0125.0618-.0255.0978-.0119.0366-.0235.0734-.0363.1097-.0125.0366-.036.0612-.0476.0856-.0255.0119-.0627.0366-.1114.0604-.0476.0127-.1094.0371-.1817.049-.0743.0125-.1466.025-.2325.0369-.085.0119-.1697.0119-.2559.0119-.1463 0-.2682-.0119-.3776-.0363-.1105-.0244-.1945-.0615-.2571-.11-.0723-.0482-.121-.1097-.1582-.1706-.0235-.0726-.0487-.1466-.0487-.2192 0-.1102.0252-.1953.0618-.2684.0357-.0853.0847-.1585.1587-.2197.0723-.0606.1582-.1094.2676-.1584.1094-.0613.2319-.0975.3779-.1338.098-.025.1828-.0488.2446-.0734.0728-.0244.1219-.0494.1582-.0732.0357-.0249.0728-.0487.0847-.085.0252-.0247.0252-.0615.0252-.0856 0-.0607-.0252-.1094-.0742-.1463-.0488-.0371-.1211-.0488-.2186-.0488-.0978 0-.1837.0117-.2443.0239-.0729.0249-.1463.0368-.1953.0618-.0604.0238-.0975.0487-.1338.0606-.036.0241-.0615.0241-.0732.0241-.0241 0-.0371 0-.0487-.0122-.0119-.0119-.0119-.0365-.0119-.0725 0-.0131 0-.0369.0119-.0618 0-.036.0116-.0726.0116-.0973.013-.0363.0255-.0731.0371-.0972.0247-.0366.0372-.0612.0607-.0856.0241-.0125.0604-.0366.0975-.0612.0488-.0114.0978-.0363.1582-.0485.0615-.0116.1349-.0247.2083-.0366.0613-.0127.1335-.0127.2067-.0127.1338 0 .2446.0127.3546.0377.0978.0238.1817.0601.256.1088.072.0493.121.1103.1581.1829.036.0609.0604.1465.0604.2321zm-3.9138-.1346c-.049 0-.0862-.0117-.1349-.0117h-.1327c-.1108 0-.1953.0117-.2559.0239-.0743.0249-.1231.0618-.1718.0978-.0366.0246-.0607.0734-.0848.1097-.013.0493-.0246.0856-.0246.1343 0 .0366.0116.0732.0246.0978.0125.0238.0357.0488.0613.0726.0235.0125.0722.0249.121.0365.0371.0122.0978.0122.1706.0122h.3053zm.2322 1.6954c0 .0122 0 .0238-.0125.0365-.0128.0125-.0244.0244-.0488.0363-.0246 0-.0617.0125-.098.0125h-.3048c-.0357 0-.0728-.0125-.0847-.0125-.0252-.0119-.0369-.0238-.0488-.0363-.013-.0127-.013-.0243 0-.0365l.1582-.7563h-.2069c-.0607 0-.123.0122-.1721.0252-.0487.0238-.0964.0482-.1326.0845-.0372.0368-.0743.0737-.1103.1219-.0363.049-.0734.0983-.1094.159l-.2197.3529c-.0119.025-.0244.0366-.0372.0493-.0235.0125-.049.0244-.0722.0363-.0255 0-.0613.0125-.1106.0125h-.3172c-.0363 0-.0606-.0125-.0847-.0125-.0131-.0119-.0363-.0119-.0363-.0238-.0119-.0125-.0119-.0252-.0119-.0252v-.0238c.0119-.0128.0119-.0247.0235-.0488.0116-.0122.0247-.0368.0371-.0609.0117-.0247.036-.0613.0604-.0978l.22-.3291c.0847-.11.1584-.1945.2313-.2563.0734-.0609.1465-.0972.2194-.1097-.1216-.0238-.2194-.0731-.2798-.1462-.0618-.0735-.0978-.171-.0978-.2688 0-.0601.0116-.1213.0235-.1825.0125-.0726.0488-.1213.0859-.1831.0372-.061.0859-.1097.1466-.1582.0604-.061.1346-.0975.231-.1344.0862-.0363.1953-.0601.3178-.085.1094-.0238.2559-.0369.4022-.0369h.1953c.0607 0 .1211.0131.1828.0131.0613 0 .1219 0 .1826.0116.0612 0 .1222 0 .1709.0122.0485 0 .0848.0119.1103.0487.0235.0247.0235.061.0116.1219zm-2.7811-1.4023c-.0607-.0734-.1213-.1344-.1953-.1831-.0607-.036-.1457-.061-.2305-.061-.0742 0-.1349.025-.1953.0488-.049.0249-.1094.0731-.1465.1219-.0488.0493-.0859.1094-.1219.1709-.0247.0612-.0618.1338-.0734.2072-.0247.0609-.0488.1344-.0488.2075-.0119.0726-.0246.146-.0246.2072 0 .0363.0127.0853.0127.1219.0119.0363.0244.0726.036.11.0247.0246.0493.0487.0853.0725.0369.025.074.025.1228.025.0723 0 .1465-.0122.2188-.061.0731-.0365.1466-.0856.2072-.1584.0734-.0615.1222-.1471.1707-.2322.049-.0975.085-.1828.1105-.2925zm.3053 1.4023c-.0125.0365-.0366.049-.0848.0728-.0371.0125-.1099.0125-.208.0125h-.1338c-.0252 0-.0488-.0125-.074-.0125-.0119-.0119-.0235-.0238-.036-.0363v-.0365l.0612-.3167c-.0252.0488-.0612.0967-.11.1457-.0609.0613-.1224.0981-.1947.1463-.074.0485-.1463.0856-.2441.11-.0859.0244-.1706.0363-.2687.0363-.1335 0-.2429-.0119-.3288-.0607-.0859-.0371-.1466-.0975-.2072-.1706-.0488-.0613-.0859-.1466-.11-.2438-.0247-.0859-.0247-.1831-.0247-.2809 0-.0967 0-.1948.0247-.3045.0241-.1099.0488-.2196.0848-.3293.0487-.1095.0975-.2197.1593-.3172.0612-.11.1465-.1951.2313-.2801.0859-.0734.1834-.1344.3047-.1834.1094-.0488.2441-.0734.3906-.0734.1335 0 .2441.0246.3535.0734.1094.0615.1953.1346.2684.2321l.0488-.1831c0-.0246.0246-.049.0734-.0609.0488-.0122.1094-.0238.2188-.0238.0488 0 .0859 0 .1231.0116.0232 0 .0487 0 .0722.0122.0117.0119.0253.0119.0372.0249 0 .0114.0116.0238 0 .036zm-2.6334 0c0 .0122-.013.0238-.0244.0365-.0127.0125-.0363.0244-.0615.0244-.0235.0119-.0606.0119-.0978.0244h-.2928c-.0366-.0125-.0723-.0125-.0967-.0244-.0127 0-.0246-.0119-.0371-.0244-.0119-.0127-.0119-.0243 0-.0365l.1709-.7804h-.8654l-.1712.7804c0 .0122-.0125.0238-.0241.0365-.0116.0125-.0241.0244-.0487.0244-.0244.0119-.0607.0119-.0978.0244h-.3048c-.0371-.0125-.0615-.0125-.0858-.0244-.0233 0-.0358-.0119-.0488-.0244v-.0365l.4394-1.9874c0-.0247 0-.0371.0119-.0485.0124-.013.0371-.013.0615-.0249.0244-.0122.0615-.0122.0972-.0122.0366-.0116.0853-.0116.1457-.0116.0618 0 .1106 0 .1466.0116.049 0 .0742 0 .0978.0122.0252.0119.0371.0119.0371.0249.0116.0114.0116.0238.0116.0485l-.1698.7438h.8652l.1581-.7438c0-.0247.0125-.0371.0255-.0485.0117-.013.0233-.013.0488-.0249.0363-.0122.0604-.0122.1094-.0122.036-.0116.085-.0116.1463-.0116.0606 0 .1094 0 .1465.0116.0352 0 .0607 0 .0842.0122.0252.0119.0369.0119.0488.0249 0 .0114.0127.0238 0 .0485zm-2.6955 0c-.0116.0122-.0116.0238-.0232.0365-.0125.0125-.0371.0244-.0618.0244-.0244.0119-.0615.0119-.0972.0244h-.2934c-.036-.0125-.0731-.0125-.0972-.0244-.0122 0-.0366-.0119-.0366-.0244-.0128-.0127-.0128-.0243 0-.0365l.1701-.7804h-.8652l-.17.7804c0 .0122-.0125.0238-.0253.0365-.0119.0125-.0235.0244-.0606.0244-.0247.0119-.0488.0119-.0978.0244h-.2928c-.036-.0125-.0607-.0125-.0848-.0244-.0247 0-.0363-.0119-.0493-.0244v-.0365l.4269-1.9874c.0119-.0247.0119-.0371.0244-.0485.0127-.013.0362-.013.0615-.0249.0235-.0122.0606-.0122.0978-.0122.036-.0116.0853-.0116.1465-.0116.0604 0 .1094 0 .1457.0116.036 0 .0729 0 .0964.0122.0136.0119.0371.0119.0371.0249.0119.0114.0119.0238.0119.0485l-.17.7438h.8651l.1596-.7438c0-.0247.0125-.0371.0241-.0485.0116-.013.0241-.013.0487-.0249.0244-.0122.0607-.0122.0978-.0122.0488-.0116.0975-.0116.1582-.0116.0604 0 .1094 0 .1465.0116.0372 0 .0604 0 .0859.0122.0233.0119.0352.0119.0482.0249v.0485zm-2.8768-1.512c0-.0607-.0253-.1094-.0743-.1463-.0488-.0488-.121-.0609-.2188-.0609-.0859 0-.1582.0121-.2194.036-.0735.0249-.1222.0618-.171.1105-.049.0482-.0978.097-.1349.1582-.0235.0609-.0607.1338-.0723.1947h.1953c.1335 0 .2441 0 .3288-.0122.0854-.0238.1582-.0487.22-.0728.0488-.025.0848-.0488.1094-.0853.0247-.0363.0372-.0856.0372-.1219zm.5975-.0488c0 .1097-.0252.2072-.074.2926-.049.085-.1338.1584-.2443.2194-.1094.0609-.2557.1099-.4258.1462-.1706.0369-.3787.0488-.6094.0488h-.2322c0 .0363-.0119.0734-.0119.0975v.0978c0 .1219.0363.2075.0978.2679.0723.0609.1814.0978.328.0978.1105 0 .2077-.0122.2931-.0239.0859-.013.1581-.0252.2194-.049.0734-.0128.1224-.0366.1593-.0488.049-.0119.0723-.0119.0978-.0119.0116 0 .0351 0 .0351.0119.0136.0122.0136.0239.0136.0488v.085c-.0136.0366-.0136.0607-.0252.0976-.0119.0365-.0235.0609-.036.0856-.013.0365-.0247.0487-.0493.0728-.0125.0119-.0488.0369-.11.0485-.0488.0252-.1094.0371-.1826.049-.0734.0125-.1581.025-.2432.0369-.0859.0119-.1837.0119-.2812.0119-.1584 0-.2931-.0119-.4025-.0363-.121-.0363-.2188-.0853-.2931-.1463-.0845-.0612-.1335-.1343-.1828-.2318-.0357-.0857-.0482-.2073-.0482-.3294 0-.0978 0-.207.0241-.3167.0241-.1221.0487-.2321.0978-.3418.0487-.1094.1091-.2194.1834-.3169.0606-.1095.1584-.1953.2559-.2679.0978-.0734.2189-.1344.3535-.1834.1335-.0488.2801-.0734.4513-.0734.1463 0 .2803.0127.3776.0493.1105.0371.1947.0731.2687.1219.0607.0609.1213.1219.1466.1831.0351.0726.0487.1466.0487.2072zm-2.8658 1.5608c-.0131.0122-.0131.0238-.0247.0365-.0116.0125-.0371.0244-.0606.0244-.0253.0119-.0604.0119-.0976.0244h-.2931c-.0371-.0125-.0728-.0125-.0975-.0244-.0119 0-.0365-.0119-.0365-.0244-.0125-.0127-.0125-.0243-.0125-.0365l.3535-1.6098h-.0488c-.1094 0-.2069.0122-.2922.0371-.0854.0238-.1463.0726-.2078.1338-.0604.0488-.1094.1213-.1582.2191-.0371.0853-.0728.1953-.0975.3172-.0371.1463-.0859.2804-.121.3906-.0372.1097-.0862.207-.135.2801-.0487.0734-.0975.1344-.1581.1831-.0607.0488-.1222.0853-.1837.1097-.0723.0244-.1463.0369-.2186.0488-.0859 0-.1712.0119-.2684.0119-.0488 0-.0734-.0119-.0981-.0238-.0125-.025-.0125-.0488-.0125-.0856v-.0488c0-.0244 0-.049.0125-.0731 0-.0369.013-.0613.013-.0978.0117-.0366.0233-.0604.0363-.0975.0125-.0247.036-.0485.0488-.0607.0125-.0128.036-.0249.0612-.0249.0607 0 .1094-.0117.1454-.0117.0491-.0122.0851-.0371.1222-.0861.0244-.0363.0607-.097.0859-.1826.0366-.0731.0607-.1828.0978-.3291.0487-.1584.0975-.3175.1698-.451.0606-.1216.1584-.2443.2676-.3294.123-.0972.2568-.1706.4277-.2194.1707-.049.3906-.0731.635-.0731h.2304c.0743 0 .1347 0 .1953.0122.0488 0 .0976.0119.1092.0487.0255.0247.0255.0732.0127.1344zm-5.5599-1.9874c.0116-.0247.0116-.0371.0235-.0485.0117-.013.0253-.013.0604-.0249.0255-.0122.0488-.0122.0978-.0122.0371-.0116.0859-.0116.1466-.0116.0603 0 .1091 0 .1462.0116.0372 0 .0737 0 .0862.0122.0232.0119.0357.0119.0488.0249v.0485l-.256 1.1823c0 .0369-.0128.074-.0128.1097-.0124.0369-.0124.061-.0124.0978 0 .0729.0124.1219.0371.1712.0363.0479.0845.0729.1463.0729.0606 0 .1335-.025.1953-.061.0723-.0487.1338-.0975.1947-.1584.0729-.0737.1219-.1471.1707-.2322.0487-.0975.0858-.1828.1094-.2803l.1953-.902c0-.0247.0116-.0371.0252-.0485.0119-.013.0235-.013.0488-.0249.0235-.0122.0606-.0122.0969-.0122.036-.0116.0972-.0116.159-.0116.0477 0 .0964 0 .1457.0116.036 0 .0613 0 .0848.0122.0255.0119.0371.0119.0371.0249.0119.0114.0119.0238.0119.0485l-.2676 1.1823c0 .0369-.0119.074-.0119.1097v.11c0 .0607.0119.1222.0352.159.0255.0479.0742.0729.1465.0729.0613 0 .1231-.025.1953-.061.0613-.0487.1347-.0975.1953-.1584.0613-.0737.1222-.1471.1707-.2322.049-.0975.0853-.1828.0981-.2803l.1941-.902c.0136-.0247.0136-.0371.0253-.0485.0119-.013.0371-.013.0606-.0249.0253-.0122.0607-.0122.0978-.0122.0369-.0116.0859-.0116.1463-.0116.0607 0 .1094 0 .1465.0116.036 0 .0723 0 .0978.0122.0117.0119.0233.0119.0363.0249.0125.0114.0125.0238.0125.0485l-.4394 1.9874c0 .0122-.0119.0238-.0244.0365-.0127.0125-.0246.0244-.0481.0244-.0253.0119-.0488.0119-.0859.0244h-.2441c-.0371-.0125-.0604-.0125-.0734-.0244-.0241 0-.036-.0119-.036-.0244-.0125-.0127-.0125-.0243-.0125-.0365l.0732-.3297c-.0247.049-.0732.1097-.1341.1587-.0488.0613-.1219.11-.1953.1463-.0729.0485-.1463.0856-.2313.11-.0859.0244-.1718.0363-.2557.0363-.0859 0-.1718-.0119-.2325-.0363-.0723-.0125-.121-.0488-.1698-.0853-.0371-.0488-.0742-.0975-.0978-.1466-.0255-.0609-.0371-.1213-.0371-.1831-.0371.049-.0847.1097-.1465.1587-.0604.0613-.1211.11-.1953.1463-.0723.0485-.1582.0856-.2311.11-.0853.0244-.1712.0363-.2565.0363-.11 0-.2078-.0119-.2801-.0363-.0728-.0363-.1346-.0731-.1834-.1219-.049-.049-.0847-.11-.0966-.1834-.0244-.0607-.0369-.1457-.0369-.2194 0-.0607 0-.1094.0125-.1582 0-.0609.0116-.1097.0244-.1706zm-2.4395 1.2563c0-.0493-.0116-.0864-.0241-.1227-.013-.0238-.0363-.0607-.0734-.0726-.0371-.0252-.0723-.0493-.1213-.0493-.0488-.0122-.0975-.0244-.1718-.0244-.0604 0-.121 0-.1698.0122-.0607.0122-.1219.0122-.1712.0247l-.0612.2678c-.036.1344-.0236.2322.0252.3048.049.0609.1341.0978.256.0978.0847 0 .1465-.0122.2069-.0369.0606-.0122.1213-.0488.1582-.0848.049-.0365.0861-.0856.1094-.1343.0255-.061.0371-.1222.0371-.1823zm.6219-.074c0 .1466-.0241.2804-.0847.4028-.0613.1095-.1466.207-.2571.2801-.0973.0856-.2313.146-.3776.1831-.1466.0369-.3047.0607-.4876.0607-.1706 0-.3172-.0119-.439-.0607-.1222-.0371-.2075-.0856-.2804-.1584-.0607-.0735-.0978-.1704-.1213-.2682-.0136-.11 0-.2319.0235-.3654l.2806-1.2563c0-.0247.0125-.0371.0241-.0485.0117-.013.0241-.013.0488-.0249.0247-.0122.0607-.0122.0978-.0122.0487-.0116.0975-.0116.1582-.0116.0612 0 .1105 0 .1465.0116.0369 0 .0612 0 .0859.0122.0241.0119.0363.0119.0488.0249v.0485l-.1347.6097c.0612-.0124.1222-.0246.1834-.0246.0723-.0122.1466-.0122.2188-.0122.1347 0 .2688.0122.3782.0482.0972.0249.1953.0615.2684.1227.0734.0488.1222.1091.1582.1826.0371.0853.0612.1709.0612.2559zm.7804.8051c0 .0122-.0116.0238-.0241.0365-.013.0125-.0363.0244-.0618.0244-.0235.0119-.0487.0119-.0975.0244h-.2922c-.036-.0125-.0732-.0125-.0848-.0244-.0241 0-.0371-.0119-.049-.0244-.0128-.0127-.0128-.0243 0-.0365l.426-1.9874c0-.0247.0136-.0371.0252-.0485.0119-.013.0372-.013.0607-.0249.0247-.0122.0488-.0122.0859-.0122.0487-.0116.0969-.0116.1582-.0116.0606 0 .1094 0 .1465.0116.036 0 .0604 0 .0848.0122.0246.0119.0363.0119.0493.0249 0 .0114.0125.0238 0 .0485zm-3.4257-.0128c-.013.0366-.0371.0618-.0742.0737-.0488.0244-.1211.0244-.2313.0244h-.1463c-.0363 0-.0612 0-.0853-.0125-.0247 0-.0372-.0119-.0372-.0238v-.049l.0978-1.061c0-.0366.0128-.0735.0128-.1222.0119-.0488.0119-.1094.0244-.1582.0116-.0609.0246-.1097.0246-.1706.0111-.0607.0241-.1094.0357-.1582h-.0116c-.013.0357-.0371.0848-.0612.1335-.0247.0488-.0612.0978-.0853.1466-.0247.0487-.0488.0975-.0729.1465-.0246.0488-.049.0851-.0737.1213l-.621 1.1095c-.0125.0128-.0253.0366-.0372.0493-.0116.0125-.0371.0244-.0604.0244-.0255.0119-.0612.0119-.0978.0244h-.2681c-.0247-.0125-.0618-.0125-.0737-.0244-.0244 0-.0488-.0119-.0488-.0244-.0116-.0127-.0116-.0365-.0241-.0493l-.1224-1.1095c-.0116-.0362-.0244-.0847-.0244-.1335 0-.049-.0125-.0978-.0125-.1465 0-.0488-.0119-.0978-.0119-.1466v-.1213h-.0116c0 .0488-.0255.0975-.0371.1457-.0117.0488-.0236.11-.0488.1582-.0119.0615-.0235.1105-.0371.1593-.0235.0485-.0352.0972-.0476.146l-.3535 1.0482c-.0131.025-.0247.0366-.0247.0493-.0119.0125-.0371.0244-.0606.0363-.0253 0-.0488.0125-.0976.0125h-.2931c-.0241 0-.0487-.0125-.0734-.0244-.0125 0-.0241-.0119-.0241-.0244v-.0493l.6222-1.8649c.0241-.0612.0601-.1097.1094-.1468.0358-.0244.0973-.0485.1823-.0485h.2812c.0607 0 .1213.0122.1582.0122.049.0119.0853.0249.1094.0487.0244.0247.0488.061.0607.0978.0255.0366.0255.0851.0371.1463l.0975.6826c0 .0366.0119.0853.0119.1338 0 .049.0125.0978.0125.1465v.1466c.0127.0363.0127.0856.0127.1219.0236-.0363.0491-.0856.0607-.1344.0247-.049.0488-.0972.0731-.1465.0244-.0482.0491-.097.0735-.1457.0246-.0369.0487-.0856.0847-.1222l.3782-.6826c.0371-.0612.0603-.0975.0858-.1463.0358-.0368.0604-.0615.0978-.0856.0363-.0246.072-.036.1208-.049.049-.0119.1108-.0241.1837-.0241h.3163c.0862 0 .135.0241.1707.0485.0377.0371.0493.0856.0377.1468zm38.7993-1.3895c-.0491-.0734-.11-.1344-.1829-.1831-.0731-.036-.146-.061-.2432-.061-.0618 0-.123.025-.184.0488-.0598.0249-.1088.0731-.1459.1219-.0491.0493-.0851.1094-.1211.1709-.0368.0612-.0618.1338-.0859.2072-.0249.0609-.0371.1344-.049.2075-.0119.0726-.0119.146-.0119.2072 0 .0363 0 .0853.0119.1219 0 .0363.0241.0726.0371.11.023.0246.0488.0487.0848.0725.0241.025.0731.025.1221.025.0729 0 .146-.0122.2189-.061.074-.0365.146-.0856.2072-.1584.0618-.0615.123-.1471.1718-.2322.0482-.0975.085-.1828.1091-.2925zm.3041 1.4023c0 .0365-.0232.049-.072.0728-.049.0125-.1222.0125-.22.0125h-.1221c-.0241 0-.0601-.0125-.0729-.0125-.0241-.0119-.036-.0238-.036-.0363-.0122 0-.0122-.0243-.0122-.0365l.072-.3167c-.0238.0488-.0598.0967-.121.1457-.0488.0613-.1108.0981-.1828.1463-.074.0485-.1591.0856-.2441.11-.085.0244-.1831.0363-.2679.0363-.1352 0-.244-.0119-.3302-.0607-.0848-.0371-.1579-.0975-.2069-.1706-.0491-.0613-.0859-.1466-.11-.2438-.025-.0859-.0369-.1831-.0369-.2809 0-.0967.0119-.1948.0369-.3045.0119-.1099.049-.2196.085-.3293.0371-.1095.0981-.2197.1599-.3172.0601-.11.1332-.1951.218-.2801.098-.0734.1961-.1344.305-.1834.123-.0488.244-.0734.3912-.0734.134 0 .2559.0246.3648.0734.0981.0615.195.1346.2681.2321l.0369-.1831c.0122-.0246.0371-.049.074-.0609.049-.0122.121-.0238.2191-.0238.0479 0 .0969 0 .123.0116.036 0 .0601 0 .072.0122.0241.0119.0371.0119.049.0249v.036zm-2.6331 0c0 .0122-.0119.0238-.0249.0365-.0122.0125-.023.0244-.0491.0244-.0229.0119-.0601.0119-.0961.0244h-.3058c-.036-.0125-.061-.0125-.0842-.0244-.025 0-.0369-.0119-.0488-.0244 0-.0127-.0141-.0243 0-.0365l.341-1.6098h-.8172l-.3538 1.6098c0 .0122-.0121.0238-.0241.0365-.0119.0125-.0249.0244-.049.0244-.0249.0119-.0609.0119-.0981.0244h-.3038c-.0372-.0125-.0621-.0125-.0862-.0244-.025 0-.0369-.0119-.0369-.0244-.011-.0127-.011-.0243-.011-.0365l.4141-1.8902c.0119-.0609.0369-.0972.0729-.1343.0371-.0244.0731-.0485.1349-.0485h1.707c.061 0 .097.0241.1222.0485.023.0371.023.0734.0119.1343zm-2.658 0c-.0119.0122-.0119.0238-.025.0365-.0119.0125-.036.0244-.0609.0244-.0241.0119-.0601.0119-.097.0244h-.2931c-.036-.0125-.0731-.0125-.0981-.0244-.0229 0-.0348-.0119-.0348-.0244-.0142-.0127-.0142-.0243-.0142-.0365l.3552-1.6098h-.8291l-.3419 1.6098c0 .0122-.0122.0238-.0252.0365-.0108.0125-.036.0244-.0598.0244-.025.0119-.0621.0119-.0981.0244h-.2931c-.036-.0125-.0729-.0125-.0958-.0244-.0142 0-.0261-.0119-.038-.0244 0-.0127-.0111-.0243 0-.0365l.4028-1.8902c.011-.0609.0371-.0972.0731-.1343.036-.0244.0851-.0485.146-.0485h1.7079c.0482 0 .0961.0241.1102.0485.023.0371.023.0734.0119.1343zm-2.06-1.9999c0 .0241-.013.0366-.013.061 0 .0246-.0131.0487-.0241.0734-.0488.1463-.11.2801-.1698.4266-.0751.1463-.1471.2928-.2211.451-.085.1587-.1831.3169-.292.4759-.0981.1701-.2199.341-.3549.5242l-.5961.7679c-.013.0246-.036.0362-.0621.0487-.011.0125-.049.0247-.072.0247-.0371.0119-.074.0244-.123.0244-.0476 0-.1094.0124-.1698.0124-.0607 0-.1219-.0124-.1712-.0124-.036-.0125-.0729-.0125-.0848-.0244-.0252-.0122-.0371-.0247-.0252-.0488 0-.0122.0128-.0368.0252-.0609l.561-.671-.3657-1.9142c0-.0241 0-.0363-.0124-.061v-.0487c0-.0363.0124-.0488.0124-.0734.0117-.0114.036-.0244.0607-.0363.0241-.0122.0604-.0122.0975-.0122.0488-.0116.0978-.0116.1582-.0116h.1582c.0371.0116.062.0116.0861.0238.0119 0 .023.0119.0369.0249.0119.0238.0119.036.0119.0601l.231 1.3904c.0851-.11.159-.2197.22-.3291.072-.1222.1341-.2316.1831-.3537.0609-.1219.1091-.2438.1579-.3663.0371-.1097.0862-.2432.1222-.3654 0-.0122.0119-.0246.0238-.036.013-.013.0252-.013.0621-.0249.0229-.0122.06-.0122.098-.0122.0479-.0116.1089-.0116.169-.0116.11 0 .1839.0116.2199.0238.036.0119.0621.0249.0621.0609zm-3.1586.6823c0-.0487-.0125-.0969-.0253-.1335 0-.0368-.0116-.0734-.036-.1097-.0246-.0246-.0493-.049-.0734-.0606-.036-.0131-.0731-.025-.1221-.025-.0732 0-.1455.025-.2197.061-.0723.0365-.1466.0975-.207.159-.0606.0728-.121.1457-.17.2432-.0488.0856-.0859.1831-.1092.2806l-.0742.305c.0603.0856.1219.1466.1953.1831.0603.0488.1465.061.231.061.0737 0 .1341-.0122.1956-.0371.049-.0358.0978-.0726.1463-.1214.0493-.049.0853-.1102.1094-.1709.0371-.0734.0618-.1346.0853-.2072.0252-.0731.0371-.1466.0487-.2197.0128-.0734.0253-.1338.0253-.2078zm.6213-.0487c0 .0981 0 .2078-.0235.3175-.0255.1099-.049.2196-.0859.3288-.049.1102-.0978.2199-.1582.3177-.0606.1095-.1465.1948-.2324.2679-.0853.0856-.1826.1466-.3047.1953-.1094.0369-.2441.0607-.3906.0607-.0607 0-.1211 0-.1817-.0119-.0488-.0119-.1103-.0369-.1466-.0488-.0487-.0244-.0975-.0487-.1346-.0856-.0372-.0241-.0723-.0482-.1095-.085l-.1836.9022c-.0117.0122-.0117.0238-.0233.0363-.0127.0125-.0371.0247-.0618.0247-.0244.0119-.0601.0244-.0972.0244-.0363 0-.0853.0124-.1457.0124-.0615 0-.1108-.0124-.1466-.0124-.0371 0-.0742-.0125-.0978-.0244-.0127 0-.0371-.0122-.0371-.0247-.0116-.0125-.0116-.0241 0-.0363l.6095-2.7924c0-.0246.0255-.049.0742-.0609.0363-.0122.1094-.0238.207-.0238.0606 0 .0978 0 .1338.0116.0246 0 .049 0 .0734.0122.0116.0119.0246.0119.0371.0249 0 .0114.0116.0238 0 .036l-.0615.3297c.0244-.049.0615-.0978.1103-.159.0479-.0485.121-.0973.1944-.1466.0732-.0363.1463-.0731.2441-.0972.085-.0366.1709-.0493.2684-.0493.1211 0 .2316.0246.3164.0615.0861.0363.1584.0975.2072.1584.0487.0732.0859.1466.1094.2441.0252.0975.0371.195.0371.292z"/>
</svg>
