<?xml version="1.0" encoding="utf-8"?>
<!-- Generated by IcoMoon.io -->
<!DOCTYPE svg PUBLIC "-//W3C//DTD SVG 1.1//EN" "http://www.w3.org/Graphics/SVG/1.1/DTD/svg11.dtd">
<svg version="1.1" xmlns="http://www.w3.org/2000/svg" xmlns:xlink="http://www.w3.org/1999/xlink" width="32" height="32" viewBox="0 0 32 32">
<path d="M31.99 20.522c-0.003-0.010-0.005-0.021-0.006-0.032-0.001-0.022-0.010-0.042-0.021-0.061-0.018-0.031-0.040-0.058-0.070-0.078-0.018-0.012-0.037-0.023-0.058-0.029s-0.042-0.011-0.062-0.018c-0.046-0.015-0.079-0.046-0.096-0.092-0.007-0.020-0.013-0.041-0.018-0.062-0.022-0.103-0.044-0.207-0.066-0.31-0.034-0.162-0.069-0.323-0.106-0.484-0.023-0.098-0.046-0.195-0.069-0.292-0.005-0.021-0.009-0.042-0.013-0.064-0.002-0.008-0.003-0.016-0.004-0.024-0.005-0.036 0.001-0.070 0.016-0.103 0.009-0.020 0.020-0.039 0.029-0.058 0.055-0.109 0.101-0.221 0.138-0.338 0.031-0.098 0.054-0.198 0.070-0.3 0.020-0.128 0.026-0.259 0.017-0.389-0.005-0.070-0.014-0.14-0.026-0.209-0.014-0.077-0.030-0.154-0.052-0.229-0.078-0.269-0.205-0.512-0.388-0.725-0.185-0.215-0.409-0.378-0.668-0.493-0.111-0.050-0.227-0.090-0.345-0.118-0.018-0.004-0.037-0.009-0.055-0.014-0.013-0.004-0.026-0.008-0.038-0.013-0.040-0.016-0.067-0.044-0.082-0.085-0.027-0.076-0.055-0.153-0.083-0.229-0.090-0.244-0.191-0.483-0.308-0.716-0.145-0.288-0.314-0.563-0.508-0.821-0.409-0.542-0.911-0.977-1.504-1.307-0.294-0.164-0.602-0.297-0.921-0.405-0.216-0.073-0.435-0.133-0.657-0.183-0.098-0.022-0.196-0.042-0.295-0.057-0.059-0.009-0.118-0.020-0.177-0.023-0.088-0.014-0.178-0.015-0.267-0.025-0.032-0.004-0.065-0.004-0.097-0.005-0.1-0.003-0.2-0.005-0.301-0.008-0.089-0.002-0.179-0.001-0.268 0-0.252 0.004-0.504 0.009-0.756 0.013-0.024 0-0.049 0.001-0.073 0-0.019-0.001-0.038-0.004-0.056-0.007-0.022-0.004-0.045-0.027-0.049-0.049-0.002-0.013-0.004-0.027-0.005-0.040-0.001-0.033-0-0.065-0-0.098 0.004-0.515 0.004-1.029-0-1.544-0.001-0.089-0.002-0.179-0.010-0.268-0.003-0.027-0.003-0.054-0.005-0.081-0.002-0.035-0.004-0.070-0.010-0.105-0.002-0.011-0.003-0.021-0.004-0.032-0.034-0.344-0.11-0.678-0.22-1.005-0.094-0.278-0.212-0.545-0.352-0.802-0.030-0.055-0.063-0.107-0.102-0.156-0.022-0.027-0.046-0.053-0.072-0.077-0.036-0.033-0.077-0.060-0.123-0.077-0.010-0.004-0.021-0.006-0.031-0.011-0.005-0.002-0.008-0.007-0.012-0.010-0.033 0-0.065 0-0.098 0-0.004 0.004-0.007 0.009-0.011 0.011-0.018 0.007-0.036 0.013-0.053 0.020-0.065 0.025-0.117 0.067-0.159 0.122-0.048 0.063-0.067 0.135-0.058 0.214 0.004 0.035 0.013 0.069 0.026 0.102 0.024 0.060 0.052 0.119 0.083 0.176 0.040 0.074 0.078 0.149 0.114 0.224 0.097 0.203 0.18 0.412 0.244 0.627 0.042 0.14 0.075 0.282 0.102 0.426 0.006 0.054 0.017 0.107 0.023 0.161 0.007 0.065 0.017 0.129 0.026 0.193 0.005 0.040 0.011 0.080 0.016 0.121 0.001 0.010-0.009 0.022-0.019 0.021-0.008-0.001-0.016-0.002-0.024-0.004-0.010-0.003-0.020-0.008-0.030-0.012-0.017-0.009-0.033-0.018-0.050-0.027-0.126-0.064-0.259-0.108-0.399-0.133-0.115-0.020-0.231-0.031-0.348-0.030-0.084 0-0.168 0.002-0.252 0.011-0.092 0.009-0.183 0.016-0.275 0.024-0.081 0.007-0.162 0.016-0.242 0.024-0.016 0.002-0.032 0.003-0.049 0.004-0.043 0.003-0.086 0.006-0.129 0.012-0.016 0.002-0.032 0.003-0.049 0.004-0.043 0.003-0.086 0.006-0.129 0.012-0.021 0.003-0.043 0.004-0.065 0.005-0.035 0.003-0.070 0.006-0.105 0.010-0.016 0.002-0.032 0.004-0.049 0.005-0.051 0.003-0.103 0.008-0.154 0.013-0.089 0.009-0.178 0.015-0.267 0.022-0.030 0.002-0.059 0.005-0.089 0.008-0.022 0.002-0.043 0.004-0.065 0.006-0.043 0.003-0.086 0.006-0.129 0.012-0.019 0.003-0.038 0.003-0.057 0.005-0.038 0.004-0.075 0.007-0.113 0.011-0.019 0.002-0.038 0.004-0.057 0.005-0.041 0.003-0.081 0.006-0.121 0.011-0.021 0.003-0.043 0.004-0.065 0.006-0.035 0.003-0.070 0.007-0.105 0.010-0.005 0.001-0.011 0.001-0.016 0.002-0.084 0.007-0.167 0.015-0.251 0.022-0.008 0.001-0.016 0.001-0.024 0.002-0.084 0.008-0.167 0.016-0.251 0.024-0.014 0.001-0.027 0.003-0.040 0.004-0.049 0.003-0.097 0.007-0.146 0.014-0.019 0.003-0.038 0.003-0.057 0.005-0.032 0.003-0.065 0.006-0.097 0.010-0.005 0.001-0.011 0.001-0.016 0.002-0.078 0.007-0.156 0.014-0.235 0.022-0.024 0.002-0.048 0.005-0.073 0.008-0.022 0.002-0.043 0.005-0.065 0.007-0.038 0.003-0.076 0.006-0.113 0.011-0.019 0.003-0.038 0.004-0.057 0.005-0.035 0.003-0.070 0.007-0.105 0.011-0.019 0.002-0.038 0.004-0.057 0.005-0.038 0.003-0.076 0.006-0.113 0.011-0.019 0.003-0.038 0.004-0.057 0.005-0.035 0.003-0.070 0.007-0.105 0.010-0.005 0.001-0.011 0.001-0.016 0.002-0.081 0.007-0.162 0.015-0.243 0.022-0.022 0.002-0.043 0.004-0.065 0.007-0.027 0.003-0.054 0.005-0.081 0.008-0.035 0.003-0.070 0.007-0.105 0.010-0.013 0.001-0.027 0.003-0.040 0.004-0.049 0.003-0.097 0.008-0.146 0.013-0.083 0.009-0.167 0.015-0.251 0.022-0.024 0.002-0.049 0.005-0.073 0.007s-0.048 0.005-0.073 0.007c-0.046 0.003-0.092 0.006-0.137 0.014-0.011 0.002-0.022 0.002-0.032 0.002-0.014 0-0.026-0.005-0.034-0.018-0.039-0.062-0.075-0.125-0.109-0.19-0.015-0.029-0.030-0.058-0.045-0.086-0.050-0.090-0.111-0.173-0.186-0.245-0.104-0.1-0.227-0.165-0.365-0.203-0.082-0.022-0.166-0.026-0.25-0.017-0.219 0.033-0.382 0.144-0.482 0.343-0.026 0.051-0.043 0.105-0.055 0.161-0.013 0.058-0.021 0.117-0.022 0.177-0 0.093 0.015 0.183 0.044 0.271 0.010 0.028 0.021 0.056 0.030 0.084 0.003 0.010 0.005 0.021 0.006 0.032 0.001 0.017-0.004 0.032-0.016 0.044-0.010 0.009-0.020 0.018-0.031 0.026-0.029 0.024-0.060 0.047-0.088 0.072-0.202 0.175-0.34 0.391-0.416 0.647-0.021 0.070-0.035 0.142-0.049 0.214-0.015 0.083-0.025 0.166-0.033 0.249-0.003 0.027-0.005 0.054-0.013 0.080-0.003 0.009-0.013 0.018-0.024 0.018-0.022 0.001-0.043 0.001-0.065 0.001-0.349-0-0.699-0-1.048-0-0.303-0-0.607-0.001-0.91-0.001-0.55-0-1.1-0.001-1.65-0.001-0.447 0-0.894 0.001-1.341 0.002-0.027 0-0.054-0-0.081-0.001-0.022-0-0.043-0.006-0.063-0.013-0.032-0.010-0.058-0.028-0.080-0.054-0.010-0.012-0.020-0.026-0.029-0.039s-0.016-0.028-0.024-0.042c-0.219-0.408-0.443-0.813-0.665-1.22-0.055-0.1-0.109-0.2-0.163-0.3-0.022-0.041-0.045-0.080-0.072-0.118-0.082-0.117-0.185-0.211-0.311-0.281-0.074-0.041-0.152-0.069-0.236-0.083-0.038-0.006-0.075-0.011-0.113-0.011-0.229 0.003-0.422 0.117-0.534 0.303-0.041 0.068-0.067 0.141-0.085 0.218-0.021 0.088-0.024 0.177-0.016 0.267 0.005 0.062 0.020 0.123 0.040 0.182 0.022 0.067 0.051 0.131 0.085 0.193 0.058 0.104 0.115 0.209 0.172 0.313 0.101 0.185 0.203 0.371 0.304 0.556 0.017 0.031 0.035 0.061 0.043 0.096 0.001 0.004-0.003 0.009-0.006 0.014-0.001 0.002-0.005 0.003-0.007 0.003-0.016 0.001-0.032 0.002-0.049 0.002-0.043 0.001-0.087 0.003-0.13 0.004-0.062 0.002-0.124 0.006-0.187 0.007-0.111 0.002-0.222 0.003-0.333 0.003-0.054 0-0.108-0.001-0.162-0.003-0.035-0.001-0.070-0.005-0.105-0.008-0.022-0.002-0.043-0.004-0.065-0.006-0.239-0.026-0.468-0.085-0.686-0.189-0.185-0.089-0.349-0.206-0.496-0.349-0.064-0.062-0.124-0.129-0.179-0.199-0.020-0.026-0.041-0.051-0.064-0.073-0.018-0.017-0.037-0.032-0.058-0.045-0.058-0.035-0.121-0.046-0.187-0.032-0.034 0.007-0.069 0.016-0.101 0.030-0.048 0.021-0.090 0.049-0.126 0.087-0.034 0.036-0.057 0.079-0.072 0.126-0.002 0.008-0.004 0.016-0.005 0.024-0.004 0.027-0.005 0.054-0.003 0.081 0.002 0.030 0.008 0.059 0.019 0.087 0.012 0.030 0.027 0.059 0.045 0.086 0.029 0.043 0.060 0.083 0.093 0.123 0.049 0.058 0.1 0.114 0.153 0.168 0.065 0.065 0.131 0.129 0.197 0.193 0.035 0.034 0.074 0.064 0.113 0.093 0.032 0.024 0.065 0.049 0.097 0.073 0.006 0.005 0.012 0.011 0.016 0.018 0.002 0.004 0.002 0.012-0 0.015-0.010 0.013-0.024 0.021-0.039 0.028-0.084 0.037-0.167 0.077-0.252 0.112-0.21 0.087-0.416 0.183-0.616 0.292-0.269 0.147-0.526 0.313-0.766 0.505-0.628 0.502-1.101 1.123-1.414 1.864-0.109 0.257-0.195 0.522-0.263 0.793-0.035 0.139-0.065 0.279-0.091 0.421-0.015 0.083-0.028 0.165-0.040 0.249-0.011 0.075-0.018 0.151-0.029 0.226-0.003 0.022-0.009 0.042-0.018 0.062-0.007 0.015-0.019 0.027-0.033 0.035s-0.029 0.015-0.044 0.020c-0.020 0.007-0.042 0.012-0.063 0.017-0.321 0.077-0.601 0.23-0.843 0.451-0.27 0.246-0.461 0.544-0.568 0.894-0.026 0.085-0.046 0.172-0.059 0.261-0.007 0.048-0.014 0.096-0.016 0.145-0.001 0.014-0.002 0.027-0.005 0.040s-0.002 0.208-0 0.222c0.003 0.021 0.005 0.043 0.007 0.065 0.030 0.374 0.156 0.711 0.384 1.010 0.081 0.106 0.171 0.203 0.269 0.292 0.164 0.15 0.351 0.261 0.559 0.34 0.094 0.036 0.19 0.064 0.288 0.085 0.021 0.005 0.042 0.010 0.063 0.015 0.053 0.013 0.083 0.048 0.094 0.1 0.002 0.008 0.003 0.016 0.004 0.024 0.006 0.043 0.010 0.086 0.017 0.129 0.016 0.104 0.033 0.208 0.059 0.311 0.035 0.139 0.073 0.277 0.122 0.412 0.173 0.475 0.434 0.895 0.786 1.258 0.361 0.373 0.784 0.655 1.267 0.845 0.194 0.076 0.394 0.135 0.599 0.175 0.082 0.016 0.165 0.028 0.248 0.041 0.029 0.005 0.059 0.006 0.089 0.009 0.011 0.001 0.021 0.005 0.030 0.011 0.211 0 0.423 0 0.634 0 0.004-0.003 0.008-0.007 0.013-0.009s0.010-0.003 0.016-0.003c0.065-0.003 0.129-0.014 0.193-0.024 0.112-0.017 0.224-0.039 0.335-0.065 0.193-0.046 0.382-0.103 0.565-0.176 0.263-0.105 0.51-0.237 0.74-0.404 0.285-0.207 0.528-0.456 0.733-0.743 0.15-0.21 0.274-0.435 0.378-0.671 0.087-0.199 0.16-0.402 0.219-0.611 0.023-0.083 0.043-0.168 0.059-0.253 0.018-0.093 0.035-0.186 0.052-0.279 0.002-0.013 0.015-0.024 0.029-0.024 0.005-0 0.011-0.001 0.016-0.001 0.019-0 0.038-0 0.057-0 0.219 0.001 0.439 0.002 0.658 0.003 0.203 0.001 0.406 0.002 0.609 0.003 1.931 0.005 3.863 0.001 5.794 0.002 0.49 0 0.981-0 1.471-0.001 0.303-0 0.607-0 0.91-0.001 0.236-0 0.471-0.001 0.707-0.001 0.366-0.001 0.731-0.001 1.097-0.002 0.409-0.001 0.818-0.001 1.227-0.002 0.439-0.001 0.878-0.002 1.316-0.002 0.022-0 0.043 0 0.065 0 0.008 0 0.016 0.001 0.024 0.002 0.031 0.006 0.049 0.021 0.057 0.051 0.006 0.026 0.012 0.053 0.015 0.080 0.014 0.102 0.033 0.203 0.054 0.304 0.043 0.21 0.098 0.416 0.176 0.616 0.072 0.185 0.162 0.36 0.273 0.525 0.138 0.204 0.29 0.399 0.459 0.579 0.181 0.192 0.378 0.365 0.596 0.514 0.329 0.226 0.688 0.388 1.075 0.484 0.108 0.027 0.216 0.049 0.326 0.065 0.094 0.014 0.188 0.026 0.282 0.032 0.011 0.001 0.022 0.001 0.032 0.003s0.020 0.007 0.031 0.010c0.173 0 0.347 0 0.52 0 0.007-0.003 0.015-0.008 0.022-0.009 0.021-0.003 0.043-0.004 0.065-0.006 0.043-0.002 0.086-0.006 0.129-0.012 0.048-0.007 0.097-0.012 0.145-0.019 0.563-0.085 1.072-0.298 1.524-0.645 0.201-0.154 0.382-0.329 0.547-0.52 0.060-0.070 0.118-0.142 0.174-0.215 0.205-0.269 0.365-0.563 0.483-0.88 0.070-0.188 0.125-0.38 0.166-0.577 0.015-0.069 0.026-0.138 0.040-0.207 0.003-0.016 0.005-0.032 0.006-0.048 0.003-0.030 0.009-0.059 0.017-0.088 0.004-0.016 0.023-0.033 0.041-0.035 0.013-0.002 0.027-0.003 0.040-0.003 0.054-0.001 0.108-0.001 0.163-0.001 0.447-0 0.894 0 1.341-0 0.035 0 0.071 0.001 0.106-0.002 0.078-0.007 0.147-0.035 0.207-0.085 0.017-0.014 0.031-0.030 0.044-0.047s0.023-0.036 0.025-0.059c0.001-0.008 0.002-0.016 0.005-0.024 0.002-0.005 0.006-0.008 0.010-0.013 0-0.065 0-0.13 0-0.195-0.003-0.004-0.008-0.008-0.009-0.013zM27.731 14.189c0.1 0 0.2-0.002 0.301-0.005 0.030-0.001 0.060-0.002 0.089-0.003 0.033-0.001 0.065 0.003 0.096 0.011 0.041 0.011 0.075 0.031 0.103 0.061s0.049 0.065 0.062 0.104c0.002 0.005-0.002 0.017-0.009 0.020s-0.015 0.007-0.023 0.008c-0.019 0.003-0.038 0.005-0.056 0.006-0.022 0.001-0.043 0-0.065-0-0.195-0.001-0.39-0.002-0.632-0.004-0.156 0-0.359 0-0.562-0-0.022 0-0.043-0-0.065-0.001-0.014-0-0.027-0.005-0.038-0.012-0.026-0.015-0.050-0.033-0.070-0.055-0.009-0.011-0.013-0.024-0.009-0.038 0.016-0.048 0.050-0.076 0.099-0.087 0.027-0.006 0.054-0.006 0.081-0.006 0.233-0.003 0.466-0 0.699 0zM16.784 11.157c0.008-0.002 0.015-0.006 0.023-0.007 0.032-0.004 0.065-0.007 0.097-0.010 0.035-0.003 0.070-0.007 0.105-0.010 0.024-0.002 0.049-0.004 0.073-0.007 0.032-0.003 0.065-0.006 0.097-0.010 0.016-0.002 0.032-0.004 0.048-0.005 0.043-0.003 0.086-0.007 0.129-0.013 0.021-0.003 0.043-0.004 0.065-0.006 0.027-0.002 0.054-0.005 0.081-0.008 0.011-0.001 0.021-0.003 0.032-0.004 0.084-0.007 0.167-0.015 0.251-0.022 0.022-0.002 0.043-0.004 0.065-0.007 0.024-0.002 0.048-0.005 0.073-0.007 0.038-0.003 0.076-0.005 0.113-0.011 0.005-0.001 0.011-0.001 0.016-0.002 0.084-0.007 0.167-0.015 0.251-0.022 0.019-0.002 0.038-0.004 0.057-0.006 0.030-0.003 0.059-0.006 0.089-0.009 0.032-0.003 0.065-0.006 0.097-0.010 0.024-0.002 0.049-0.004 0.073-0.007 0.032-0.003 0.065-0.006 0.097-0.009 0.022-0.002 0.043-0.004 0.065-0.006 0.038-0.004 0.075-0.007 0.113-0.011 0.019-0.002 0.038-0.003 0.057-0.005 0.038-0.004 0.075-0.007 0.113-0.011 0.005-0.001 0.011-0.001 0.016-0.002 0.081-0.007 0.162-0.014 0.243-0.022 0.022-0.002 0.043-0.004 0.065-0.006 0.011-0.001 0.021-0.003 0.032-0.004 0.081-0.007 0.162-0.015 0.243-0.022 0.019-0.002 0.038-0.003 0.057-0.005 0.038-0.004 0.075-0.007 0.113-0.011 0.024-0.002 0.049-0.005 0.073-0.007 0.016-0.002 0.032-0.004 0.048-0.005 0.054-0.004 0.108-0.009 0.162-0.015 0.086-0.009 0.173-0.015 0.259-0.022 0.019-0.002 0.038-0.003 0.057-0.005 0.035-0.003 0.070-0.007 0.105-0.010 0.030-0.003 0.059-0.005 0.089-0.008 0.019-0.002 0.038-0.004 0.057-0.006 0.049-0.003 0.097-0.007 0.146-0.013 0.021-0.003 0.043-0.004 0.065-0.005 0.024-0.002 0.049-0.004 0.073-0.006 0.038-0.003 0.075-0.007 0.113-0.011 0.022-0.002 0.043-0.004 0.065-0.006 0.035-0.003 0.070-0.007 0.105-0.010 0.027-0.003 0.054-0.005 0.081-0.008s0.054-0.005 0.081-0.008c0.032-0.003 0.065-0.006 0.097-0.010 0.019-0.002 0.038-0.004 0.057-0.006 0.038-0.004 0.075-0.008 0.113-0.011 0.019-0.002 0.038-0.003 0.057-0.005 0.038-0.004 0.075-0.008 0.113-0.011 0.097-0.007 0.194-0.015 0.292-0.021 0.076-0.005 0.152 0.001 0.226 0.016 0.258 0.053 0.449 0.194 0.563 0.434 0.036 0.076 0.059 0.157 0.071 0.241 0.008 0.056 0.012 0.113 0.013 0.17 0.002 0.154 0.001 0.309-0.008 0.463-0.002 0.035-0.003 0.070-0.005 0.105-0.001 0.017-0.009 0.031-0.021 0.043-0.020 0.020-0.043 0.033-0.071 0.034-0.024 0.001-0.049 0.001-0.073 0.001-0.154-0.001-0.309-0.003-0.463-0.004-0.309-0.002-0.618-0.003-0.926-0.004s-0.618-0.001-0.926-0.001c-0.127-0-0.255 0-0.382 0 0-0 0-0 0-0-0.339 0.001-0.677 0.002-1.016 0.003-0.433 0.002-0.867 0.004-1.3 0.006-0.119 0.001-0.238 0.002-0.358 0.003-0.024 0-0.049 0.001-0.073-0.001-0.043-0.002-0.078-0.022-0.101-0.059-0.016-0.025-0.030-0.052-0.044-0.078-0.128-0.233-0.255-0.465-0.383-0.698-0.023-0.043-0.047-0.086-0.069-0.129-0.005-0.009-0.008-0.020-0.011-0.030-0.002-0.007-0-0.011 0.006-0.013zM16.001 11.224c0.027 0.006 0.048 0.020 0.064 0.043 0.005 0.007 0.008 0.014 0.012 0.021 0.144 0.257 0.289 0.513 0.428 0.773 0.011 0.021 0.022 0.043 0.033 0.065 0.002 0.005 0.002 0.010 0.003 0.016s-0.007 0.017-0.013 0.019c-0.016 0.005-0.032 0.004-0.047-0.004s-0.027-0.018-0.036-0.032c-0.010-0.016-0.020-0.032-0.029-0.049-0.059-0.106-0.119-0.212-0.178-0.319-0.085-0.154-0.168-0.309-0.252-0.463-0.006-0.012-0.012-0.024-0.018-0.036-0.007-0.015 0.005-0.032 0.032-0.034zM15.493 10.24c0.016-0.003 0.032 0.004 0.043 0.018 0.003 0.004 0.007 0.008 0.009 0.013 0.032 0.062 0.064 0.124 0.096 0.186 0.004 0.007 0.004 0.015 0.006 0.022-0.001 0.004-0.001 0.007-0.002 0.009-0.004 0.014-0.013 0.023-0.025 0.030-0.016 0.008-0.040 0.003-0.051-0.012-0.003-0.004-0.007-0.008-0.010-0.013-0.033-0.062-0.066-0.123-0.098-0.185-0.001-0.002-0.002-0.005-0.003-0.007-0.009-0.026 0.007-0.056 0.036-0.061zM15.128 11.667c0.043-0.082 0.095-0.158 0.159-0.225 0.009-0.009 0.020-0.009 0.027 0.002 0.003 0.004 0.006 0.009 0.009 0.014 0.004 0.007 0.008 0.014 0.012 0.021 0.108 0.197 0.215 0.394 0.323 0.592 0.009 0.017 0.020 0.032 0.025 0.051 0.003 0.010-0.002 0.022-0.013 0.026-0.015 0.005-0.031 0.010-0.047 0.011-0.022 0.001-0.043 0.002-0.065 0.002-0.068 0-0.135 0-0.203 0 0 0 0 0 0 0-0.073-0.001-0.146-0.001-0.219-0.002-0.014-0-0.027 0-0.041-0.001s-0.027-0.005-0.039-0.009c-0.017-0.006-0.026-0.019-0.029-0.036-0.002-0.008-0.002-0.016-0.002-0.024 0.001-0.149 0.036-0.29 0.104-0.422zM14.873 15.525c0.007-0.004 0.015-0.007 0.022-0.008 0.011-0.002 0.021-0.002 0.032-0.002 0.154-0 0.308-0 0.462-0 0.011 0 0.022 0 0.032 0.001 0.022 0.002 0.041 0.013 0.056 0.029 0.006 0.006 0.005 0.023-0 0.030-0.009 0.011-0.020 0.018-0.034 0.020-0.016 0.002-0.032 0.003-0.048 0.003-0.084 0-0.167 0-0.251 0s-0.167 0-0.251-0c-0.013-0-0.027-0.002-0.040-0.003-0.007-0.001-0.015-0.010-0.014-0.017 0.004-0.023 0.015-0.040 0.034-0.053zM7.508 10.782c0.002-0.006 0.013-0.013 0.022-0.013 0.005 0.002 0.013 0.003 0.020 0.007 0.014 0.008 0.026 0.019 0.035 0.033 0.012 0.018 0.022 0.037 0.033 0.056 0.077 0.14 0.153 0.28 0.23 0.42 0.138 0.251 0.278 0.502 0.416 0.753 0.009 0.017 0.018 0.033 0.027 0.050 0.008 0.014 0.013 0.030 0.017 0.045 0.003 0.011-0.010 0.028-0.022 0.028-0.008-0-0.016-0.001-0.024-0.004-0.015-0.006-0.029-0.015-0.039-0.028-0.009-0.010-0.017-0.021-0.024-0.032-0.011-0.018-0.022-0.037-0.032-0.056-0.211-0.375-0.417-0.753-0.621-1.132-0.013-0.024-0.026-0.047-0.036-0.073-0.005-0.013-0.007-0.026-0.006-0.040 0-0.005 0.003-0.010 0.004-0.015zM4.109 15.477c0.010-0.009 0.019-0.019 0.029-0.028 0.029-0.028 0.058-0.057 0.087-0.085 0.042-0.042 0.082-0.086 0.121-0.132 0.051-0.060 0.098-0.123 0.139-0.19 0.051-0.084 0.092-0.172 0.118-0.267 0.011-0.042 0.022-0.084 0.026-0.127 0.004-0.038 0.011-0.075 0.012-0.113 0.004-0.132-0.021-0.258-0.071-0.38-0.028-0.068-0.063-0.132-0.102-0.194-0.048-0.076-0.103-0.146-0.16-0.215-0.016-0.019-0.030-0.038-0.046-0.057-0.004-0.005-0.001-0.016 0.006-0.021s0.013-0.009 0.021-0.013c0.134-0.072 0.267-0.144 0.401-0.215 0.069-0.037 0.139-0.073 0.209-0.108 0.204-0.102 0.417-0.181 0.636-0.243 0.146-0.041 0.293-0.075 0.443-0.101 0.13-0.022 0.199-0.032 0.321-0.048 0.075-0.010 0.151-0.014 0.226-0.024 0.035-0.005 0.070-0.005 0.105-0.003 0.016 0.001 0.032 0.005 0.047 0.012 0.023 0.011 0.039 0.030 0.045 0.055 0.009 0.034 0.011 0.069 0.011 0.105-0 0.051-0.002 0.103-0.002 0.154-0 0-0.001 0-0.001-0-0.002 0.038-0.003 0.076-0.005 0.114-0.002 0.043-0.004 0.087-0.011 0.129-0.001 0.008-0.002 0.016-0.003 0.024-0.009 0.111-0.028 0.22-0.049 0.329-0.034 0.173-0.081 0.342-0.141 0.508-0.102 0.282-0.238 0.545-0.404 0.794-0.032 0.047-0.065 0.093-0.098 0.14-0.011 0.015-0.022 0.031-0.035 0.045s-0.025 0.028-0.039 0.041c-0.056 0.050-0.122 0.069-0.195 0.062-0.048-0.005-0.097-0.013-0.145-0.019-0.011-0.001-0.021-0.003-0.032-0.004-0.138-0.009-0.276-0.020-0.414-0.015-0.024 0.001-0.049 0.002-0.073 0.003-0.046 0.002-0.092 0.005-0.138 0.008-0.041 0.002-0.081 0.004-0.121 0.010-0.011 0.002-0.021 0.003-0.032 0.003-0.068 0.003-0.135 0.014-0.202 0.023-0.086 0.011-0.172 0.023-0.257 0.038-0.072 0.012-0.144 0.025-0.217 0.030-0.005 0-0.010-0.002-0.015-0.005s-0.003-0.013 0.005-0.021zM3.095 14.864c0.001-0.002 0.002-0.005 0.003-0.008s0.002-0.005 0.003-0.007c0.13-0.235 0.297-0.438 0.507-0.606 0.011-0.008 0.021-0.017 0.033-0.024 0.031-0.019 0.064-0.028 0.101-0.023 0.027 0.003 0.052 0.014 0.075 0.029 0.025 0.016 0.046 0.038 0.064 0.062 0.025 0.033 0.044 0.069 0.057 0.107 0.014 0.041 0.022 0.083 0.022 0.127-0.001 0.139-0.083 0.288-0.237 0.347-0.033 0.013-0.067 0.021-0.102 0.025-0.072 0.007-0.185 0.012-0.274 0.011-0.066-0.002-0.147-0.004-0.229-0.007-0.018-0.001-0.030-0.018-0.023-0.034zM2.554 15.892c0.011-0.033 0.025-0.066 0.041-0.097 0.018-0.034 0.039-0.065 0.063-0.094 0.031-0.036 0.070-0.058 0.115-0.072 0.010-0.003 0.021-0.004 0.032-0.005 0.022-0.001 0.043-0.001 0.065-0.001 0.203 0 0.406 0.001 0.608 0.001 0.011 0 0.021 0.002 0.032 0.004 0.001 0 0.002 0.005 0.003 0.007 0.002 0.005 0 0.010-0.005 0.014-0.025 0.017-0.052 0.028-0.079 0.041-0.285 0.137-0.569 0.275-0.853 0.415-0.024 0.012-0.049 0.023-0.073 0.034-0.002 0.001-0.006 0.001-0.008-0.001-0.005-0.003-0.008-0.008-0.007-0.013 0.018-0.079 0.039-0.157 0.064-0.234zM1.75 19.645c-0.034 0.123-0.056 0.218-0.076 0.341-0.010 0.061-0.021 0.123-0.024 0.185-0.001 0.011-0.003 0.021-0.005 0.032-0.002 0.009-0.015 0.018-0.025 0.015-0.058-0.015-0.114-0.034-0.17-0.054-0.051-0.018-0.1-0.042-0.146-0.071-0.246-0.155-0.422-0.369-0.53-0.639-0.037-0.093-0.063-0.19-0.077-0.29-0.012-0.091-0.016-0.183-0.009-0.276 0.011-0.142 0.045-0.278 0.102-0.408 0.134-0.304 0.385-0.546 0.679-0.668 0.090-0.037 0.184-0.064 0.281-0.078 0.048-0.007 0.097-0.012 0.145-0.014 0.016-0.001 0.033-0.001 0.049-0.003 0.132-0.012 0.265-0.012 0.398-0.014 0.033-0 0.065-0 0.098-0 0-0 0-0.001 0-0.001 0.19 0.001 0.379 0.001 0.569 0.002 0.014 0 0.027-0.001 0.040 0.004 0.002 0.001 0.003 0.004 0.004 0.007s0.001 0.005-0 0.007c-0.001 0.003-0.002 0.006-0.004 0.007-0.017 0.014-0.034 0.027-0.051 0.040-0.402 0.315-0.725 0.697-0.964 1.15-0.122 0.231-0.215 0.473-0.284 0.724zM8.153 20.718c-0.001 0.054-0.002 0.108-0.010 0.162-0.001 0.008-0.002 0.016-0.002 0.024-0.026 0.305-0.102 0.597-0.223 0.877-0.308 0.715-0.92 1.326-1.737 1.609-0.131 0.045-0.264 0.081-0.4 0.106-0.072 0.013-0.144 0.024-0.217 0.033-0.113 0.015-0.227 0.016-0.352 0.019-0.064-0.002-0.14-0.005-0.216-0.008-0.022-0.001-0.043-0.004-0.065-0.006-0.016-0.002-0.032-0.005-0.048-0.006-0.084-0.007-0.166-0.022-0.248-0.039-0.234-0.049-0.459-0.126-0.674-0.231-0.395-0.195-0.729-0.466-1.002-0.81-0.254-0.32-0.432-0.679-0.54-1.074-0.028-0.102-0.049-0.205-0.065-0.31-0.010-0.067-0.021-0.134-0.023-0.202-0.015-0.124-0.014-0.249-0.011-0.373 0.001-0.038 0.003-0.076 0.008-0.113 0.001-0.011 0.002-0.022 0.003-0.032 0.030-0.344 0.123-0.67 0.275-0.979 0.268-0.542 0.667-0.963 1.188-1.267 0.257-0.15 0.531-0.256 0.821-0.321 0.074-0.017 0.149-0.029 0.224-0.041 0.177-0.026 0.356-0.033 0.535-0.027 0.032 0.001 0.065 0.004 0.097 0.007 0.013 0.001 0.027 0.003 0.040 0.004 0.231 0.019 0.454 0.069 0.673 0.144 0.799 0.273 1.477 0.908 1.79 1.755 0.054 0.148 0.097 0.299 0.126 0.453 0.018 0.093 0.030 0.187 0.040 0.281 0.012 0.122 0.014 0.243 0.012 0.365zM9.76 20.292c-0.022 0.001-0.043 0.002-0.065 0.002-0.187-0.001-0.374-0.002-0.561-0.003-0.065-0-0.13-0.001-0.195-0.002-0.014-0-0.027 0-0.041-0.001-0.032-0.004-0.056-0.020-0.069-0.050-0.003-0.007-0.007-0.015-0.008-0.023-0.006-0.029-0.012-0.058-0.016-0.088-0.049-0.297-0.126-0.587-0.239-0.867-0.109-0.27-0.252-0.521-0.425-0.755-0.157-0.212-0.33-0.408-0.527-0.584-0.358-0.321-0.766-0.554-1.224-0.702-0.152-0.049-0.307-0.088-0.464-0.118-0.085-0.016-0.171-0.027-0.256-0.041-0.081-0.005-0.162-0.017-0.243-0.020-0.046-0.001-0.092-0.002-0.138-0.007-0.016-0.002-0.032-0.001-0.049-0.001-0.371 0-0.742-0.005-1.113-0.005-0.038 0-0.076 0-0.114 0 0-0 0-0.001 0-0.001-0.474 0-0.948 0-1.422-0-0.027 0-0.054 0.003-0.081-0.003-0.006-0.001-0.009-0.004-0.011-0.010-0.002-0.008-0.002-0.016 0.003-0.023 0.010-0.013 0.024-0.022 0.037-0.031 0.117-0.083 0.236-0.163 0.359-0.237 0.267-0.161 0.547-0.297 0.841-0.403 0.196-0.071 0.397-0.127 0.601-0.169 0.077-0.016 0.154-0.028 0.232-0.040 0.067-0.010 0.135-0.014 0.202-0.025 0.005-0.001 0.011-0.001 0.016-0.002 0.138-0.008 0.276-0.019 0.414-0.016 0.051 0.001 0.103 0.002 0.154 0.006 0.030 0.002 0.059 0.004 0.089 0.005 0.049 0.003 0.097 0.006 0.146 0.012 0.054 0.007 0.108 0.012 0.161 0.019 0.083 0.011 0.166 0.025 0.248 0.041 0.202 0.039 0.401 0.092 0.597 0.156 0.317 0.104 0.624 0.232 0.916 0.393 0.276 0.152 0.533 0.332 0.769 0.541 0.306 0.271 0.565 0.583 0.778 0.932 0.155 0.252 0.282 0.518 0.387 0.794 0.087 0.228 0.157 0.461 0.214 0.698 0.028 0.116 0.052 0.232 0.075 0.349 0.013 0.066 0.024 0.133 0.034 0.2 0.003 0.019 0.003 0.038 0.004 0.056 0.001 0.010-0.009 0.019-0.021 0.020zM10.141 18.623c-0.041-0.017-0.075-0.042-0.105-0.075-0.026-0.028-0.046-0.060-0.063-0.094-0.012-0.024-0.023-0.049-0.035-0.073-0.134-0.288-0.291-0.562-0.476-0.821-0.266-0.373-0.577-0.702-0.933-0.99-0.336-0.272-0.702-0.497-1.093-0.682-0.206-0.097-0.417-0.181-0.632-0.255-0.031-0.011-0.062-0.018-0.093-0.028-0.010-0.003-0.019-0.009-0.029-0.015-0.008-0.005-0.014-0.023-0.010-0.029 0.002-0.002 0.002-0.005 0.003-0.008 0.036-0.061 0.067-0.124 0.104-0.184 0.142-0.232 0.261-0.474 0.358-0.727 0.077-0.203 0.138-0.41 0.183-0.623 0.020-0.095 0.037-0.191 0.049-0.288 0.009-0.075 0.021-0.15 0.023-0.226 0-0.008 0.001-0.016 0.002-0.024 0.011-0.105 0.012-0.211 0.012-0.316-0-0.062-0-0.125-0-0.187 0-0.016 0-0.033 0.002-0.049 0.002-0.022 0.011-0.042 0.024-0.060 0.015-0.020 0.036-0.032 0.061-0.037 0.013-0.002 0.027-0.002 0.040-0.002 0.038 0.002 0.076 0.003 0.114 0.006 0.057 0.005 0.114 0.007 0.17 0.007 0.032 0 0.065 0 0.098 0 0.626-0 1.251-0.001 1.877-0.001 0.344-0 0.688-0.001 1.032-0.002 0 0 0 0 0 0 0.252-0.001 0.504-0.001 0.756-0.002 0.341-0.001 0.682-0.001 1.024-0.002 0.209-0 0.417-0.001 0.626-0.001 0.2-0 0.401-0 0.601-0.001 0.062-0 0.125 0.001 0.187 0.006 0.038 0.003 0.076 0.005 0.114 0.006 0.027 0.001 0.054 0.006 0.080 0.015 0.046 0.015 0.080 0.044 0.101 0.088 0.010 0.022 0.018 0.045 0.020 0.070 0.005 0.068 0.017 0.134 0.020 0.202 0.013 0.086 0.013 0.173 0.024 0.259 0.002 0.016 0.003 0.032 0.004 0.049 0.015 0.271 0.021 0.541 0.016 0.812-0.001 0.060-0.004 0.119-0.007 0.179-0.002 0.041-0.004 0.081-0.005 0.122-0.002 0.065-0.005 0.13-0.012 0.195-0.002 0.021-0.003 0.043-0.004 0.065-0.002 0.041-0.005 0.081-0.011 0.121-0.003 0.021-0.004 0.043-0.006 0.065-0.003 0.032-0.007 0.065-0.010 0.097-0.001 0.011-0.003 0.021-0.004 0.032-0.007 0.081-0.020 0.161-0.030 0.242-0.011 0.086-0.025 0.171-0.039 0.257-0.016 0.093-0.033 0.187-0.052 0.279-0.027 0.133-0.057 0.264-0.090 0.396-0.078 0.313-0.175 0.62-0.286 0.922-0.072 0.193-0.154 0.381-0.243 0.567-0.067 0.139-0.135 0.277-0.203 0.416-0.040 0.083-0.080 0.166-0.12 0.249-0.008 0.017-0.016 0.034-0.026 0.050-0.018 0.029-0.043 0.048-0.076 0.056-0.029 0.008-0.059 0.010-0.088 0.010-0.119-0.001-0.238-0.002-0.357-0.003-0.393-0.005-0.785-0.007-1.178-0.007-0.398-0-0.796 0.001-1.194 0.001-0.035 0-0.070-0.002-0.105-0.003s-0.069-0.013-0.102-0.026zM12.733 19.403c-0.004 0.010-0.009 0.020-0.014 0.029-0.007 0.011-0.016 0.022-0.024 0.033-0.19 0.246-0.381 0.493-0.571 0.739-0.010 0.013-0.020 0.026-0.030 0.038-0.014 0.017-0.032 0.029-0.052 0.038-0.010 0.004-0.020 0.008-0.031 0.008-0.024 0-0.049 0.001-0.073 0.001-0.458 0-0.915 0-1.373 0-0.022 0-0.043 0-0.065-0.001-0.008-0-0.016-0.002-0.024-0.004-0.012-0.002-0.025-0.016-0.027-0.027-0.006-0.043-0.012-0.086-0.018-0.129-0.007-0.056-0.014-0.113-0.022-0.169-0.010-0.072-0.020-0.145-0.029-0.217-0.007-0.056-0.016-0.113-0.024-0.169-0.007-0.054-0.015-0.107-0.022-0.161-0.001-0.011-0.003-0.022 0.002-0.032 0.002-0.004 0.007-0.008 0.011-0.011s0.010-0.003 0.016-0.003c0.027-0 0.054-0.001 0.081-0.001 0.366-0 0.731-0 1.097-0 0.368 0 0.737-0 1.105 0 0.027 0 0.054-0.003 0.081 0.003 0.006 0.001 0.009 0.005 0.010 0.011 0.002 0.008 0.001 0.016-0.002 0.024zM21.349 19.477c-0.017 0.085-0.035 0.17-0.053 0.254-0.020 0.098-0.040 0.196-0.059 0.295-0.011 0.056-0.021 0.112-0.031 0.168-0.003 0.019-0.010 0.037-0.018 0.054-0.006 0.012-0.015 0.023-0.026 0.031-0.009 0.007-0.018 0.012-0.029 0.012-0.013 0.001-0.027 0.003-0.041 0.002-0.087-0.005-0.173-0.004-0.26-0.004-1.257-0-2.514-0-3.77-0-1.325 0-2.649 0-3.974-0-0.032 0-0.065 0.003-0.097-0.003-0.003-0.004-0.007-0.008-0.008-0.013s0.001-0.011 0.003-0.015c0.022-0.040 0.047-0.079 0.073-0.117 0.080-0.119 0.16-0.238 0.239-0.358 0.072-0.109 0.141-0.218 0.212-0.327 0.012-0.018 0.023-0.037 0.036-0.054 0.011-0.015 0.025-0.028 0.042-0.038 0.012-0.007 0.024-0.013 0.037-0.015 0.019-0.003 0.038-0.005 0.056-0.007s0.038-0.001 0.057-0.001c0.477 0.001 0.953 0.002 1.43 0.003 0.314 0.001 0.628 0.002 0.943 0.002 1.712 0.001 3.424 0.001 5.136 0.002 0.030 0 0.059 0.001 0.089 0.002 0.006 0 0.016 0.010 0.017 0.015s0.002 0.011 0.003 0.016c0.003 0.033-0.001 0.065-0.007 0.097zM21.628 18.574c-0.008 0.014-0.018 0.027-0.029 0.039-0.016 0.018-0.037 0.032-0.061 0.039-0.021 0.006-0.042 0.011-0.064 0.010-0.016-0.001-0.033-0.001-0.049-0.001-0.143-0.007-0.287-0.007-0.431-0.007-0.146-0-0.293-0-0.439-0-2.132 0-4.264 0-6.396 0-0.030 0-0.060 0-0.089-0-0.008-0-0.016-0.001-0.024-0.002-0.011-0.001-0.020-0.012-0.019-0.022 0.005-0.035 0.017-0.068 0.030-0.101 0.049-0.123 0.094-0.248 0.137-0.373 0.091-0.263 0.172-0.53 0.246-0.799 0.065-0.235 0.122-0.472 0.177-0.709 0.019-0.084 0.037-0.169 0.055-0.254 0.004-0.019 0.009-0.037 0.014-0.055 0.003-0.010 0.008-0.020 0.013-0.030 0.014-0.026 0.036-0.040 0.064-0.045 0.011-0.002 0.021-0.003 0.032-0.003 0.024-0.001 0.049-0 0.073-0 0.179-0 0.358-0 0.536-0 0.022 0 0.043 0 0.065-0 0.215-0.007 0.393-0.093 0.532-0.257 0.069-0.082 0.117-0.176 0.141-0.281 0.018-0.079 0.025-0.16 0.013-0.242-0.010-0.070-0.026-0.138-0.055-0.203-0.088-0.197-0.236-0.327-0.441-0.392-0.044-0.014-0.089-0.024-0.135-0.025-0.035-0.001-0.070-0.003-0.106-0.003-0.133-0-0.265 0-0.398 0-0.011 0-0.022-0-0.032-0.001-0.008-0.001-0.016-0.003-0.024-0.006-0.019-0.007-0.032-0.020-0.036-0.040-0.002-0.013-0.004-0.027-0.004-0.040 0.004-0.073 0.005-0.146 0.012-0.219 0.001-0.011 0.002-0.022 0.003-0.032 0.007-0.116 0.014-0.232 0.022-0.349 0.003-0.043 0.006-0.086 0.009-0.13 0.003-0.041 0.005-0.081 0.007-0.122 0.003-0.049 0.006-0.097 0.009-0.146 0.001-0.008 0.002-0.016 0.002-0.024 0.005-0.154 0.020-0.308 0.024-0.463 0.002-0.062 0.002-0.125-0-0.187-0.002-0.054-0.004-0.108-0.005-0.162-0-0.016 0-0.033 0.002-0.049 0.003-0.021 0.015-0.034 0.034-0.042 0.010-0.004 0.021-0.006 0.031-0.007 0.013-0.001 0.027-0.001 0.041-0.001 1.728 0 3.457 0 5.185 0 0 0 0 0 0 0 0.956 0 1.912 0 2.869-0 0.309-0 0.618-0.004 0.926-0.005 0.284-0.002 0.569-0.003 0.853-0 0.062 0.001 0.125 0.002 0.187 0.002 0.122 0.001 0.244 0.008 0.365 0.016 0.067 0.005 0.135 0.012 0.202 0.024 0.040 0.007 0.080 0.012 0.12 0.019 0.171 0.029 0.339 0.072 0.504 0.124 0.243 0.077 0.477 0.176 0.705 0.29 0.077 0.039 0.154 0.079 0.229 0.122 0.009 0.005 0.019 0.011 0.027 0.018 0.004 0.003 0.007 0.010 0.006 0.014s-0.007 0.009-0.011 0.010c-0.008 0.003-0.016 0.004-0.024 0.005-0.035 0.002-0.070 0.004-0.106 0.005-0.054 0.002-0.108 0.004-0.162 0.010-0.027 0.003-0.054 0.004-0.081 0.006-0.065 0.006-0.129 0.016-0.192 0.033-0.133 0.037-0.251 0.1-0.35 0.198-0.113 0.112-0.182 0.247-0.211 0.404-0.013 0.070-0.017 0.14-0.012 0.21 0.020 0.281 0.167 0.502 0.382 0.626 0.081 0.046 0.167 0.077 0.258 0.093 0.051 0.009 0.102 0.013 0.154 0.013 0.255 0.001 0.509 0.003 0.764 0.003 0.358-0 0.715-0.002 1.073-0.003 0.027-0 0.054 0 0.081 0 0.022 0 0.043 0.007 0.062 0.016s0.036 0.025 0.047 0.044c0.008 0.014 0.015 0.029 0.021 0.044 0.082 0.194 0.164 0.389 0.247 0.583 0.018 0.043 0.030 0.087 0.040 0.132 0.001 0.004-0.003 0.011-0.007 0.013-0.007 0.004-0.015 0.005-0.023 0.006-0.078 0.003-0.157 0.005-0.236 0.007-0.043 0.001-0.087 0.001-0.13 0.001-0.082-0-0.162-0.015-0.239-0.042-0.079-0.028-0.158-0.055-0.238-0.083-0.138-0.049-0.275-0.099-0.414-0.144-0.175-0.057-0.353-0.105-0.533-0.141-0.074-0.015-0.149-0.029-0.224-0.041-0.056-0.009-0.112-0.020-0.169-0.024-0.072-0.014-0.146-0.014-0.218-0.025-0.008-0.001-0.016-0.002-0.024-0.002-0.176-0.010-0.352-0.022-0.528-0.016-0.041 0.001-0.081 0.003-0.122 0.005-0.035 0.002-0.070 0.004-0.105 0.006-0.051 0.003-0.103 0.005-0.154 0.012-0.008 0.001-0.016 0.002-0.024 0.002-0.119 0.010-0.237 0.027-0.354 0.047-0.3 0.050-0.593 0.127-0.878 0.23-0.537 0.193-1.029 0.469-1.474 0.826-0.522 0.419-0.945 0.921-1.277 1.501-0.093 0.162-0.18 0.327-0.258 0.497-0.007 0.015-0.013 0.030-0.021 0.044zM29.348 20.82c-0.001 0.027-0.004 0.054-0.007 0.081-0.002 0.016-0.004 0.032-0.005 0.048-0.006 0.087-0.021 0.172-0.038 0.257-0.041 0.202-0.102 0.398-0.184 0.588-0.277 0.637-0.768 1.141-1.363 1.44-0.221 0.111-0.453 0.193-0.695 0.246-0.079 0.017-0.159 0.032-0.24 0.043-0.138 0.019-0.256 0.025-0.434 0.025-0.039-0.002-0.114-0.003-0.19-0.008-0.065-0.004-0.129-0.013-0.194-0.023s-0.128-0.022-0.192-0.036c-0.247-0.054-0.483-0.141-0.707-0.258-0.59-0.308-1.062-0.811-1.332-1.418-0.080-0.179-0.14-0.363-0.183-0.554-0.017-0.077-0.030-0.154-0.041-0.232-0.012-0.083-0.018-0.167-0.023-0.251-0.007-0.111-0.007-0.222 0.004-0.333 0.001-0.011 0.002-0.022 0.003-0.032 0.025-0.353 0.117-0.688 0.269-1.006 0.333-0.697 0.915-1.22 1.587-1.487 0.166-0.066 0.338-0.117 0.513-0.151 0.093-0.018 0.187-0.034 0.281-0.039 0.121-0.016 0.243-0.014 0.365-0.012 0.043 0.001 0.087 0.003 0.13 0.009 0.011 0.001 0.022 0.002 0.032 0.003 0.277 0.023 0.545 0.088 0.803 0.191 0.835 0.331 1.462 1.031 1.716 1.859 0.038 0.124 0.068 0.251 0.090 0.379 0.010 0.059 0.020 0.117 0.023 0.177 0.021 0.165 0.018 0.33 0.012 0.495zM30.969 20.274c-0.002 0.004-0.007 0.009-0.011 0.011-0.013 0.005-0.027 0.004-0.040 0.004-0.111-0-0.222-0-0.333-0-0.022-0-0.043 0-0.065 0-0.13-0.002-0.26-0.003-0.39 0-0.014 0-0.027 0.001-0.041-0.001-0.029-0.003-0.051-0.018-0.062-0.045-0.004-0.010-0.008-0.020-0.009-0.031-0.009-0.070-0.019-0.139-0.031-0.209-0.021-0.123-0.048-0.244-0.081-0.364-0.090-0.329-0.224-0.638-0.407-0.926-0.333-0.525-0.771-0.94-1.316-1.24-0.238-0.131-0.49-0.23-0.752-0.301-0.131-0.035-0.263-0.062-0.397-0.085-0.102-0.017-0.204-0.028-0.306-0.041-0.019-0.002-0.038-0.003-0.057-0.004-0.051-0.003-0.103-0.006-0.154-0.009-0.1-0.005-0.2-0.005-0.3 0.001-0.019 0.001-0.038 0.003-0.057 0.004-0.084 0.002-0.167 0.013-0.251 0.023-0.070 0.008-0.139 0.020-0.208 0.034-0.165 0.033-0.326 0.078-0.484 0.136-0.258 0.094-0.501 0.219-0.729 0.371-0.215 0.143-0.412 0.307-0.597 0.488-0.159 0.156-0.303 0.324-0.43 0.508-0.226 0.326-0.388 0.681-0.485 1.066-0.026 0.105-0.048 0.211-0.065 0.318-0.012 0.075-0.021 0.15-0.030 0.225-0.002 0.016-0.005 0.032-0.013 0.047-0.012 0.023-0.031 0.037-0.057 0.040-0.016 0.002-0.032 0.002-0.049 0.002-0.249-0.001-0.498-0.003-0.748-0.004-0.035-0-0.070-0.001-0.104-0.014-0.009-0.003-0.018-0.015-0.016-0.025 0.005-0.043 0.008-0.086 0.015-0.129 0.013-0.083 0.025-0.166 0.040-0.249 0.016-0.088 0.034-0.175 0.054-0.262 0.087-0.379 0.213-0.744 0.39-1.091 0.245-0.482 0.571-0.899 0.979-1.253 0.123-0.107 0.251-0.206 0.385-0.298 0.291-0.2 0.595-0.375 0.918-0.519 0.248-0.11 0.503-0.199 0.766-0.265 0.121-0.030 0.243-0.056 0.366-0.073 0.058-0.013 0.118-0.015 0.177-0.025 0.016-0.003 0.032-0.003 0.049-0.005 0.022-0.002 0.043-0.002 0.065-0.005 0.067-0.009 0.135-0.011 0.203-0.012 0.098-0.003 0.195-0.002 0.293 0 0.062 0.002 0.125 0.004 0.186 0.012 0.021 0.003 0.043 0.003 0.065 0.005 0.027 0.003 0.054 0.005 0.081 0.009 0.051 0.007 0.102 0.013 0.153 0.021 0.104 0.016 0.208 0.037 0.311 0.060 0.395 0.091 0.771 0.236 1.132 0.419 0.196 0.099 0.385 0.21 0.565 0.337 0.464 0.326 0.85 0.729 1.16 1.203 0.27 0.413 0.469 0.859 0.597 1.336 0.032 0.12 0.059 0.242 0.080 0.365 0.017 0.101 0.033 0.203 0.040 0.306 0.003 0.038 0.007 0.075 0.010 0.113 0.001 0.008-0.001 0.016-0.004 0.024zM30.972 17.921c-0 0.006-0.003 0.010-0.008 0.013-0.007 0.003-0.015 0.001-0.021-0.007-0.012-0.015-0.023-0.030-0.034-0.045-0.074-0.1-0.148-0.2-0.222-0.3-0.158-0.213-0.329-0.416-0.513-0.607-0.083-0.086-0.165-0.172-0.247-0.258-0.011-0.012-0.023-0.023-0.031-0.037 0.002-0.004 0.003-0.012 0.007-0.013 0.007-0.003 0.016-0.004 0.024-0.004 0.082-0.001 0.161 0.018 0.238 0.045 0.090 0.032 0.172 0.078 0.25 0.133 0.138 0.099 0.252 0.221 0.346 0.361 0.077 0.115 0.137 0.239 0.175 0.373 0.026 0.091 0.043 0.184 0.042 0.28-0.001 0.022-0.002 0.043-0.003 0.065z"></path>
<path d="M29.178 13.531c0.019 0.001 0.038 0.001 0.057 0.002 0-0.001 0-0.001 0-0.002 0.016 0 0.032-0 0.049 0 0.005 0 0.011 0.001 0.016 0.002s0.015 0.010 0.016 0.016c0.004 0.030 0.001 0.059 0.001 0.089 0.001 0.035 0.006 0.070 0.015 0.104 0.014 0.048 0.039 0.089 0.077 0.122 0.022 0.020 0.048 0.036 0.074 0.049 0.029 0.015 0.059 0.026 0.090 0.037 0.015 0.005 0.031 0.010 0.046 0.015 0.008 0.002 0.015 0.006 0.023 0.008 0.006 0.002 0.013 0.012 0.013 0.019-0 0.027-0 0.054-0 0.081-0 0.044 0.005 0.086 0.021 0.127 0.020 0.054 0.052 0.101 0.096 0.139 0.038 0.032 0.081 0.054 0.13 0.065 0.051 0.011 0.102 0.010 0.153-0.004 0.031-0.009 0.062-0.019 0.093-0.030 0.263-0.091 0.523-0.192 0.782-0.296 0.013-0.005 0.025-0.010 0.037-0.016 0.047-0.023 0.086-0.057 0.114-0.101 0.036-0.056 0.053-0.118 0.053-0.185 0-0.025-0.005-0.048-0.011-0.072-0.020-0.088-0.068-0.158-0.145-0.207-0.035-0.022-0.073-0.037-0.113-0.043-0.046-0.006-0.092-0.004-0.137 0.007-0.047 0.012-0.093 0.028-0.139 0.045-0.147 0.054-0.294 0.109-0.442 0.164-0.010 0.004-0.020 0.008-0.030 0.011-0.005 0.002-0.011 0.003-0.016 0.003s-0.010-0.002-0.012-0.007c-0.001-0.002-0.001-0.006-0-0.008 0.013-0.024 0.032-0.044 0.051-0.063 0.085-0.084 0.169-0.168 0.254-0.252 0.055-0.056 0.11-0.112 0.165-0.168 0.017-0.018 0.033-0.036 0.047-0.056 0.060-0.088 0.078-0.183 0.047-0.286-0.029-0.094-0.090-0.159-0.178-0.2-0.042-0.020-0.088-0.027-0.134-0.030-0.005-0-0.011-0-0.016 0-0.061 0.004-0.117 0.021-0.167 0.056-0.022 0.015-0.044 0.032-0.063 0.051-0.014 0.013-0.027 0.027-0.040 0.040-0.138 0.138-0.276 0.276-0.413 0.414-0.011 0.011-0.023 0.023-0.035 0.034-0.004 0.004-0.009 0.006-0.014 0.008-0.006 0.004-0.010 0.002-0.011-0.006s-0.001-0.016 0.003-0.024c0.033-0.074 0.066-0.149 0.099-0.222 0.055-0.121 0.111-0.241 0.163-0.363 0.012-0.027 0.024-0.055 0.034-0.082 0.023-0.062 0.030-0.126 0.012-0.191-0.028-0.107-0.093-0.181-0.194-0.225-0.030-0.013-0.062-0.018-0.094-0.023-0.044-0.006-0.087-0.001-0.129 0.012-0.078 0.024-0.139 0.071-0.179 0.143-0.008 0.014-0.015 0.029-0.022 0.043-0.078 0.161-0.154 0.322-0.227 0.485-0.044 0.099-0.086 0.199-0.128 0.298-0.011 0.025-0.020 0.050-0.027 0.076-0.019 0.074-0.014 0.145 0.019 0.214 0.058 0.122 0.18 0.178 0.27 0.183z"></path>
<path d="M20.114 23.568c-0.016-0.010-0.033-0.018-0.051-0.025-0.043-0.017-0.087-0.029-0.134-0.033-0.065-0.006-0.13-0.009-0.195-0.009-0.306-0-0.612-0.001-0.918-0.001-1.287-0-2.574-0-3.86-0.001-0.366-0-0.731 0-1.097 0 0 0 0 0 0 0.001-1.054 0-2.108-0-3.162 0-0.577 0-1.154 0-1.731 0.001-0.328 0-0.656 0.001-0.983 0.001-0.024 0-0.049-0-0.073 0.001-0.038 0.002-0.076 0.004-0.114 0.006-0.052 0.004-0.102 0.016-0.15 0.033-0.112 0.041-0.174 0.123-0.193 0.24-0.008 0.046-0.006 0.092 0.001 0.138 0.016 0.101 0.068 0.175 0.163 0.217 0.022 0.010 0.046 0.017 0.069 0.023 0.079 0.020 0.159 0.032 0.241 0.032 0.019 0 0.038 0 0.057 0 0.566 0 1.132 0.001 1.699 0.001 0.707 0 1.414 0 2.121 0 2.102-0 4.204-0 6.307-0 0.545-0 1.089-0 1.634 0 0.073 0 0.146-0.003 0.219-0.015 0.030-0.005 0.058-0.012 0.087-0.021 0.031-0.010 0.060-0.025 0.087-0.044 0.055-0.040 0.091-0.093 0.108-0.157 0.017-0.063 0.020-0.128 0.006-0.193-0.018-0.084-0.062-0.149-0.136-0.193z"></path>
<path d="M24.052 23.762c-0.018-0.096-0.070-0.169-0.158-0.214-0.041-0.021-0.085-0.035-0.131-0.040-0.062-0.007-0.124-0.008-0.187-0.008-0.192-0-0.385-0.001-0.577-0.001-0.425 0-0.85 0.001-1.276 0-0.054 0-0.108 0.004-0.162 0.010-0.052 0.005-0.101 0.022-0.146 0.047-0.083 0.047-0.13 0.12-0.146 0.213-0.010 0.054-0.009 0.108 0 0.162 0.015 0.085 0.056 0.151 0.13 0.197 0.021 0.013 0.043 0.024 0.066 0.032 0.049 0.017 0.099 0.028 0.151 0.030 0.041 0.002 0.081 0.001 0.122 0.002 0.306 0 0.612 0 0.918 0 0-0 0-0 0-0 0.317 0 0.634 0 0.951 0 0.019 0 0.038-0.001 0.057-0 0.049 0.001 0.097-0.008 0.145-0.018 0.040-0.009 0.078-0.024 0.112-0.045 0.052-0.033 0.091-0.076 0.113-0.134 0.023-0.059 0.031-0.12 0.025-0.183-0.002-0.016-0.004-0.032-0.007-0.048z"></path>
<path d="M28.39 20.445c-0.001-0.041-0.010-0.081-0.014-0.121-0.007-0.070-0.022-0.139-0.039-0.207-0.077-0.305-0.22-0.575-0.431-0.809-0.216-0.24-0.477-0.416-0.779-0.529-0.168-0.063-0.342-0.104-0.521-0.117-0.011-0.001-0.022-0.002-0.032-0.003-0.081-0.008-0.162-0.008-0.243 0-0.016 0.002-0.032 0.003-0.049 0.004-0.090 0.005-0.178 0.021-0.265 0.040-0.221 0.050-0.428 0.135-0.621 0.254-0.398 0.247-0.785 0.681-0.902 1.314-0.011 0.061-0.021 0.123-0.023 0.185-0.001 0.030-0.003 0.059-0.005 0.089-0.005 0.095 0.001 0.19 0.011 0.284 0.009 0.081 0.023 0.161 0.042 0.24 0.051 0.218 0.134 0.423 0.25 0.614 0.102 0.168 0.226 0.318 0.374 0.447 0.266 0.233 0.576 0.372 0.922 0.432 0.102 0.018 0.204 0.026 0.307 0.030 0.13 0.006 0.26-0.004 0.389-0.023 0.102-0.015 0.202-0.038 0.3-0.070 0.31-0.099 0.582-0.262 0.809-0.495 0.26-0.268 0.423-0.586 0.491-0.953 0.008-0.043 0.012-0.086 0.019-0.129 0.008-0.051 0.011-0.102 0.011-0.154 0.001-0.043 0-0.087 0-0.13 0.001 0 0.002-0 0.003-0-0.002-0.065-0.003-0.13-0.005-0.195zM27.722 20.737c-0.052 0.561-0.425 0.959-0.855 1.104-0.1 0.034-0.203 0.057-0.309 0.063-0.038 0.002-0.076 0.004-0.099 0.005-0.074-0.001-0.134-0.004-0.193-0.011-0.52-0.069-0.866-0.401-1.013-0.796-0.030-0.081-0.053-0.165-0.067-0.25-0.024-0.137-0.027-0.275-0.011-0.412 0.013-0.111 0.044-0.217 0.087-0.32 0.134-0.317 0.405-0.584 0.764-0.705 0.074-0.025 0.151-0.042 0.229-0.054 0.102-0.016 0.205-0.017 0.308-0.008 0.133 0.012 0.261 0.044 0.384 0.097 0.359 0.154 0.613 0.45 0.721 0.791 0.020 0.062 0.033 0.125 0.044 0.189 0.017 0.102 0.016 0.205 0.011 0.308z"></path>
<path d="M29.189 20.467c-0.001-0.022-0.003-0.043-0.005-0.065-0.004-0.032-0.010-0.064-0.016-0.096-0.024-0.13-0.049-0.261-0.079-0.39-0.016-0.068-0.034-0.137-0.056-0.204-0.142-0.431-0.379-0.801-0.712-1.109-0.178-0.164-0.375-0.303-0.585-0.421-0.007-0.004-0.014-0.008-0.021-0.011-0.031-0.017-0.065-0.028-0.099-0.036s-0.070-0.009-0.105-0.002c-0.079 0.015-0.148 0.052-0.203 0.111-0.034 0.037-0.057 0.080-0.068 0.128-0.014 0.059-0.013 0.118-0 0.177 0.002 0.008 0.005 0.015 0.007 0.023 0.015 0.044 0.041 0.082 0.074 0.115 0.027 0.027 0.057 0.050 0.089 0.070 0.027 0.018 0.055 0.034 0.083 0.051 0.143 0.088 0.278 0.189 0.4 0.305 0.323 0.307 0.521 0.68 0.598 1.119 0.008 0.048 0.014 0.096 0.021 0.145 0.005 0.035 0.008 0.070 0.010 0.105 0.002 0.032 0.003 0.065 0.004 0.097s0.005 0.065 0.010 0.097c0.005 0.041 0.019 0.079 0.039 0.115 0.036 0.067 0.090 0.114 0.162 0.14 0.026 0.009 0.053 0.012 0.079 0.016 0.046 0.006 0.093 0.001 0.137-0.012 0.1-0.028 0.171-0.091 0.21-0.188 0.014-0.035 0.024-0.072 0.026-0.11 0.001-0.032 0.002-0.065 0.003-0.097-0 0-0.001 0-0.001-0 0-0.024 0.001-0.049-0-0.073z"></path>
<path d="M7.019 21.487c0.099-0.201 0.161-0.413 0.188-0.635 0.009-0.073 0.011-0.146 0.012-0.23-0.003-0.084-0.006-0.178-0.020-0.273-0.014-0.091-0.033-0.181-0.059-0.269-0.198-0.662-0.717-1.154-1.329-1.341-0.13-0.040-0.262-0.067-0.398-0.076-0.011-0.001-0.022-0.002-0.032-0.003-0.057-0.007-0.114-0.008-0.17-0.006-0.087 0.004-0.173 0.010-0.259 0.023-0.091 0.014-0.181 0.034-0.269 0.060-0.574 0.174-1.008 0.583-1.235 1.058-0.074 0.155-0.127 0.316-0.158 0.485-0.008 0.043-0.012 0.086-0.019 0.129s-0.010 0.086-0.010 0.129c-0.001 0.032-0.001 0.065-0.001 0.097-0.002 0.125 0.013 0.249 0.038 0.371 0.038 0.187 0.102 0.365 0.191 0.533 0.264 0.5 0.725 0.862 1.242 1.001 0.121 0.032 0.243 0.055 0.368 0.061 0.014 0.001 0.027 0.002 0.041 0.002 0.144 0.009 0.287-0.001 0.429-0.025 0.109-0.019 0.217-0.047 0.322-0.085 0.521-0.186 0.915-0.57 1.129-1.007zM6.516 20.725c-0.021 0.356-0.204 0.713-0.51 0.941-0.139 0.103-0.292 0.175-0.461 0.213-0.102 0.023-0.186 0.029-0.303 0.029-0.039-0.003-0.090-0.003-0.141-0.010-0.333-0.041-0.616-0.177-0.839-0.432-0.116-0.133-0.197-0.285-0.248-0.452s-0.068-0.34-0.051-0.514c0.023-0.243 0.109-0.463 0.258-0.656 0.178-0.23 0.41-0.383 0.691-0.458 0.094-0.025 0.191-0.040 0.289-0.040 0.035 0 0.070-0.001 0.106 0.001 0.447 0.024 0.833 0.264 1.044 0.635 0.073 0.128 0.122 0.265 0.147 0.41 0.019 0.11 0.024 0.22 0.018 0.332z"></path>
<path d="M8.024 20.409c-0.003-0.054-0.009-0.108-0.014-0.162-0.003-0.030-0.011-0.059-0.020-0.087-0.040-0.117-0.15-0.203-0.273-0.213-0.024-0.002-0.049-0.002-0.073-0-0.056 0.004-0.106 0.022-0.151 0.054-0.085 0.060-0.132 0.141-0.138 0.246-0.001 0.024-0.001 0.049 0 0.073 0.002 0.043 0.004 0.087 0.008 0.13 0.006 0.059 0.008 0.119 0.008 0.178 0 0.073-0.003 0.146-0.010 0.219-0.008 0.084-0.019 0.167-0.036 0.249-0.025 0.122-0.061 0.241-0.109 0.357-0.085 0.205-0.202 0.388-0.349 0.554-0.083 0.093-0.172 0.18-0.269 0.259-0.027 0.022-0.055 0.044-0.082 0.067-0.044 0.037-0.080 0.081-0.105 0.133-0.021 0.042-0.033 0.086-0.033 0.133 0 0.019 0.001 0.038 0.003 0.057 0.001 0.011 0.003 0.021 0.006 0.032 0.016 0.056 0.044 0.105 0.085 0.146 0.059 0.061 0.131 0.095 0.216 0.098 0.035 0.001 0.071-0.001 0.105-0.011 0.039-0.011 0.076-0.028 0.11-0.051 0.016-0.011 0.031-0.022 0.046-0.034 0.118-0.091 0.229-0.19 0.333-0.297 0.361-0.375 0.588-0.82 0.691-1.329 0.016-0.080 0.028-0.16 0.039-0.24 0.012-0.089 0.016-0.178 0.024-0.267 0.001-0.016 0.001-0.032 0.001-0.038 0.001-0.046-0.002-0.081-0.004-0.116-0.004-0.046-0.008-0.092-0.010-0.138z"></path>
<path d="M26.409 20.29c-0.064-0.002-0.125 0.017-0.18 0.055-0.093 0.064-0.139 0.155-0.145 0.267-0.002 0.033 0.003 0.064 0.011 0.096 0.012 0.045 0.031 0.087 0.060 0.123 0.070 0.086 0.163 0.122 0.272 0.118 0.030-0.001 0.059-0.004 0.088-0.014 0.12-0.040 0.195-0.12 0.223-0.245 0.014-0.063 0.008-0.124-0.014-0.183-0.052-0.139-0.187-0.221-0.316-0.217z"></path>
<path d="M5.465 20.392c-0.065-0.068-0.145-0.102-0.255-0.103-0.036-0.002-0.085 0.010-0.132 0.033-0.14 0.068-0.21 0.23-0.179 0.365 0.019 0.086 0.063 0.154 0.135 0.204 0.045 0.032 0.096 0.049 0.151 0.055 0.058 0.006 0.113 0 0.167-0.022 0.112-0.045 0.177-0.13 0.198-0.247 0.009-0.051 0.005-0.102-0.010-0.152s-0.038-0.095-0.074-0.133z"></path>
</svg>
