<svg xmlns="http://www.w3.org/2000/svg" viewBox="0 0 512 512">
	<path d="M496.645 170.667H336.314V10.432C336.314 4.889 331.522 0 325.978 0H185.429c-5.544 0-9.743 4.889-9.743 10.432v160.234H14.762c-5.544 0-9.743 4.889-9.743 10.432v140.549c0 5.544 4.199 9.646 9.743 9.646h160.924v171.06c0 5.544 4.199 9.646 9.743 9.646h140.549c5.544 0 10.336-4.102 10.336-9.646v-171.06h160.331c5.544 0 10.336-4.102 10.336-9.646V181.099c-.001-5.544-4.792-10.432-10.336-10.432zm-9.743 140.549H325.978c-5.544 0-9.743 4.889-9.743 10.432v170.273h-120.47V321.648c0-5.544-4.792-10.432-10.336-10.432H25.098V190.745h160.331c5.544 0 10.336-4.102 10.336-9.646V20.078h120.471v161.021c0 5.544 4.199 9.646 9.743 9.646h160.924v120.471z"/>
</svg>