<?xml version="1.0" encoding="utf-8"?>
<!-- Generated by IcoMoon.io -->
<!DOCTYPE svg PUBLIC "-//W3C//DTD SVG 1.1//EN" "http://www.w3.org/Graphics/SVG/1.1/DTD/svg11.dtd">
<svg version="1.1" xmlns="http://www.w3.org/2000/svg" xmlns:xlink="http://www.w3.org/1999/xlink" width="32" height="32" viewBox="0 0 32 32">
<path d="M28.618 15.198c-0.121-0.171-0.285-0.312-0.436-0.461-1.011-1.005-2.023-2.010-3.036-3.013-0.251-0.249-0.51-0.489-0.759-0.727 0.044-0.078 0.073-0.123 0.096-0.171 0.235-0.481 0.4-0.981 0.424-1.521 0.003-0.056 0.004-0.114 0.018-0.168 0.042-0.158-0.002-0.291-0.113-0.404-0.482-0.486-0.964-0.972-1.447-1.456-1.356-1.356-2.714-2.711-4.071-4.067-0.239-0.239-0.625-0.306-0.939-0.152-0.202 0.099-0.311 0.247-0.376 0.455-0.093 0.297-0.050 0.577 0.158 0.788 1.204 1.218 2.421 2.424 3.633 3.634 0.437 0.436 0.874 0.87 1.308 1.309 0.033 0.033 0.066 0.104 0.052 0.138-0.056 0.133-0.142 0.254-0.196 0.388-0.055 0.137-0.11 0.101-0.186 0.026-1.551-1.555-3.099-3.113-4.656-4.661-0.208-0.207-0.376-0.468-0.692-0.556-0.327-0.091-0.654-0.021-0.838 0.208-0.272 0.34-0.285 0.774 0.044 1.105 1.397 1.407 2.803 2.805 4.209 4.203 0.307 0.305 0.626 0.599 0.951 0.909-0.143 0.082-0.24 0.139-0.337 0.194-0.216 0.121-0.267 0.12-0.389-0.002-1.588-1.589-3.177-3.176-4.764-4.767-0.182-0.183-0.382-0.315-0.647-0.321-0.228-0.006-0.454 0.038-0.606 0.211-0.293 0.333-0.276 0.846 0.054 1.172 1.146 1.131 2.282 2.272 3.421 3.41 0.697 0.696 1.394 1.39 2.086 2.090 0.076 0.077 0.153 0.115 0.256 0.102 0.281-0.035 0.563-0.071 0.844-0.107 0.365-0.047 0.697-0.197 1.019-0.361 0.104-0.053 0.147-0.024 0.207 0.038 0.281 0.29 0.559 0.583 0.843 0.87 0.472 0.478 0.947 0.954 1.423 1.427 0.591 0.587 1.188 1.169 1.777 1.758 0.314 0.314 0.904 0.367 1.269 0.184 0.321-0.161 0.512-0.406 0.597-0.765s-0.007-0.661-0.204-0.938zM23.082 11.703c-0.33 0.269-0.682 0.506-1.092 0.637-0.188 0.060-0.386 0.094-0.581 0.132-0.133 0.026-0.268 0.045-0.402 0.050-0.055 0.002-0.127-0.026-0.167-0.065-1.794-1.789-3.585-3.581-5.377-5.373-0.14-0.14-0.144-0.226-0.037-0.349 0.098-0.112 0.198-0.132 0.322-0.006 0.711 0.719 1.429 1.432 2.144 2.147 0.981 0.981 1.963 1.961 2.942 2.944 0.128 0.128 0.282 0.119 0.417 0.069 0.398-0.147 0.768-0.35 1.106-0.61 0.13-0.1 0.141-0.271 0.008-0.408-0.349-0.357-0.702-0.711-1.055-1.065-1.421-1.419-2.842-2.838-4.263-4.257-0.144-0.144-0.166-0.251-0.079-0.356 0.116-0.142 0.215-0.149 0.342-0.022 0.422 0.423 0.841 0.849 1.263 1.271 1.341 1.342 2.683 2.684 4.026 4.025 0.081 0.081 0.176 0.135 0.302 0.146 0.201 0.017 0.268-0.141 0.335-0.261 0.188-0.334 0.358-0.679 0.518-1.027 0.060-0.132-0.026-0.252-0.12-0.346-0.649-0.648-1.3-1.292-1.948-1.941-1.034-1.034-2.066-2.070-3.099-3.105-0.116-0.117-0.126-0.236-0.031-0.336s0.227-0.098 0.347 0.023c0.542 0.548 1.091 1.088 1.635 1.633 1.235 1.235 2.466 2.474 3.706 3.703 0.121 0.12 0.090 0.238 0.098 0.419-0.053 0.53-0.228 1.065-0.567 1.548-0.202 0.288-0.422 0.557-0.694 0.779zM23.806 12.764c-0.154-0.17-0.312-0.336-0.452-0.485 0.222-0.237 0.457-0.481 0.684-0.732 0.059-0.065 0.088-0.057 0.141 0.001 0.159 0.171 0.322 0.338 0.488 0.51-0.233 0.234-0.476 0.477-0.716 0.722-0.061 0.062-0.097 0.039-0.145-0.015zM26.843 15.66c-0.085 0.091-0.126 0.015-0.166-0.025-0.499-0.496-0.994-0.995-1.492-1.493-0.258-0.258-0.515-0.517-0.778-0.77-0.091-0.088-0.090-0.144 0.004-0.233 0.228-0.219 0.444-0.45 0.667-0.679 0.835 0.835 1.655 1.656 2.476 2.477-0.237 0.239-0.48 0.475-0.711 0.723zM28.085 16.331c-0.301 0.25-0.606 0.185-0.859-0.15 0.244-0.292 0.481-0.576 0.724-0.867 0.434 0.44 0.463 0.745 0.135 1.017z"></path>
<path d="M15.31 27.509c-0.662-0.668-1.327-1.333-1.99-2-0.277-0.28-0.547-0.567-0.827-0.844-0.275-0.273-0.56-0.536-0.837-0.807-0.024-0.023-0.049-0.075-0.039-0.099 0.056-0.14 0.133-0.271 0.183-0.413 0.075-0.211 0.138-0.428 0.197-0.644 0.035-0.129 0.060-0.262 0.079-0.395 0.045-0.314 0.101-0.61-0.191-0.876-0.622-0.566-1.203-1.178-1.826-1.743-0.309-0.28-0.666-0.513-1.018-0.741-0.647-0.418-1.345-0.739-2.077-0.974-0.443-0.142-0.898-0.253-1.355-0.339-0.413-0.078-0.835-0.102-1.253-0.15-0.001 0.005-0.002 0.009-0.003 0.014-0.118 0-0.236-0.001-0.353 0-0.112 0.001-0.23 0-0.28 0.128-0.026 0.066-0.047 0.141-0.042 0.21 0.030 0.387 0.066 0.774 0.104 1.161 0.019 0.19 0.031 0.384 0.073 0.569 0.078 0.341 0.165 0.681 0.27 1.015 0.112 0.354 0.224 0.711 0.381 1.045 0.211 0.451 0.441 0.897 0.707 1.317 0.255 0.404 0.535 0.799 0.856 1.151 0.541 0.592 1.119 1.151 1.693 1.713 0.076 0.074 0.217 0.116 0.326 0.113 0.218-0.006 0.434-0.056 0.651-0.085 0.396-0.053 0.767-0.193 1.124-0.362 0.119-0.056 0.179-0.042 0.259 0.039 0.578 0.585 1.156 1.17 1.737 1.753 0.76 0.763 1.516 1.529 2.287 2.281 0.306 0.298 0.784 0.375 1.186 0.211 0.329-0.135 0.551-0.363 0.645-0.708 0.097-0.354 0.070-0.699-0.153-0.996-0.148-0.198-0.337-0.367-0.513-0.544zM9.047 25.229c-0.28 0.034-0.56 0.075-0.841 0.097-0.071 0.006-0.167-0.030-0.218-0.081-0.411-0.405-0.825-0.808-1.218-1.23-0.444-0.476-0.852-0.981-1.19-1.544-0.267-0.444-0.508-0.897-0.697-1.375-0.148-0.376-0.252-0.77-0.361-1.16-0.145-0.523-0.226-1.056-0.237-1.6-0.001-0.077-0.027-0.154-0.047-0.267 0.217 0.009 0.412 0.016 0.606 0.028 0.055 0.003 0.109 0.021 0.164 0.031 0.325 0.055 0.654 0.092 0.973 0.169 0.407 0.099 0.818 0.199 1.204 0.355 0.48 0.194 0.951 0.418 1.398 0.678 0.499 0.29 0.973 0.624 1.387 1.035 0.506 0.502 1.025 0.991 1.521 1.504 0.068 0.070 0.048 0.244 0.036 0.367-0.017 0.17-0.064 0.336-0.101 0.504-0.006 0.029-0.026 0.055-0.040 0.082-0.029-0.015-0.064-0.024-0.086-0.046-0.147-0.139-0.29-0.281-0.435-0.421-0.205-0.198-0.446-0.319-0.727-0.383-0.632-0.145-1.17 0.017-1.616 0.473-0.223 0.227-0.32 0.52-0.387 0.832-0.049 0.231-0.023 0.451 0.022 0.666 0.067 0.316 0.23 0.59 0.472 0.813 0.145 0.134 0.281 0.277 0.421 0.416-0.001 0.019-0.003 0.038-0.004 0.057zM10.299 24.477c-0.185 0.145-0.384 0.272-0.574 0.412-0.075 0.055-0.128 0.044-0.189-0.021-0.233-0.248-0.487-0.479-0.7-0.744-0.228-0.285-0.254-0.744-0.044-1.081 0.161-0.259 0.369-0.461 0.657-0.543 0.404-0.115 0.763 0.004 1.067 0.289 0.216 0.202 0.43 0.407 0.644 0.61-0.25 0.415-0.498 0.795-0.861 1.079zM10.569 25.17c-0.066-0.059-0.063-0.091 0.002-0.152 0.245-0.23 0.483-0.468 0.717-0.696 0.157 0.15 0.323 0.315 0.496 0.471 0.070 0.063 0.056 0.098-0.003 0.155-0.242 0.232-0.479 0.468-0.711 0.694-0.167-0.159-0.331-0.32-0.502-0.474zM13.958 28.555c-0.834-0.835-1.651-1.652-2.491-2.492 0.251-0.244 0.499-0.488 0.755-0.722 0.021-0.019 0.118 0.012 0.154 0.047 0.423 0.417 0.841 0.84 1.261 1.261 0.33 0.331 0.658 0.665 0.994 0.991 0.093 0.091 0.106 0.141 0.002 0.237-0.231 0.215-0.447 0.448-0.674 0.678zM15.275 29.15c-0.199 0.193-0.543 0.187-0.733-0.011-0.184-0.192-0.189-0.186-0.003-0.375 0.101-0.103 0.2-0.207 0.298-0.312 0.095-0.101 0.188-0.204 0.279-0.303 0.194 0.126 0.319 0.284 0.37 0.479 0.055 0.213-0.068 0.383-0.211 0.522z"></path>
<path d="M21.445 21.387c-1.896-1.896-3.793-3.792-5.69-5.688-0.801-0.8-1.603-1.6-2.396-2.391 0.185-0.192 0.369-0.372 0.536-0.565 0.062-0.071 0.13-0.182 0.117-0.262-0.026-0.166-0.099-0.325-0.16-0.484-0.163-0.422-0.333-0.842-0.493-1.265-0.156-0.412-0.304-0.827-0.454-1.24-0.136-0.374-0.268-0.749-0.407-1.121-0.126-0.337-0.264-0.67-0.391-1.006-0.137-0.363-0.265-0.729-0.402-1.092-0.127-0.337-0.263-0.67-0.392-1.007-0.082-0.215-0.157-0.433-0.238-0.649-0.108-0.287-0.215-0.574-0.33-0.857-0.047-0.115-0.096-0.242-0.179-0.329-0.409-0.424-0.829-0.837-1.246-1.252-0.098-0.098-0.326-0.095-0.425 0.005s-0.101 0.326-0.001 0.425c0.216 0.214 0.444 0.415 0.646 0.641 0.239 0.268 0.569 0.46 0.683 0.838 0.081 0.271 0.202 0.529 0.301 0.795 0.137 0.369 0.267 0.74 0.405 1.108 0.127 0.337 0.263 0.67 0.391 1.006 0.103 0.27 0.199 0.543 0.301 0.813 0.104 0.273 0.216 0.542 0.316 0.817 0.006 0.018 0.009 0.040 0.008 0.062l-0.3 0.3c-0.019-0.003-0.035-0.009-0.039-0.017-0.31-0.579-0.612-1.162-0.922-1.741-0.315-0.587-0.639-1.17-0.958-1.755-0.086-0.157-0.153-0.327-0.256-0.471-0.133-0.187-0.283-0.363-0.442-0.528-0.321-0.334-0.65-0.662-0.983-0.984-0.173-0.167-0.292-0.146-0.454-0.001-0.112 0.1-0.095 0.26 0.036 0.393 0.258 0.262 0.522 0.518 0.776 0.784 0.184 0.194 0.388 0.38 0.526 0.604 0.221 0.359 0.389 0.749 0.589 1.121 0.314 0.583 0.638 1.16 0.954 1.742 0.237 0.436 0.468 0.875 0.706 1.321l-0.347 0.347c-0.026-0.012-0.049-0.037-0.072-0.068-0.146-0.199-0.286-0.401-0.433-0.599-0.175-0.236-0.355-0.467-0.529-0.704-0.189-0.257-0.371-0.518-0.561-0.775-0.185-0.25-0.378-0.493-0.562-0.744-0.187-0.255-0.339-0.54-0.553-0.769-0.461-0.492-0.952-0.956-1.43-1.432-0.091-0.090-0.202-0.074-0.291-0.022-0.139 0.081-0.209 0.264-0.139 0.357 0.121 0.161 0.252 0.317 0.395 0.458 0.54 0.536 1.083 1.067 1.514 1.701 0.221 0.324 0.455 0.638 0.687 0.954 0.199 0.271 0.406 0.538 0.607 0.807 0.261 0.35 0.517 0.702 0.78 1.050 0.087 0.115 0.135 0.178 0.139 0.232l-0.339 0.339c-0.027-0.010-0.055-0.031-0.087-0.063-1.492-1.5-2.988-2.997-4.483-4.495-0.099-0.1-0.326-0.099-0.425-0.001s-0.105 0.327-0.007 0.425c1.026 1.025 2.052 2.049 3.078 3.073 0.478 0.477 0.955 0.954 1.436 1.428 0.026 0.025 0.042 0.048 0.051 0.070l-0.359 0.359c-0.018-0.007-0.037-0.021-0.058-0.041-0.083-0.082-0.179-0.152-0.274-0.22-0.193-0.139-0.392-0.268-0.583-0.41-0.243-0.18-0.477-0.373-0.72-0.553-0.271-0.201-0.549-0.39-0.82-0.59-0.239-0.177-0.472-0.362-0.709-0.542-0.239-0.182-0.496-0.345-0.715-0.548-0.404-0.375-0.785-0.775-1.18-1.16-0.143-0.14-0.303-0.131-0.445 0.012-0.111 0.111-0.102 0.262 0.027 0.393 0.249 0.254 0.509 0.497 0.747 0.76 0.393 0.433 0.857 0.784 1.316 1.139 0.188 0.145 0.391 0.272 0.582 0.413 0.322 0.239 0.638 0.486 0.961 0.723 0.251 0.185 0.51 0.359 0.763 0.54 0.204 0.146 0.406 0.294 0.606 0.444 0.031 0.023 0.056 0.047 0.068 0.073l-0.348 0.348c-0.267-0.145-0.525-0.287-0.786-0.425-0.369-0.196-0.742-0.384-1.11-0.582-0.619-0.333-1.229-0.683-1.854-1.004-0.423-0.218-0.797-0.486-1.114-0.843-0.226-0.255-0.48-0.485-0.724-0.724-0.119-0.117-0.29-0.117-0.393 0.014-0.118 0.149-0.144 0.26 0.021 0.429 0.337 0.344 0.677 0.685 1.021 1.022 0.138 0.134 0.275 0.278 0.438 0.375 0.37 0.22 0.756 0.412 1.134 0.617 0.385 0.209 0.766 0.422 1.152 0.629 0.516 0.277 1.034 0.548 1.55 0.824 0.070 0.038 0.135 0.085 0.202 0.129l-0.293 0.293c-0.021 0.004-0.042 0.006-0.062 0.004-0.082-0.008-0.161-0.051-0.24-0.082-0.269-0.103-0.537-0.21-0.806-0.31-0.275-0.103-0.554-0.198-0.828-0.302-0.214-0.082-0.423-0.178-0.638-0.259-0.329-0.123-0.663-0.235-0.993-0.358s-0.656-0.252-0.982-0.384c-0.135-0.055-0.29-0.099-0.391-0.195-0.391-0.371-0.764-0.76-1.144-1.143-0.107-0.108-0.33-0.112-0.434-0.008s-0.101 0.328 0.006 0.435c0.298 0.298 0.59 0.602 0.895 0.892 0.194 0.184 0.351 0.418 0.624 0.507 0.198 0.065 0.396 0.129 0.591 0.204 0.269 0.103 0.532 0.22 0.801 0.322 0.279 0.106 0.563 0.195 0.842 0.301 0.269 0.102 0.532 0.22 0.801 0.322 0.279 0.106 0.563 0.195 0.842 0.301 0.269 0.102 0.532 0.22 0.802 0.322 0.278 0.105 0.562 0.197 0.841 0.3 0.39 0.143 0.779 0.292 1.169 0.438 0.33 0.124 0.661 0.247 0.991 0.372 0.317 0.12 0.634 0.238 0.948 0.365 0.183 0.074 0.32 0.025 0.45-0.114 0.162-0.174 0.336-0.338 0.513-0.513 0.030 0.033 0.056 0.063 0.085 0.091 1.741 1.743 3.482 3.486 5.223 5.228 2.733 2.733 5.465 5.468 8.202 8.196 0.214 0.213 0.385 0.483 0.71 0.57 0.194 0.052 0.616-0.031 0.735-0.188 0.258-0.34 0.255-0.768-0.074-1.095-1.919-1.913-3.833-3.831-5.749-5.746zM12.215 9.377c0.095 0.23 0.195 0.45 0.271 0.677l-0.186 0.186c-0.011-0.017-0.235-0.417-0.345-0.603l0.26-0.26zM11.484 10.108c0.024 0.007 0.261 0.391 0.366 0.582l-0.21 0.21c-0.090-0.121-0.385-0.521-0.39-0.558l0.234-0.234zM10.805 10.787c0.138 0.184 0.279 0.359 0.402 0.546l-0.21 0.21c-0.007-0.002-0.449-0.455-0.472-0.477l0.28-0.28zM10.085 11.507c0.094 0.080 0.466 0.444 0.48 0.468l-0.22 0.22c-0.023-0.009-0.386-0.29-0.545-0.403l0.284-0.284zM9.072 13.468c-0.225-0.075-0.443-0.172-0.679-0.269l0.259-0.259c0.187 0.108 0.576 0.344 0.587 0.361l-0.167 0.167zM9.106 12.486l0.255-0.255c0.039 0.003 0.406 0.283 0.556 0.392l-0.21 0.21c-0.188-0.106-0.593-0.331-0.601-0.347zM11.443 14.384c-0.438-0.165-0.884-0.334-1.329-0.501-0.107-0.040-0.216-0.074-0.321-0.119-0.048-0.021-0.085-0.048-0.019-0.11 0.282-0.263 0.56-0.529 0.834-0.8 0.146-0.145 0.279-0.303 0.422-0.452 0.211-0.219 0.424-0.437 0.639-0.652 0.203-0.203 0.408-0.404 0.613-0.605 0.131-0.129 0.265-0.254 0.39-0.387 0.059-0.063 0.089-0.034 0.109 0.020 0.156 0.416 0.309 0.833 0.464 1.249 0.041 0.111 0.074 0.227 0.131 0.33 0.036 0.066 0.021 0.093-0.024 0.138-0.637 0.628-1.272 1.258-1.909 1.889zM26.795 27.863c-0.040 0.016-0.117-0.010-0.152-0.044-1.241-1.219-2.485-2.436-3.717-3.663-1.824-1.816-3.639-3.641-5.46-5.46-1.554-1.553-3.109-3.104-4.665-4.654-0.072-0.072-0.084-0.123-0.004-0.2 0.161-0.154 0.159-0.159 0.313-0.005 2.29 2.295 4.579 4.591 6.87 6.884 2.27 2.272 4.543 4.54 6.814 6.811 0.048 0.048 0.082 0.111 0.134 0.183-0.053 0.063-0.083 0.129-0.133 0.148z"></path>
</svg>
