<?xml version="1.0" encoding="utf-8"?>
<!-- Generated by IcoMoon.io -->
<!DOCTYPE svg PUBLIC "-//W3C//DTD SVG 1.1//EN" "http://www.w3.org/Graphics/SVG/1.1/DTD/svg11.dtd">
<svg version="1.1" xmlns="http://www.w3.org/2000/svg" xmlns:xlink="http://www.w3.org/1999/xlink" width="32" height="32" viewBox="0 0 32 32">
<path d="M31.933 17.267c0-0.667-0.067-1.267-0.2-1.933-0.8-3.533-4.133-6.2-7.733-6.133-0.6 0-1.067 0.4-1.267 0.933-0.333 0.867 0.333 1.733 1.333 1.733 2.8 0.067 5.133 2.267 5.267 5 0.067 1.4 0 2.8 0 4.267 0 0 0 0 0 0.067-2.667 0-5.267 0-7.933 0 0-0.133 0-0.2 0-0.333 0-5.2 0-10.333 0-15.533-0.067-1.667-1.267-2.8-2.867-2.8-5.2 0-10.467 0-15.733 0-1.667 0-2.8 1.133-2.8 2.867 0 5.2 0 10.467 0 15.667 0 1.667 1.133 2.8 2.8 2.8 0.933 0 1.8 0 2.733 0-0.267 0.867-0.333 1.733 0 2.6s0.867 1.6 1.667 2.067c1.467 0.867 2.933 0.933 4.333-0.067 1.667-1.133 2.067-2.733 1.6-4.667 2.8 0 5.6 0 8.4 0-0.467 1.933-0.067 3.533 1.667 4.667 1.4 0.933 2.933 0.933 4.333 0 1.667-1.133 2.133-2.733 1.6-4.667 0.467 0 0.933 0 1.467 0 0.867 0 1.4-0.533 1.4-1.467 0-1.667 0-3.333-0.067-5.067zM9.333 26.533c-0.733 0-1.333-0.6-1.333-1.333s0.6-1.333 1.333-1.333c0.733 0 1.333 0.6 1.333 1.333s-0.6 1.333-1.333 1.333zM18.667 21.2c-5.333 0-10.667 0-16 0 0-5.333 0-10.667 0-16 5.333 0 10.667 0 16 0 0 5.333 0 10.667 0 16zM25.333 26.533c-0.733 0-1.333-0.6-1.333-1.333s0.6-1.333 1.333-1.333c0.733 0 1.333 0.6 1.333 1.333 0 0.667-0.6 1.333-1.333 1.333z"></path>
<path d="M8.4 18.133c0.6 0.6 1.467 0.533 2-0.133 1.8-2.2 3.533-4.4 5.267-6.6 0.467-0.6 0.4-1.4-0.2-1.933-0.6-0.467-1.4-0.4-1.933 0.267-0.533 0.6-1 1.267-1.467 1.867-0.933 1.2-1.867 2.4-2.867 3.6-0.533-0.533-1.067-1.067-1.6-1.6s-1.333-0.533-1.867 0c-0.533 0.533-0.533 1.333 0 1.867 0.867 0.867 1.733 1.8 2.667 2.667z"></path>
</svg>
