<?xml version="1.0" encoding="utf-8"?>
<!-- Generated by IcoMoon.io -->
<!DOCTYPE svg PUBLIC "-//W3C//DTD SVG 1.1//EN" "http://www.w3.org/Graphics/SVG/1.1/DTD/svg11.dtd">
<svg version="1.1" xmlns="http://www.w3.org/2000/svg" xmlns:xlink="http://www.w3.org/1999/xlink" width="32" height="32" viewBox="0 0 32 32">
<path d="M0 29.081l2.815 2.815h1.511l-4.326-4.326z"></path>
<path d="M31.931 3.056l-3.021-3.021h-1.511l4.532 4.532z"></path>
<path d="M2.816 0.034l-2.815 2.815v1.511l4.326-4.326z"></path>
<path d="M31.931 10.197v-1.511l-6.73-6.73 1.923-1.923h-1.511l-3.983 3.983-2.060-2.060 1.854-1.923h-1.511l-1.099 1.099-1.167-1.099h-1.511l7.485 7.485-2.129 2.129-9.614-9.614h-1.442l-0.069 0.069 10.3 10.3-1.991 1.991-10.369-10.369 1.991-1.991h-1.511l-6.867 6.867-1.923-1.991v1.511l3.914 3.914-3.914 3.914v1.579l7.485-7.485 2.060 2.060-9.545 9.545v1.511l10.3-10.3 2.129 2.129-10.438 10.506-1.991-1.923v1.511l6.73 6.798-1.717 1.717h1.511l1.030-0.961 2.815-2.815 2.129 2.129-1.648 1.648h1.511l0.893-0.893 0.893 0.893h1.511l-7.485-7.416 2.060-2.060 9.545 9.545h1.511l-0.137-0.137-10.094-10.232 2.060-2.060 10.644 10.644-1.648 1.648h1.511l6.455-6.524 1.854 1.785v-1.511l-1.030-0.961-2.884-2.884 2.060-2.060 1.923 1.923v-1.511l-1.099-1.099 1.099-1.099v-1.511l-7.554 7.348-2.129-2.129 9.614-9.614v-1.511l-10.369 10.369-1.923-1.923 10.506-10.506 1.785 1.785zM22.386 4.772l2.060-2.060 1.991 1.991-2.060 2.060-1.991-1.991zM4.67 9.579l-1.923-1.923 2.060-2.060 1.923 1.991-2.060 1.991zM5.562 4.841l2.060-2.060 10.369 10.369-2.060 2.060-10.369-10.369zM9.545 27.365l-2.060 2.060-2.129-2.129 2.060-2.060 2.129 2.129zM4.601 26.472l-1.854-1.854 10.506-10.506 1.923 1.923-10.575 10.438zM27.193 22.489l2.129 2.129-1.991 1.991-2.129-2.129 1.991-1.991zM26.575 27.433l-2.060 2.060-10.644-10.712 2.060-2.060 10.644 10.712zM18.884 18.163l-2.197-2.197 10.506-10.506 2.197 2.197-10.506 10.506z"></path>
<path d="M29.391 31.897l2.541-2.609v-1.511l-4.12 4.12z"></path>
</svg>
