<?xml version="1.0" encoding="utf-8"?>
<!-- Generated by IcoMoon.io -->
<!DOCTYPE svg PUBLIC "-//W3C//DTD SVG 1.1//EN" "http://www.w3.org/Graphics/SVG/1.1/DTD/svg11.dtd">
<svg version="1.1" xmlns="http://www.w3.org/2000/svg" xmlns:xlink="http://www.w3.org/1999/xlink" width="30" height="32" viewBox="0 0 30 32">
<path d="M29.82 15.076c-0.003-0.019-0.003-0.038-0.004-0.057-0.001-0.016-0.001-0.032-0.002-0.048-0.001-0.182-0.017-0.363-0.035-0.543-0.015-0.152-0.028-0.304-0.046-0.456-0.020-0.168-0.043-0.335-0.068-0.502-0.024-0.161-0.051-0.321-0.078-0.481-0.043-0.254-0.096-0.507-0.152-0.758-0.117-0.522-0.259-1.037-0.426-1.546-0.567-1.724-1.391-3.314-2.487-4.761-1.010-1.334-2.2-2.481-3.582-3.426-1.046-0.716-2.167-1.286-3.363-1.706-0.547-0.192-1.104-0.349-1.671-0.472-0.255-0.055-0.512-0.104-0.769-0.145-0.214-0.034-0.428-0.062-0.644-0.086-0.174-0.019-0.349-0.036-0.523-0.049s-0.35-0.019-0.525-0.028c-0.035-0.002-0.070 0.002-0.103-0.014-0.268 0-0.535 0-0.803 0-0.019 0.004-0.037 0.010-0.056 0.012-0.035 0.003-0.070 0.003-0.105 0.005-0.159 0.009-0.318 0.014-0.477 0.027-0.168 0.013-0.336 0.033-0.504 0.048-0.174 0.016-0.348 0.040-0.521 0.066-0.189 0.028-0.377 0.060-0.565 0.096-0.347 0.066-0.691 0.146-1.032 0.239-0.909 0.246-1.785 0.582-2.627 1.003-1.044 0.522-2.012 1.162-2.904 1.914-1.367 1.152-2.498 2.504-3.407 4.043-0.738 1.248-1.298 2.573-1.686 3.97-0.118 0.426-0.22 0.857-0.305 1.291-0.047 0.241-0.089 0.482-0.126 0.724-0.025 0.164-0.045 0.328-0.065 0.492-0.018 0.145-0.034 0.291-0.049 0.437-0.011 0.108-0.018 0.216-0.026 0.324-0.010 0.146-0.021 0.292-0.029 0.438-0.006 0.105-0.008 0.21-0.011 0.315-0.002 0.048-0.002 0.096-0.006 0.143-0.003 0.031-0.003 0.064-0.029 0.089 0 0.217 0 0.433 0 0.65 0.006 0.011 0.015 0.021 0.018 0.033 0.006 0.028 0.011 0.056 0.013 0.085 0.003 0.044 0.004 0.089 0.005 0.134 0.002 0.191 0.015 0.382 0.027 0.573 0.012 0.187 0.030 0.375 0.048 0.562 0.013 0.143 0.028 0.285 0.046 0.427 0.026 0.202 0.054 0.404 0.087 0.605 0.035 0.214 0.074 0.427 0.115 0.639 0.078 0.394 0.171 0.784 0.278 1.17 0.279 1.009 0.648 1.984 1.112 2.923 0.755 1.528 1.723 2.906 2.917 4.125 0.967 0.986 2.046 1.828 3.244 2.516 1.088 0.625 2.238 1.1 3.451 1.421 0.357 0.095 0.717 0.175 1.081 0.239 0.201 0.035 0.402 0.068 0.604 0.095 0.161 0.021 0.322 0.040 0.484 0.057 0.193 0.021 0.387 0.033 0.581 0.047 0.086 0.006 0.172 0.007 0.258 0.010 0.035 0.002 0.070-0.001 0.103 0.014 0.312 0 0.624 0 0.937 0 0.012-0.004 0.024-0.009 0.036-0.011 0.019-0.003 0.038-0.003 0.057-0.004 0.166-0.002 0.331-0.016 0.496-0.027 0.105-0.007 0.209-0.019 0.314-0.029 0.076-0.007 0.152-0.015 0.228-0.024 0.12-0.014 0.24-0.027 0.36-0.045 0.142-0.021 0.283-0.045 0.424-0.068 0.211-0.034 0.42-0.076 0.628-0.122 0.569-0.126 1.129-0.286 1.678-0.482 1.106-0.394 2.148-0.918 3.126-1.567 1.044-0.692 1.985-1.502 2.828-2.427 1.178-1.292 2.114-2.74 2.822-4.337 0.394-0.89 0.707-1.808 0.94-2.753 0.084-0.343 0.159-0.689 0.222-1.036 0.039-0.216 0.076-0.433 0.104-0.651 0.023-0.177 0.048-0.353 0.068-0.531 0.018-0.165 0.029-0.33 0.046-0.495 0.014-0.133 0.016-0.267 0.020-0.401 0.001-0.032-0.002-0.064 0.016-0.093 0-0.593 0-1.185 0-1.778-0.004-0.015-0.010-0.029-0.012-0.045zM28.75 11.811c0.003 0.004 0.006 0.009 0.010 0.013s0.007 0.009 0.010 0.013c0.001 0.009 0.001 0.018 0.002 0.028 0 0.003 0.002 0.008 0.001 0.009-0.007 0.004-0.009 0.001-0.007-0.009s0.002-0.019 0.003-0.028c-0.003-0.001-0.006-0.002-0.009-0.002-0.013 0.002-0.014-0.008-0.014-0.016-0-0.003 0.002-0.005 0.003-0.008zM28.738 11.739c0.001 0.004-0.004 0.010-0.006 0.014-0.003-0.004-0.007-0.009-0.007-0.013-0-0.008 0.002-0.015 0.003-0.023 0.004 0.007 0.008 0.014 0.010 0.022zM26.452 25.224c-0.144 0.21-0.295 0.416-0.45 0.618-0.393 0.511-0.816 0.995-1.271 1.451-1.091 1.093-2.32 1.997-3.7 2.694-0.841 0.425-1.717 0.76-2.627 1.002-0.323 0.086-0.649 0.16-0.977 0.222-0.172 0.032-0.345 0.061-0.518 0.086s-0.347 0.047-0.521 0.067c-0.095 0.011-0.19 0.018-0.285 0.026-0.127 0.010-0.254 0.019-0.381 0.029-0.019 0.001-0.038 0.003-0.057 0.004-0.299 0.010-0.598 0.026-0.898 0.018-0.181-0.005-0.363-0.009-0.544-0.019-0.172-0.009-0.343-0.021-0.515-0.038-0.193-0.018-0.386-0.041-0.579-0.067-0.284-0.038-0.567-0.086-0.847-0.142-0.44-0.089-0.875-0.2-1.304-0.333-1.499-0.464-2.875-1.169-4.137-2.099-1.154-0.851-2.159-1.853-3.025-2.996-1.022-1.349-1.799-2.829-2.347-4.429-0.21-0.612-0.38-1.235-0.514-1.868-0.054-0.255-0.102-0.512-0.143-0.77-0.036-0.223-0.069-0.447-0.095-0.671-0.016-0.146-0.034-0.291-0.049-0.437-0.011-0.108-0.018-0.216-0.026-0.324-0.010-0.152-0.020-0.305-0.029-0.458-0.002-0.032-0.004-0.064-0.005-0.095-0.016-0.462-0.017-0.924 0-1.385 0.006-0.162 0.018-0.324 0.029-0.486 0.008-0.114 0.016-0.229 0.026-0.343 0.008-0.092 0.018-0.184 0.028-0.276 0.008-0.073 0.017-0.145 0.025-0.218 0.020-0.177 0.045-0.354 0.073-0.53 0.029-0.189 0.062-0.377 0.097-0.565 0.060-0.319 0.131-0.636 0.21-0.951 0.206-0.817 0.474-1.612 0.806-2.386 0.584-1.364 1.343-2.623 2.285-3.77 0.902-1.098 1.936-2.051 3.112-2.849 1.055-0.716 2.185-1.28 3.395-1.683 0.477-0.159 0.962-0.291 1.455-0.395 0.262-0.055 0.525-0.104 0.789-0.144 0.17-0.026 0.34-0.050 0.512-0.066s0.342-0.035 0.514-0.049c0.14-0.011 0.28-0.019 0.42-0.023 0.197-0.006 0.395-0.012 0.592-0.011 0.207 0.001 0.414 0.006 0.621 0.014 0.14 0.005 0.28 0.018 0.419 0.029 0.102 0.008 0.203 0.015 0.305 0.026 0.133 0.014 0.266 0.031 0.398 0.048 0.098 0.013 0.195 0.028 0.293 0.042 0.18 0.026 0.358 0.059 0.536 0.094 0.306 0.060 0.61 0.131 0.911 0.213 0.863 0.233 1.695 0.55 2.495 0.948 1.355 0.674 2.568 1.546 3.647 2.604 1.224 1.199 2.212 2.57 2.981 4.1 0.456 0.907 0.819 1.851 1.095 2.827 0.019 0.066 0.043 0.131 0.049 0.201-0.009-0.002-0.015-0.007-0.018-0.016-0.014-0.045-0.028-0.091-0.042-0.137-0.388-1.261-0.927-2.452-1.627-3.571-0.58-0.927-1.255-1.78-2.030-2.552-0.929-0.926-1.967-1.705-3.122-2.328-0.924-0.498-1.894-0.876-2.912-1.133-0.281-0.071-0.564-0.132-0.85-0.182-0.21-0.037-0.421-0.070-0.633-0.096-0.183-0.023-0.367-0.041-0.551-0.057-0.521-0.046-1.044-0.047-1.566-0.030-0.146 0.005-0.292 0.018-0.439 0.029-0.098 0.007-0.197 0.016-0.295 0.025-0.073 0.007-0.146 0.014-0.218 0.024-0.212 0.027-0.423 0.056-0.633 0.093-0.543 0.095-1.078 0.224-1.604 0.39-1.395 0.439-2.676 1.103-3.849 1.975-0.951 0.707-1.794 1.527-2.535 2.451-1.048 1.306-1.845 2.753-2.407 4.33-0.217 0.61-0.393 1.231-0.531 1.863-0.062 0.286-0.116 0.574-0.162 0.863-0.033 0.204-0.061 0.409-0.086 0.615-0.019 0.152-0.030 0.304-0.046 0.456-0.024 0.225-0.036 0.451-0.047 0.677-0.008 0.159-0.010 0.318-0.014 0.478-0.008 0.328-0.001 0.656 0.012 0.984 0.008 0.2 0.021 0.401 0.038 0.601 0.018 0.216 0.040 0.431 0.067 0.646 0.025 0.199 0.053 0.398 0.085 0.596 0.042 0.254 0.090 0.508 0.144 0.76 0.096 0.449 0.212 0.892 0.348 1.33 0.525 1.689 1.317 3.241 2.391 4.648 0.788 1.031 1.7 1.939 2.741 2.715 1.089 0.811 2.272 1.442 3.558 1.881 0.504 0.172 1.016 0.311 1.538 0.417 0.237 0.048 0.475 0.090 0.715 0.125 0.183 0.026 0.366 0.047 0.55 0.066 0.209 0.021 0.419 0.035 0.629 0.047 0.153 0.008 0.306 0.011 0.459 0.011 0.22 0 0.44-0.001 0.659-0.007 0.156-0.005 0.312-0.018 0.467-0.029 0.098-0.007 0.197-0.016 0.295-0.025 0.076-0.007 0.152-0.015 0.228-0.025 0.117-0.015 0.233-0.033 0.35-0.049 0.167-0.023 0.333-0.052 0.499-0.084 0.316-0.061 0.629-0.134 0.939-0.219 0.876-0.239 1.715-0.571 2.519-0.99 0.913-0.477 1.758-1.054 2.538-1.727 0.79-0.681 1.492-1.443 2.114-2.28 0.025-0.033 0.050-0.066 0.075-0.099 0.005-0.007 0.013-0.011 0.022-0.009-0.003 0.026-0.022 0.044-0.035 0.064zM26.49 25.156c0-0.008-0.001-0.017 0.002-0.023 0.007-0.014 0.017-0.025 0.026-0.038 0.012 0.030-0.009 0.045-0.028 0.061zM26.521 25.093c0.011-0.010 0.022-0.009 0.034-0.002-0.011 0-0.023 0.007-0.034 0.002zM26.556 25.091c-0.007-0.019-0.006-0.040-0.006-0.060 0 0 0 0 0 0 0.009 0.019 0.006 0.040 0.006 0.060zM26.55 25.031c0.012-0 0.024-0 0.037-0.001-0.012 0.005-0.024 0.007-0.037 0.001zM26.592 25.025c-0.001-0.016-0.002-0.032-0.004-0.048 0.002 0.016 0.009 0.032 0.004 0.048zM26.588 24.976c-0-0-0-0-0-0 0.011-0.002 0.021-0.005 0.032-0.007-0.009 0.007-0.021 0.005-0.032 0.007zM26.627 24.922c0-0 0-0 0-0.001 0.003-0.001 0.005-0.002 0.008-0.003-0.003 0.001-0.005 0.002-0.008 0.003zM28.777 16.783c-0.006 0.162-0.018 0.324-0.029 0.486-0.007 0.111-0.016 0.222-0.026 0.333-0.008 0.089-0.018 0.177-0.028 0.266-0.014 0.117-0.028 0.234-0.044 0.351-0.020 0.145-0.040 0.29-0.064 0.435-0.037 0.22-0.079 0.439-0.125 0.657-0.104 0.496-0.234 0.985-0.39 1.467-0.402 1.247-0.959 2.42-1.679 3.514-0.655 0.995-1.424 1.893-2.313 2.687-1.028 0.917-2.171 1.655-3.437 2.2-0.669 0.287-1.358 0.512-2.067 0.674-0.245 0.056-0.492 0.106-0.741 0.143-0.157 0.023-0.315 0.049-0.473 0.068s-0.317 0.033-0.475 0.046c-0.14 0.012-0.28 0.020-0.419 0.028-0.051 0.003-0.102 0.005-0.153 0.006-0.258 0.006-0.516 0.007-0.774-0-0.175-0.005-0.35-0.014-0.525-0.030-0.092-0.008-0.184-0.016-0.276-0.024-0.146-0.013-0.291-0.030-0.436-0.052-0.132-0.020-0.264-0.040-0.396-0.061-0.236-0.037-0.47-0.086-0.702-0.141-0.714-0.168-1.408-0.4-2.080-0.695-0.997-0.438-1.92-0.998-2.772-1.676-1.096-0.871-2.030-1.893-2.811-3.054-0.838-1.246-1.462-2.593-1.881-4.035-0.126-0.431-0.231-0.867-0.317-1.308-0.048-0.244-0.091-0.488-0.123-0.735-0.023-0.177-0.049-0.353-0.068-0.531-0.019-0.174-0.032-0.349-0.046-0.523-0.012-0.152-0.022-0.305-0.028-0.458-0.007-0.178-0.011-0.357-0.012-0.535-0.001-0.21 0.001-0.421 0.006-0.631 0.004-0.194 0.015-0.388 0.031-0.582 0.009-0.111 0.016-0.222 0.026-0.333 0.008-0.095 0.019-0.19 0.030-0.285 0.014-0.117 0.028-0.234 0.044-0.351 0.020-0.148 0.041-0.297 0.065-0.444 0.037-0.22 0.078-0.439 0.124-0.657 0.116-0.549 0.263-1.089 0.44-1.621 0.319-0.958 0.732-1.873 1.243-2.744 0.57-0.972 1.245-1.864 2.031-2.671 0.846-0.867 1.791-1.607 2.842-2.21 0.95-0.544 1.955-0.955 3.016-1.228 0.311-0.080 0.626-0.147 0.943-0.201 0.195-0.033 0.39-0.062 0.586-0.086 0.158-0.019 0.317-0.033 0.475-0.046 0.143-0.012 0.286-0.023 0.429-0.029 0.162-0.007 0.325-0.009 0.487-0.010 0.153-0.001 0.306-0 0.459 0.005 0.169 0.006 0.337 0.014 0.506 0.030 0.101 0.010 0.203 0.017 0.305 0.026 0.073 0.007 0.146 0.014 0.218 0.024 0.114 0.015 0.227 0.033 0.34 0.048 0.167 0.023 0.333 0.053 0.499 0.085 0.344 0.067 0.684 0.149 1.021 0.246 0.897 0.26 1.752 0.618 2.567 1.074 1.009 0.565 1.924 1.257 2.748 2.068 1.093 1.075 1.977 2.303 2.668 3.671 0.462 0.916 0.821 1.871 1.082 2.862 0.099 0.376 0.182 0.755 0.252 1.137 0.044 0.241 0.081 0.484 0.113 0.727 0.018 0.136 0.033 0.272 0.046 0.408 0.018 0.181 0.035 0.361 0.048 0.542 0.011 0.143 0.018 0.286 0.023 0.429 0.006 0.207 0.009 0.414 0.013 0.618-0.004 0.21-0.006 0.417-0.013 0.624zM28.79 11.966c-0.001-0.003-0.003-0.005-0.003-0.008s0.002-0.005 0.003-0.008c0.001 0.003 0.003 0.005 0.003 0.008s-0.002 0.005-0.003 0.008z"></path>
<path d="M21.979 8.754c-0.051-0.305-0.125-0.605-0.223-0.898-0.584-1.745-1.945-3.114-3.657-3.718-0.298-0.105-0.602-0.186-0.913-0.241-0.138-0.024-0.276-0.044-0.416-0.060-0.124-0.014-0.247-0.024-0.371-0.029-0.408-0.016-0.815 0.004-1.219 0.070-0.268 0.044-0.531 0.103-0.79 0.182-1.482 0.454-2.731 1.473-3.474 2.833-0.27 0.495-0.466 1.018-0.587 1.569-0.047 0.215-0.082 0.432-0.106 0.65-0.018 0.165-0.027 0.33-0.030 0.496-0.007 0.37 0.017 0.738 0.078 1.104 0.055 0.327 0.134 0.648 0.243 0.962 0.311 0.895 0.808 1.671 1.487 2.33 0.201 0.196 0.636 0.577 0.661 0.607 0 0.034-0.001 5.97-0.001 8.596 0 0.583 0.001 1.166-0 1.749-0 0.26 0.033 0.514 0.098 0.765 0.262 1.009 1.038 1.832 2.043 2.152 0.312 0.099 0.633 0.144 0.96 0.145 0.242 0.001 0.484 0.001 0.726-0 0.143-0.001 0.286-0.009 0.429-0.027 0.171-0.022 0.339-0.058 0.503-0.109 0.769-0.237 1.417-0.768 1.801-1.478 0.239-0.442 0.364-0.915 0.368-1.419 0-0.031-0.032-10.431-0.032-10.431s0.029-0.020 0.030-0.020c0.956-0.697 1.67-1.599 2.105-2.729 0.080-0.207 0.144-0.42 0.194-0.635 0.056-0.242 0.102-0.484 0.131-0.73 0.020-0.174 0.035-0.349 0.038-0.524 0.001-0.048 0.004-0.096 0.003-0.143-0.003-0.15-0.003-0.3-0.013-0.449-0.012-0.191-0.035-0.38-0.067-0.569zM21.493 10.055c-0.056 0.924-0.331 1.78-0.828 2.562-0.411 0.646-0.859 1.127-1.497 1.551-0.064 0.042-0.138 0.094-0.133 0.113 0.014 0.051-0.003 7.431-0.002 10.62 0 0.137-0.005 0.274-0.026 0.409-0.037 0.247-0.109 0.484-0.216 0.71-0.346 0.726-1.055 1.306-1.968 1.421-0.068 0.009-0.137 0.012-0.205 0.013-0.056 0.001-0.111 0.003-0.167 0.003-0.217 0-0.433 0-0.65 0-0.037-0-0.074-0.001-0.111-0.001-0.148-0.003-0.295-0.014-0.44-0.043-0.994-0.201-1.708-0.945-1.942-1.804-0.056-0.207-0.088-0.417-0.088-0.632-0-0.108 0.013-10.691-0.006-10.702-0.048-0.031-0.746-0.571-1.059-0.915-0.614-0.676-1.033-1.456-1.252-2.343-0.052-0.21-0.089-0.423-0.116-0.639-0.043-0.346-0.050-0.693-0.024-1.040 0.058-0.783 0.47-1.965 0.911-2.615 0.626-0.925 1.471-1.596 2.532-2.010 0.303-0.119 0.616-0.205 0.936-0.263 0.204-0.037 0.409-0.063 0.616-0.078 0.15-0.011 0.299-0.014 0.449-0.013 0.048 0 0.095 0.002 0.143 0.004 0.382 0.017 0.996 0.121 1.361 0.234 0.822 0.254 1.541 0.682 2.158 1.28 0.636 0.617 1.092 1.348 1.369 2.19 0.095 0.288 0.162 0.582 0.207 0.882 0.055 0.367 0.071 0.736 0.048 1.105z"></path>
<path d="M5.331 14.766c-1.209 0.006-2.139 0.987-2.135 2.145 0.005 1.191 0.981 2.137 2.149 2.13 1.182-0.007 2.134-0.98 2.126-2.154-0.008-1.128-0.92-2.117-2.14-2.121zM4.087 15.936c0.001-0.003 0.004-0.005 0.006-0.008 0.226-0.283 0.515-0.47 0.867-0.558 0.181-0.046 0.366-0.056 0.55-0.035 0.434 0.052 0.79 0.251 1.064 0.592 0.006 0.007 0.010 0.016 0.014 0.024s-0.003 0.021-0.012 0.022c-0.029 0.001-0.057 0.003-0.086 0.003-0.388 0-0.777 0-1.165 0-0.379 0-0.758 0-1.137-0-0.029 0-0.057-0-0.086-0.001-0.009-0-0.021-0.001-0.022-0.013-0.001-0.008 0.004-0.018 0.007-0.026zM6.496 17.969c-0.008 0.010-0.015 0.020-0.024 0.029-0.226 0.232-0.497 0.384-0.815 0.451-0.135 0.028-0.271 0.041-0.408 0.032-0.415-0.027-0.769-0.189-1.058-0.489-0.009-0.009-0.016-0.020-0.022-0.031-0.002-0.003 0.004-0.013 0.008-0.015 0.008-0.004 0.018-0.006 0.028-0.006 0.035-0.001 0.070-0.001 0.105-0.001 0.344-0 0.688-0 1.032-0 0.35 0 0.701-0 1.051 0 0.032 0 0.063 0.003 0.095 0.005 0.009 0.001 0.014 0.015 0.008 0.023zM6.89 17.17c-0.003 0.017-0.014 0.026-0.034 0.026-0.022 0-0.045 0-0.067 0-0.959 0-1.917 0-2.876-0-0.029 0-0.057 0-0.086-0.001-0.037-0.001-0.045-0.008-0.052-0.042-0.012-0.056-0.017-0.113-0.018-0.171-0.002-0.076-0.003-0.153 0.005-0.229 0.002-0.016 0.015-0.031 0.030-0.032 0.032-0.001 3.081-0.003 3.107-0.004 0.037 0.184 0.020 0.278-0.008 0.452z"></path>
<path d="M26.361 14.766c-1.207 0.004-2.136 0.981-2.137 2.133-0.002 1.193 0.971 2.143 2.137 2.142 1.182-0 2.134-0.966 2.138-2.132 0.003-1.136-0.911-2.138-2.137-2.143zM25.109 15.945c0.003-0.005 0.007-0.011 0.011-0.016 0.226-0.283 0.515-0.47 0.866-0.559 0.184-0.047 0.372-0.057 0.559-0.034 0.427 0.053 0.777 0.249 1.049 0.583 0.008 0.010 0.014 0.021 0.020 0.032 0.004 0.007-0.003 0.022-0.011 0.023-0.009 0.001-0.019 0.003-0.028 0.003-0.026 0-0.051 0-0.076 0-0.382 0-0.764 0-1.146 0-0.379 0-0.758 0-1.137-0-0.032 0-0.064-0.001-0.095-0.002-0.012-0-0.019-0.018-0.012-0.029zM27.508 17.99c-0.224 0.234-0.494 0.388-0.811 0.458-0.131 0.029-0.264 0.043-0.399 0.035-0.426-0.023-0.789-0.186-1.085-0.495-0.007-0.007-0.013-0.015-0.016-0.023-0.002-0.004 0.001-0.013 0.005-0.016s0.012-0.006 0.018-0.006c0.032-0.001 0.064-0.002 0.096-0.002 0.35-0 0.701-0 1.051-0 0.344 0 0.688 0 1.032 0 0.029 0 0.057-0 0.086 0s0.041 0.006 0.041 0.016c0 0.015-0.009 0.023-0.018 0.032zM27.932 17.070c-0.003 0.035-0.010 0.069-0.016 0.104-0.002 0.012-0.014 0.021-0.027 0.021-0.022 0.001-0.045 0.001-0.067 0.001-0.965 0-1.93 0-2.895 0-0.026 0-0.051 0-0.076-0.001-0.012-0.001-0.025-0.005-0.037-0.008-0.015-0.041-0.021-0.082-0.024-0.123-0.008-0.099-0.009-0.197-0.002-0.296 0-0.006 0.002-0.013 0.003-0.019 0.002-0.012 0.014-0.024 0.025-0.026 0.013-0.002 0.025-0.003 0.038-0.004 0.032-0.001 3.053-0.001 3.073-0 0.033 0.142 0.019 0.207 0.006 0.35z"></path>
</svg>
