<?xml version="1.0" encoding="utf-8"?>
<!-- Generated by IcoMoon.io -->
<!DOCTYPE svg PUBLIC "-//W3C//DTD SVG 1.1//EN" "http://www.w3.org/Graphics/SVG/1.1/DTD/svg11.dtd">
<svg version="1.1" xmlns="http://www.w3.org/2000/svg" xmlns:xlink="http://www.w3.org/1999/xlink" width="32" height="32" viewBox="0 0 32 32">
<path d="M31.535 10.691c-2.191-0.797-4.382-0.996-6.639-0.531-0.531 0.133-1.129 0.332-1.66 0.465-0.398-1.195-1.062-2.257-1.992-3.12 0.465-0.465 0.929-0.929 1.328-1.461 0.266-0.332 0.531-0.797 0.73-1.195 0.332-0.797-0.199-1.394-1.062-1.328-1.261 0.133-1.992 1.062-2.855 1.925 0.133 0.066 0.785 0.461 0.785 0.461s0.155-0.171 0.344-0.328c0.465-0.465 0.996-0.929 1.726-1.129 0.133-0.033 0.245-0.083 0.332-0.066-0.266 1.129-1.261 1.726-1.992 2.523-1.593-1.062-3.253-1.726-5.046-2.124-2.456-0.664-4.913-0.73-7.436-0.531-1.66 0.133-3.319 0.465-4.913 0.929-0.332 0.133-0.398 0.332-0.332 0.531 0.066 0.266 0.266 0.332 0.598 0.266 2.988-0.863 6.041-1.195 9.162-0.929 2.324 0.199 4.515 0.797 6.639 1.925 0.266 0.133 0.465 0.266 0.797 0.465-0.996 0.797-1.992 1.527-3.054 2.125 0.199-0.398 0.465-0.797 0.797-1.129 0.266-0.332 0.664-0.664 0.996-1.062-0.147-0.122-0.728-0.417-0.728-0.417-0.066 0.066-1.131 1.412-1.596 1.944-0.332 0.398-0.664 0.863-1.062 1.261-4.714 4.581-9.287 9.098-13.802 13.612-0.066 0.066-0.244 0.283-0.244 0.283-0.002 0.003 0.355-0.253 0.396-0.291 3.983-3.519 7.741-6.766 11.724-10.218 1.328-1.129 2.523-2.456 4.050-3.319 1.129-0.598 2.125-1.461 3.187-2.191 0.863 0.797 1.461 1.793 1.859 2.921-0.133 0.066-0.158 0.075-0.266 0.133-1.925 0.929-3.519 2.191-4.846 3.851-0.996 1.261-1.726 2.589-1.925 4.183-0.133 1.261 0.332 2.324 1.394 2.855 0.73 0.332 1.461 0.465 2.257 0.332 1.195-0.199 2.125-0.863 2.855-1.793 1.527-2.058 2.058-4.448 1.859-6.905-0.066-0.73-0.207-1.341-0.348-2.058l-0.004-0.027c0.113-0.031 0.213-0.061 0.351-0.105 2.523-0.863 5.046-0.797 7.502 0.133 0.332 0.133 0.531 0.066 0.598-0.199 0-0.332-0.133-0.531-0.465-0.664zM21.776 19.189c-0.398 0.664-0.863 1.261-1.527 1.726-0.863 0.598-1.793 0.73-2.788 0.398-0.73-0.266-1.195-0.863-1.261-1.66-0.066-0.73 0.133-1.461 0.465-2.125 0.929-1.992 2.324-3.585 4.183-4.78 0.598-0.398 1.105-0.778 1.886-1.036 0.18 0.785 0.238 1.368 0.305 2.165 0.066 1.925-0.332 3.718-1.261 5.311z"></path>
<path d="M1.66 14.47c-0.266 0.531-0.133 1.062 0.266 1.527 0.929 0.996 3.085 3.489 3.218 3.689l0.605-0.539c-0.133-0.133-0.25-0.286-0.371-0.428-0.183-0.214-0.133-0.398 0.133-0.465 0.398-0.133 0.808-0.156 1.129-0.266 0.14-0.048 0.278-0.112 0.398-0.199 0.457-0.329 0.797-0.797 1.195-1.195 0.066-0.066 0.133-0.199 0.199-0.332 0.332-0.73 0.598-1.593 1.062-2.257 0.598-0.996 1.261-1.992 1.925-2.921 0.199-0.266 0.398-0.266 0.598 0 0.133 0.199 0.133 0.465-0.066 0.73-0.531 0.863-1.045 1.664-1.643 2.527-0.048 0.074-0.172 0.273-0.172 0.273l0.088-0.012c0.996-1.062 1.992-2.058 2.988-3.12v-0.066l-0.066-0.066c-0.863-0.996-1.726-1.992-2.523-2.988-0.332-0.398-0.797-0.598-1.328-0.465-0.266 0.066-0.531 0-0.73-0.266-0.332-0.465-0.73-0.863-1.129-1.328-0.332-0.398-0.664-0.465-1.129-0.066-1.925 1.66-3.851 3.319-5.842 4.979-0.465 0.398-0.465 0.797-0.066 1.195 0.398 0.465 0.797 0.929 1.195 1.394 0.133 0.199 0.199 0.398 0.066 0.664zM7.568 16.728c-0.066 0.266-0.266 0.398-0.531 0.465-0.664 0.133-1.328 0.266-1.992 0.398-0.598 0.199-0.797-0.133-0.996-0.465-0.066-0.133 0-0.266 0.133-0.332 0.996-0.398 2.080-0.718 3.12-0.465 0.062 0.015 0.141 0.052 0.211 0.142 0.062 0.080 0.055 0.194 0.055 0.256zM8.166 14.935c0 0.398-0.332 0.664-0.664 0.664-0.133 0-0.266 0-0.398 0s-0.199 0-0.332 0c-0.996 0-1.992 0.199-2.988 0.598-0.465 0.199-0.598 0.133-0.863-0.199s-0.199-0.73 0.266-0.863c1.394-0.465 2.855-0.73 4.382-0.531 0.066 0 0.066 0 0.133 0 0.199 0 0.465 0 0.465 0.332zM8.896 13.475c-0.066 0.332-0.332 0.465-0.664 0.398s-0.664-0.133-0.996-0.133c-1.328-0.133-2.589 0.133-3.784 0.465-0.066 0-0.066 0-0.133 0s-0.133-0.066-0.066-0.133c0.332-0.332 0.664-0.598 1.062-0.929s0.929-0.332 1.394-0.332c0.929-0.066 1.925-0.066 2.855 0.199 0.266 0.133 0.398 0.266 0.332 0.465zM9.627 12.28c-0.066 0.199-0.266 0.266-0.465 0.199-1.062-0.332-2.124-0.465-3.187-0.398v0c-0.133 0-0.199-0.133-0.133-0.199l0.066-0.066c0.929-0.863 0.929-0.863 2.125-0.465 0.465 0.133 0.863 0.332 1.328 0.531 0.199 0.066 0.332 0.199 0.266 0.398zM9.361 8.761c0.133-0.199 0.465-0.332 0.598-0.199 0.398 0.465 0.797 0.929 1.195 1.394v0c0.066 0.133-0.066 0.199-0.199 0.199-0.066 0-0.133 0-0.199-0.066-0.398-0.332-0.761-0.646-1.195-0.929-0.124-0.081-0.332-0.133-0.199-0.398zM9.295 9.956c0.318 0.221 0.598 0.465 0.929 0.73 0.176 0.162 0.23 0.335 0.199 0.465-0.034 0.145-0.133 0.199-0.266 0.199s-2.257-0.797-2.257-0.797c-0.133-0.066-0.199-0.266-0.066-0.398v0c0.664-0.664 0.763-0.685 1.461-0.199zM1.261 11.549c1.726-1.527 3.519-3.054 5.245-4.581 0.266-0.199 0.465-0.199 0.664 0.066 0.332 0.398 0.664 0.73 0.929 1.129 0.041 0.064 0.183 0.171 0.18 0.351-0.002 0.095-0.055 0.198-0.18 0.312v0c-1.793 1.527-3.519 3.054-5.311 4.581-0.266 0.199-0.465 0.199-0.664-0.066-0.332-0.398-0.664-0.73-0.996-1.129-0.199-0.266-0.133-0.465 0.133-0.664z"></path>
<path d="M20.913 21.906c-0.199 0.133-0.398 0.266-0.664 0.398 0.133 0.266 0 0.398-0.199 0.598-1.726 1.527-3.519 2.988-5.245 4.515-0.266 0.199-0.398 0.199-0.664-0.066-0.332-0.332-0.598-0.73-0.929-1.062-0.266-0.332-0.266-0.465 0.066-0.797 0.929-0.797 1.859-1.593 2.788-2.39 0.266-0.199 0.531-0.465 0.797-0.664-0.199-0.133-0.465-0.266-0.664-0.398s-0.332-0.332-0.531-0.465c-0.133-0.133-0.266-0.199-0.398-0.266-2.456-0.797-4.979-0.929-7.568-0.531-0.266 0.066-0.531 0.066-0.73-0.066s-0.332-0.332-0.531-0.531c-0.199 0.133-0.303 0.227-0.502 0.426 0.131 0.131 0.103 0.105 0.17 0.172 1.527 1.726 2.988 3.452 4.515 5.245 0.531 0.598 0.929 0.664 1.726 0.332 0.531 0.598 0.996 1.195 1.527 1.793 0.332 0.398 0.73 0.398 1.129 0.066 1.992-1.726 3.983-3.386 5.975-5.112 0.398-0.398 0.332-0.797-0.066-1.195zM7.9 21.641c-0.066-0.266 0.066-0.266 0.266-0.266 0.797-0.066 1.527-0.133 1.925-0.133 2.058 0 3.718 0.266 5.311 0.797 0.398 0.133 0.398 0.266 0.133 0.531s-0.598 0.332-0.929 0.266c-1.859-0.398-3.718-0.598-5.577-0.531-0.531 0-0.929-0.266-1.129-0.664zM11.618 25.757c-0.066 0.011-0.199 0-0.266-0.066-0.266-0.266-0.821-0.786-0.797-0.929 0.012-0.072 1.388 0.053 1.985 0.12 0.066 0 0.132 0.006 0.073 0.079 0.057-0.072-0.581 0.729-0.996 0.797zM12.083 24.097v0c-0.609-0.043-1.052-0.099-1.66-0.156-0.452-0.032-0.836 0.060-1.129-0.641v0c-0.023-0.137 0.066-0.199 0.199-0.199 0.066 0 0.066 0 0.066 0 1.394 0 2.915-0.126 4.249 0.398 0.111 0.044 0.271 0.225 0.199 0.398-0.025 0.061-0.060 0.073-0.133 0.133-0.185 0.152-0.457 0.159-0.73 0.141-0.357-0.024-0.65-0.062-1.062-0.074z"></path>
<path d="M10.158 16.794c-0.199 0.133-0.929 0.797-0.929 0.797s-0.070 0.394-0.118 0.599c-0.108 0.457-0.276 0.63-0.745 0.596-0.132-0.009-0.199-0.066-0.332-0.133-0.465 0.398-0.863 0.797-1.328 1.129 2.855-0.664 5.643-0.531 8.431 0.332-0.199-1.859 0.531-3.386 1.461-4.846-0.664-0.797-1.394-1.593-2.058-2.39-0.199 0.199-0.398 0.398-0.598 0.531 0.598 0.332 0.664 0.664 0.398 1.261-0.598 1.062-1.062 2.191-1.195 3.386-0.133 0.797-0.137 0.769-0.863 0.664-0.335-0.049-0.465-0.199-0.398-0.531 0.199-1.461 0.664-2.788 1.461-3.983 0.066-0.066 0.082-0.129 0.133-0.266-0.531 0.398-0.996 0.797-1.461 1.195-0.066 0.066-0.161 0.18-0.199 0.266-0.353 0.783-0.635 1.763-0.73 2.722-0.020 0.198-0.133 0.398-0.332 0.398s-0.457-0.033-0.664-0.066c-0.131-0.021-0.231-0.055-0.266-0.199-0.009-0.037 0.064-0.444 0.151-0.797 0.065-0.266 0.122-0.461 0.181-0.664zM15.070 15.134c0.133-0.199 0.287-0.226 0.465-0.066 0.386 0.347 0.598 0.531 0.266 1.261-0.398 0.797-0.531 1.66-0.664 2.523-0.066 0.398-0.117 0.466-0.531 0.398-0.131-0.021-0.214-0.056-0.353-0.107-0.257-0.095-0.31-0.291-0.31-0.49 0.066-1.261 0.465-2.456 1.129-3.519z"></path>
<path d="M19.651 20.379c-0.133-0.133-0.199-0.266-0.066-0.465 0.266-0.398 0.266-0.863 0-1.261-0.598-0.73-1.261-1.461-1.859-2.191v0c-0.465 0.598-0.664 1.261-0.863 1.925-0.133 0.465-0.199 0.797-0.199 1.461 0 0.066 0.020 0.173 0.061 0.258 0.27 0.549 0.588 0.848 1.134 1.004 0.203 0.058 0.543 0.050 0.543 0.050l0.505-0.419c0 0 0.182 0.156 0.28 0.236 0.081 0.067 0.195 0.16 0.195 0.16l0.685-0.426-0.416-0.332zM18.896 19.54c-0.199 0.199-0.489 0.466-0.771 0.64-0.126 0.078-0.344 0.22-0.465 0.133-0.076-0.055-0.167-0.135-0.199-0.332-0.034-0.207 0-0.398 0-0.465 0.066-0.465 0.133-0.929 0.266-1.328 0.023-0.072 0.055-0.231 0.199-0.266 0.065-0.015 0.199 0.066 0.266 0.133 0.266 0.266 0.568 0.571 0.797 0.929 0.16 0.25 0.145 0.355-0.092 0.555z"></path>
</svg>
