<?xml version="1.0" encoding="utf-8"?>
<!-- Generated by IcoMoon.io -->
<!DOCTYPE svg PUBLIC "-//W3C//DTD SVG 1.1//EN" "http://www.w3.org/Graphics/SVG/1.1/DTD/svg11.dtd">
<svg version="1.1" xmlns="http://www.w3.org/2000/svg" xmlns:xlink="http://www.w3.org/1999/xlink" width="32" height="32" viewBox="0 0 32 32">
<path d="M9.82-0c1.002 0.2 1.871 0.401 2.739 0.601 3.073 0.802 6.013 1.871 8.752 3.541 2.271 1.403 4.276 3.073 5.745 5.344 1.136 1.804 1.871 3.808 2.271 5.879 0.468 2.338 0.468 4.743-0.2 7.081-1.002 3.34-3.14 5.879-6.079 7.749-0.868 0.534-1.804 0.935-2.806 1.336 0.067-0.134 0.134-0.267 0.2-0.334 1.67-3.006 2.338-6.146 1.537-9.553-0.267-1.069-0.735-2.071-1.47-2.873-0.468-0.468-1.002-0.868-1.67-1.069-0.067 0-0.134-0.067-0.267-0.067 0.468 0.868 0.735 1.804 0.802 2.739 0.067 1.336-0.134 2.605-0.868 3.741-1.336 2.138-3.808 2.472-5.678 0.735-0.334-0.334-0.668-0.735-1.002-1.136-0.802 2.806-0.935 5.545 0.267 8.284-0.534-0.134-1.069-0.2-1.537-0.334-2.004-0.468-3.808-1.336-5.278-2.806-1.537-1.603-2.405-3.541-2.672-5.678-0.401-3.14 0.735-5.745 2.806-8.017 1.002-1.069 2.138-1.937 3.273-2.806 1.403-1.069 2.539-2.405 3.073-4.075 0.668-1.937 0.401-3.875-0.401-5.745-0.334-0.802-0.868-1.47-1.269-2.205-0.067-0.067-0.134-0.2-0.267-0.334zM9.086 28.86c0-0.267 0-0.468 0-0.601-0.067-1.336 0.067-2.672 0.401-3.942 0.401-1.403 0.802-2.806 1.269-4.209 0.134-0.468 0.334-0.935 0.468-1.47 0.067 0.134 0.134 0.267 0.2 0.334 0.668 1.069 1.336 2.205 2.004 3.273 0.134 0.2 0.2 0.334 0.334 0.534 0.468 0.601 1.069 1.002 1.871 0.868 0.735-0.134 1.136-0.735 1.403-1.47 0.401-1.136 0.267-2.271-0.267-3.273-0.668-1.336-1.403-2.672-2.071-3.942-0.067-0.134-0.134-0.2-0.2-0.334 0.134 0 0.267 0 0.334 0 1.002 0.134 2.004 0.2 2.939 0.401 2.939 0.668 4.944 2.405 5.946 5.278 0.601 1.804 0.735 3.674 0.534 5.612 0 0.134 0 0.334-0.067 0.601 1.269-1.336 2.271-2.739 2.739-4.409 0.601-1.804 0.601-3.674 0.334-5.545-0.534-3.541-2.071-6.547-4.877-8.818-2.271-1.804-4.81-3.006-7.549-3.942-0.334-0.134-0.668-0.2-1.069-0.334 0 0.134 0.067 0.2 0.067 0.267 0.601 2.539 0.267 5.010-1.002 7.282-0.935 1.603-2.271 2.806-3.741 3.942-0.868 0.668-1.737 1.403-2.472 2.271-2.338 2.605-2.672 5.745-1.069 8.685 0.802 1.269 2.004 2.271 3.541 2.939z"></path>
</svg>
