<?xml version="1.0" encoding="utf-8"?>
<!-- Generated by IcoMoon.io -->
<!DOCTYPE svg PUBLIC "-//W3C//DTD SVG 1.1//EN" "http://www.w3.org/Graphics/SVG/1.1/DTD/svg11.dtd">
<svg version="1.1" xmlns="http://www.w3.org/2000/svg" xmlns:xlink="http://www.w3.org/1999/xlink" width="32" height="32" viewBox="0 0 32 32">
<path d="M27.993 7.062c0-0.035 0-0.069-0.001-0.104-0.007-0.174-0.132-0.291-0.278-0.293-0.366-0.004-0.68-0.008-1.122 0.012-0.018 0.001-0.047 0.005-0.054 0.022 0-0.045 0.001-0.117 0.001-0.163-0-0.659 0-1.318-0.001-1.977-0.001-0.455-0.361-0.751-0.76-0.753-2.033-0.010-4.067-0.008-6.1 0.002-0.158 0.001-0.338 0.069-0.468 0.161-0.225 0.159-0.316 0.41-0.317 0.686-0.002 0.789-0 1.578-0 2.367 0 0.335 0.091 0.626 0.433 0.831-0.122 0-0.203-0.005-0.283 0.001-0.054 0.005-0.14-0.004-0.14-0.004s-0.008-0.089-0.013-0.138c-0.034-0.281-0.071-0.561-0.115-0.841-0.021-0.138-0.054-0.275-0.094-0.408-0.037-0.126-0.144-0.18-0.304-0.172-0.104 0.005-0.247 0.106-0.265 0.2-0.039 0.202-0.073 0.404-0.105 0.607-0.040 0.248-0.076 0.497-0.114 0.755-0.179 0-0.347-0.005-0.515 0.002-0.047 0.002-0.126-0.002-0.126-0.002s-0.015-0.081-0.023-0.119c-0.077-0.344-0.232-0.648-0.472-0.907-0.181-0.196-0.396-0.349-0.652-0.418-0.204-0.055-0.412-0.083-0.633-0.021-0.213 0.060-0.414 0.133-0.592 0.258-0.354 0.249-0.617 0.579-0.781 0.979-0.038 0.092-0.073 0.234-0.073 0.234s-0.204 0.002-0.302 0.002c-2.575-0.009-5.151-0.006-7.726-0.006-0.055 0-0.119-0-0.181-0-0.004-0.053-0-0.090-0-0.128-0.001-0.213 0.009-0.425-0.003-0.637-0.015-0.279-0.104-0.447-0.438-0.431-0.264 0.013-0.529 0.011-0.793-0-0.216-0.009-0.372 0.154-0.369 0.369 0.009 0.62 0.003 1.24 0.003 1.86-0 0.051-0.006 0.101-0.009 0.148-0.098 0.026-0.184 0.048-0.269 0.073-0.133 0.039-0.267 0.077-0.399 0.121-0.184 0.061-0.224 0.241-0.311 0.384-0.122 0.201-0.191 0.445-0.469 0.511-0.175 0.042-0.409-0.004-0.534-0.134-0.157-0.164-0.349-0.249-0.575-0.194-0.225 0.055-0.448 0.12-0.665 0.201-0.144 0.053-0.289 0.107-0.373 0.269-0.088 0.171-0.109 0.324-0.047 0.509 0.106 0.316 0.181 0.642 0.276 0.961 0.078 0.262 0.174 0.518 0.249 0.781 0.093 0.323 0.427 0.449 0.719 0.376 0.22-0.055 0.433-0.137 0.652-0.198 0.213-0.059 0.368-0.225 0.409-0.445 0.014-0.077 0.029-0.168 0.077-0.224 0.269-0.31 0.734-0.408 1.12-0.231 0.121 0.055 0.151 0.114 0.151 0.234-0.002 5.25-0 10.501-0.006 15.752-0 0.281 0.144 0.423 0.42 0.423 6.083-0.005 12.166-0.004 18.249-0.004 1.578 0 3.156 0 4.734-0.001 0.058 0 0.12-0.007 0.175-0.026 0.174-0.060 0.206-0.199 0.206-0.365-0.002-6.915-0.002-13.831-0.002-20.746zM1.733 12.266c-0.028 0.007-0.098-0.047-0.109-0.085-0.097-0.319-0.184-0.64-0.276-0.961-0.052-0.182-0.1-0.366-0.166-0.543-0.030-0.081-0.002-0.095 0.060-0.112 0.169-0.048 0.338-0.098 0.511-0.149 0.169 0.561 0.337 1.122 0.506 1.683-0.19 0.062-0.356 0.122-0.525 0.167zM26.419 7.608v0.234h-0.253c0.112-0.077 0.179-0.142 0.253-0.234zM19.517 4.671c0-0.18 0.064-0.245 0.241-0.245h5.943c0.192 0 0.214 0.022 0.215 0.216 0 0.815 0 1.63 0 2.445 0 0.203-0.006 0.21-0.213 0.21-0.993 0.001-1.985 0-2.978 0-0.988 0-1.977 0-2.965 0-0.218 0-0.242-0.025-0.242-0.247 0-0.793-0-1.586 0-2.38zM26.427 8.479c0 0 0 0.94 0 1.353h-7.042c-0.079 0-0.166 0.002-0.166 0.002s-0.179-1.25-0.185-1.355c0.058 0 7.393 0 7.393 0zM26.252 16.241c-0.317-0.185-0.637-0.368-0.962-0.556 0.325-0.186 0.644-0.368 0.962-0.553 0.152-0.088 0.147-0.344 0.011-0.46-0.1-0.085-0.222-0.144-0.336-0.211-0.183-0.107-0.594-0.346-0.645-0.369 0.294-0.169 0.61-0.356 0.896-0.512 0.122-0.066 0.19-0.177 0.19-0.288s-0.068-0.223-0.19-0.288c-0.261-0.137-0.896-0.501-0.896-0.501s0.637-0.347 0.871-0.502c0.092-0.060 0.18-0.167 0.208-0.27 0.020-0.076-0.017-0.208-0.1-0.263-0.312-0.202-0.641-0.379-0.97-0.569 0.214-0.124 0.425-0.234 0.621-0.365 0.029-0.019 0.106-0.075 0.106-0.075h0.404c0 0 0 0.148 0 0.187 0 1.993 0 3.987-0 5.98 0 0.123-0.001 0.215-0.001 0.215s-0.102 0.003-0.226 0.004c-0.029 0-0.216-0-0.224-0 0.135-0.086 0.307-0.186 0.371-0.286 0.050-0.079-0.008-0.271-0.089-0.319zM24.582 11.202c0.249 0.142 0.8 0.47 0.834 0.495-0.028 0.021-0.086 0.052-0.116 0.069-0.244 0.141-0.492 0.276-0.733 0.424-0.109 0.067-0.21 0.163-0.21 0.3 0.001 0.123 0.063 0.221 0.187 0.289 0.298 0.163 0.587 0.342 0.885 0.518-0.325 0.188-0.651 0.368-0.969 0.563-0.154 0.087-0.141 0.338 0.009 0.453 0.154 0.118 0.97 0.58 0.97 0.58s-0.837 0.458-0.932 0.529c-0.22 0.166-0.191 0.421 0.040 0.551 0.257 0.145 0.515 0.289 0.77 0.436 0.047 0.028 0.125 0.073 0.125 0.073s-0.085 0.040-0.142 0.071c-0.163 0.090-0.55 0.293-0.55 0.293l-0.496-0.001c0 0-0.001-0.124-0.001-0.158v-6.061c0-0.088 0-0.164 0-0.164s0.395-0.001 0.54 0c-0.057 0.038-0.145 0.104-0.204 0.137-0.138 0.075-0.227 0.166-0.229 0.3-0.003 0.135 0.081 0.236 0.222 0.305zM19.557 12.105c-0.002-0.229-0.058-0.457-0.090-0.685-0.015-0.11-0.036-0.219-0.051-0.329-0.027-0.204-0.051-0.408-0.077-0.624h0.414c0.020 0.137 0.097 1.001 0.12 1.289 0.029 0.369 0.063 0.737 0.095 1.106 0.001 0.013 0.002 0.026 0.002 0.039 0.022 0.366 0.040 0.733 0.065 1.099 0.032 0.46 0.069 0.92 0.107 1.379 0.009 0.106 0.033 0.21 0.048 0.302-0.129 0.008-0.234 0.019-0.338 0.017-0.030-0-0.064-0.035-0.087-0.062-0.136-0.158-0.206-0.339-0.205-0.553 0.003-0.992 0.006-1.984-0.004-2.977zM20.010 16.291c0.142 0.178 0.282 0.352 0.442 0.552h-0.983c0.188-0.192 0.356-0.363 0.542-0.552zM20.437 10.888c-0.011-0.137-0.037-0.272-0.058-0.425h3.25v0.145c0 2.024-0.001 4.049 0.003 6.073 0 0.070 0.001 0.163 0.001 0.163l-2.394-0.001c0 0-0.155-0.159-0.217-0.235-0.080-0.099-0.154-0.19-0.154-0.19s-0.047-0.423-0.056-0.578c-0.018-0.328-0.039-0.655-0.062-0.982-0.013-0.198-0.032-0.395-0.048-0.592-0.036-0.464-0.072-0.928-0.108-1.393-0.015-0.197-0.033-0.395-0.048-0.592-0.036-0.464-0.070-0.929-0.109-1.393zM18.74 10.85c0.006-0 0.012-0 0.018-0.001 0.023 0.119 0.051 0.236 0.068 0.356 0.025 0.17 0.041 0.341 0.064 0.511 0.105 0.779 0.021 1.562 0.046 2.343 0 0.012-0.006 0.024-0.012 0.046-0.064-0.025-0.125-0.048-0.185-0.071v-3.183zM18.929 15.601c0.032-0.032 0.054-0.085 0.054-0.085s0.242 0.432 0.347 0.618c-0.117 0.112-0.258 0.244-0.395 0.381-0.027 0.027-0.071 0.059-0.071 0.059s-0.052-0.043-0.078-0.071c-0.22-0.228-0.452-0.468-0.674-0.695 0.067 0.006 0.145 0.010 0.212 0.017 0.239 0.026 0.441-0.054 0.606-0.224zM18.369 14.978c0.115 0 0.208 0.093 0.208 0.208s-0.093 0.208-0.208 0.208-0.208-0.093-0.208-0.208c0-0.115 0.093-0.208 0.208-0.208zM17.855 11.987c0.005-0.261 0.091-0.52 0.134-0.781 0.031-0.19 0.053-0.381 0.104-0.574 0.003 0.046 0.008 0.093 0.008 0.139 0 1.144-0 2.289 0.002 3.433 0 0.077 0.030 0.154 0.040 0.231 0.003 0.023-0.008 0.061-0.026 0.073-0.082 0.053-0.169 0.1-0.269 0.157 0-0.901-0.011-1.789 0.006-2.678zM17.918 16.524c-0.009 0.009-0.018 0.018-0.027 0.027-0.135-0.138-0.272-0.273-0.402-0.415-0.014-0.015 0.017-0.070 0.032-0.126 0.147 0.191 0.272 0.352 0.397 0.514zM15.433 7.037c0.169-0.122 0.396-0.13 0.591-0.019 0.036 0.020 0.092 0.068 0.119 0.093 0.159 0.146 0.102 0.273 0.077 0.42-0.017 0.104-0.038 0.2-0.062 0.317-0.298 0-0.704-0.002-1.019-0.002 0.061-0.182 0.197-0.739 0.294-0.809zM17.789 8.491c-0.071 0.44-0.142 0.88-0.215 1.335h-3.52c-0.098-0.48-0.261-0.933-0.593-1.335h4.329zM17.22 12.518c0.016 0.866 0 1.733 0.008 2.599 0.002 0.21-0.265 0.588-0.286 0.58-0.225-0.082-0.414 0.007-0.557 0.157-0.22 0.232-0.786 0.991-0.786 0.991h-0.527c0 0 0.268-1.71 0.293-1.813 0.175 0.030 0.998 0.214 1.238 0.061 0.13-0.082 0.211-0.191 0.245-0.33 0.034-0.136 0.043-0.279 0.061-0.419 0.020-0.149 0.039-0.298 0.057-0.446 0.017-0.14-0.054-0.236-0.166-0.304-0.075-0.046-0.187-0.099-0.187-0.099l0.501-3.029c0 0 0.146-0.013 0.36 0.004-0.026 0.146-0.054 0.292-0.079 0.437-0.022 0.126-0.048 0.252-0.063 0.38-0.049 0.409-0.12 0.813-0.112 1.23zM17.267 16.842h-0.926c0.151-0.188 0.286-0.355 0.434-0.54 0.169 0.186 0.332 0.365 0.491 0.54zM14.509 15.791c-0.007-0.169-0.002-0.338-0.002-0.507v-0.359c0.079 0.004 0.141 0.008 0.221 0.012-0.023 0.195-0.041 0.381-0.068 0.566-0.023 0.151-0.063 0.3-0.087 0.452-0.041 0.266-0.074 0.534-0.112 0.801-0.006 0.039-0.011 0.090-0.011 0.090s-0.136-0.001-0.212-0.001c0.008-0.106 0.011-0.2 0.022-0.294 0.004-0.036 0.015-0.079 0.039-0.103 0.179-0.186 0.22-0.411 0.21-0.657zM14.267 14.25c-0.054-0.008-0.106-0.032-0.167-0.052 0-0.284-0.002-0.569 0.002-0.855 0-0.031 0.028-0.066 0.052-0.091 0.196-0.203 0.333-0.431 0.369-0.719 0.042-0.339 0.1-0.677 0.154-1.015 0.055-0.346 0.114-0.691 0.174-1.049h0.911c-0.019 0.158-0.034 0.317-0.059 0.475-0.025 0.156-0.065 0.309-0.088 0.465-0.042 0.288-0.074 0.578-0.116 0.867-0.023 0.156-0.077 0.31-0.082 0.466s0.009 0.32 0.051 0.47c0.075 0.267 0.233 0.492 0.452 0.663 0.124 0.097 0.265 0.171 0.388 0.249-0.009 0.104-0.021 0.197-0.025 0.291-0.003 0.082-0.035 0.121-0.12 0.108-0.211-0.033-0.422-0.065-0.634-0.097-0.131-0.020-0.262-0.041-0.394-0.059-0.289-0.039-0.578-0.075-0.867-0.116zM14.165 10.461c0.014 0.001 0.029 0.003 0.043 0.004-0.024 0.193-0.048 0.386-0.072 0.579-0.038-0.198-0.064-0.396 0.029-0.583zM16.038 12.755c0.026-0.173 0.061-0.344 0.089-0.517 0.050-0.307 0.1-0.615 0.147-0.923 0.024-0.161 0.040-0.323 0.064-0.484 0.018-0.125 0.042-0.249 0.064-0.373 0.010-0.001 0.020-0.003 0.030-0.004 0.006 0.022 0.021 0.045 0.018 0.065-0.050 0.342-0.103 0.684-0.154 1.027-0.018 0.122-0.039 0.245-0.055 0.368-0.039 0.289-0.074 0.577-0.116 0.865-0.009 0.062-0.037 0.121-0.087 0.184 0-0.069-0.008-0.14 0.002-0.208zM13.407 9.752c0-0.014 0.012-0.026 0.026-0.026s0.026 0.011 0.026 0.026v4.696c-0.005 0-0.009 0-0.014 0h-0c-0.004 0.002-0.008 0.003-0.012 0.003-0.014 0-0.026-0.012-0.026-0.026v-4.673zM11.813 14.53c0.024-0.147 0.048-0.296 0.049-0.444 0.003-1.751 0.003-3.502-0-5.254 0-0.11 0.038-0.165 0.132-0.216 0.241-0.13 0.488-0.112 0.705 0.016 0.075 0.044 0.086 0.129 0.086 0.186 0.005 0.407 0.003 0.815 0.003 1.222 0 1.379 0.004 2.757-0.002 4.135-0.002 0.397 0.134 0.726 0.425 0.99 0.152 0.138 0.324 0.246 0.528 0.293 0.101 0.023 0.153 0.076 0.148 0.197-0.011 0.274-0.003 0.274-0.278 0.274h-2.834v-0.418c0.246-0.081 0.488-0.176 0.681-0.368 0.175-0.175 0.317-0.366 0.357-0.615zM13.638 16.561c0 0-0.005 0.045-0.009 0.090-0.006 0.064-0.022 0.184-0.022 0.184l-0.547 0-0-0.275 0.578 0zM12.433 16.684c0.001 0.056 0 0.152 0 0.152s-0.057-0.002-0.101-0.002c-0.044 0-0.111 0.002-0.111 0.002s-0.001-0.084 0-0.131c0.001-0.078-0.014-0.155 0.112-0.153 0.122 0.002 0.098 0.079 0.1 0.132zM5.816 16.13c0.055 0.183 0.159 0.486 0.225 0.706-0.073 0.001-0.223-0.001-0.223-0.001s0.011-0.498-0.001-0.705zM5.945 14.414c-0.060-0.197-0.113-0.398-0.172-0.595-0.060-0.201-0.126-0.401-0.187-0.602-0.049-0.165-0.094-0.331-0.148-0.518 0.276-0.082 0.529-0.158 0.781-0.234 0.114 0.36 0.223 0.696 0.325 1.034 0.095 0.315 0.178 0.633 0.273 0.948 0.078 0.261 0.168 0.518 0.247 0.779 0.077 0.258 0.146 0.518 0.221 0.777 0.072 0.247 0.138 0.496 0.225 0.738 0.017 0.049 0.033 0.094 0.033 0.094h-0.862c0 0-0.014-0.051-0.020-0.069-0.089-0.267-0.173-0.536-0.254-0.806-0.077-0.258-0.144-0.519-0.222-0.777s-0.164-0.513-0.242-0.771zM7.4 14.248c-0.061-0.202-0.111-0.407-0.171-0.609-0.059-0.197-0.127-0.391-0.188-0.587-0.060-0.194-0.117-0.388-0.173-0.583-0.041-0.142-0.068-0.289-0.12-0.427-0.189-0.502-0.048-1.066 0.391-1.392 0.123-0.092 0.283-0.153 0.435-0.181 0.222-0.042 0.454-0.063 0.68-0.054 0.451 0.018 0.879 0.141 1.262 0.381 0.227 0.143 0.44 0.318 0.663 0.47 0.097 0.066 0.201 0.112 0.311 0.16 0.020 0.009 0.042 0.007 0.060-0.006l0.007-0.005v0.115c0 1.058 0 2.115-0 3.173 0 0.142-0.050 0.209-0.194 0.229-0.093 0.013-0.219 0.19-0.219 0.297 0.002 0.277-0.009 0.555 0.004 0.832 0.011 0.24 0.216 0.492 0.489 0.493 0.277 0.001 0.555 0.009 0.832 0 0.124-0.004 0.129 0.055 0.129 0.149 0 0.053 0.002 0.131 0.002 0.131l-3.399 0.002c0 0-0.277-0.837-0.336-1.038-0.076-0.259-0.145-0.52-0.222-0.778s-0.166-0.513-0.244-0.771zM11.212 9.759c0.014 0 0.026 0.012 0.026 0.026v4.673c0 0.014-0.012 0.026-0.026 0.026s-0.026-0.012-0.026-0.026v-4.673c0-0.014 0.012-0.026 0.026-0.026zM5.814 8.488h5.375c-0.314 0.371-0.517 0.873-0.587 1.343-0.185 0-0.375 0.002-0.563-0.002-0.023-0-0.048-0.027-0.069-0.045-0.398-0.363-0.853-0.636-1.354-0.824-0.264-0.099-0.545-0.154-0.82-0.223-0.448-0.114-0.908-0.139-1.367-0.14-0.197 0-0.402 0.039-0.614 0.059-0.004-0.064 0.002-0.088-0-0.168zM4.847 7.292h0.316c0 0.196 0 0.386 0 0.575 0 0.264-0.002 0.528 0.001 0.792 0.001 0.091-0.026 0.135-0.124 0.137-0.061 0.001-0.122 0.029-0.193 0.047v-1.551zM4.074 11.142c-0.481-0.141-0.93-0.038-1.373 0.26-0.066-0.21-0.13-0.412-0.195-0.616 0.122-0.022 0.238-0.052 0.356-0.061 0.289-0.024 0.501-0.177 0.661-0.403 0.088-0.124 0.162-0.26 0.225-0.398 0.049-0.108 0.133-0.157 0.234-0.188 0.342-0.106 0.683-0.216 1.029-0.307 0.214-0.056 0.434-0.092 0.654-0.118 0.333-0.040 0.668-0.094 1-0.085 0.366 0.011 0.732 0.078 1.095 0.137 0.49 0.080 0.936 0.279 1.348 0.57-0.105-0.022-0.21-0.043-0.314-0.065-0.35-0.075-0.7-0.131-1.058-0.047-0.174 0.041-0.351 0.067-0.523 0.116-0.373 0.106-0.662 0.328-0.87 0.656-0.144 0.227-0.243 0.469-0.267 0.74-0.015 0.169-0.033 0.337-0.054 0.539-0.237 0.073-0.513 0.159-0.795 0.247-0.239-0.499-0.634-0.822-1.156-0.975zM4.835 16.699c0.005-1.195 0.003-2.391 0.003-3.586 0-0.068 0.010-0.137 0.008-0.206 0.099 0.319 0.202 0.636 0.297 0.956 0.005 0.016 0.020 0.081 0.020 0.081s-0.001 0.082-0.001 0.138c0.001 0.87-0.002 1.741 0.004 2.611 0 0.056-0.001 0.141-0.001 0.141l-0.331 0.001c0 0 0-0.084 0-0.137zM27.36 27.567h-22.518v-10.085h22.518v10.085zM27.047 16.846c0 0-0-6.323-0-9.392v-0.165h0.322v0.141c0 3.083 0.002 9.415 0.002 9.415l-0.323 0.001z"></path>
<path d="M20.559 7.033c0.248 0.126 0.523 0.15 0.799 0.149 0.351-0.001 0.702 0.004 1.054-0.001 0.705-0.010 1.41-0.019 2.115-0.039 0.281-0.008 0.52-0.149 0.713-0.341 0.273-0.27 0.398-0.606 0.375-0.997-0.017-0.29-0.119-0.54-0.305-0.758-0.27-0.316-0.621-0.451-1.029-0.453-0.516-0.002-1.032-0.001-1.548-0.001-0.503 0-1.006-0.009-1.509 0.004-0.184 0.005-0.375 0.037-0.548 0.098-0.554 0.195-0.804 0.672-0.832 1.169-0.009 0.155 0.045 0.32 0.094 0.472 0.103 0.321 0.327 0.548 0.622 0.697zM20.915 5.266c0.098-0.025 0.2-0.045 0.301-0.046 0.507-0.005 1.014-0.002 1.521-0.002 0.516 0 1.032 0.003 1.547-0.001 0.31-0.002 0.525 0.133 0.662 0.411 0.133 0.27-0.003 0.71-0.281 0.831-0.125 0.055-0.269 0.094-0.404 0.095-1.014 0.008-2.029 0.007-3.043 0.003-0.29-0.001-0.529-0.106-0.679-0.377-0.2-0.359 0.028-0.825 0.376-0.913z"></path>
</svg>
