<?xml version="1.0" encoding="utf-8"?>
<!-- Generated by IcoMoon.io -->
<!DOCTYPE svg PUBLIC "-//W3C//DTD SVG 1.1//EN" "http://www.w3.org/Graphics/SVG/1.1/DTD/svg11.dtd">
<svg version="1.1" xmlns="http://www.w3.org/2000/svg" xmlns:xlink="http://www.w3.org/1999/xlink" width="32" height="32" viewBox="0 0 32 32">
<path d="M23.050 13.27c0.76-1.866 0.553-3.594-0.622-5.184-0.968-1.313-2.281-2.212-3.801-2.765-0.346-0.138-0.76-0.276-1.106-0.346 0-0.138 0-0.276 0-0.415s0-0.352 0-0.49c0.474-0.037 0.484-0.063 0.484-0.547 0-1.037 0-2.004 0-3.041 0-0.415-0.069-0.484-0.484-0.484-1.797 0-3.594 0-5.46 0-0.346 0-0.415 0.069-0.415 0.484 0 1.037 0 2.004 0 3.041 0 0.484 0 0.484 0.484 0.553 0 0.138 0 0.415 0 0.553 0.002 0.163 0 0.339 0 0.339s-0.22 0.088-0.346 0.134c-1.071 0.391-2.212 0.84-3.11 1.6-2.004 1.59-2.972 4.078-1.866 6.704 0.553 1.382 0.484 2.695-0.207 4.078-2.143 4.216-2.281 8.501-0.553 12.855 0.415 1.106 1.244 1.659 2.419 1.659 4.285 0 8.639 0 12.924 0 1.175 0 2.004-0.622 2.488-1.659 0.622-1.451 0.968-2.972 1.106-4.562 0.207-2.903-0.276-5.736-1.659-8.294-0.76-1.382-0.829-2.765-0.276-4.216zM16.207 0.76c0.346 0 0.76 0 1.106 0 0 0.829 0 1.659 0 2.557-0.346 0-0.76 0-1.106 0 0-0.829 0-1.659 0-2.557zM14.341 0.76c0.346 0 0.76 0 1.106 0 0 0.829 0 1.728 0 2.557-0.346 0-0.76 0-1.106 0 0-0.829 0-1.659 0-2.557zM12.406 0.76c0.346 0 0.691 0 1.037 0 0 0.829 0 1.659 0 2.557-0.346 0-0.691 0-1.037 0 0-0.829 0-1.659 0-2.557zM8.743 7.603c1.037-0.968 2.281-1.59 3.663-1.935 0.484-0.138 0.484-0.138 0.484-0.622 0-0.276 0-0.622 0-0.968 0.138 0 3.87-0.004 3.87-0.004s0 0.209 0 0.419c0 0.207 0 0.415 0 0.553 0 0.276 0.138 0.484 0.415 0.553 1.313 0.276 2.557 0.829 3.594 1.728 1.037 0.829 1.728 1.935 1.935 3.248 0.069 0.415 0 0.829 0 1.244-0.829 0-1.521-0.207-2.143-0.622-0.622-0.346-1.244-0.691-1.935-0.829-1.313-0.207-2.557-0.069-3.732 0.553-0.622 0.346-1.313 0.76-2.073 0.829-0.899 0.069-1.797 0.069-2.626-0.415-0.968-0.553-1.935-1.106-3.11-1.106 0.276-1.037 0.899-1.866 1.659-2.626zM23.119 29.996c-0.346 0.829-0.968 1.175-1.797 1.175-4.216 0-8.501 0-12.717 0-0.899 0-1.521-0.415-1.797-1.244-1.659-4.009-1.59-8.017 0.415-11.957 0.829-1.59 0.898-3.248 0.276-4.907-0.207-0.622-0.415-1.175-0.346-1.866 0.553 0 1.037 0.069 1.521 0.276 0.346 0.138 0.691 0.346 0.968 0.484 1.728 0.899 3.456 0.899 5.184 0 0.622-0.346 1.313-0.76 2.073-0.829 0.968-0.069 1.866-0.069 2.695 0.415 0.898 0.484 1.797 1.037 2.972 1.037-0.415 0.829-0.553 1.659-0.553 2.557s0.207 1.728 0.622 2.557c2.073 4.078 2.143 8.155 0.484 12.302z"></path>
<path d="M25.4 7.741c1.797 0 3.248-1.451 3.248-3.248s-1.451-3.248-3.248-3.248-3.248 1.451-3.248 3.248c0 1.728 1.451 3.179 3.248 3.248zM25.4 2.004c1.382 0 2.488 1.106 2.488 2.488s-1.106 2.488-2.488 2.488-2.488-1.106-2.488-2.488c0-1.382 1.106-2.488 2.488-2.488z"></path>
<path d="M27.68 15.896c-1.313 0-2.281 1.037-2.281 2.35s1.037 2.35 2.281 2.35c1.313 0 2.35-1.037 2.35-2.281 0-1.382-1.037-2.419-2.35-2.419zM27.68 19.836c-0.898 0-1.59-0.691-1.59-1.59 0-0.829 0.691-1.521 1.521-1.521 0.898 0 1.59 0.691 1.59 1.59 0.069 0.829-0.622 1.451-1.521 1.521z"></path>
<path d="M4.32 6.773c1.313 0 2.35-1.037 2.35-2.35s-1.037-2.35-2.35-2.35c-1.313 0.069-2.35 1.106-2.35 2.419s1.037 2.281 2.35 2.281zM4.32 2.903c0.899 0 1.59 0.691 1.521 1.59 0 0.899-0.691 1.521-1.59 1.521s-1.521-0.691-1.521-1.59c0-0.829 0.691-1.521 1.59-1.521z"></path>
<path d="M3.559 12.786c-0.829 0-1.451 0.691-1.451 1.521s0.691 1.451 1.451 1.451c0.829 0 1.521-0.691 1.521-1.451s-0.691-1.521-1.521-1.521zM3.559 14.998c-0.415 0-0.691-0.346-0.691-0.76s0.253-0.762 0.691-0.76c0.415 0 0.733 0.272 0.733 0.687 0.004 0.549-0.318 0.833-0.733 0.833z"></path>
<path d="M26.229 11.266c0 0.829 0.691 1.521 1.521 1.521s1.451-0.691 1.451-1.451c0-0.829-0.691-1.521-1.451-1.521-0.829-0.069-1.521 0.622-1.521 1.451zM28.441 11.266c0 0.415-0.346 0.76-0.691 0.76-0.415 0-0.691-0.276-0.76-0.691 0-0.415 0.276-0.76 0.691-0.76 0.415-0.069 0.691 0.276 0.76 0.691z"></path>
<path d="M16.968 14.79c-0.829 0-1.451 0.691-1.451 1.451 0 0.829 0.622 1.521 1.451 1.521s1.521-0.622 1.521-1.451c0-0.829-0.691-1.521-1.521-1.521zM17.037 17.002c-0.415 0-0.691-0.346-0.691-0.691 0-0.415 0.276-0.691 0.691-0.691s0.716 0.271 0.716 0.686c0 0.379-0.37 0.697-0.716 0.697z"></path>
<path d="M24.155 4.631c0.276 0 0.415-0.138 0.415-0.415 0.069-0.484 0.346-0.76 0.829-0.829 0.276 0 0.415-0.138 0.415-0.415s-0.207-0.346-0.415-0.346c-0.76 0-1.521 0.76-1.521 1.521-0.069 0.276 0 0.415 0.276 0.484z"></path>
<path d="M27.611 17.14c-0.553 0-1.037 0.553-1.037 0.968 0 0.276 0.069 0.484 0.346 0.484s0.415-0.069 0.415-0.346c0-0.207 0.138-0.346 0.346-0.346 0.276 0 0.346-0.207 0.346-0.415 0-0.276-0.207-0.346-0.415-0.346z"></path>
<path d="M3.559 4.838c0.207 0 0.415-0.069 0.415-0.346s0.138-0.346 0.415-0.415c0.276 0 0.346-0.207 0.346-0.415s-0.207-0.346-0.415-0.346c-0.553 0-1.037 0.484-1.106 1.037-0.069 0.276 0.069 0.484 0.346 0.484z"></path>
</svg>
