<?xml version="1.0" encoding="utf-8"?>
<!-- Generated by IcoMoon.io -->
<!DOCTYPE svg PUBLIC "-//W3C//DTD SVG 1.1//EN" "http://www.w3.org/Graphics/SVG/1.1/DTD/svg11.dtd">
<svg version="1.1" xmlns="http://www.w3.org/2000/svg" xmlns:xlink="http://www.w3.org/1999/xlink" width="32" height="32" viewBox="0 0 32 32">
<path d="M31.325 7.839c-0.643-4.626-5.012-7.839-9.639-7.004-5.012 0.9-8.032 6.040-6.297 10.859 0.064 0.257 0.064 0.386-0.129 0.578-4.562 4.562-9.189 9.189-13.815 13.815-1.285 1.221-1.349 3.213-0.129 4.498s3.213 1.414 4.562 0.193c0.064-0.064 0.129-0.064 0.193-0.129 1.414 1.092 2.956 0.9 3.92 0.257 1.478-1.028 1.799-2.378 1.285-4.048 0.45 0.386 0.835 0.835 1.285 1.285 1.349 1.285 3.406 1.221 4.626-0.064s1.157-3.277-0.129-4.562c-0.707-0.643-1.382-1.324-2.024-1.966 0.064-0.064 3.309-3.239 4.851-4.845 0.129-0.129 0.257-0.129 0.386-0.064 1.285 0.45 2.57 0.643 3.92 0.45 4.562-0.578 7.711-4.691 7.133-9.253zM24.257 14.072c-1.221 0.257-2.378 0.064-3.47-0.514-0.835-0.45-1.414-0.321-2.056 0.321-2.185 2.185-4.305 4.305-6.49 6.49-0.771 0.771-0.771 1.606 0 2.378 0.9 0.9 1.863 1.863 2.763 2.763 0.039 0.039 0.138 0.14 0.148 0.161 0.039 0.045 0.058 0.103 0.058 0.161 0 0.161-0.135 0.296-0.302 0.296-0.026 0-0.118-0.024-0.148-0.045-0.026-0.013-0.045-0.026-0.064-0.045-0.058-0.045-0.116-0.116-0.141-0.141-0.9-0.9-1.863-1.863-2.763-2.763-0.771-0.707-1.606-0.707-2.313 0-0.643 0.643-1.221 1.221-1.799 1.799-0.707 0.707-0.707 1.542 0 2.249 0.257 0.257 0.514 0.514 0.771 0.771 0.129 0.128 0.193 0.321 0.064 0.45-0.193 0.129-0.321 0.064-0.45-0.064l-0.835-0.835c-0.643-0.643-1.542-0.643-2.185 0l-0.964 0.964c-0.193 0.193-0.321 0.321-0.514 0.129s0-0.386 0.129-0.514l14.586-14.586c0.578-0.643 0.643-1.221 0.257-1.992-1.799-3.277 0.193-7.261 3.92-7.775 0.257-0.064 0.45-0.064 0.707-0.064 2.699 0 5.012 2.056 5.398 4.691 0.193 2.763-1.606 5.205-4.305 5.719z"></path>
</svg>
