<?xml version="1.0" encoding="UTF-8"?>
<!DOCTYPE svg PUBLIC "-//W3C//DTD SVG 1.1//EN" "http://www.w3.org/Graphics/SVG/1.1/DTD/svg11.dtd">
<svg xmlns="http://www.w3.org/2000/svg" version="1" shape-rendering="geometricPrecision" text-rendering="geometricPrecision" image-rendering="optimizeQuality" fill-rule="evenodd" clip-rule="evenodd" viewBox="0 0 218 58">
    <defs>
        <clipPath id="a">
            <path d="M26 84v-2s1-9 5-14c5-5 17-4 21-1l5 7s-14 1-20 6l-5 4s-2-6 1-9l-5 10c-2 4-2-1-2-1z"/>
        </clipPath>
    </defs>
    <path d="M25 16a15 15 0 1 1-14 19 10 10 0 1 0 0-9c2-6 7-10 14-10zm90 42h-1a356 356 0 0 1-12 0c53 0 96-13 96-28S155 3 102 3C72 3 46 7 28 13 47 5 79 0 115 0c57 0 103 13 103 29s-46 29-103 29z"/>
    <path d="M43 40l5-18h17l4 2 1 2-1 2-1 3-2 2-4 1H50l-2 6h-5zm8-9h10l2-1 1-2v-1l-1-2H53l-2 6zm19 9l5-18h20l-1 3H80l-2 4h9l6 1 1 3v1l-1 3-2 1-3 1-4 1H70zm6-3h10l2-1 1-2v-1l-1-1H78l-2 5zm50-15h-8l-13 12-3 3 1-3 4-12h-6l-5 18h8l13-12 3-3-1 3-3 12h5l5-18zm7 18l4-15h-8l1-3h22l-1 3h-8l-4 15h-6zm36-4h-12l-3 4h-5l14-18h8l5 18h-6l-1-4zm0-2l-2-9-8 9h10z"/>
    <path style="fill:#DC3832" fill="#DC3832" d="M3 25v-3s1-8 5-14c5-5 17-4 21 0 4 3 5 7 5 7s-14 0-20 6l-5 3s-2-5 1-9L4 25c-1 4-1 0-1 0z" />
    <path fill="none" d="M26 84v-2s1-9 5-14c5-5 17-4 21-1l5 7s-14 1-20 6l-5 4s-2-6 1-9l-5 10c-2 4-2-1-2-1z"/>
    <path fill="none" d="M33 14h1-1z"/>
    <path style="fill:#f2f2f2"  fill="#F2F2F2" d="M38 20c0-1 0 0 0 0l-3-5 1 1-1-1-1-1h-1l3 5h-1s2 1 1 3l-4-1-5 2 1-2-3 3 1-2-6 3v-1h1l-7 2 2 1s-3 0-5 2l2 2c1-2 5-3 5-3h-2c2-2 7-3 7-3v1l5-3-1 2 3-2-1 1 6-1c2-1 3 1 3 1v-4zM8 30v-3-1l-1-1-3-1 2 1 1 1v3l-2 2c-1 0 0 0 0 0H2 1l-1-1v1l2 1h4s-1 0 0 0l2-2z"/>
    <g id="white">
        <path fill="none" d="M4 23s1-3 7-5l-1 1s6-4 10-4l-1 1 3-2-1 1s7-2 10 0l-4 4-13 2-8 3-2-1z"/>
        <path style="fill:#fff"  fill="#fff" d="M0 26v4c0 1 0 0 0 0v1l2 1h4s-1 0 0 0l2-2v-3-1l-1-1-3-1-3 1a1 1 0 0 1-1 1z"/>
        <path style="fill:#fff" fill="#fff" d="M16 27l-2-1 7-2h-1l1 1 5-3-1 2 3-3-1 2 5-2 4 1c1-2-1-3-1-3h1l-3-5-7 2 2-1-3 1 1-1c-6 1-11 5-11 5l1-2s-6 2-7 5l1 6 1-2v2c2-2 5-2 5-2z"/>
    </g>
</svg>