<!DOCTYPE svg PUBLIC "-//W3C//DTD SVG 1.1//EN" "http://www.w3.org/Graphics/SVG/1.1/DTD/svg11.dtd">
<?xml-stylesheet href="TmpSVG.css" type="text/css"?>
<svg xmlns="http://www.w3.org/2000/svg" width="219" height="61" fill-rule="evenodd" viewBox="0 0 21900 6111" shape-rendering="geometricPrecision" text-rendering="geometricPrecision" image-rendering="optimizeQuality" clip-rule="evenodd">
    <path d="M3422 4203l543-1875h1283c224 0 405 12 547 35s250 64 323 125c75 61 112 146 112 255 0 56-11 122-32 201-37 129-87 235-149 317-61 82-141 147-239 195s-216 82-356 102c-139 19-313 29-519 29h-756l-177 616h-580zm844-916h713c137 0 245-9 325-27s143-48 188-92c46-44 81-108 106-192 17-51 25-97 25-137 0-78-35-133-104-163-70-30-187-45-350-45h-713l-190 656zm1992 916l543-1875h2103l-89 297H7287l-124 434h953c235 0 413 36 534 109s182 177 182 311c0 48-8 100-25 158-25 88-66 167-123 237s-128 130-214 180c-87 49-187 86-299 111-113 25-239 38-377 38H6258zm659-298h737c125 0 225-7 299-22 74-14 133-41 178-80 43-37 76-93 98-166 11-33 16-67 16-101 0-68-32-115-96-141-65-26-170-39-314-39h-757l-161 549zm5305-1577h-829l-1391 1256c-7 7-120 110-338 308 59-94 106-205 140-333l359-1231h-579l-543 1875h828l1391-1261c8-8 120-110 338-309-59 95-106 206-140 334l-359 1236h580l543-1875zm711 1875l451-1562h-873l93-313h2348l-93 313h-892l-450 1562h-584zm3845-359h-1303l-293 359h-600l1544-1875h849l479 1875h-587l-89-359zm-56-267l-241-974-797 974h1038z" class="fil0"/>
    <path d="M1503 1700c868 0 1571 703 1571 1571s-703 1572-1571 1572C795 4843 197 4376 0 3733c176 357 543 602 968 602 595 0 1078-483 1078-1079 0-595-483-1078-1078-1078-404 0-755 221-940 549 221-600 798-1027 1475-1027zm9471 4411c-564 0-1118-12-1659-35 126 2 253 3 381 3 5551 0 10052-1297 10052-2896S15247 288 9696 288c-3163 0-5984 421-7827 1078C3827 543 7174 0 10974 0c6033 0 10926 1368 10926 3056 0 1687-4893 3055-10926 3055z" class="fil1"/>
</svg>