<?xml version="1.0" encoding="utf-8"?>
<!-- Generated by IcoMoon.io -->
<!DOCTYPE svg PUBLIC "-//W3C//DTD SVG 1.1//EN" "http://www.w3.org/Graphics/SVG/1.1/DTD/svg11.dtd">
<svg version="1.1" xmlns="http://www.w3.org/2000/svg" xmlns:xlink="http://www.w3.org/1999/xlink" width="32" height="32" viewBox="0 0 32 32">
<path d="M26.509 24.172c-0.836-0.935-1.674-1.867-2.51-2.803-0.040-0.045-0.063-0.105-0.104-0.172 0.065-0.004 0.099-0.007 0.133-0.008 0.527-0.002 1.054 0.006 1.58-0.007 0.402-0.010 0.667-0.462 0.451-0.799-0.203-0.317-0.46-0.601-0.705-0.89-0.726-0.858-1.458-1.711-2.188-2.566-0.493-0.576-0.987-1.152-1.479-1.729-0.028-0.033-0.048-0.073-0.089-0.136 0.452 0 0.865 0.016 1.275-0.008 0.163-0.009 0.33-0.088 0.479-0.166 0.252-0.134 0.189-0.612 0.022-0.808-0.512-0.598-1.014-1.204-1.522-1.806-0.711-0.842-1.427-1.681-2.134-2.526-0.327-0.391-0.672-0.773-0.951-1.198-0.549-0.837-1.057-1.701-1.581-2.555-0.234-0.381-0.464-0.765-0.697-1.147 0.059-0.012 0.099-0 0.134 0.020 0.182 0.107 0.363 0.126 0.557 0.022 0.157-0.084 0.338-0.349 0.32-0.494-0.044-0.337-0.095-0.673-0.123-1.012-0.008-0.091 0.032-0.209 0.092-0.28 0.192-0.229 0.392-0.453 0.609-0.658 0.2-0.19 0.196-0.41 0.11-0.626-0.047-0.116-0.167-0.245-0.282-0.281-0.256-0.080-0.529-0.108-0.796-0.153-0.245-0.042-0.46-0.093-0.565-0.377-0.095-0.255-0.279-0.475-0.391-0.725-0.127-0.284-0.787-0.283-0.918 0.009-0.146 0.326-0.344 0.628-0.523 0.939-0.020 0.034-0.055 0.076-0.090 0.083-0.342 0.072-0.683 0.151-1.028 0.201-0.214 0.031-0.335 0.155-0.398 0.331-0.073 0.203-0.077 0.406 0.104 0.583 0.226 0.221 0.435 0.458 0.646 0.692 0.046 0.051 0.1 0.125 0.095 0.185-0.029 0.351-0.071 0.701-0.116 1.050-0.026 0.202 0.042 0.358 0.207 0.472 0.161 0.111 0.322 0.204 0.524 0.081 0.068-0.042 0.153-0.055 0.276-0.097-0.322 0.518-0.617 0.987-0.907 1.459-0.351 0.572-0.69 1.153-1.051 1.719-0.268 0.42-0.548 0.835-0.851 1.231-0.28 0.366-0.601 0.702-0.899 1.055-0.686 0.813-1.367 1.629-2.052 2.443-0.386 0.459-0.778 0.914-1.162 1.375-0.194 0.233-0.189 0.637 0.027 0.781 0.141 0.094 0.319 0.166 0.486 0.181 0.318 0.028 0.641 0.008 0.961 0.009 0.053 0 0.106 0.008 0.183 0.015-0.162 0.193-0.302 0.362-0.444 0.529-0.814 0.956-1.627 1.914-2.443 2.868-0.482 0.564-0.968 1.125-1.457 1.683-0.23 0.262-0.294 0.761 0.029 0.905 0.128 0.057 0.269 0.116 0.406 0.12 0.521 0.014 1.042 0.006 1.563 0.006 0.015 0.014 0.030 0.028 0.045 0.042-0.097 0.111-0.194 0.222-0.291 0.332-0.849 0.957-1.699 1.915-2.549 2.872-0.406 0.456-0.819 0.907-1.22 1.367-0.22 0.252-0.283 0.716 0.028 0.875 0.144 0.074 0.315 0.136 0.474 0.136 3.173 0.008 6.345 0.006 9.518 0.006 0.068 0 0.135 0 0.205 0 0.022 0.097 0.051 0.179 0.057 0.263 0.028 0.381 0.049 0.762 0.074 1.144 0.021 0.33 0.046 0.66 0.064 0.989 0.029 0.53 0.055 1.060 0.082 1.59 0.005 0.091 0.003 0.183 0.008 0.275 0.026 0.476 0.477 0.92 0.943 0.9 0.555-0.023 1.111-0.022 1.666-0 0.457 0.018 0.906-0.4 0.945-0.881 0.029-0.358 0.047-0.717 0.070-1.075 0.023-0.353 0.049-0.705 0.067-1.058 0.031-0.587 0.056-1.175 0.087-1.762 0.007-0.127 0.033-0.254 0.051-0.385 0.094 0 0.162 0 0.231 0 3.19 0 6.38 0.001 9.569-0.004 0.146-0 0.304-0.040 0.435-0.106 0.369-0.186 0.297-0.645 0.063-0.915-0.473-0.545-0.954-1.084-1.435-1.622zM25.007 20.35c-0.943 0-1.853 0-2.778 0 0.438-0.575 0.867-1.138 1.309-1.718 0.483 0.565 0.964 1.127 1.469 1.718zM14.825 3.925c0.030-0.21 0.080-0.986 0.080-0.986s-0.447-0.486-0.643-0.693c0.123-0.036 0.954-0.206 0.954-0.206s0.336-0.598 0.479-0.864c0.154 0.274 0.498 0.878 0.498 0.878s0.635 0.115 0.953 0.17c-0.154 0.17-0.652 0.735-0.652 0.735s0.066 0.761 0.078 0.962c-0.234-0.11-0.89-0.409-0.89-0.409s-0.621 0.299-0.857 0.413zM11.517 11.221c0.441-0.52 0.9-1.024 1.318-1.561 0.327-0.42 0.611-0.873 0.897-1.323 0.363-0.571 0.709-1.153 1.062-1.729 0.267-0.436 0.535-0.872 0.803-1.307 0.028-0.045 0.062-0.087 0.105-0.147 0.198 0.318 0.386 0.619 0.574 0.922 0.257 0.415 0.516 0.83 0.77 1.247 0.048 0.079 0.094 0.159 0.139 0.239-0.155-0.164-0.376-0.269-0.616-0.268-0.441 0-0.81 0.386-0.81 0.845 0 0.432 0.379 0.803 0.823 0.806-0.33 0.315-0.688 0.601-1.079 0.853-0.571 0.368-1.171 0.678-1.8 0.921-0.467 0.181-0.959 0.298-1.443 0.434-0.248 0.070-0.502 0.118-0.794 0.186 0.027-0.061 0.033-0.094 0.052-0.117zM16.993 8.119c0.003 0.22-0.191 0.419-0.425 0.412-0.219-0.007-0.407-0.209-0.396-0.423 0.011-0.229 0.187-0.399 0.417-0.402 0.23 0.012 0.401 0.183 0.404 0.414zM14.966 11.384c0.003 0.22-0.191 0.419-0.425 0.412-0.219-0.007-0.407-0.209-0.396-0.423 0.011-0.229 0.187-0.399 0.417-0.402 0.23 0.012 0.401 0.183 0.404 0.414zM10.344 12.598c0.129-0.15 0.256-0.303 0.381-0.456 0.127-0.157 0.272-0.237 0.491-0.251 0.297-0.020 0.59-0.115 0.884-0.18 0.207-0.046 0.415-0.090 0.618-0.149 0.32-0.093 0.643-0.181 0.953-0.301 0.026-0.010 0.051-0.020 0.077-0.030-0.011 0.056-0.017 0.113-0.017 0.172 0 0.435 0.384 0.807 0.831 0.806 0.448-0.001 0.819-0.38 0.819-0.837-0-0.287-0.162-0.544-0.4-0.69 0.274-0.147 0.533-0.324 0.789-0.502 0.576-0.4 1.108-0.853 1.576-1.377 0.116-0.13 0.222-0.269 0.342-0.415 0.184 0.289 0.341 0.574 0.534 0.831 0.278 0.368 0.579 0.719 0.877 1.072 0.595 0.709 1.195 1.414 1.791 2.121 0.494 0.585 0.986 1.171 1.479 1.757 0.010 0.011 0.015 0.026 0.037 0.064-0.866 0-1.714 0-2.591 0 0.035 0.065 0.049 0.106 0.075 0.136 0.583 0.68 1.168 1.359 1.75 2.040 0.028 0.033 0.037 0.082 0.055 0.123-0.041 0.012-0.083 0.034-0.124 0.034-0.435 0.002-0.871 0.017-1.305-0.005-0.517-0.026-1.034-0.067-1.547-0.134-0.308-0.041-1.211-0.218-1.907-0.367 0.135-0.15 0.219-0.349 0.219-0.565-0-0.442-0.385-0.815-0.84-0.815-0.441 0-0.81 0.386-0.81 0.845 0 0.049 0.005 0.098 0.015 0.145-0.112-0.043-0.224-0.088-0.335-0.134-0.522-0.217-1.043-0.437-1.552-0.68-0.902-0.431-1.757-0.942-2.542-1.565-0.203-0.161-0.403-0.326-0.608-0.485-0.088-0.068-0.083-0.13-0.015-0.208zM19.914 17.57c0.003 0.22-0.191 0.419-0.425 0.412-0.219-0.007-0.407-0.209-0.396-0.423 0.011-0.229 0.187-0.399 0.417-0.402 0.23 0.012 0.401 0.183 0.404 0.414zM16.615 15.508c0.003 0.22-0.191 0.419-0.425 0.412-0.007-0-0.014-0.001-0.020-0.002-0.044-0.011-0.082-0.020-0.116-0.029-0.155-0.065-0.269-0.225-0.26-0.393 0.011-0.229 0.187-0.399 0.417-0.402 0.23 0.012 0.401 0.183 0.404 0.414zM12.869 15.508c0.003 0.22-0.191 0.419-0.425 0.412-0.219-0.007-0.407-0.209-0.396-0.423 0.011-0.229 0.187-0.399 0.417-0.402 0.23 0.012 0.401 0.183 0.404 0.414zM8.828 17.336c0.86-1.002 1.717-2.007 2.575-3.010 0.014-0.016 0.026-0.034 0.066-0.084-0.841 0-1.646 0-2.485 0 0.075-0.105 0.126-0.188 0.188-0.262 0.241-0.286 0.486-0.569 0.727-0.855 0.067-0.079 0.117-0.063 0.195-0.004 0.549 0.414 1.091 0.839 1.66 1.225 0.178 0.121 0.36 0.238 0.545 0.349-0.374 0.074-0.665 0.423-0.664 0.831 0 0.435 0.384 0.807 0.831 0.806 0.448-0.001 0.819-0.38 0.819-0.837-0-0.104-0.022-0.205-0.061-0.297 0.484 0.234 0.989 0.427 1.489 0.627 0.368 0.147 0.74 0.283 1.115 0.411 0.083 0.044 0.174 0.074 0.269 0.088 0.165 0.045 0.336 0.075 0.503 0.114 0.273 0.065 0.545 0.131 0.818 0.193 0.126 0.029 0.254 0.059 0.382 0.074 0.435 0.050 0.871 0.095 1.307 0.141-0.252 0.145-0.426 0.425-0.426 0.741 0 0.435 0.384 0.807 0.831 0.806 0.448-0.001 0.819-0.38 0.819-0.837-0-0.234-0.109-0.45-0.278-0.6 0.077 0.006 0.154 0.011 0.231 0.013 0.513 0.011 1.027-0.012 1.54-0.032 0.159-0.006 0.28-0.006 0.398 0.144 0.292 0.372 0.613 0.721 0.923 1.080 0.076 0.088 0.121 0.152-0.040 0.214-0.381 0.147-0.753 0.319-1.133 0.468-0.299 0.118-0.603 0.226-0.91 0.322-0.278 0.087-0.562 0.155-0.843 0.229-0.25 0.065-0.499 0.13-0.75 0.19-0.132 0.032-0.265 0.060-0.399 0.077-0.439 0.055-0.877 0.124-1.318 0.149-0.666 0.038-1.335 0.063-2.002 0.058-0.209-0.002-0.827-0.069-1.432-0.154 0.108-0.142 0.172-0.318 0.172-0.509-0-0.442-0.385-0.815-0.84-0.815-0.441 0-0.81 0.386-0.81 0.845 0 0.068 0.010 0.135 0.027 0.198-0.354-0.108-0.713-0.2-1.062-0.324-0.707-0.253-1.398-0.548-2.050-0.924-0.305-0.176-0.603-0.365-0.896-0.56-0.183-0.121-0.171-0.126-0.029-0.292zM17.027 20.869c0.003 0.22-0.191 0.419-0.425 0.412-0.219-0.007-0.407-0.209-0.396-0.423 0.011-0.229 0.187-0.399 0.417-0.402 0.23 0.012 0.401 0.183 0.404 0.414zM14.072 19.219c0.003 0.196-0.152 0.376-0.352 0.407-0.085-0.014-0.167-0.028-0.244-0.042-0.137-0.073-0.233-0.221-0.226-0.377 0.011-0.229 0.187-0.399 0.417-0.402 0.23 0.012 0.401 0.183 0.404 0.414zM10.017 19.185c0.003 0.22-0.191 0.419-0.425 0.412-0.219-0.007-0.407-0.209-0.396-0.423 0.011-0.229 0.187-0.399 0.417-0.402 0.23 0.012 0.401 0.183 0.404 0.414zM12.166 25.928c-0.226 0.044-0.461 0.063-0.692 0.064-2.325 0.004-4.65 0.003-6.975 0.003-0.072 0-0.145 0-0.254 0 1.673-1.882 3.319-3.734 4.965-5.585-0.007-0.015-0.014-0.030-0.022-0.045-0.967 0-1.934 0-2.948 0 0.741-0.868 1.451-1.698 2.161-2.529 0.31 0.201 0.613 0.381 0.898 0.581-0.301 0.124-0.519 0.433-0.519 0.787 0 0.435 0.384 0.807 0.831 0.806 0.448-0.001 0.819-0.38 0.819-0.837-0-0.064-0.008-0.127-0.024-0.188 0.013 0.004 0.025 0.009 0.038 0.013 0.354 0.123 0.687 0.301 1.038 0.433 0.317 0.119 0.644 0.214 0.97 0.309 0.302 0.088 0.607 0.167 0.912 0.245 0.079 0.032 0.164 0.051 0.252 0.057 0.074 0.014 0.149 0.026 0.224 0.036 0.224 0.031 0.449 0.061 0.675 0.081 0.508 0.044 1.015 0.109 1.524 0.124-0.152 0.154-0.248 0.369-0.248 0.603 0 0.435 0.384 0.807 0.831 0.806 0.448-0.001 0.819-0.38 0.819-0.837-0-0.227-0.102-0.436-0.263-0.586 0.324-0.014 0.648-0.036 0.971-0.066 0.481-0.044 0.957-0.156 1.432-0.252 0.417-0.085 0.835-0.171 1.243-0.291 0.448-0.131 0.884-0.3 1.326-0.452 0.169-0.058 0.338-0.115 0.507-0.173 0.008 0.014 0.016 0.028 0.025 0.042-0.106 0.145-0.205 0.296-0.318 0.436-0.706 0.878-1.483 1.688-2.314 2.448-0.175 0.16-0.339 0.332-0.517 0.487-0.048-0.401-0.411-0.725-0.834-0.725-0.441 0-0.81 0.386-0.81 0.845 0 0.316 0.203 0.599 0.486 0.73-0.416 0.274-0.837 0.543-1.273 0.784-0.521 0.288-1.056 0.551-1.592 0.811-0.302 0.147-0.611 0.285-0.928 0.395-0.040 0.014-0.080 0.027-0.12 0.041 0.060-0.116 0.094-0.247 0.094-0.386-0-0.442-0.385-0.815-0.84-0.815-0.441 0-0.81 0.386-0.81 0.845 0 0.285 0.165 0.544 0.405 0.688-0.379 0.099-0.761 0.189-1.145 0.264zM21.537 21.314c0.23 0.012 0.401 0.183 0.404 0.414 0.003 0.22-0.191 0.419-0.425 0.412-0.219-0.007-0.407-0.209-0.396-0.423 0.011-0.229 0.187-0.399 0.417-0.402zM19.124 22.553c0.003 0.22-0.191 0.419-0.425 0.412-0.219-0.007-0.407-0.209-0.396-0.423 0.011-0.229 0.187-0.399 0.417-0.402 0.23 0.012 0.401 0.183 0.404 0.414zM17.818 24.958c0.003 0.22-0.191 0.419-0.425 0.412-0.219-0.007-0.407-0.209-0.396-0.423 0.011-0.229 0.187-0.399 0.417-0.402 0.23 0.012 0.401 0.183 0.404 0.414zM13.716 25.37c-0.219-0.007-0.407-0.209-0.396-0.423 0.011-0.229 0.187-0.399 0.417-0.402 0.23 0.012 0.401 0.183 0.404 0.414 0.003 0.22-0.191 0.419-0.425 0.412zM16.758 27.593c-0.020 0.462-0.049 0.923-0.077 1.384-0.019 0.307-0.042 0.614-0.062 0.921-0.024 0.375-0.050 0.751-0.069 1.127-0.005 0.101-0.049 0.126-0.138 0.125-0.544-0.002-1.088-0.002-1.632 0-0.099 0-0.14-0.029-0.144-0.136-0.022-0.553-0.050-1.106-0.079-1.659-0.022-0.416-0.049-0.831-0.075-1.246-0.019-0.307-0.040-0.614-0.063-0.921-0.008-0.107-0.023-0.213-0.038-0.345 0.8 0 1.604 0 2.379 0 0 0.25 0.009 0.5-0.002 0.75zM13.848 25.977c0.518-0.189 1.002-0.346 1.471-0.541 0.433-0.181 0.851-0.399 1.276-0.6-0.008 0.046-0.012 0.093-0.012 0.141 0 0.435 0.384 0.807 0.831 0.806 0.448-0.001 0.819-0.38 0.819-0.837-0-0.328-0.212-0.618-0.508-0.746 0.133-0.079 0.248-0.15 0.323-0.199 0.409-0.268 1.216-0.766 1.825-1.272 0.336-0.279 0.631-0.557 0.861-0.787 0.094 0.345 0.427 0.61 0.804 0.61 0.448-0.001 0.819-0.38 0.819-0.837-0-0.387-0.295-0.721-0.673-0.798 0.135-0.148 0.273-0.298 0.415-0.455 1.637 1.843 3.262 3.671 4.899 5.514-4.382 0-8.746 0-13.15 0z"></path>
<path d="M26.116 13.006c0.448-0.001 0.819-0.38 0.819-0.837-0-0.442-0.385-0.815-0.84-0.815-0.441 0-0.81 0.386-0.81 0.845 0 0.435 0.384 0.807 0.831 0.806zM26.116 11.768c0.23 0.012 0.401 0.183 0.404 0.414 0.003 0.22-0.191 0.419-0.425 0.412-0.219-0.007-0.407-0.209-0.396-0.423 0.011-0.229 0.187-0.399 0.417-0.402z"></path>
<path d="M9.614 7.232c0.411 0.027 0.828-0.427 0.829-0.819 0.001-0.413-0.42-0.828-0.818-0.835-0.414-0.007-0.838 0.425-0.839 0.833-0 0.395 0.424 0.85 0.829 0.821zM9.629 5.994c0.242 0.003 0.399 0.169 0.398 0.42-0.001 0.254-0.162 0.406-0.427 0.404-0.243-0.002-0.398-0.165-0.397-0.417 0.001-0.251 0.168-0.411 0.426-0.408z"></path>
<path d="M22.392 8.882c0.412 0.032 0.833-0.425 0.835-0.815 0.002-0.417-0.423-0.84-0.83-0.839-0.405 0.001-0.822 0.421-0.827 0.827-0.005 0.402 0.427 0.856 0.822 0.827zM22.402 7.644c0.244 0.001 0.407 0.166 0.408 0.411 0.001 0.257-0.157 0.414-0.416 0.413-0.25-0.001-0.407-0.156-0.408-0.405-0.001-0.258 0.16-0.42 0.416-0.42z"></path>
<path d="M5.499 16.717c0.401 0.023 0.825-0.426 0.821-0.829-0.004-0.404-0.421-0.824-0.828-0.826-0.405-0.001-0.835 0.425-0.83 0.842 0.005 0.386 0.422 0.844 0.836 0.812zM5.493 15.479c0.245 0 0.409 0.164 0.41 0.408 0.001 0.258-0.157 0.417-0.415 0.417-0.25-0-0.408-0.156-0.409-0.404-0.001-0.258 0.159-0.421 0.414-0.421z"></path>
<path d="M29.003 20.837c-0.41-0.005-0.835 0.423-0.835 0.836 0 0.393 0.426 0.85 0.831 0.817 0.402 0.029 0.83-0.425 0.826-0.823-0.004-0.412-0.421-0.826-0.822-0.831zM28.995 22.077c-0.252-0-0.409-0.154-0.41-0.402-0.001-0.258 0.159-0.423 0.413-0.423s0.413 0.166 0.411 0.425c-0.002 0.245-0.162 0.4-0.414 0.4z"></path>
<path d="M30.962 16.271l0.838-0.838c0.076-0.076 0.076-0.201 0-0.277s-0.201-0.076-0.277 0l-0.838 0.838c-0.076 0.076-0.076 0.201 0 0.277s0.201 0.076 0.277 0z"></path>
<path d="M28.925 18.307l0.838-0.838c0.076-0.076 0.076-0.201 0-0.277s-0.201-0.076-0.277 0l-0.838 0.838c-0.076 0.076-0.076 0.201 0 0.277s0.201 0.076 0.277 0z"></path>
<path d="M28.947 15.155c-0.076-0.076-0.201-0.076-0.277 0s-0.076 0.201 0 0.277l0.838 0.838c0.076 0.076 0.201 0.076 0.277 0s0.076-0.201 0-0.277l-0.838-0.838z"></path>
<path d="M31.822 18.030l-0.838-0.838c-0.076-0.076-0.201-0.076-0.277 0s-0.076 0.201 0 0.277l0.838 0.838c0.076 0.076 0.201 0.076 0.277 0s0.076-0.201 0-0.277z"></path>
<path d="M24.347 2.645l0.838-0.838c0.076-0.076 0.076-0.201 0-0.277s-0.201-0.076-0.277 0l-0.838 0.838c-0.076 0.076-0.076 0.201 0 0.277s0.201 0.076 0.277 0z"></path>
<path d="M22.31 4.682l0.838-0.838c0.076-0.076 0.076-0.201 0-0.277s-0.201-0.076-0.277 0l-0.838 0.838c-0.076 0.076-0.076 0.201 0 0.277s0.201 0.076 0.277 0z"></path>
<path d="M22.893 2.645c0.076 0.076 0.201 0.076 0.277 0s0.076-0.201 0-0.277l-0.838-0.838c-0.076-0.076-0.201-0.076-0.277 0s-0.076 0.201 0 0.277l0.838 0.838z"></path>
<path d="M24.368 3.566c-0.076-0.076-0.201-0.076-0.277 0s-0.076 0.201 0 0.277l0.838 0.838c0.076 0.076 0.201 0.076 0.277 0s0.076-0.201 0-0.277l-0.838-0.838z"></path>
<path d="M5.791 9.604l0.838-0.838c0.076-0.076 0.076-0.201 0-0.277s-0.201-0.076-0.277 0l-0.838 0.838c-0.076 0.076-0.076 0.201 0 0.277s0.201 0.076 0.277 0z"></path>
<path d="M3.754 11.64l0.838-0.838c0.076-0.076 0.076-0.201 0-0.277s-0.201-0.076-0.277 0l-0.838 0.838c-0.076 0.076-0.076 0.201 0 0.277s0.201 0.076 0.277 0z"></path>
<path d="M4.337 9.604c0.076 0.076 0.201 0.076 0.277 0s0.076-0.201 0-0.277l-0.838-0.838c-0.076-0.076-0.201-0.076-0.277 0s-0.076 0.201 0 0.277l0.838 0.838z"></path>
<path d="M5.812 10.525c-0.076-0.076-0.201-0.076-0.277 0s-0.076 0.201 0 0.277l0.838 0.838c0.076 0.076 0.201 0.076 0.277 0s0.076-0.201 0-0.277l-0.838-0.838z"></path>
<path d="M2.492 21.201l0.838-0.838c0.076-0.076 0.076-0.201 0-0.277s-0.201-0.076-0.277 0l-0.838 0.838c-0.076 0.076-0.076 0.201 0 0.277s0.201 0.076 0.277 0z"></path>
<path d="M1.016 22.122l-0.838 0.838c-0.076 0.076-0.076 0.201 0 0.277s0.201 0.076 0.277 0l0.838-0.838c0.076-0.076 0.076-0.201 0-0.277s-0.201-0.076-0.277 0z"></path>
<path d="M0.477 20.086c-0.076-0.076-0.201-0.076-0.277 0s-0.076 0.201 0 0.277l0.838 0.838c0.076 0.076 0.201 0.076 0.277 0s0.076-0.201 0-0.277l-0.838-0.838z"></path>
<path d="M3.352 23.238c0.076-0.076 0.076-0.201 0-0.277l-0.838-0.838c-0.076-0.076-0.201-0.076-0.277 0s-0.076 0.201 0 0.277l0.838 0.838c0.076 0.076 0.201 0.076 0.277 0z"></path>
</svg>
