<?xml version="1.0" encoding="utf-8"?>
<!-- Generated by IcoMoon.io -->
<!DOCTYPE svg PUBLIC "-//W3C//DTD SVG 1.1//EN" "http://www.w3.org/Graphics/SVG/1.1/DTD/svg11.dtd">
<svg version="1.1" xmlns="http://www.w3.org/2000/svg" xmlns:xlink="http://www.w3.org/1999/xlink" width="32" height="32" viewBox="0 0 32 32">
<path d="M26.875 23.162c-1.314-1.183-2.76-2.234-4.271-3.154-1.051-0.657-2.103-0.526-3.023 0.131-0.394 0.263-0.723 0.591-1.117 0.92-0.46 0.394-0.854 0.854-1.248 1.248-0.46 0.46-0.591 0.46-1.117 0.066-0.329-0.197-0.657-0.46-0.92-0.723-1.511-1.511-3.023-3.023-4.534-4.534-0.263-0.263-0.526-0.657-0.723-0.986-0.329-0.526-0.329-0.657 0.066-1.117 0.526-0.591 1.117-1.117 1.643-1.708 0.329-0.329 0.591-0.723 0.788-1.183 0.394-0.723 0.394-1.446 0-2.168-0.986-1.774-2.168-3.417-3.548-4.862-0.46-0.46-0.986-0.657-1.643-0.657-1.183 0-2.168 0.526-3.023 1.314-0.92 0.854-1.708 1.774-2.431 2.825-1.643 2.431-1.774 4.928-0.46 7.491 0.591 1.183 1.314 2.234 2.168 3.22 2.76 3.154 5.782 6.111 8.871 8.936 1.117 1.051 2.366 1.971 3.745 2.628 1.051 0.526 2.168 0.854 3.285 0.854 1.248 0 2.3-0.329 3.285-0.854 1.511-0.788 2.825-1.84 3.942-3.154 0.46-0.526 0.788-1.117 0.986-1.774 0.394-0.986 0.197-1.971-0.723-2.76zM25.626 25.331c-0.131 0.394-0.394 0.854-0.657 1.183-0.788 0.854-1.708 1.643-2.694 2.3-1.577 0.986-3.22 1.117-4.928 0.329-1.314-0.657-2.497-1.511-3.614-2.497-3.023-2.76-5.914-5.52-8.542-8.608-0.854-0.986-1.577-2.037-2.103-3.22-0.329-0.657-0.526-1.38-0.526-1.971 0-1.248 0.394-2.234 0.986-3.023 0.657-0.854 1.38-1.708 2.103-2.497 0.329-0.329 0.788-0.591 1.183-0.723 0.263-0.066 0.46 0 0.591 0.197 1.117 1.314 2.103 2.628 2.957 4.074 0.131 0.197 0.131 0.394 0 0.526-0.46 0.526-0.92 0.986-1.314 1.511-0.329 0.394-0.723 0.723-0.986 1.117-0.723 0.854-0.854 1.84-0.329 2.891 0.263 0.46 0.526 0.92 0.854 1.314 1.774 1.84 3.548 3.614 5.388 5.388 0.394 0.329 0.854 0.657 1.314 0.854 0.986 0.526 1.971 0.394 2.825-0.263 0.329-0.263 0.657-0.591 0.986-0.92 0.526-0.46 0.986-0.92 1.511-1.38 0.263-0.263 0.526-0.263 0.788-0.066 1.38 0.854 2.694 1.84 3.942 2.891 0.329 0.197 0.394 0.329 0.263 0.591z"></path>
<path d="M31.54 12.846c-1.708-7.162-8.279-12.419-15.507-12.55-0.197 0-0.394 0-0.526 0-0.526 0-0.92 0.394-0.986 0.92s0.263 0.986 0.723 1.117c0.263 0.066 0.526 0.066 0.723 0.066 2.365 0.066 4.534 0.591 6.571 1.774 4.731 2.76 7.228 6.965 7.359 12.485 0 0.657 0.46 1.117 1.051 1.117s1.051-0.46 1.051-1.183c0-1.248-0.197-2.497-0.46-3.745z"></path>
<path d="M15.507 6.604c1.248 0 2.497 0.197 3.68 0.657 3.942 1.511 6.439 5.125 6.505 9.462 0 0.657 0.46 1.117 1.051 1.117s1.051-0.46 0.986-1.117c-0.066-0.854-0.131-1.774-0.263-2.628-1.183-5.52-6.111-9.528-11.63-9.593-0.131 0-0.263 0-0.394 0-0.329 0-0.591 0.131-0.788 0.46-0.263 0.329-0.263 0.723-0.066 1.051 0.197 0.394 0.526 0.591 0.92 0.591z"></path>
</svg>
