<?xml version="1.0" encoding="utf-8"?>
<!-- Generated by IcoMoon.io -->
<!DOCTYPE svg PUBLIC "-//W3C//DTD SVG 1.1//EN" "http://www.w3.org/Graphics/SVG/1.1/DTD/svg11.dtd">
<svg version="1.1" xmlns="http://www.w3.org/2000/svg" xmlns:xlink="http://www.w3.org/1999/xlink" width="32" height="32" viewBox="0 0 32 32">
<path d="M29.797 16.746c0.271-1.085 0.271-2.169-0.407-3.119-0.61-0.814-1.627-1.017-2.441-0.407-0.407 0.339-1.153 1.288-1.22 1.356s-0.136 0.136-0.203 0.203c1.22-2.373 1.356-4.746 0.407-7.186 2.237-0.542 3.39-1.898 3.39-3.797 0-1.763-1.22-3.254-2.915-3.593-0.814-0.203-1.627-0.068-2.441 0.271-1.153 0.542-1.831 1.559-2.034 2.78-4.678-2.034-8.881-1.356-12.678 2.034-0.475-0.814-1.085-1.492-2.034-1.83-1.017-0.271-1.966-0.203-2.847 0.203-1.559 0.678-2.441 2.305-2.17 4.068 0.136 0.814 0.475 1.492 1.085 2.034 0.949 0.949 2.102 1.22 3.458 1.017-0.203 2.78 0.814 5.017 2.847 6.915 0 0.035-0.813 1.094-1.418 2.156-0.581 1.021-0.955 2.047-0.955 2.047s-0.136 0.136-0.203 0.203c-0.881 0.746-1.356 1.695-1.492 2.847-0.271 2.712 1.356 5.424 3.864 6.373 1.763 0.678 3.525 0.542 4.814-0.814l0.136-0.068c0 0 1.492 0.271 3.119 0.339 0.542 0 1.356-0.068 1.966-0.136s1.085-0.203 1.153-0.203c0 0 0.271 0.203 0.542 0.407s0.61 0.407 1.017 0.542c0.814 0.339 1.559 0.407 2.237 0.339 3.051-0.475 5.288-3.39 5.085-6.508-0.203-2.305-1.966-4.068-4.271-3.864-0.271 0-0.542 0.068-0.542 0.068s-0.136-0.271-0.271-0.61c1.491-0.271 2.508-0.61 3.39-1.22 0.949-0.814 1.695-1.627 2.034-2.847zM7.763 9.695c0.037-0.124 0.068-0.203 0.068-0.339-0.542 0.203-0.949 0.407-1.559 0.475-1.356 0.203-2.576-0.61-3.051-1.898 0-0.068-0.068-0.136-0.068-0.203-0.068-0.136-0.068-0.271-0.068-0.407-0.271-1.356 0.814-2.847 2.305-3.051 0.068 0 0.068 0 0.136 0 1.424-0.203 2.732 0.526 3.139 2.085 0.127 0.347 0.138 0.489 0.183 0.694v0.068c4.068-4.475 8.678-5.22 13.966-2.17-0.051-0.528-0.135-0.961 0-1.559 0.271-1.492 1.695-2.508 3.051-2.305 1.559 0.203 2.644 1.492 2.508 3.051-0.068 1.424-1.288 2.576-2.78 2.644-0.407 0-0.814-0.068-1.22-0.068 0.068 0.136 0.136 0.271 0.203 0.407 1.831 3.051 1.22 6.576-1.153 9.085-1.695 1.831-3.864 2.78-6.373 2.983s-4.746-0.339-6.712-1.966c-2.373-1.966-3.254-4.475-2.576-7.525zM8.441 20.949c0.206-0.535 0.726-1.407 1.146-2.015 0.272-0.393 0.522-0.67 0.549-0.697 0.136 0.068 0.339 0.203 0.475 0.271 0.271 0.136 0.542 0.339 0.814 0.475 0 0 0.033 0.021 0.068 0.068-0.133 0.166-0.493 0.67-0.793 1.161-0.313 0.512-0.562 1.008-0.562 1.008s0 0-0.068 0c-0.136 0-0.475 0-0.746 0-0.068 0-0.136 0-0.203 0-0.271 0-0.506 0.031-0.845 0.099 0.025-0.079 0.167-0.37 0.167-0.37zM10.136 30.644c-2.508-0.678-4.271-3.593-3.729-6.034 0.339-1.559 1.627-2.508 3.525-2.508 0.746 0 1.695 0.407 2.508 1.153 1.288 1.085 1.966 2.441 1.966 4.136 0.068 2.373-1.898 3.864-4.271 3.254zM19.559 28c0.068 0.339 0.203 0.814 0.339 1.153 0 0.068 0.068 0.136 0.068 0.136 0.068 0.068 0.068 0.136 0.136 0.271-1.695 0.475-3.39 0.475-5.085 0-0.068 0-0.136 0-0.203-0.068 0.746-1.627 0.678-3.254-0.136-4.814-0.746-1.559-1.966-2.644-3.661-3.254 0.271-0.746 1.22-2.102 1.22-2.102s0.271 0.068 0.339 0.068c1.22 0.407 2.508 0.678 3.797 0.61 0.068 0 0.136 0 0.203 0s0.136 0 0.136 0 0.068 0 0.136 0h0.068c0.068 0 0.136 0 0.203 0 1.627-0.136 3.186-0.61 4.678-1.491 0.881 0.746 1.491 1.627 1.898 2.644 0 0.068 0.068 0.136 0.068 0.203-1.627 0.61-2.915 1.695-3.661 3.254 0 0.068-0.068 0.136-0.068 0.136 0 0.068-0.068 0.068-0.068 0.136-0.407 1.085-0.61 2.102-0.407 3.119zM28.509 25.559c0 2.237-1.627 4.407-3.729 5.017-2.305 0.678-4.339-0.746-4.407-3.186-0.068-2.305 1.763-4.678 4-5.22 2.305-0.542 4.136 1.017 4.136 3.39zM23.898 19.864c0 0-1.153-1.424-1.424-1.695 0.136-0.068 0.475-0.271 0.678-0.339 1.356-0.475 2.441-1.288 3.186-2.441 0.271-0.407 0.542-0.814 0.881-1.153 0.61-0.61 1.288-0.475 1.559 0.271 0.475 1.017 0.271 2.034-0.271 2.983s-1.491 1.559-2.508 1.898c-0.542 0.136-2.102 0.475-2.102 0.475z"></path>
<path d="M25.186 6.17c0.881 0 1.695-0.746 1.695-1.627s-0.746-1.627-1.695-1.627c-0.949 0-1.627 0.746-1.627 1.627s0.678 1.627 1.627 1.627zM25.186 3.322c0.678 0 1.22 0.542 1.22 1.22s-0.542 1.22-1.22 1.22c-0.678 0-1.22-0.542-1.22-1.22s0.61-1.22 1.22-1.22z"></path>
<path d="M11.153 25.288c-1.22-0.407-2.17 0.271-2.17 1.627 0 1.424 1.153 2.78 2.508 3.051 0.881 0.136 1.559-0.271 1.763-1.153 0.339-1.424-0.678-3.119-2.102-3.525zM11.22 29.424c-1.017-0.339-1.831-1.559-1.831-2.576 0-0.949 0.61-1.424 1.559-1.153 1.017 0.271 1.898 1.424 1.966 2.576 0 0.949-0.678 1.491-1.695 1.153z"></path>
<path d="M8.848 26.169c0 0.412-0.334 0.746-0.746 0.746s-0.746-0.334-0.746-0.746c0-0.412 0.334-0.746 0.746-0.746s0.746 0.334 0.746 0.746z"></path>
<path d="M11.763 24.136c0 0.412-0.334 0.746-0.746 0.746s-0.746-0.334-0.746-0.746c0-0.412 0.334-0.746 0.746-0.746s0.746 0.334 0.746 0.746z"></path>
<path d="M9.593 24.068c0 0.412-0.334 0.746-0.746 0.746s-0.746-0.334-0.746-0.746c0-0.412 0.334-0.746 0.746-0.746s0.746 0.334 0.746 0.746z"></path>
<path d="M23.763 25.22c-1.22 0.407-2.169 1.695-2.169 2.983-0.068 1.356 0.881 2.034 2.169 1.627 1.22-0.407 2.169-1.695 2.169-2.983s-0.949-2.034-2.169-1.627zM25.458 26.847c0 1.085-0.814 2.305-1.898 2.644-0.949 0.271-1.559-0.203-1.559-1.153 0-1.153 0.881-2.305 1.898-2.644 0.949-0.271 1.559 0.136 1.559 1.153z"></path>
<path d="M27.559 26.169c0 0.412-0.334 0.746-0.746 0.746s-0.746-0.334-0.746-0.746c0-0.412 0.334-0.746 0.746-0.746s0.746 0.334 0.746 0.746z"></path>
<path d="M26.068 24.814c0.407 0 0.746-0.339 0.746-0.746s-0.339-0.746-0.746-0.746c-0.407 0-0.746 0.339-0.746 0.746 0 0.475 0.339 0.814 0.746 0.746z"></path>
<path d="M24.576 24.136c0 0.412-0.334 0.746-0.746 0.746s-0.746-0.334-0.746-0.746c0-0.412 0.334-0.746 0.746-0.746s0.746 0.334 0.746 0.746z"></path>
<path d="M16.576 15.119c0.475-0.068 0.949-0.136 1.424-0.203 0.61-0.136 1.017-0.746 0.949-1.356-0.068-0.542-0.542-1.017-1.22-1.085-0.068 0-0.203 0-0.203 0l-1.424 0.271c-0.61 0.136-0.949 0.814-0.881 1.356 0.136 0.61 0.678 1.085 1.356 1.017zM16.373 13.492l1.22-0.203c0.203 0 0.407 0.136 0.407 0.271v0.068c0 0.203-0.136 0.339-0.271 0.339l-1.22 0.203c-0.203 0-0.433-0.139-0.433-0.274v-0.068c-0.026-0.144 0.094-0.268 0.298-0.336z"></path>
<path d="M13.186 12.339c0.045 0 0.090 0 0.136 0-0.068 0.068-0.068 0.068-0.136 0.136l-0.068 0.068c-0.046 0.046-0.215 0.271-0.341 0.438-0.123 0.162-0.227 0.338-0.303 0.527-0.461 1.133-0.201 2.38 0.78 3.238 0.339 0.271 0.678 0.542 1.085 0.678 1.898 0.814 3.797 0.542 5.559-0.475 0.61-0.339 1.085-0.814 1.424-1.356 0.881-1.356 0.61-2.983-0.678-4-0.178-0.119-0.357-0.238-0.489-0.357 0.613-0.117 1.032-0.634 1.032-1.27 0-0.746-0.61-1.288-1.288-1.288-0.746 0-1.288 0.61-1.288 1.288 0 0.259 0.080 0.517 0.238 0.746h-0.034c-0.542-0.136-1.496-0.162-1.965-0.127-0.336 0.025-1.402 0.278-2.032 0.489-0.123 0.041-0.214 0.078-0.283 0.112 0.006-0.044 0.010-0.090 0.010-0.135 0-0.746-0.61-1.288-1.288-1.288-0.746 0-1.288 0.61-1.288 1.288-0.068 0.746 0.475 1.288 1.22 1.288zM19.898 9.559c0.271 0 0.475 0.203 0.475 0.475s-0.203 0.475-0.475 0.475c-0.271 0-0.475-0.203-0.475-0.475s0.203-0.475 0.475-0.475zM16.441 11.322c0.407-0.068 0.706-0.104 0.949-0.136 1.22 0 2.169 0.271 3.051 0.881 1.153 0.881 1.356 2.305 0.542 3.458s-1.966 1.695-3.322 1.966c-1.085 0.203-2.169 0.136-3.119-0.339-0.881-0.407-1.559-1.017-1.763-2.034-0.136-0.678 0.068-1.288 0.475-1.831 0.746-1.153 1.898-1.763 3.186-1.966zM13.186 10.644c0.271 0 0.475 0.203 0.475 0.475s-0.203 0.475-0.475 0.475c-0.271 0-0.475-0.203-0.475-0.475s0.203-0.475 0.475-0.475z"></path>
<path d="M6.737 5.872c-0.075-0.015-0.153-0.020-0.229-0.029-0.004-0.001-0.009-0.002-0.013-0.003-0.050 0-0.1 0-0.15 0-0.018 0.002-0.035 0.004-0.053 0.005-0.511 0.049-0.913 0.284-1.206 0.704-0.144 0.207-0.229 0.438-0.263 0.688-0.006 0.043-0.008 0.087-0.012 0.13-0 0.003-0.002 0.006-0.002 0.010 0 0.050 0 0.1 0 0.15 0.002 0.018 0.004 0.035 0.005 0.053 0.032 0.378 0.177 0.706 0.438 0.981 0.239 0.253 0.531 0.414 0.874 0.475 0.476 0.084 0.909-0.020 1.29-0.318 0.313-0.244 0.512-0.564 0.584-0.955 0.098-0.529-0.033-0.999-0.392-1.399-0.234-0.261-0.528-0.423-0.871-0.492zM6.416 8.663c-0.668-0-1.21-0.546-1.207-1.22 0.003-0.667 0.546-1.207 1.219-1.203 0.668 0.004 1.203 0.546 1.203 1.211 0 0.67-0.544 1.212-1.216 1.211z"></path>
</svg>
