<?xml version="1.0" encoding="utf-8"?>
<!-- Generated by IcoMoon.io -->
<!DOCTYPE svg PUBLIC "-//W3C//DTD SVG 1.1//EN" "http://www.w3.org/Graphics/SVG/1.1/DTD/svg11.dtd">
<svg version="1.1" xmlns="http://www.w3.org/2000/svg" xmlns:xlink="http://www.w3.org/1999/xlink" width="32" height="32" viewBox="0 0 32 32">
<path d="M18.129 9.791c0.117 0.504 0.348 0.963 0.617 1.4 0.075 0.123 0.053 0.193-0.035 0.276-0.127 0.12-0.259 0.235-0.377 0.364-0.035 0.038-0.060 0.127-0.039 0.168 0.089 0.174 0.191 0.343 0.3 0.506 0.065 0.098 0.153 0.127 0.254 0.028 0.122-0.119 0.248-0.235 0.382-0.34 0.036-0.028 0.085-0.099 0.111-0.075 0.176 0.161 0.385 0.393 0.542 0.551-0.259 0.293-0.506 0.561-0.737 0.842-0.044 0.053-0.059 0.173-0.030 0.234 0.111 0.227 0.245 0.442 0.378 0.674 0.044-0.041 0.084-0.075 0.119-0.113 0.318-0.345 0.633-0.694 0.955-1.035 0.055-0.058 0.093-0.135 0.228-0.049 0.808 0.512 1.704 0.793 2.651 0.883 0.592 0.057 1.185 0.014 1.775-0.115 0.48-0.105 0.939-0.252 1.385-0.451 1.096-0.49 1.914-1.298 2.592-2.263 0.472-0.671 0.884-1.38 1.224-2.127 0.168-0.37 0.326-0.744 0.478-1.121 0.122-0.302 0.237-0.607 0.336-0.918 0.094-0.295 0.176-0.596 0.241-0.899 0.069-0.318 0.123-0.639 0.163-0.962 0.051-0.403 0.123-0.81 0.108-1.212-0.016-0.437-0.109-0.872-0.19-1.305-0.092-0.492-0.329-0.919-0.65-1.298-0.603-0.711-1.42-1.014-2.305-1.085-0.669-0.053-1.359-0.008-2.023 0.063-0.155 0.016-0.311 0.045-0.463 0.083-0.341 0.086-0.683 0.172-1.019 0.274-0.402 0.122-0.811 0.236-1.197 0.4-0.615 0.262-1.221 0.548-1.819 0.848-0.845 0.425-1.631 0.946-2.323 1.591-0.787 0.733-1.337 1.62-1.647 2.66-0.144 0.484-0.229 0.974-0.262 1.471-0.020 0.306 0.011 0.62 0.054 0.925 0.054 0.379 0.135 0.754 0.221 1.127zM18.799 7.592c0.027-0.498 0.164-0.975 0.343-1.444 0.256-0.674 0.645-1.259 1.148-1.76 0.574-0.572 1.241-1.032 1.953-1.415 0.565-0.304 1.137-0.596 1.724-0.854 0.433-0.191 0.892-0.324 1.343-0.471 0.317-0.103 0.64-0.188 0.963-0.274 0.139-0.037 0.213-0.056 0.426-0.081 0.61-0.070 1.232-0.111 1.84-0.062 0.703 0.057 1.349 0.318 1.796 0.924 0.219 0.297 0.364 0.625 0.419 0.987 0.051 0.335 0.079 0.673 0.113 0.977-0.043 0.443-0.054 0.852-0.128 1.251-0.082 0.444-0.204 0.883-0.341 1.315-0.157 0.497-0.318 0.996-0.532 1.47-0.29 0.644-0.611 1.276-0.957 1.891-0.361 0.642-0.793 1.244-1.327 1.755-0.541 0.519-1.169 0.901-1.882 1.159-0.778 0.282-1.575 0.344-2.378 0.261-0.75-0.077-1.46-0.332-2.103-0.74-0.623-0.395-1.151-0.892-1.561-1.513-0.282-0.427-0.487-0.882-0.652-1.365-0.225-0.658-0.244-1.333-0.206-2.012z"></path>
<path d="M14.154 18.98c-0.187 0.178-0.363 0.356-0.552 0.519-0.039 0.034-0.155 0.040-0.188 0.009-0.326-0.312-0.644-0.632-0.957-0.957-0.019-0.020-0.075-0.081-0.075-0.081s0.16-0.15 0.2-0.186c0.053-0.046 0.125-0.122 0.125-0.122s-0.085-0.058-0.143-0.087c-0.216-0.11-0.42-0.241-0.64-0.368-0.050 0.074-0.158 0.155-0.158 0.155s-0.279-0.262-0.333-0.312c-0.22-0.207-0.437-0.167-0.629 0.024-1.91 1.89-3.819 3.781-5.728 5.673-1.388 1.375-2.773 2.753-4.164 4.125-0.428 0.422-0.729 0.918-0.81 1.509-0.103 0.746 0.066 1.441 0.56 2.032 0.636 0.761 1.445 1.051 2.428 0.899 0.612-0.094 1.114-0.377 1.542-0.804 2.584-2.577 5.166-5.155 7.749-7.734 0.687-0.686 1.374-1.373 2.060-2.060 0.237-0.238 0.234-0.478-0.005-0.713-0.086-0.085-0.176-0.165-0.267-0.25 0.256-0.286 0.498-0.556 0.758-0.847-0.274-0.15-0.533-0.292-0.773-0.424zM13.411 21.040c-3.145 3.14-6.287 6.283-9.426 9.429-0.361 0.361-0.787 0.548-1.378 0.568-0.58-0.065-1.22-0.327-1.5-1.145-0.248-0.726-0.053-1.342 0.472-1.867 2.305-2.309 4.614-4.614 6.921-6.921 0.821-0.82 1.641-1.641 2.462-2.461 0.172-0.172 0.17-0.17 0.348 0.007 0.7 0.696 1.399 1.393 2.104 2.085 0.118 0.116 0.117 0.186-0.003 0.305z"></path>
<path d="M29.639 28.56c-0.524-0.002-0.85 0.402-0.856 0.819-0.006 0.393 0.322 0.856 0.826 0.817 0.499 0.049 0.842-0.41 0.845-0.806 0.003-0.409-0.356-0.828-0.814-0.83zM29.61 29.671c-0.173-0.005-0.271-0.115-0.266-0.297 0.004-0.163 0.13-0.291 0.281-0.287 0.162 0.004 0.263 0.122 0.261 0.304-0.002 0.185-0.101 0.285-0.276 0.28z"></path>
<path d="M2.956 28.429c-0.257-0.007-0.638 0.23-0.6 0.619-0.040 0.375 0.335 0.629 0.596 0.623 0.325-0.008 0.623-0.238 0.615-0.627-0.008-0.386-0.275-0.605-0.611-0.614z"></path>
<path d="M31.565 28.494c-2.968-2.96-5.93-5.926-8.893-8.891-0.161-0.161-0.339-0.288-0.579-0.287-0.155 0-0.311 0.017-0.465 0.005-0.064-0.005-0.155-0.049-0.182-0.101-0.349-0.693-0.675-1.398-1.033-2.086-0.594-1.143-1.212-2.275-1.81-3.416-0.083-0.158-0.153-0.312-0.153-0.312s0.051-0.052 0.14-0.144c0.005-0.005-0.296-0.489-0.296-0.489s-0.079 0.076-0.13 0.121c-0.444-0.727-0.88-1.466-1.339-2.19-0.582-0.918-1.157-1.842-1.783-2.73-0.652-0.926-1.34-1.828-2.047-2.712-0.922-1.151-1.931-2.224-3.077-3.159-0.936-0.763-1.93-1.429-3.099-1.799-0.434-0.137-0.872-0.24-1.323-0.257-0.301-0.011-0.611 0.003-0.906 0.060-0.379 0.073-0.767 0.158-1.117 0.314-0.859 0.381-1.561 0.975-2.143 1.714-0.404 0.513-0.73 1.066-0.882 1.705-0.084 0.351-0.162 0.705-0.205 1.062-0.055 0.465 0.072 0.916 0.208 1.354 0.138 0.442 0.274 0.892 0.479 1.305 0.535 1.078 1.271 2.018 2.088 2.898 0.832 0.897 1.732 1.721 2.691 2.477 0.835 0.659 1.69 1.294 2.556 1.911 0.689 0.491 1.399 0.952 2.116 1.401 0.86 0.538 1.901 1.149 2.77 1.672-0.032 0.027-0.053 0.048-0.053 0.048l0.449 0.282c0 0 0.056-0.051 0.092-0.034 0.089 0.041 0.060 0.023 0.138 0.067 0.392 0.219 0.787 0.435 1.185 0.643 1.053 0.551 2.107 1.1 3.164 1.643 0.444 0.228 0.898 0.437 1.344 0.662 0.048 0.024 0.109 0.112 0.098 0.15-0.124 0.418-0.019 0.775 0.281 1.075 2.976 2.977 5.953 5.952 8.935 8.923 0.117 0.117 0.276 0.218 0.434 0.263 0.376 0.107 0.741 0.008 1.075-0.172 0.708-0.382 1.242-0.939 1.535-1.691 0.173-0.443 0.169-0.856-0.262-1.286zM5.721 1.15c0.631 0.076 1.222 0.302 1.785 0.604 1.36 0.729 2.469 1.763 3.514 2.875 0.986 1.050 1.883 2.174 2.708 3.353 0.708 1.012 1.391 2.042 2.054 3.083 0.526 0.827 1.005 1.685 1.507 2.527 0.032 0.054 0.045 0.090 0.068 0.129l-0.391 0.387c-0.122-0.158-0.242-0.313-0.362-0.466-0.897-1.143-1.784-2.296-2.695-3.428-1.452-1.804-3.028-3.494-4.732-5.063-1.009-0.93-2.081-1.783-3.247-2.51-0.635-0.396-1.306-0.725-2.012-0.979-0.088-0.032-0.178-0.058-0.309-0.1 0.693-0.399 1.394-0.497 2.113-0.411zM3.381 2.628c0.635 0.216 1.251 0.482 1.814 0.852 0.543 0.357 1.091 0.71 1.609 1.103 1.616 1.226 3.040 2.66 4.401 4.157 0.497 0.547 1.001 1.091 1.471 1.661 0.741 0.898 1.462 1.814 2.182 2.73 0.422 0.538 1.29 1.714 1.321 1.763l-1.11 1.11c-0.67-0.506-1.292-0.969-1.904-1.444-1.562-1.211-3.099-2.454-4.532-3.817-0.929-0.884-1.837-1.795-2.71-2.734-0.898-0.966-1.702-2.016-2.357-3.164-0.297-0.521-0.515-1.090-0.745-1.647-0.081-0.196-0.093-0.421-0.151-0.705 0.258 0.047 0.495 0.062 0.712 0.135zM13.949 17.122c-0.057-0.016-2.624-1.562-3.736-2.27-0.782-0.499-1.538-1.041-2.294-1.579-1.37-0.975-2.663-2.045-3.838-3.251-0.744-0.763-1.427-1.573-1.955-2.505-0.291-0.514-0.554-1.038-0.654-1.626-0.052-0.303-0.125-0.61-0.119-0.914 0.011-0.518 0.124-1.022 0.398-1.523 0.113 0.286 0.213 0.539 0.312 0.793 0.271 0.694 0.647 1.334 1.060 1.949 1.168 1.737 2.583 3.263 4.088 4.709 1.387 1.332 2.851 2.577 4.354 3.776 0.864 0.69 2.704 2.060 2.734 2.089l-0.348 0.353zM17.073 18.816c-0.116-0.054-0.236-0.102-0.349-0.163-0.701-0.381-2.236-1.23-2.236-1.23l0.289-0.291c0.046 0.023 1.557 1.098 2.241 1.581 0.027 0.019 0.050 0.044 0.075 0.066-0.007 0.012-0.013 0.025-0.020 0.037zM18.754 18.601c-0.204-0.138-0.409-0.272-0.61-0.413-0.825-0.579-2.554-1.81-2.58-1.839l0.972-0.978c0.018 0.017 0.038 0.035 0.069 0.080 0.681 0.978 1.368 1.952 2.054 2.926 0.044 0.062 0.086 0.124 0.13 0.186-0.011 0.012-0.023 0.025-0.034 0.037zM19.126 17.135c-0.154-0.211-0.31-0.42-0.461-0.632-0.394-0.553-1.293-1.835-1.355-1.906 0 0 0.346-0.331 0.361-0.339 0.519 0.948 1.039 1.884 1.516 2.842-0.020 0.012-0.041 0.023-0.061 0.035zM30.655 29.731c-0.265 0.36-0.574 0.665-0.998 0.849-0.117 0.051-0.16-0.002-0.209-0.050-0.497-0.493-0.987-0.993-1.483-1.488-2.413-2.411-4.826-4.82-7.24-7.23-0.113-0.112-0.125-0.212-0.044-0.362 0.255-0.476 0.615-0.824 1.109-1.051 0.131-0.060 0.168 0.012 0.219 0.064 0.545 0.542 1.082 1.090 1.626 1.633 2.235 2.234 4.472 4.466 6.708 6.7 0.141 0.141 0.28 0.284 0.417 0.428 0.034 0.036 0.056 0.082 0.089 0.132-0.067 0.133-0.114 0.266-0.194 0.375z"></path>
</svg>
