<?xml version="1.0" encoding="utf-8"?>
<!-- Generated by IcoMoon.io -->
<!DOCTYPE svg PUBLIC "-//W3C//DTD SVG 1.1//EN" "http://www.w3.org/Graphics/SVG/1.1/DTD/svg11.dtd">
<svg version="1.1" xmlns="http://www.w3.org/2000/svg" xmlns:xlink="http://www.w3.org/1999/xlink" width="32" height="32" viewBox="0 0 32 32">
<path d="M31.932 16.271c-0.068-2.712-0.136-5.492-0.203-8.203 0-0.881 0-1.763-0.068-2.644-0.203-2.644-2.576-4.814-5.22-4.881-1.831-0.068-3.661-0.068-4.881-0.136-2.441-0.068-4.203-0.136-6.034-0.136-1.424 0-2.712 0.475-3.729 1.492-3.254 3.254-6.508 6.508-9.763 9.831-2.034 2.102-2.034 5.492 0 7.593 3.661 3.661 7.322 7.322 10.983 10.983 1.085 1.085 2.373 1.559 3.864 1.559 1.559 0 2.847-0.61 3.932-1.695 3.119-3.119 6.237-6.237 9.356-9.356 1.22-1.22 1.83-2.644 1.763-4.407zM28.136 18.644c-3.119 3.119-6.237 6.169-9.288 9.288-1.22 1.22-2.78 1.22-4 0-3.525-3.525-7.119-7.119-10.644-10.644-1.017-1.017-1.153-2.508-0.271-3.593 0.068-0.136 0.203-0.203 0.271-0.271 3.119-3.119 6.305-6.305 9.424-9.424 0.61-0.61 1.288-0.881 2.17-0.881 1.695 0.068 3.39 0.068 5.153 0.136 0 0 0 0 0 0 1.763 0.068 3.593 0.068 5.356 0.136 1.424 0.068 2.508 1.153 2.576 2.712 0.068 1.898 0.068 3.797 0.136 5.627 0.068 1.559 0.068 3.119 0.136 4.678-0.068 0.814-0.339 1.559-1.017 2.237z"></path>
<path d="M23.797 8.339c-1.22-1.085-2.576-1.424-4.136-1.153-1.017 0.203-1.831 0.678-2.508 1.356-0.475 0.475-0.949 0.949-1.424 1.424-0.203-0.203-0.407-0.407-0.61-0.61-0.61-0.61-1.492-0.61-2.034-0.068s-0.542 1.424 0 2.034c0.203 0.203 0.407 0.407 0.61 0.542-0.407 0.407-0.746 0.746-1.085 1.085-0.203-0.136-0.339-0.339-0.542-0.542-0.61-0.61-1.492-0.61-2.034-0.068-0.61 0.61-0.61 1.424 0 2.102 0.203 0.203 0.407 0.407 0.678 0.61-0.407 0.339-0.746 0.678-1.017 1.017-0.61 0.61-0.542 1.559 0.136 2.102 0.542 0.475 1.356 0.407 1.898-0.068 0.339-0.339 0.678-0.678 1.017-1.017 0.678 0.678 1.288 1.288 1.898 1.898 0.61 0.542 1.492 0.542 2.034 0s0.542-1.424 0-2.034c-0.475-0.475-0.949-0.949-1.424-1.424-0.136-0.136-0.339-0.271-0.475-0.407 0.407-0.407 0.678-0.746 1.085-1.085 0.068 0.068 0.136 0.136 0.203 0.203 0.542 0.542 1.153 1.153 1.695 1.695 1.153 1.153 2.576 1.492 4.203 1.22 1.288-0.271 2.169-1.017 2.983-1.966 1.085-1.356 1.356-2.915 0.814-4.542-0.542-0.949-1.22-1.627-1.966-2.305zM22.644 13.288c-0.407 0.475-0.814 1.017-1.559 1.085-0.475 0.068-1.017 0-1.356-0.339-0.678-0.678-1.288-1.356-1.966-2.034 0.542-0.542 1.017-1.085 1.559-1.559 0.678-0.678 1.831-0.61 2.508 0 0.271 0.203 0.475 0.407 0.678 0.678 0.61 0.61 0.61 1.559 0.136 2.169z"></path>
</svg>
