<svg xmlns="http://www.w3.org/2000/svg" viewBox="0 0 102.158 97.841">
    <switch>
        <g>
            <g>
                <g>
                    <path fill="#069AD7" d="M50.509,90.888c-0.963,0-2.131-0.599-2.355-0.718C44.185,87.979,11.128,69.723,7.13,67.494
					c-0.064-0.025-0.13-0.06-0.206-0.104l-0.001,0.002l-0.074-0.047c-0.044-0.027-0.091-0.057-0.143-0.09
					c-1.014-0.639-1.528-1.484-1.528-2.512c0-1.579,1.285-2.863,2.864-2.863h8.566c0.476,0,0.863-0.389,0.863-0.864v-50.95
					c0-1.579,1.285-2.864,2.865-2.864h60.344c1.58,0,2.865,1.284,2.865,2.863v50.951c0,0.476,0.387,0.864,0.862,0.864h8.567
					c1.579,0,2.863,1.284,2.863,2.863c0,1.027-0.514,1.873-1.527,2.512c-0.063,0.039-0.118,0.074-0.169,0.105l-0.05,0.032
					l-0.001-0.002c-0.077,0.046-0.145,0.081-0.21,0.106c-4.126,2.301-37.057,20.486-41.007,22.667
					C52.629,90.293,51.448,90.888,50.509,90.888z M7.785,65.57c0.576,0.337,27.284,15.091,41.323,22.843
					c0.354,0.188,1.057,0.476,1.4,0.476c0.333,0,1.044-0.29,1.419-0.485c14.021-7.744,40.732-22.499,41.323-22.845v0.001
					c0.588-0.373,0.588-0.661,0.588-0.816c0-0.477-0.388-0.863-0.863-0.863h-8.567c-1.578,0-2.862-1.285-2.862-2.864V10.064
					c0-0.476-0.388-0.863-0.865-0.863H20.337c-0.478,0-0.865,0.388-0.865,0.864v50.95c0,1.579-1.284,2.864-2.863,2.864H8.042
					c-0.477,0-0.864,0.387-0.864,0.863c0,0.156,0,0.445,0.595,0.82L7.785,65.57L7.785,65.57z"/>
                </g>
                <g>
                    <g>
                        <path fill="#069AD7" d="M50.51,85.862l-0.182-0.1c-7.647-4.225-23.277-12.857-32.902-18.18l-0.949-0.524l1.071-0.173
						c2.848-0.462,4.914-2.893,4.914-5.779V12.281l56.094,0.001v48.824c0,2.887,2.066,5.317,4.913,5.779l1.071,0.173l-0.949,0.524
						c-8.839,4.888-22.735,12.564-30.822,17.031L50.51,85.862z M18.634,67.394c9.595,5.305,24.389,13.476,31.876,17.611l1.896-1.048
						c7.833-4.327,21.118-11.666,29.977-16.563c-2.703-0.862-4.577-3.368-4.577-6.288V13.032l-54.594-0.001v48.075
						C23.212,64.026,21.338,66.532,18.634,67.394z"/>
                    </g>
                </g>
                <g>
                     <path fill="#069AD7" d="M40.591,39.878c-0.625,0-1.271,0.104-1.92,0.308c-0.395,0.125-0.762,0.299-1.09,0.519l-0.248,0.166
					l0.874-7.057h7.596v-2.391h-9.734l-1.485,13.102h2.141l0.045-0.104c0.314-0.73,0.77-1.313,1.352-1.734
					c0.587-0.422,1.233-0.627,1.978-0.627c1.567,0,2.659,0.594,3.337,1.818c0.546,0.981,0.823,2.403,0.823,4.226
					c0,1.873-0.302,3.414-0.897,4.584c-0.726,1.411-1.816,2.097-3.334,2.097c-1.266,0-2.188-0.448-2.817-1.371
					c-0.517-0.741-0.778-1.786-0.778-3.106v-0.174h-2.531v0.174c0,2.031,0.512,3.662,1.521,4.851
					c1.017,1.198,2.577,1.806,4.641,1.806c2.331,0,4.111-0.931,5.292-2.764c0.976-1.527,1.471-3.555,1.471-6.026
					c0-2.327-0.446-4.234-1.328-5.669C44.433,40.762,42.782,39.878,40.591,39.878z"/>
                    <path fill="#069AD7" d="M60.257,33.515c-1.039-1.692-2.57-2.55-4.552-2.55c-2.027,0-3.583,0.858-4.623,2.549
					c-1.202,1.971-1.786,5.401-1.786,10.484s0.585,8.502,1.788,10.45c1.039,1.667,2.594,2.514,4.621,2.514
					c1.905,0,3.386-0.687,4.399-2.042c0.839-1.101,1.419-2.751,1.727-4.906c0.211-1.435,0.318-3.458,0.318-6.016
					C62.149,39.054,61.513,35.527,60.257,33.515z M58.626,52.323c-0.624,1.655-1.58,2.46-2.921,2.46
					c-1.365,0-2.326-0.798-2.938-2.44c-0.624-1.675-0.94-4.482-0.94-8.344c0-3.864,0.322-6.683,0.958-8.378
					c0.623-1.667,1.578-2.477,2.92-2.477c1.364,0,2.325,0.798,2.938,2.441c0.624,1.675,0.941,4.506,0.941,8.414
					C59.584,47.835,59.262,50.636,58.626,52.323z"/>
                </g>
                <g>
                    <polygon fill="#069AD7" points="72.024,38.403 66.7,49.872 68.06,49.872 73.333,38.403 				"/>
                    <path fill="#069AD7" d="M73.339,43.964c-1.477,0-2.291,0.988-2.291,2.782c0,1.979,0.729,2.902,2.291,2.902
					c1.553,0,2.307-0.935,2.307-2.857C75.646,44.967,74.826,43.964,73.339,43.964z M73.354,48.357c-0.376,0-0.807-0.156-0.807-1.373
					c0-1.262,0.214-1.732,0.791-1.732c0.596,0,0.807,0.454,0.807,1.732C74.146,48.215,73.694,48.357,73.354,48.357z"/>
                    <path fill="#069AD7" d="M69.083,41.425c0-1.823-0.818-2.827-2.307-2.827c-1.477,0-2.291,0.989-2.291,2.782
					c0,1.979,0.729,2.902,2.291,2.902C68.329,44.282,69.083,43.347,69.083,41.425z M66.793,42.992c-0.376,0-0.808-0.156-0.808-1.373
					c0-1.262,0.215-1.731,0.791-1.731c0.597,0,0.808,0.453,0.808,1.731C67.584,42.85,67.132,42.992,66.793,42.992z"/>
                </g>
                <rect x="25.617" y="45.694" fill="#069AD7" width="7.503" height="2.065"/>
            </g>
        </g>
    </switch>
</svg>