<?xml version="1.0" encoding="utf-8"?>
<!-- Generated by IcoMoon.io -->
<!DOCTYPE svg PUBLIC "-//W3C//DTD SVG 1.1//EN" "http://www.w3.org/Graphics/SVG/1.1/DTD/svg11.dtd">
<svg version="1.1" xmlns="http://www.w3.org/2000/svg" xmlns:xlink="http://www.w3.org/1999/xlink" width="32" height="32" viewBox="0 0 32 32">
<path d="M31.424 29.504c-3.264-3.264-6.464-6.464-9.728-9.728-0.128-0.128-0.256-0.192-0.384-0.256 4.224-5.376 2.688-12.416-1.728-15.936-4.352-3.584-10.688-3.392-14.784 0.448s-4.8 10.112-1.664 14.656c1.6 2.304 3.776 3.904 6.528 4.608 3.648 0.896 6.912 0.128 9.92-2.112 0.128 0.128 0.256 0.256 0.32 0.384 3.2 3.2 6.4 6.4 9.536 9.536 0.128 0.128 0.192 0.192 0.32 0.32 0.64 0.576 1.6 0.32 1.984-0.448 0.256-0.576 0.064-1.088-0.32-1.472zM12.416 21.184c-4.864 0-8.768-4.032-8.768-8.832 0-4.864 3.968-8.768 8.832-8.768s8.768 3.968 8.768 8.832c0.064 4.8-3.968 8.768-8.832 8.768z"></path>
<path d="M12.416 5.056c-0.32 0-0.64 0.064-0.96 0.064-3.392 0.448-6.208 3.52-6.272 6.976 0 0.768 0.448 1.216 1.024 0.96 0.384-0.128 0.448-0.512 0.448-0.832 0.064-1.472 0.576-2.752 1.6-3.84 1.152-1.152 2.496-1.728 4.096-1.792 0.512 0 0.832-0.32 0.832-0.768 0.064-0.512-0.256-0.768-0.768-0.768z"></path>
<path d="M15.936 5.952c-0.384-0.192-0.768-0.384-1.152-0.512-0.32-0.128-0.64 0.064-0.832 0.384s-0.192 0.704 0.128 0.896c0.384 0.256 0.896 0.448 1.216 0.64 0.512 0 0.768-0.192 0.896-0.576 0.064-0.384 0-0.704-0.256-0.832z"></path>
</svg>
