<?xml version="1.0" encoding="utf-8"?>
<!-- Generated by IcoMoon.io -->
<!DOCTYPE svg PUBLIC "-//W3C//DTD SVG 1.1//EN" "http://www.w3.org/Graphics/SVG/1.1/DTD/svg11.dtd">
<svg version="1.1" xmlns="http://www.w3.org/2000/svg" xmlns:xlink="http://www.w3.org/1999/xlink" width="32" height="32" viewBox="0 0 32 32">
<path d="M30.719 12.755c-1.59-5.344-6.871-8.334-11.706-7.698-3.372 0.445-6.044 2.099-7.952 5.026-0.064 0.127-0.127 0.191-0.191 0.318-0.127 0.509-0.254 1.082-0.382 1.59-0.064 0.254 0.064 1.082 0.064 1.082l0.064-0.191c0.382-1.209 0.954-2.29 1.781-3.308 0.127 0.445 0.191 0.827 0.254 1.209 0.127 0 0.254-0.064 0.382-0.127 0.127 0 0.318-0.064 0.445-0.064-0.064-0.509-0.127-1.082-0.254-1.59 0-0.127-0.064-0.254-0.064-0.254s0.127-0.191 0.254-0.254c1.59-1.4 3.372-2.29 5.471-2.545 0.509-0.064 1.018-0.064 1.527-0.127-3.181 1.463-5.344 3.944-5.98 4.962 0.064 0.064 0.191 0.191 0.318 0.254 0.127 0.127 0.191 0.191 0.318 0.254 0 0 0 0 0.064-0.064s0.064-0.127 0.127-0.191c1.781-2.354 4.072-4.008 6.871-4.962 0.064 0 0.318-0.064 0.318-0.064s0.191 0.064 0.254 0.064c1.336 0.318 2.608 0.954 3.69 1.781 0.064 0.064 0.191 0.127 0.254 0.191-4.517 0.254-7.952 2.29-10.179 6.235-0.191-0.127-0.382-0.254-0.573-0.382s-0.318-0.254-0.509-0.382c0 0.064-0.064 0.191-0.127 0.382-0.064 0.254-0.127 0.509-0.127 0.509s0.127 0.127 0.191 0.191c1.272 1.018 2.799 1.59 4.39 1.718 0.064 0 0.191 0 0.191 0s0.064 0.064 0.064 0.127c0.445 0.827 0.7 1.654 0.763 2.608-1.463 0.064-2.863-0.127-4.262-0.636 0.064 0.254 0.127 0.954 0.127 0.954s0.116 0.030 0.254 0.064c0.891 0.254 1.781 0.445 2.736 0.509 0.382 0 0.763 0 1.209 0-0.064 0.954-0.254 1.781-0.636 2.608 0 0.064-0.127 0.191-0.127 0.191s-0.127 0-0.191 0c-0.573 0-1.145-0.064-1.654-0.127s-1.018-0.191-1.527-0.254c-0.064 0.254-0.064 0.509-0.127 0.891 1.018 0.127 2.036 0.318 3.054 0.445-0.064 0.064-0.064 0.127-0.127 0.191-0.445 0.636-1.018 1.145-1.59 1.59-0.127 0.127-0.382 0.254-0.382 0.254s-0.573-0.191-0.7-0.254c-0.191-0.064-0.636-0.254-0.827-0.318-0.127 0.254-0.254 0.445-0.382 0.7 0.064 0.064 0.127 0.064 0.127 0.064 2.29 1.018 4.708 1.272 7.125 0.7 6.107-1.654 9.67-7.825 7.889-13.869zM20.031 15.427c0 0-0.127 0-0.254 0-0.891-0.064-1.718-0.254-2.545-0.7 0.382-0.763 0.827-1.463 1.4-2.036 1.781-2.036 3.944-3.245 6.616-3.626 0.763-0.127 2.29-0.127 2.29-0.127s0.382 0.254 0.891 0.954c0.445 0.636 1.082 1.718 1.209 2.29 0 0 0 0.064 0 0.127-0.127-0.064-0.191-0.064-0.318-0.127-3.435-1.209-7.125 0-9.161 3.054-0.064 0.127-0.127 0.191-0.127 0.191zM22.703 25.415c-0.064 0.064-0.191 0.254-0.191 0.254s-0.191 0.064-0.318 0.064c-1.082 0.191-2.163 0.254-3.308 0.064-0.064 0-0.127 0-0.127 0 0.509-0.636 1.145-1.209 1.59-1.909 1.59-2.481 1.781-5.089 0.573-7.825-0.064-0.127-0.127-0.254-0.127-0.254s0.127-0.191 0.191-0.254c0.445-0.636 0.954-1.145 1.59-1.654 0.064-0.064 0.127-0.127 0.254-0.191 0.509 0.827 0.954 1.718 1.209 2.608 0.891 3.308 0.445 6.298-1.336 9.097zM27.729 22.362c0 0.064-0.064 0.318-0.064 0.318s-0.127 0.191-0.254 0.318c-0.954 1.018-2.036 1.718-3.308 2.29-0.127 0.064-0.191 0.064-0.318 0.127 2.099-4.072 1.972-8.016-0.318-11.897 0.064-0.064 0.127-0.064 0.191-0.064 0.7-0.318 1.463-0.573 2.29-0.636 0.064 0 0.254 0 0.254 0s0.064 0.127 0.127 0.191c0.891 1.654 1.4 3.435 1.654 5.28 0.127 1.272 0.064 2.672-0.254 4.072zM28.937 21.026c0 0-0.064 0.064-0.127 0.191 0.254-3.054-0.254-5.853-1.59-8.525 0.891 0.064 1.654 0.318 2.418 0.636 0.191 0.064 0.445 0.254 0.445 0.254s0.064 0.318 0.127 0.445c0.382 2.418 0 4.771-1.272 6.998z"></path>
<path d="M16.023 17.59c-0.254-0.7-0.573-1.336-0.827-1.972s-0.318-1.272-0.127-1.972c0.191-0.382 0.191-0.827 0.191-1.209-0.064-0.891-0.763-1.59-1.59-1.59-0.763 0-1.463 0.573-1.654 1.463-0.127 0.509-0.064 0.954 0.127 1.4 0.068 0.203 0.104 0.401 0.115 0.595 0.043 0.764-1.051 0.972-1.331 0.26-0.148-0.377-0.293-0.747-0.438-1.109-0.254-0.7-0.318-1.463-0.064-2.163 0.064-0.191 0.127-0.382 0.127-0.509 0.191-0.891 0.064-1.781-0.509-2.481-0.763-0.891-2.036-0.954-2.799-0.127-0.382 0.382-0.636 0.891-0.7 1.463-0.127 0.636 0.064 1.272 0.254 1.909 0.127 0.509 0.191 1.018 0.064 1.463-0.382 1.209-0.827 2.354-1.272 3.563v0c-0.127-0.318-0.254-0.636-0.382-0.954-0.191-0.573-0.318-1.209-0.064-1.845 0.064-0.191 0.127-0.382 0.127-0.636 0.064-0.573-0.064-1.145-0.382-1.59-0.445-0.509-0.954-0.763-1.527-0.7-0.636 0.064-1.018 0.509-1.272 1.082-0.254 0.636-0.191 1.209 0 1.845 0.191 0.509 0.127 0.954 0 1.463-0.127 0.445-0.318 0.891-0.509 1.272-0.891 1.718-1.082 3.563-0.827 5.471 0.127 1.272 0.509 2.481 1.145 3.563 0.064 0.127 0.191 0.318 0.191 0.318h3.117c0 0 0.191-0.382 0.254-0.636l0.064-0.127c0.191 0.382 0.318 0.827 0.509 1.209 0.127 0.382 0.318 0.636 0.509 0.954 0.064 0.127 0.191 0.318 0.191 0.318h3.817c0 0 0.191-0.254 0.254-0.382 0.382-0.636 0.636-1.336 0.954-1.972 0.064 0.064 0.127 0.191 0.191 0.254 0.064 0.127 0.254 0.382 0.254 0.382h3.054c0 0 0.064-0.127 0.191-0.318 0.064-0.127 0.109-0.158 0.191-0.318 1.018-2.481 1.272-5.026 0.382-7.634zM2.981 11.992c0.318-0.445 0.827-0.445 1.145 0 0.254 0.318 0.318 0.7 0.254 1.018-0.035 0.207-0.088 0.415-0.14 0.622-0.077 0.307-0.351 0.523-0.668 0.523v0c-0.319 0-0.598-0.218-0.67-0.528-0.054-0.232-0.105-0.466-0.177-0.681-0.064-0.318 0.064-0.636 0.254-0.954zM2.981 15.046c0 0 0.763 0 1.145 0 0 0.127 0.064 0.191 0.064 0.318 0.064 0.127 0.127 0.382 0.127 0.509h-1.527c0.064-0.127 0.127-0.254 0.127-0.445 0.064-0.318 0.064-0.382 0.064-0.382zM5.144 23.952c-0.064 0.191-0.127 0.382-0.191 0.573s-0.318 0.573-0.318 0.573h-2.163c0 0-0.080-0.162-0.127-0.254-0.763-1.654-0.954-3.245-0.891-4.962 0.064-1.082 0.382-2.036 0.827-2.99 0.064-0.064 0.127-0.191 0.127-0.191s1.463 0 2.099 0c0.064 0 0.127 0 0.127 0s0.127 0.191 0.191 0.318c0.191 0.382 0.254 0.7 0.254 0.7s-0.064 0.445-0.127 0.636c-0.318 1.718-0.254 3.435 0.064 5.153 0.030 0.14 0.109 0.384 0.127 0.445zM7.816 8.684c0.445-0.509 1.082-0.509 1.527 0 0.445 0.445 0.573 0.954 0.445 1.527-0.041 0.29-0.11 0.606-0.187 0.932-0.074 0.31-0.352 0.531-0.671 0.531h-1.114c-0.064 0-0.127 0-0.127 0s-0.064-0.127-0.064-0.191c-0.127-0.382-0.191-0.763-0.318-1.145-0.064-0.636 0.064-1.209 0.509-1.654zM9.534 13.328h-1.972c0-0.127 0.064-0.254 0.064-0.318 0-0.127 0.064-0.318 0.064-0.445h1.718c0 0.127 0 0.254 0.064 0.382 0 0.127 0.064 0.254 0.064 0.382zM11.379 22.489c-0.191 1.4-0.509 2.672-1.145 3.944-0.064 0.127-0.127 0.318-0.127 0.318h-2.926c0 0-0.041-0.081-0.090-0.147-0.023-0.031-0.047-0.062-0.065-0.096-0.62-1.193-0.994-2.448-1.182-3.765-0.254-1.972-0.254-3.944 0.445-5.853 0.318-0.827 0.7-1.654 1.018-2.481 0-0.064 0.064-0.127 0.064-0.127s0.127 0 0.191 0c0.7 0 2.29 0 2.29 0s0 0.064 0.064 0.127c0.445 1.145 0.954 2.227 1.272 3.435 0.445 1.463 0.382 3.054 0.191 4.644zM12.906 12.183c0.318-0.636 0.891-0.7 1.272-0.191 0.254 0.318 0.318 0.7 0.191 1.018-0.036 0.219-0.094 0.416-0.148 0.629-0.078 0.304-0.353 0.516-0.666 0.516h-0.458c0 0 0-0.127-0.064-0.127-0.064-0.318-0.191-0.636-0.254-1.018 0-0.254 0-0.573 0.127-0.827zM12.906 15.427c0.064-0.191 0.064-0.382 0.064-0.382h1.209c0 0 0.064 0.191 0.127 0.382s0.127 0.318 0.127 0.382h-1.654c0-0.064 0.064-0.191 0.127-0.382zM14.878 24.716c-0.064 0.127-0.191 0.382-0.191 0.382h-1.613c-0.131 0-0.384 0.003-0.384 0.003s-0.174-0.267-0.232-0.384c-0.119-0.241-0.26-0.537-0.316-0.7-0.046-0.135-0.041-0.243 0-0.382 0.318-1.909 0.382-3.881 0.064-5.789-0.064-0.318 0.165-0.717 0.356-1.098l0.026-0.047h2.29c0 0 0.052 0.129 0.077 0.191 1.145 2.608 1.005 5.217-0.077 7.825z"></path>
</svg>
