<?xml version="1.0" encoding="utf-8"?>
<!-- Generated by IcoMoon.io -->
<!DOCTYPE svg PUBLIC "-//W3C//DTD SVG 1.1//EN" "http://www.w3.org/Graphics/SVG/1.1/DTD/svg11.dtd">
<svg version="1.1" xmlns="http://www.w3.org/2000/svg" xmlns:xlink="http://www.w3.org/1999/xlink" width="32" height="32" viewBox="0 0 32 32">
<path d="M29.906 28.567c-0.412-1.167-0.687-2.335-1.030-3.571-0.137-0.618-0.275-1.236-0.275-1.785-0.069-4.189-0.069-8.378-0.069-12.498 0-1.442-0.893-2.335-2.403-2.403-1.167 0-2.403 0-3.571 0-0.206 0-0.343 0-0.549 0 0-0.343 0-0.618 0-0.824-0.069-1.030 0-2.129-0.206-3.159-0.687-2.678-3.227-4.326-6.318-4.189-3.365 0.137-5.7 2.609-5.7 5.974 0 0.687 0 1.442 0 2.129-0.137 0-0.137 0.069-0.206 0.069-1.236 0-2.541 0-3.777 0-1.511 0-2.403 0.893-2.403 2.472 0 3.227-0.069 6.524 0 9.751 0.069 2.472-0.206 4.807-1.030 7.142-0.137 0.343-0.206 0.687-0.275 0.961-0.549 1.579 0.549 3.365 2.541 3.365 7.554-0.069 15.107-0.069 22.73 0 2.060 0 3.090-1.923 2.541-3.433zM13.15 5.288c0.206-1.305 1.648-2.060 3.159-1.923 1.579 0.206 2.403 1.099 2.472 2.747 0 0.687 0 1.373 0 2.129-1.923 0-3.777 0-5.631 0 0-0.961-0.137-1.923 0-2.953zM5.459 28.704c0.343-1.167 0.618-2.266 0.893-3.365 0.137-0.481 0.206-0.961 0.206-1.442 0.069-3.846 0.069-7.76 0.069-11.605 0-0.206 0-0.412 0-0.687 0.206 0 0.343 0 0.481 0 0.893 0 1.717 0 2.678 0 0 1.099 0 2.129 0 3.227 1.099 0 2.197 0 3.296 0 0-1.030 0-2.129 0-3.159 1.923 0 3.777 0 5.7 0 0 1.099 0 2.129 0 3.227 1.099 0 2.129 0 3.227 0 0-1.099 0-2.129 0-3.227 1.099 0 2.197 0 3.296 0 0 0.206 0 0.412 0 0.618 0 3.433 0.069 6.798 0.069 10.232 0 1.442 0.137 2.815 0.618 4.189 0.206 0.618 0.343 1.305 0.549 2.060-7.073-0.069-14.009-0.069-21.082-0.069z"></path>
</svg>
