<?xml version="1.0" encoding="utf-8"?>
<!-- Generated by IcoMoon.io -->
<!DOCTYPE svg PUBLIC "-//W3C//DTD SVG 1.1//EN" "http://www.w3.org/Graphics/SVG/1.1/DTD/svg11.dtd">
<svg version="1.1" xmlns="http://www.w3.org/2000/svg" xmlns:xlink="http://www.w3.org/1999/xlink" width="32" height="32" viewBox="0 0 32 32">
<path d="M31.69 25.972c-0.274-2.44-2.396-4.385-4.855-4.442-1.315-0.031-2.473 0.393-3.48 1.236-0.067 0.056-0.11 0.145-0.232 0.051-0.755-0.584-1.519-1.157-2.322-1.767 0.491-0.074 0.922-0.13 1.348-0.205 1.649-0.291 3.247-0.741 4.712-1.579 0.838-0.479 1.58-1.071 2.19-1.827 0.821-1.019 1.055-2.205 1.017-3.472-0.005-0.152 0.027-0.283 0.095-0.421 0.234-0.479 0.232-0.956-0.088-1.403-0.061-0.085-0.074-0.169-0.071-0.267 0.048-1.759 0.090-3.518 0.141-5.278 0.019-0.637-0.297-1.148-0.893-1.39-0.118-0.048-0.206-0.125-0.293-0.21-1.232-1.195-2.463-2.391-3.696-3.585-0.088-0.085-0.16-0.178-0.224-0.284-0.304-0.503-0.845-0.766-1.394-0.664-0.182 0.034-0.361 0.042-0.544 0.042-0.784 0.001-1.568-0.003-2.353 0.005-0.172 0.002-0.312-0.039-0.455-0.139-0.518-0.362-1.049-0.361-1.583-0.022-0.119 0.075-0.189 0.168-0.202 0.313-0.136 1.518-0.278 3.035-0.415 4.552-0.18 1.986-0.36 3.972-0.535 5.958-0.012 0.141-0.064 0.209-0.197 0.255-0.482 0.17-0.775 0.524-0.878 1.015-0.037 0.173-0.096 0.205-0.251 0.193-0.694-0.055-1.39-0.104-2.084-0.151-2.433-0.164-4.866-0.327-7.299-0.486-0.208-0.014-0.38-0.081-0.545-0.207-0.821-0.629-1.637-1.268-2.478-1.87-0.539-0.386-0.877-0.903-1.141-1.489-0.048-0.107-0.030-0.178 0.043-0.275 0.487-0.651 0.217-1.39-0.572-1.587-0.569-0.142-1.092-0.010-1.558 0.318-0.357 0.252-0.599 0.598-0.533 1.062 0.065 0.461 0.389 0.699 0.815 0.808 0.122 0.031 0.135 0.11 0.169 0.2 0.358 0.954 0.946 1.735 1.775 2.325 0.629 0.449 1.252 0.912 1.916 1.305 0.464 0.274 0.687 0.594 0.62 1.137-0.033 0.265 0.011 0.539 0.031 0.808 0.035 0.469 0.087 0.932 0.279 1.372 0.487 1.112 1.249 2.001 2.202 2.732 1.751 1.343 3.786 1.967 5.927 2.308 0.511 0.081 1.026 0.131 1.581 0.201-0.756 0.575-1.483 1.123-2.205 1.678-0.117 0.090-0.166 0.001-0.236-0.057-1.253-1.032-2.677-1.467-4.28-1.139-1.876 0.384-3.176 1.495-3.811 3.299-0.636 1.81-0.306 3.506 0.938 4.952 1.275 1.481 2.942 2.058 4.86 1.654 1.944-0.409 3.212-1.632 3.82-3.523 0.058-0.179 0.126-0.221 0.301-0.221 2.248 0.006 4.495 0.007 6.743-0.001 0.19-0.001 0.259 0.055 0.314 0.24 0.712 2.409 3.127 3.952 5.573 3.573 2.746-0.426 4.602-2.864 4.291-5.635zM22.564 23.291c0.060 0.045 0.209 0.070 0.108 0.202-0.104 0.136-0.164-0.008-0.224-0.053-0.958-0.72-1.912-1.445-2.866-2.169-0.032-0.025-0.065-0.049-0.117-0.088 0.166-0.054 0.279-0.037 0.404 0.059 0.896 0.687 1.798 1.365 2.695 2.049zM29.604 12.884c0.007 0.285-0.065 0.384-0.282 0.373-1.566-0.081-4.84-0.278-4.844-0.29 1.039-0.090 2.142-0.185 3.181-0.275 0.547-0.048 1.093-0.095 1.639-0.143 0.216-0.019 0.299 0.071 0.305 0.335zM22.842 12.383c-1.11 0.095-2.22 0.196-3.33 0.289-0.076 0.006-0.191 0.088-0.232-0.069-0.038-0.149 0.092-0.146 0.164-0.184 2.565-1.324 5.131-2.644 7.696-3.966 0.739-0.381 1.475-0.764 2.261-1.172-0.041 1.501-0.082 2.955-0.117 4.409-0.003 0.13-0.056 0.154-0.17 0.163-2.091 0.174-4.181 0.35-6.272 0.529zM29.16 5.946c0.151 0.123 0.25 0.276 0.259 0.464s-4.791 2.551-4.884 2.499c1.419-0.966 2.838-1.932 4.258-2.895 0.107-0.073 0.21-0.197 0.367-0.069zM24.898 2.056c1.145 1.111 2.254 2.193 3.371 3.266 0.164 0.157 0.003 0.183-0.071 0.233-1.327 0.903-2.658 1.803-3.987 2.704-1.68 1.14-5.15 3.494-5.237 3.504 1.97-3.228 3.94-6.456 5.924-9.707zM23.612 1.438c0.052-0.112 0.076-0.259 0.272-0.28 0.204-0.022 0.396 0.088 0.485 0.268 0.041 0.082-0.024 0.161-0.063 0.224-0.782 1.287-2.615 4.187-2.737 4.337 0.69-1.517 1.349-3.034 2.043-4.548zM19.109 2.035c0.029-0.329 0.063-0.657 0.085-0.986 0.020-0.295 0.243-0.239 0.404-0.212 0.149 0.026 0.37 0.039 0.307 0.311-0.349 1.511-1.073 4.708-1.088 4.795l-0.058-0.054c0.021-0.159 0.252-2.728 0.35-3.853zM18.628 9.924c0.641-2.818 1.285-5.636 1.922-8.455 0.041-0.183 0.114-0.244 0.306-0.24 0.679 0.014 1.357 0.005 2.080 0.005-1.527 3.356-3.035 6.67-4.544 9.983-0.016-0.005-0.032-0.010-0.048-0.015 0.094-0.426 0.186-0.853 0.283-1.278zM17.866 12.046c0.389 0 0.694 0.301 0.698 0.687 0.004 0.4-0.303 0.713-0.701 0.713-0.383-0.001-0.698-0.308-0.705-0.69-0.008-0.391 0.311-0.711 0.707-0.71zM0.796 7.873c-0.068-0.241 0.162-0.356 0.333-0.468 0.252-0.165 0.535-0.187 0.824-0.145 0.121 0.017 0.241 0.071 0.289 0.193 0.053 0.132-0.033 0.23-0.121 0.318-0.225 0.228-0.502 0.327-0.82 0.325-0.199-0.008-0.441 0.001-0.504-0.223zM5.781 12.403c-0.058 0.038-0.099-0.013-0.138-0.039-0.338-0.229-0.673-0.462-1.010-0.693-0.444-0.305-0.889-0.608-1.33-0.916-0.672-0.47-1.158-1.094-1.507-1.83-0.037-0.078-0.077-0.171 0.058-0.19 0.064-0.009 0.146-0.116 0.202 0.036 0.361 0.969 1.108 1.592 1.925 2.162 0.592 0.412 1.155 0.866 1.73 1.301 0.041 0.031 0.076 0.069 0.117 0.106-0.018 0.026-0.028 0.052-0.048 0.065zM11.264 19.593c-1.345-0.462-2.575-1.124-3.606-2.12-0.421-0.407-0.765-0.873-1.085-1.363-0.421-0.647-0.461-1.371-0.493-2.103-0.006-0.139 0.014-0.283-0.015-0.417-0.081-0.372 0.141-0.599 0.362-0.835 0.075-0.080 0.157-0.061 0.241-0.055 1.338 0.090 2.676 0.181 4.014 0.273 1.416 0.097 2.832 0.196 4.249 0.293 0.512 0.036 1.025 0.074 1.538 0.101 0.104 0.005 0.147 0.052 0.199 0.127 0.594 0.863 1.685 0.906 2.334 0.088 0.079-0.1 0.152-0.118 0.262-0.112 1.235 0.063 2.471 0.122 3.706 0.185 1.549 0.079 3.097 0.16 4.645 0.24 0.522 0.027 1.044 0.057 1.566 0.079 0.128 0.006 0.169 0.042 0.175 0.183 0.059 1.377-0.44 2.509-1.453 3.432-0.648 0.591-1.374 1.058-2.166 1.427-1.478 0.69-3.045 1.052-4.655 1.26-1.159 0.15-2.323 0.215-3.492 0.216-2.151 0.006-4.274-0.194-6.325-0.899zM9.612 30.937c-2.385-0.003-4.326-1.941-4.335-4.328-0.010-2.397 1.934-4.352 4.332-4.356 2.394-0.005 4.35 1.947 4.352 4.34 0.002 2.39-1.958 4.347-4.349 4.344zM13.795 23.496c-0.070 0.062-0.122 0.083-0.188-0.005-0.076-0.103 0.029-0.112 0.072-0.145 0.635-0.485 1.272-0.968 1.908-1.451 0.249-0.189 0.504-0.37 0.746-0.569 0.125-0.104 0.249-0.151 0.451-0.095-0.93 0.705-1.834 1.391-2.738 2.076-0.083 0.063-0.171 0.12-0.249 0.188zM21.631 26.996c-0.012 0.145-0.135 0.076-0.205 0.076-1.096 0.005-2.192 0.004-3.288 0.003-1.087 0-2.175 0.002-3.263-0.004-0.074 0-0.213 0.074-0.215-0.088-0.002-0.161 0.137-0.099 0.216-0.099 2.184-0.003 4.367-0.002 6.551 0.001 0.083 0 0.217-0.051 0.203 0.112zM22.176 24.278c-0.292 0.559-0.471 1.154-0.531 1.782-0.016 0.166-0.13 0.109-0.21 0.11-1.097 0.003-2.195 0.002-3.292 0.002-1.089 0-2.177-0.004-3.266 0.004-0.174 0.002-0.227-0.037-0.247-0.221-0.061-0.545-0.21-1.072-0.464-1.561-0.074-0.144-0.082-0.223 0.064-0.332 1.224-0.918 2.441-1.845 3.661-2.768 0.172-0.131 0.358-0.132 0.526-0.005 1.235 0.933 2.466 1.869 3.7 2.803 0.069 0.052 0.111 0.086 0.060 0.186zM26.691 30.937c-2.399 0.012-4.371-1.955-4.366-4.354 0.005-2.377 1.955-4.324 4.337-4.33 2.395-0.006 4.35 1.945 4.348 4.34-0.002 2.39-1.933 4.332-4.319 4.344z"></path>
<path d="M9.616 22.637c-2.161 0.004-3.955 1.797-3.955 3.955-0.001 2.161 1.793 3.953 3.955 3.952 2.167-0.002 3.944-1.779 3.952-3.951 0.007-2.154-1.796-3.96-3.951-3.956zM9.982 24.298c0-0.243 0.005-0.487-0.002-0.729-0.004-0.127 0.015-0.19 0.167-0.165 0.506 0.083 0.957 0.288 1.374 0.58 0.104 0.073 0.081 0.122 0.004 0.198-0.359 0.353-0.72 0.706-1.067 1.071-0.116 0.122-0.197 0.033-0.295 0.003-0.102-0.031-0.191-0.056-0.184-0.202 0.013-0.251 0.004-0.504 0.004-0.756zM9.042 23.41c0.162-0.031 0.224 0.002 0.218 0.186-0.014 0.469-0.019 0.939 0.003 1.407 0.009 0.201-0.123 0.209-0.237 0.275-0.125 0.073-0.196 0.026-0.284-0.064-0.375-0.384-0.759-0.761-1.141-1.142 0.435-0.348 0.913-0.559 1.441-0.662zM6.432 26.026c0.099-0.491 0.284-0.941 0.583-1.345 0.063-0.085 0.096-0.088 0.168-0.015 0.365 0.371 0.731 0.742 1.106 1.103 0.128 0.123-0.002 0.198-0.023 0.294-0.021 0.097-0.047 0.176-0.18 0.171-0.26-0.010-0.521-0.003-0.781-0.003-0.226 0-0.452-0.010-0.677 0.003-0.166 0.009-0.232-0.028-0.196-0.209zM7.011 28.504c-0.288-0.411-0.487-0.856-0.579-1.351-0.032-0.169 0.023-0.209 0.184-0.199 0.235 0.014 0.47 0.003 0.705 0.003 0.209 0 0.419 0.016 0.626-0.004 0.197-0.019 0.298 0.043 0.358 0.235 0.036 0.113 0.041 0.179-0.050 0.267-0.357 0.345-0.705 0.698-1.054 1.051-0.071 0.071-0.114 0.108-0.191-0.002zM9.087 29.784c-0.492-0.090-0.943-0.278-1.353-0.565-0.102-0.072-0.116-0.122-0.018-0.217 0.361-0.35 0.719-0.705 1.068-1.069 0.129-0.135 0.213-0.003 0.319 0.015 0.113 0.018 0.159 0.071 0.155 0.192-0.008 0.26-0.003 0.521-0.003 0.781 0 0.235-0.007 0.469 0.003 0.703 0.006 0.137-0.031 0.186-0.171 0.16zM8.886 26.59c0.003-0.42 0.326-0.735 0.747-0.728 0.4 0.006 0.725 0.337 0.72 0.733-0.005 0.401-0.332 0.732-0.725 0.734-0.415 0.001-0.744-0.327-0.742-0.739zM11.488 29.231c-0.407 0.277-0.848 0.463-1.332 0.552-0.13 0.024-0.187-0.005-0.179-0.154 0.013-0.243 0.004-0.486 0.004-0.729 0-0.209-0.007-0.417 0.003-0.625 0.006-0.122-0.062-0.256 0.141-0.337 0.199-0.078 0.302-0.041 0.435 0.101 0.303 0.323 0.62 0.633 0.938 0.941 0.105 0.101 0.124 0.159-0.010 0.25zM12.805 27.134c-0.088 0.484-0.271 0.927-0.553 1.331-0.072 0.102-0.123 0.141-0.232 0.028-0.343-0.357-0.693-0.707-1.050-1.049-0.1-0.096-0.086-0.17-0.030-0.27 0.055-0.097 0.046-0.236 0.23-0.222 0.25 0.019 0.503 0.005 0.755 0.005 0.243 0 0.487 0.010 0.729-0.004 0.154-0.008 0.173 0.055 0.151 0.181zM12.651 26.235c-0.251-0.013-0.503-0.004-0.755-0.004-0.2 0.001-0.4-0.009-0.599 0.003-0.18 0.011-0.29-0.018-0.372-0.216-0.085-0.204 0.049-0.265 0.143-0.36 0.311-0.316 0.629-0.624 0.937-0.943 0.101-0.106 0.161-0.123 0.252 0.011 0.276 0.407 0.462 0.849 0.55 1.333 0.024 0.133-0.010 0.182-0.155 0.176z"></path>
<path d="M26.666 22.637c-2.166 0.010-3.957 1.808-3.944 3.961 0.013 2.179 1.791 3.952 3.954 3.944 2.171-0.008 3.96-1.799 3.95-3.955-0.010-2.164-1.81-3.96-3.961-3.95zM27.026 23.55c-0.004-0.165 0.069-0.161 0.185-0.142 0.542 0.089 1.024 0.31 1.478 0.667-0.403 0.399-0.797 0.779-1.177 1.173-0.101 0.105-0.171 0.066-0.268 0.018-0.102-0.051-0.225-0.049-0.22-0.23 0.015-0.495 0.013-0.991 0.001-1.486zM24.784 23.97c0.398-0.272 0.828-0.467 1.303-0.558 0.153-0.030 0.239-0.014 0.224 0.182-0.019 0.233-0.004 0.469-0.004 0.704 0 0.243-0.006 0.487 0.002 0.73 0.004 0.123-0.028 0.191-0.157 0.222-0.117 0.028-0.21 0.127-0.339-0.012-0.332-0.355-0.682-0.694-1.030-1.035-0.089-0.088-0.126-0.145 0.003-0.233zM23.479 26.069c0.088-0.494 0.275-0.945 0.564-1.356 0.070-0.099 0.119-0.122 0.216-0.022 0.351 0.362 0.708 0.718 1.070 1.069 0.088 0.085 0.087 0.156 0.027 0.247s-0.038 0.243-0.225 0.23c-0.25-0.018-0.503-0.004-0.755-0.004s-0.505-0.008-0.756 0.003c-0.139 0.006-0.16-0.050-0.14-0.166zM24.023 28.454c-0.269-0.401-0.45-0.835-0.541-1.309-0.028-0.148 0.009-0.199 0.165-0.191 0.242 0.013 0.486 0.003 0.729 0.003 0.209 0 0.417 0.008 0.625-0.003 0.169-0.009 0.269 0.019 0.351 0.204 0.087 0.198-0.026 0.266-0.124 0.365-0.312 0.314-0.631 0.622-0.936 0.942-0.11 0.115-0.17 0.134-0.269-0.012zM26.307 28.893c0 0.243-0.011 0.487 0.004 0.729 0.010 0.172-0.067 0.183-0.199 0.158-0.483-0.094-0.926-0.278-1.328-0.563-0.102-0.072-0.117-0.12-0.019-0.215 0.362-0.351 0.719-0.705 1.068-1.070 0.105-0.109 0.182-0.050 0.273-0.009 0.096 0.043 0.218 0.044 0.206 0.213-0.017 0.251-0.004 0.503-0.004 0.755zM25.934 26.591c-0.003-0.394 0.327-0.725 0.726-0.729 0.419-0.004 0.742 0.315 0.742 0.733-0.001 0.404-0.316 0.725-0.721 0.735-0.399 0.009-0.744-0.332-0.747-0.739zM28.522 29.244c-0.395 0.262-0.821 0.445-1.287 0.535-0.141 0.027-0.227 0.021-0.21-0.17 0.020-0.233 0.005-0.469 0.005-0.704 0-0.209-0.008-0.418 0.003-0.626 0.006-0.122-0.065-0.257 0.139-0.338 0.199-0.080 0.302-0.045 0.437 0.099 0.303 0.324 0.617 0.638 0.941 0.942 0.131 0.123 0.102 0.178-0.027 0.263zM29.852 27.146c-0.090 0.541-0.311 1.022-0.663 1.463-0.4-0.4-0.79-0.798-1.189-1.186-0.1-0.097-0.044-0.167-0.002-0.248 0.047-0.090 0.029-0.224 0.202-0.221 0.505 0.009 1.011 0.011 1.516-0.001 0.176-0.004 0.154 0.086 0.136 0.193zM29.671 26.237c-0.469-0.016-0.939-0.020-1.408 0.002-0.199 0.009-0.211-0.119-0.277-0.234-0.070-0.124-0.031-0.194 0.061-0.284 0.385-0.377 0.761-0.762 1.142-1.145 0.348 0.434 0.561 0.911 0.663 1.439 0.030 0.156 0.012 0.228-0.181 0.222z"></path>
</svg>
