<?xml version="1.0" encoding="utf-8"?>
<!-- Generated by IcoMoon.io -->
<!DOCTYPE svg PUBLIC "-//W3C//DTD SVG 1.1//EN" "http://www.w3.org/Graphics/SVG/1.1/DTD/svg11.dtd">
<svg version="1.1" xmlns="http://www.w3.org/2000/svg" xmlns:xlink="http://www.w3.org/1999/xlink" width="32" height="32" viewBox="0 0 32 32">
<path d="M1.439 26.344c0.2 1.465 1.132 2.463 2.33 3.196 1.398 0.932 2.996 1.398 4.593 1.731 2.41 0.521 4.885 0.66 7.61 0.728v0.001c0.009-0 0.018-0 0.028-0.001s0.018 0 0.028 0.001v-0.001c2.725-0.068 5.2-0.206 7.61-0.728 1.598-0.333 3.195-0.799 4.593-1.731 1.199-0.732 2.13-1.731 2.33-3.196 0.066-0.732 0-1.531-0.133-2.264-0.466-2.197-1.798-3.661-3.662-4.793-1.398-0.799-2.863-1.332-4.327-1.798-0.932-0.266-1.465-0.865-1.864-1.731-0.067-0.2-0.067-0.333 0.066-0.466 0.466-0.666 0.999-1.265 1.331-1.997 0.732-1.332 0.999-2.796 1.132-4.327 0.133-1.198 0.2-2.397-0.133-3.595-0.858-3.203-3.731-5.374-6.972-5.331-3.241-0.043-6.114 2.128-6.972 5.331-0.333 1.198-0.266 2.397-0.133 3.595 0.133 1.531 0.399 2.996 1.132 4.327 0.333 0.732 0.865 1.331 1.331 1.997 0.133 0.133 0.133 0.266 0.066 0.466-0.399 0.865-0.932 1.465-1.864 1.731-1.464 0.466-2.929 0.999-4.327 1.798-1.864 1.132-3.195 2.596-3.662 4.793-0.133 0.732-0.2 1.531-0.133 2.264zM20.309 7.637c-0.067 1.398-0.2 2.796-0.733 4.128-0.2 0.533-0.466 0.999-0.799 1.398-0.72 0.949-1.747 1.415-2.778 1.423-1.031-0.007-2.058-0.473-2.778-1.423-0.333-0.399-0.599-0.865-0.799-1.398-0.533-1.332-0.666-2.729-0.733-4.128 0.067-0.399 0.067-0.799 0.133-1.199 0.332-2.058 2.054-3.454 4.176-3.462 2.122 0.008 3.844 1.404 4.176 3.462 0.066 0.399 0.066 0.799 0.133 1.199zM5.3 23.215c0.533-0.732 1.265-1.198 2.064-1.598 1.065-0.533 2.197-0.999 3.329-1.398 1.398-0.533 2.463-1.465 3.129-2.796 0.133-0.133 0.133-0.2 0.2-0.333 0.65 0.228 1.301 0.344 1.951 0.349v0.001c0.009 0 0.018-0 0.028-0s0.018 0 0.028 0v-0.001c0.651-0.005 1.301-0.121 1.951-0.349 0.067 0.133 0.067 0.2 0.2 0.333 0.666 1.331 1.731 2.263 3.129 2.796 1.132 0.399 2.264 0.865 3.329 1.398 0.799 0.399 1.531 0.865 2.064 1.598 0.666 0.865 0.932 1.931 0.865 2.996 0 0.2-0.2 0.533-0.399 0.666-0.533 0.266-1.065 0.599-1.598 0.799-1.598 0.599-3.262 0.865-4.927 1.065-1.538 0.213-3.076 0.317-4.614 0.312v-0c-0.009 0-0.018-0-0.028 0s-0.018 0-0.028-0v0c-1.538 0.005-3.076-0.098-4.614-0.312-1.664-0.2-3.329-0.466-4.927-1.065-0.532-0.2-1.065-0.533-1.598-0.799-0.2-0.133-0.399-0.466-0.399-0.666-0.066-1.065 0.2-2.13 0.865-2.996z"></path>
</svg>
